<svg xmlns="http://www.w3.org/2000/svg" width="110" height="24" fill="none" viewBox="0 0 110 24"><g clip-path="url(#clip0_470_3955)"><path fill="url(#paint0_linear_470_3955)" d="M34.8131 0H39.0522L38.9878 13.9652L46.559 5.28116H51.3706L45.0795 12.4149L51.7437 23.5561H46.8292L42.2491 15.6441L38.9814 19.3492L39.0457 23.5561H34.8066V0H34.8131Z"/><path fill="url(#paint1_linear_470_3955)" d="M52.4126 0H56.7224V23.5561H52.4126V0Z"/><path fill="url(#paint2_linear_470_3955)" d="M58.2021 18.9119C58.2021 15.3096 61.9716 14.1003 65.8441 12.9231C68.7066 12.0483 70.0831 11.3729 70.0831 10.0285C70.0831 8.68407 68.9381 7.90573 66.854 7.90573C64.4997 7.90573 62.9494 9.25014 62.5441 11.508H58.5752C59.1156 7.57123 62.3447 4.87598 66.9569 4.87598C71.5691 4.87598 74.3287 7.06306 74.3287 11.1349V23.5562H70.0896V21.5042C68.7066 23.0159 66.6546 23.8586 64.3324 23.8586C60.5629 23.8586 58.2086 21.9095 58.2086 18.9119H58.2021ZM65.4388 20.9639C67.1885 20.9639 69.0089 20.2563 70.0831 19.047V13.9974C69.3112 14.6342 68.0955 15.0395 66.7189 15.5091C64.2616 16.3196 62.4091 16.9564 62.4091 18.7704C62.4091 20.1855 63.5862 20.9575 65.4388 20.9575V20.9639Z"/><path fill="url(#paint3_linear_470_3955)" d="M74.084 5.28125H78.6254L81.0505 12.3121L83.437 19.3107L85.8621 12.3121L88.3193 5.28125H92.6613L85.7977 23.5562H80.954L74.0904 5.28125H74.084Z"/><path fill="url(#paint4_linear_470_3955)" d="M92.0566 14.441C92.0566 8.51661 95.6911 4.81787 100.908 4.81787C105.855 4.81787 109.56 8.3172 109.56 14.5118V14.8463H96.3022C96.4372 18.783 98.1869 20.9058 100.914 20.9058C103.134 20.9058 104.684 19.4906 105.288 16.731H109.36C108.55 21.311 105.456 23.9999 100.882 23.9999C95.6332 23.9999 92.0631 20.3976 92.0631 14.441H92.0566ZM96.463 12.2861H105.25C104.677 9.42361 103.095 7.91195 100.876 7.91195C98.6565 7.91195 97.0033 9.4622 96.4694 12.2861H96.463Z"/><path fill="url(#paint5_linear_470_3955)" d="M11.7974 5.89869C15.0523 5.89869 17.6961 8.53605 17.6961 11.7974H23.5947C23.5883 5.28116 18.3072 0 11.7974 0C5.28759 0 0 5.28116 0 11.7974H5.89869C5.89869 8.54248 8.53605 5.89869 11.7974 5.89869Z"/><path fill="url(#paint6_linear_470_3955)" d="M5.89869 11.7974C5.89869 15.0523 3.25489 17.6897 0 17.6897V23.5884C6.51622 23.5884 11.7974 18.3072 11.7974 11.791H5.89869V11.7974Z"/><path fill="url(#paint7_linear_470_3955)" d="M23.5884 17.6897C20.3335 17.6897 17.6897 15.0523 17.6897 11.791H11.791C11.791 18.3072 17.0722 23.5884 23.5884 23.5884V17.6897Z"/></g><defs><linearGradient id="paint0_linear_470_3955" x1="-2.007" x2="114.474" y1="11.778" y2="11.778" gradientUnits="userSpaceOnUse"><stop stop-color="#00FFD5"/><stop offset="1" stop-color="#00BFFF"/></linearGradient><linearGradient id="paint1_linear_470_3955" x1="-2.007" x2="114.474" y1="0" y2="0" gradientUnits="userSpaceOnUse"><stop stop-color="#00FFD5"/><stop offset="1" stop-color="#00BFFF"/></linearGradient><linearGradient id="paint2_linear_470_3955" x1="-2.007" x2="114.474" y1="14.37" y2="14.37" gradientUnits="userSpaceOnUse"><stop stop-color="#00FFD5"/><stop offset="1" stop-color="#00BFFF"/></linearGradient><linearGradient id="paint3_linear_470_3955" x1="-2.007" x2="114.474" y1="14.422" y2="14.422" gradientUnits="userSpaceOnUse"><stop stop-color="#00FFD5"/><stop offset="1" stop-color="#00BFFF"/></linearGradient><linearGradient id="paint4_linear_470_3955" x1="-2.007" x2="114.474" y1="14.402" y2="14.402" gradientUnits="userSpaceOnUse"><stop stop-color="#00FFD5"/><stop offset="1" stop-color="#00BFFF"/></linearGradient><linearGradient id="paint5_linear_470_3955" x1="-2.007" x2="114.474" y1="5.899" y2="5.899" gradientUnits="userSpaceOnUse"><stop stop-color="#00FFD5"/><stop offset="1" stop-color="#00BFFF"/></linearGradient><linearGradient id="paint6_linear_470_3955" x1="-2.007" x2="114.474" y1="17.69" y2="17.69" gradientUnits="userSpaceOnUse"><stop stop-color="#00FFD5"/><stop offset="1" stop-color="#00BFFF"/></linearGradient><linearGradient id="paint7_linear_470_3955" x1="-2.007" x2="114.474" y1="17.69" y2="17.69" gradientUnits="userSpaceOnUse"><stop stop-color="#00FFD5"/><stop offset="1" stop-color="#00BFFF"/></linearGradient><clipPath id="clip0_470_3955"><rect width="109.553" height="24" fill="#fff"/></clipPath></defs></svg>