<?xml version="1.0" encoding="UTF-8"?>
<svg id="Layer_1" xmlns="http://www.w3.org/2000/svg" version="1.1" viewBox="0 0 118.4 26.3">
  <!-- Generator: Adobe Illustrator 29.0.0, SVG Export Plug-In . SVG Version: 2.1.0 Build 186)  -->
  <g>
    <path d="M12.8,7.1c3.5,0,6.4,2.9,6.4,6.4h6.4C25.6,6.4,19.9.7,12.8.7S0,6.4,0,13.5h6.4c0-3.5,2.9-6.4,6.4-6.4Z"/>
    <path d="M6.4,13.5C6.4,17,3.5,19.9,0,19.9v6.4c7.1,0,12.8-5.7,12.8-12.8h-6.4Z"/>
    <path d="M25.6,19.9c-3.5,0-6.4-2.9-6.4-6.4h-6.4c0,7.1,5.7,12.8,12.8,12.8v-6.4Z"/>
  </g>
  <g>
    <path d="M37.6,15.8c0-6.4,3.5-10.4,8.7-10.4s5,1.3,6.4,3.6V0h4.7v25.8h-4.7v-3.2c-1.4,2.3-3.7,3.6-6.4,3.6-5.2,0-8.7-3.9-8.7-10.4ZM52.7,15.8c0-4.6-2.1-7-5.2-7s-5.1,2.4-5.1,7,2,7,5.1,7,5.2-2.4,5.2-7Z"/>
    <path d="M59.2,15.8c0-6.6,4-10.6,9.9-10.6s9.9,3.9,9.9,10.6-3.9,10.5-9.9,10.5-9.9-3.9-9.9-10.5ZM74.2,15.8c0-4.6-2-7-5.2-7s-5.1,2.4-5.1,7,2,7,5.1,7,5.2-2.4,5.2-7Z"/>
    <path d="M80.3,15.8c0-6.6,3.9-10.6,9.7-10.6s8.7,3.1,9.4,8.5h-4.5c-.5-3.3-2.3-5.1-4.9-5.1s-5,2.4-5,7,2,7,5,7,4.5-1.8,4.9-5.4h4.5c-.6,5.6-4.2,8.8-9.4,8.8s-9.7-3.9-9.7-10.5Z"/>
    <path d="M100.5,18.7h4.4c.5,2.9,2.3,4.3,5,4.3s3.9-1,3.9-2.5-2.1-2.5-4.6-3.1c-3.8-.9-8.4-1.8-8.4-6.2s3-5.9,8-5.9,8.6,2.6,9.3,7.1h-4.3c-.6-2.7-2.4-3.8-5-3.8s-3.6,1-3.6,2.2c0,1.8,2.4,2.4,5.1,3,3.7.9,8,1.9,8,6.2s-3.2,6.2-8.4,6.2-8.8-2.5-9.5-7.6Z"/>
  </g>
</svg>