<?xml version="1.0" encoding="UTF-8"?>
<svg id="Layer_1" data-name="Layer 1" xmlns="http://www.w3.org/2000/svg" viewBox="0 0 118.41 26.31">
  <defs>
    <style>
      .cls-1 {
        fill: #fff;
      }
    </style>
  </defs>
  <g>
    <path class="cls-1" d="M12.81,7.09c3.54,0,6.41,2.87,6.41,6.41h6.41C25.62,6.42,19.89.69,12.81.69S0,6.42,0,13.5h6.41c0-3.54,2.87-6.41,6.41-6.41Z"/>
    <path class="cls-1" d="M6.41,13.5C6.41,17.04,3.54,19.91,0,19.91v6.41c7.08,0,12.81-5.74,12.81-12.81h-6.41Z"/>
    <path class="cls-1" d="M25.62,19.91c-3.54,0-6.41-2.87-6.41-6.41h-6.41c0,7.08,5.74,12.81,12.81,12.81v-6.41Z"/>
  </g>
  <g>
    <path class="cls-1" d="M37.64,15.83c0-6.38,3.51-10.44,8.67-10.44,2.73,0,4.98,1.29,6.42,3.62V0h4.72v25.83h-4.72v-3.17c-1.44,2.32-3.69,3.58-6.42,3.58-5.2,0-8.67-3.95-8.67-10.41ZM52.73,15.83c0-4.61-2.07-7.05-5.24-7.05s-5.13,2.44-5.13,7.01,1.99,7.05,5.13,7.05,5.24-2.44,5.24-7.01Z"/>
    <path class="cls-1" d="M59.15,15.83c0-6.64,3.99-10.55,9.85-10.55s9.89,3.91,9.89,10.55-3.95,10.48-9.89,10.48-9.85-3.91-9.85-10.48ZM74.17,15.79c0-4.61-2.03-7.05-5.17-7.05s-5.13,2.44-5.13,7.05,2.03,7.05,5.13,7.05,5.17-2.4,5.17-7.05Z"/>
    <path class="cls-1" d="M80.33,15.83c0-6.64,3.95-10.55,9.74-10.55,5.09,0,8.75,3.1,9.41,8.52h-4.5c-.52-3.32-2.32-5.06-4.91-5.06-3.03,0-5.02,2.44-5.02,7.05s1.99,7.05,5.02,7.05c2.66,0,4.5-1.85,4.94-5.35h4.47c-.55,5.61-4.17,8.82-9.41,8.82-5.83,0-9.74-3.87-9.74-10.48Z"/>
    <path class="cls-1" d="M100.55,18.71h4.39c.52,2.88,2.29,4.32,4.98,4.32s3.95-1.03,3.95-2.47c0-1.81-2.1-2.47-4.61-3.06-3.76-.92-8.41-1.77-8.41-6.24,0-3.4,3.03-5.94,8.04-5.94s8.6,2.62,9.34,7.12h-4.32c-.63-2.66-2.36-3.84-4.98-3.84-2.32,0-3.58,1-3.58,2.21,0,1.81,2.36,2.36,5.09,3.03,3.69.89,7.97,1.88,7.97,6.24,0,3.51-3.17,6.24-8.38,6.24s-8.78-2.51-9.48-7.6Z"/>
  </g>
</svg>