<svg version="1.1" xmlns="http://www.w3.org/2000/svg" viewBox="0 0 951 830" width="951" height="830">
  <!-- svg-source:excalidraw -->
  
  <defs>
    <style class="style-fonts">
      @font-face {
        font-family: "Virgil";
        src: url("https://excalidraw.com/Virgil.woff2");
      }
      @font-face {
        font-family: "Cascadia";
        src: url("https://excalidraw.com/Cascadia.woff2");
      }
    </style>
  </defs>
  <g stroke-linecap="round" transform="translate(530 472.5) rotate(0 205 144.5)"><path d="M32 0 M32 0 C168.86 0.96, 306.27 3.53, 378 0 M32 0 C120.26 -1.53, 207.22 -2.18, 378 0 M378 0 C397.7 0.26, 408.93 12.65, 410 32 M378 0 C398.59 2.24, 408.91 12.88, 410 32 M410 32 C406.91 78.43, 409.23 126.99, 410 257 M410 32 C410.87 101.95, 410.57 173.83, 410 257 M410 257 C408.51 279.17, 399.27 287.67, 378 289 M410 257 C409.36 279.83, 401.62 286.78, 378 289 M378 289 C262.66 290.2, 149.22 288.76, 32 289 M378 289 C251.42 288.76, 125.76 288.89, 32 289 M32 289 C9.59 290.18, -0.02 276.41, 0 257 M32 289 C8.67 289.49, -1.49 280.3, 0 257 M0 257 C0.11 194.61, 0.72 131.16, 0 32 M0 257 C1.23 182.39, 2.1 107.73, 0 32 M0 32 C-0.93 9.09, 11.42 1.45, 32 0 M0 32 C0.65 11.68, 10.45 1.02, 32 0" stroke="#1971c2" stroke-width="1" fill="none"></path></g><g transform="translate(597.4333343505859 477.5) rotate(0 137.56666564941406 10)"><text x="137.56666564941406" y="0" font-family="Virgil, Segoe UI Emoji" font-size="16px" fill="#1971c2" text-anchor="middle" style="white-space: pre;" direction="ltr" dominant-baseline="text-before-edge">Intel SGX Capable Platform or VM</text></g><g stroke-linecap="round" transform="translate(11 10) rotate(0 197.5 102)"><path d="M32 0 M32 0 C100.73 -2.21, 166.89 -2.05, 363 0 M32 0 C141.56 0.22, 251.97 -0.38, 363 0 M363 0 C383.03 0.07, 396.53 11.6, 395 32 M363 0 C383.48 1.28, 396.8 9.4, 395 32 M395 32 C394.21 72.97, 392.45 110.14, 395 172 M395 32 C394.61 83.26, 395.09 135.3, 395 172 M395 172 C393.51 193.94, 383.22 203.29, 363 204 M395 172 C394.43 195.11, 384.32 201.85, 363 204 M363 204 C277.33 201.35, 188.39 201.2, 32 204 M363 204 C261.78 201.29, 161.95 201.5, 32 204 M32 204 C10.3 204.44, 1.93 194.96, 0 172 M32 204 C8.42 206.19, -2.16 194.37, 0 172 M0 172 C0.44 135.51, 1.62 99.2, 0 32 M0 172 C0.64 127.55, 0.02 83.92, 0 32 M0 32 C-0.16 12.1, 10.59 -0.5, 32 0 M0 32 C-0.19 8.6, 9.27 0.58, 32 0" stroke="#1971c2" stroke-width="1" fill="none"></path></g><g transform="translate(16 15) rotate(0 33.06666564941406 10)"><text x="0" y="0" font-family="Virgil, Segoe UI Emoji" font-size="16px" fill="#1971c2" text-anchor="start" style="white-space: pre;" direction="ltr" dominant-baseline="text-before-edge">Internet</text></g><g stroke-linecap="round" transform="translate(104 64) rotate(0 119.5 57)"><path d="M28.5 0 M28.5 0 C89.98 1.26, 154.79 0.01, 210.5 0 M28.5 0 C89.01 -1.55, 149.51 -2.2, 210.5 0 M210.5 0 C228.28 0.51, 239.63 10.44, 239 28.5 M210.5 0 C230.6 -0.51, 239.15 11.59, 239 28.5 M239 28.5 C239.19 41.17, 240.72 52.47, 239 85.5 M239 28.5 C239.38 45.17, 238.25 62.14, 239 85.5 M239 85.5 C240.72 102.54, 228.71 114.17, 210.5 114 M239 85.5 C241.01 104.66, 229.97 113, 210.5 114 M210.5 114 C158.26 113.9, 103.46 116.12, 28.5 114 M210.5 114 C157.86 116.43, 104.64 116.11, 28.5 114 M28.5 114 C9.8 114.69, 0.55 105.84, 0 85.5 M28.5 114 C10.55 112.26, -0.33 106.16, 0 85.5 M0 85.5 C-1.8 67.54, 0.3 49.04, 0 28.5 M0 85.5 C0.29 71.91, 0.69 58.82, 0 28.5 M0 28.5 C0.22 7.54, 10.09 0.97, 28.5 0 M0 28.5 C0.94 10.45, 10.68 1.76, 28.5 0" stroke="#1971c2" stroke-width="1" fill="none"></path></g><g transform="translate(133.5999984741211 91) rotate(0 89.9000015258789 30)"><text x="89.9000015258789" y="0" font-family="Virgil, Segoe UI Emoji" font-size="16px" fill="#1971c2" text-anchor="middle" style="white-space: pre;" direction="ltr" dominant-baseline="text-before-edge">Intel SGX Provisioning </text><text x="89.9000015258789" y="20" font-family="Virgil, Segoe UI Emoji" font-size="16px" fill="#1971c2" text-anchor="middle" style="white-space: pre;" direction="ltr" dominant-baseline="text-before-edge">Certification Service</text><text x="89.9000015258789" y="40" font-family="Virgil, Segoe UI Emoji" font-size="16px" fill="#1971c2" text-anchor="middle" style="white-space: pre;" direction="ltr" dominant-baseline="text-before-edge">(Intel PCS)</text></g><g stroke-linecap="round" transform="translate(10 236) rotate(0 205 110.5)"><path d="M32 0 M32 0 C164.63 -0.24, 299.52 0.91, 378 0 M32 0 C163 0.88, 293.35 0.46, 378 0 M378 0 C398.83 -1.03, 411.19 9.81, 410 32 M378 0 C397.43 0.35, 409.94 10.83, 410 32 M410 32 C410.05 69, 409.37 105.79, 410 189 M410 32 C410.95 67.38, 409.62 100.88, 410 189 M410 189 C410.68 209.49, 399.85 220.58, 378 221 M410 189 C411.17 208.39, 401.4 220.76, 378 221 M378 221 C242.55 221.99, 107.61 222.62, 32 221 M378 221 C292.27 222.08, 207.97 221.91, 32 221 M32 221 C9.85 221.86, -0.26 209.33, 0 189 M32 221 C10.62 220.34, 0.76 210.11, 0 189 M0 189 C-0.2 146.02, 1.66 98.73, 0 32 M0 189 C0.52 152.82, 0.25 115.71, 0 32 M0 32 C0.93 12.11, 10.13 0.24, 32 0 M0 32 C0.75 11.58, 9.58 -1.8, 32 0" stroke="#1971c2" stroke-width="1" fill="none"></path></g><g transform="translate(15 241) rotate(0 55.36666488647461 10)"><text x="0" y="0" font-family="Virgil, Segoe UI Emoji" font-size="16px" fill="#1971c2" text-anchor="start" style="white-space: pre;" direction="ltr" dominant-baseline="text-before-edge">Local Network</text></g><g stroke-linecap="round" transform="translate(70 296) rotate(0 146.5 54.5)"><path d="M27.25 0 M27.25 0 C91.48 -0.84, 159.36 0.57, 265.75 0 M27.25 0 C120.17 -1.33, 214.68 -1.35, 265.75 0 M265.75 0 C285.72 0.02, 291.68 8.52, 293 27.25 M265.75 0 C282.04 -2.24, 292.29 8.47, 293 27.25 M293 27.25 C293.07 44.26, 292.81 57.5, 293 81.75 M293 27.25 C293.45 46.47, 292.89 65.3, 293 81.75 M293 81.75 C293.87 99.83, 284.26 107.85, 265.75 109 M293 81.75 C294.46 99.17, 283.15 106.94, 265.75 109 M265.75 109 C201.33 111.87, 140.44 110.31, 27.25 109 M265.75 109 C175.81 108.3, 87.36 109.01, 27.25 109 M27.25 109 C8.38 110.14, -1.48 100.57, 0 81.75 M27.25 109 C11.15 108.52, -1.64 100.35, 0 81.75 M0 81.75 C-0.79 67.69, -1.06 53.63, 0 27.25 M0 81.75 C-0.12 62.21, -1 42.78, 0 27.25 M0 27.25 C1.45 8.44, 7.38 0.93, 27.25 0 M0 27.25 C2.27 6.87, 7.07 1.51, 27.25 0" stroke="#f08c00" stroke-width="1" fill="none"></path></g><g transform="translate(107.66666412353516 330.5) rotate(0 108.83333587646484 20)"><text x="108.83333587646484" y="0" font-family="Virgil, Segoe UI Emoji" font-size="16px" fill="#f08c00" text-anchor="middle" style="white-space: pre;" direction="ltr" dominant-baseline="text-before-edge">Datacenter Caching Service</text><text x="108.83333587646484" y="20" font-family="Virgil, Segoe UI Emoji" font-size="16px" fill="#f08c00" text-anchor="middle" style="white-space: pre;" direction="ltr" dominant-baseline="text-before-edge">(PCCS)</text></g><g stroke-linecap="round" transform="translate(10 498) rotate(0 207.5 131)"><path d="M32 0 M32 0 C146.66 -1.88, 261.84 -0.48, 383 0 M32 0 C170.04 1.11, 308.68 1.55, 383 0 M383 0 C405.64 0.62, 415.82 9.42, 415 32 M383 0 C406.62 2.19, 416.61 11.86, 415 32 M415 32 C412.89 85.32, 412.44 142.99, 415 230 M415 32 C413.83 109.93, 412.85 187.87, 415 230 M415 230 C413.01 252.85, 404.22 262.25, 383 262 M415 230 C412.87 252.96, 402.94 261.96, 383 262 M383 262 C287.9 260.69, 194.93 259.3, 32 262 M383 262 C292.64 261.89, 202.95 261.96, 32 262 M32 262 C11.49 260.82, -0.18 252.65, 0 230 M32 262 C12.95 262.08, 1.46 251.91, 0 230 M0 230 C-2.23 162.66, 0.89 93.22, 0 32 M0 230 C0.7 179.64, 0.06 128.48, 0 32 M0 32 C1.39 11.47, 10.37 -1.04, 32 0 M0 32 C-2.07 11.16, 9.9 1.77, 32 0" stroke="#1971c2" stroke-width="1" fill="none"></path></g><g transform="translate(15 503) rotate(0 111.43333435058594 10)"><text x="0" y="0" font-family="Virgil, Segoe UI Emoji" font-size="16px" fill="#1971c2" text-anchor="start" style="white-space: pre;" direction="ltr" dominant-baseline="text-before-edge">Intel SGX Capable Platform</text></g><g stroke-linecap="round" transform="translate(531 226.5) rotate(0 205 110.5)"><path d="M32 0 M32 0 C112.38 2.07, 191.69 1.63, 378 0 M32 0 C107.43 -0.44, 183.58 0.56, 378 0 M378 0 C397.8 0.83, 408.32 10.69, 410 32 M378 0 C397.26 1.81, 410.96 12.87, 410 32 M410 32 C412.67 79.71, 411.09 126.77, 410 189 M410 32 C410.59 90.87, 411.04 149.31, 410 189 M410 189 C410.12 211.18, 399.99 220.1, 378 221 M410 189 C411.06 211.88, 397.16 221.01, 378 221 M378 221 C305.85 219.56, 233.12 221.2, 32 221 M378 221 C272.64 220.49, 167.41 219.87, 32 221 M32 221 C12.61 220.75, 1 211.89, 0 189 M32 221 C12.06 219.56, -1.36 210.49, 0 189 M0 189 C-1 155.26, -0.95 118.62, 0 32 M0 189 C-0.32 151.28, 0.88 113.53, 0 32 M0 32 C0.19 9.36, 10.26 1.7, 32 0 M0 32 C-0.56 10.72, 12.68 1.55, 32 0" stroke="#1971c2" stroke-width="1" fill="none"></path></g><g transform="translate(697.4333343505859 231.5) rotate(0 38.56666564941406 10)"><text x="38.56666564941406" y="0" font-family="Virgil, Segoe UI Emoji" font-size="16px" fill="#1971c2" text-anchor="middle" style="white-space: pre;" direction="ltr" dominant-baseline="text-before-edge">Challenger</text></g><g stroke-linecap="round" transform="translate(654 312) rotate(0 92 59.5)"><path d="M29.75 0 M29.75 0 C61.41 -2.05, 97.37 -1.64, 154.25 0 M29.75 0 C63.25 -1.28, 96.91 -0.49, 154.25 0 M154.25 0 C174.77 -0.7, 183.6 10.46, 184 29.75 M154.25 0 C174.97 -1.83, 183.04 8.11, 184 29.75 M184 29.75 C182.69 51.48, 182.65 70.19, 184 89.25 M184 29.75 C184.71 48.56, 183.98 67.53, 184 89.25 M184 89.25 C184.15 107.29, 175.54 117.72, 154.25 119 M184 89.25 C185.07 108.1, 175.45 119.55, 154.25 119 M154.25 119 C120.59 118.56, 88.24 117.37, 29.75 119 M154.25 119 C110.4 119.01, 64.43 118.34, 29.75 119 M29.75 119 C9.87 119.28, 1.82 109.49, 0 89.25 M29.75 119 C7.69 119.57, 1.6 110.84, 0 89.25 M0 89.25 C0.84 70.27, 0.69 51.58, 0 29.75 M0 89.25 C-0.81 68.24, -0.1 48.46, 0 29.75 M0 29.75 C-1.44 8.52, 8.42 -0.28, 29.75 0 M0 29.75 C-2.13 11.91, 10.75 0.27, 29.75 0" stroke="#1971c2" stroke-width="1" fill="none"></path></g><g transform="translate(672.3166656494141 317) rotate(0 73.68333435058594 20)"><text x="73.68333435058594" y="0" font-family="Virgil, Segoe UI Emoji" font-size="16px" fill="#1971c2" text-anchor="middle" style="white-space: pre;" direction="ltr" dominant-baseline="text-before-edge">DCAP Quote </text><text x="73.68333435058594" y="20" font-family="Virgil, Segoe UI Emoji" font-size="16px" fill="#1971c2" text-anchor="middle" style="white-space: pre;" direction="ltr" dominant-baseline="text-before-edge">Verification Library</text></g><g stroke-linecap="round" transform="translate(16 619) rotate(0 147.5 25)"><path d="M12.5 0 M12.5 0 C91.81 0.03, 171.78 0.9, 282.5 0 M12.5 0 C102.09 -1.97, 191.63 -1.6, 282.5 0 M282.5 0 C292.06 0.99, 293.94 2.35, 295 12.5 M282.5 0 C289.16 0.38, 294.92 6.26, 295 12.5 M295 12.5 C294.31 20.07, 294.07 30.96, 295 37.5 M295 12.5 C295.43 19.4, 294.97 26.53, 295 37.5 M295 37.5 C295.32 45.97, 291.7 48.52, 282.5 50 M295 37.5 C294.78 45.52, 293.06 48.5, 282.5 50 M282.5 50 C226.28 47.54, 172.85 47.95, 12.5 50 M282.5 50 C219.2 51.2, 156.28 51.14, 12.5 50 M12.5 50 C5.53 49.19, -0.57 44.58, 0 37.5 M12.5 50 C2.95 51.09, 0.15 45.44, 0 37.5 M0 37.5 C0.42 32.45, 0.07 25.98, 0 12.5 M0 37.5 C1 28.08, 0.47 18.81, 0 12.5 M0 12.5 C0.66 2.22, 6.02 0, 12.5 0 M0 12.5 C0.32 3.17, 4.37 0.83, 12.5 0" stroke="#1971c2" stroke-width="1" fill="none"></path></g><g transform="translate(21.550003051757812 634) rotate(0 141.9499969482422 10)"><text x="141.9499969482422" y="0" font-family="Virgil, Segoe UI Emoji" font-size="16px" fill="#1971c2" text-anchor="middle" style="white-space: pre;" direction="ltr" dominant-baseline="text-before-edge">PCK Certgificate ID Retrieval Tool</text></g><g stroke-linecap="round" transform="translate(15.5 686) rotate(0 147.5 25)"><path d="M12.5 0 M12.5 0 C103.82 0.02, 194.27 -0.2, 282.5 0 M12.5 0 C77.49 -1.88, 144.67 -2.65, 282.5 0 M282.5 0 C288.9 0.46, 293.64 3.34, 295 12.5 M282.5 0 C292.74 -1.98, 293.93 5.61, 295 12.5 M295 12.5 C296.74 19.53, 293.47 24.67, 295 37.5 M295 12.5 C295.3 21.63, 294.76 30.61, 295 37.5 M295 37.5 C293.67 46.4, 289.84 49.71, 282.5 50 M295 37.5 C295.31 46.9, 290.41 48.39, 282.5 50 M282.5 50 C207.37 52.47, 134.71 52.72, 12.5 50 M282.5 50 C197.29 51.64, 111.85 51.73, 12.5 50 M12.5 50 C2.34 49.41, 0.71 46.55, 0 37.5 M12.5 50 C2.05 48.1, 1.53 45.96, 0 37.5 M0 37.5 C-0.76 26.56, -0.69 20.46, 0 12.5 M0 37.5 C0.64 28.82, 0.82 20.2, 0 12.5 M0 12.5 C-0.62 5.13, 3.15 -0.89, 12.5 0 M0 12.5 C2.02 2.51, 2.58 1.29, 12.5 0" stroke="#1971c2" stroke-width="1" fill="none"></path></g><g transform="translate(96.51667022705078 701) rotate(0 66.48332977294922 10)"><text x="66.48332977294922" y="0" font-family="Virgil, Segoe UI Emoji" font-size="16px" fill="#1971c2" text-anchor="middle" style="white-space: pre;" direction="ltr" dominant-baseline="text-before-edge">Intel SGX Driver</text></g><g stroke-linecap="round"><g transform="translate(286.16684049213575 618) rotate(0 1.101949091848553 -104.71153837926687)"><path d="M-1.19 0.5 C-0.58 -34.52, 2.67 -174.76, 3.39 -209.92 M0.39 -0.29 C0.84 -35.1, 1.98 -173.49, 2.26 -208.34" stroke="#1971c2" stroke-width="1" fill="none"></path></g><g transform="translate(286.16684049213575 618) rotate(0 1.101949091848553 -104.71153837926687)"><path d="M13.12 -180.64 C9.63 -188.94, 5.94 -197.28, 3.15 -207.39 M11.92 -180.14 C9.54 -189.08, 5.94 -197.02, 2.99 -207.57" stroke="#1971c2" stroke-width="1" fill="none"></path></g><g transform="translate(286.16684049213575 618) rotate(0 1.101949091848553 -104.71153837926687)"><path d="M-7.4 -180.81 C-5.24 -188.86, -3.27 -197.15, 3.15 -207.39 M-8.6 -180.31 C-5.07 -189.01, -2.75 -196.9, 2.99 -207.57" stroke="#1971c2" stroke-width="1" fill="none"></path></g></g><mask></mask><g stroke-linecap="round" transform="translate(814 538) rotate(0 60 15)"><path d="M7.5 0 M7.5 0 C30.74 0.35, 53.78 -1.32, 112.5 0 M7.5 0 C43.33 -1.36, 81.71 -0.96, 112.5 0 M112.5 0 C116.66 1.54, 121.27 3.47, 120 7.5 M112.5 0 C118.06 1.1, 118.42 0.6, 120 7.5 M120 7.5 C119.5 11.03, 120.56 14.11, 120 22.5 M120 7.5 C119.93 11.53, 119.95 15.93, 120 22.5 M120 22.5 C118.17 28.61, 115.55 30.18, 112.5 30 M120 22.5 C117.97 26.6, 116.83 29.16, 112.5 30 M112.5 30 C88.35 31.77, 63.37 32.04, 7.5 30 M112.5 30 C81.93 30.61, 52.61 30.91, 7.5 30 M7.5 30 C1.52 31.43, 1.6 26.38, 0 22.5 M7.5 30 C2.18 30.79, -0.68 28.23, 0 22.5 M0 22.5 C0.02 18.78, 1.3 13.07, 0 7.5 M0 22.5 C0.7 19.43, 0.38 15.96, 0 7.5 M0 7.5 C0.75 1.89, 2.05 1.7, 7.5 0 M0 7.5 C2.29 4.69, 2.35 1.32, 7.5 0" stroke="#2f9e44" stroke-width="1" fill="none"></path></g><g transform="translate(827.7000007629395 543) rotate(0 46.29999923706055 10)"><text x="46.29999923706055" y="0" font-family="Virgil, Segoe UI Emoji" font-size="16px" fill="#2f9e44" text-anchor="middle" style="white-space: pre;" direction="ltr" dominant-baseline="text-before-edge">App Enclave</text></g><g stroke-linecap="round"><g transform="translate(923 532) rotate(0 -35.37366307241848 -93.08512905597956)"><path d="M0.91 -0.73 C-0.32 -72.01, 1.86 -147.03, 1.69 -184.49 M-0.33 0.29 C0.87 -59.2, 2.26 -116.99, 2 -183.3 M1.95 -183.36 C-27.5 -182.67, -56.86 -183.61, -73.55 -186.46 M2.81 -183.79 C-23.36 -184.7, -48.94 -184.99, -71.95 -186.06" stroke="#2f9e44" stroke-width="1" fill="none"></path></g><g transform="translate(923 532) rotate(0 -35.37366307241848 -93.08512905597956)"><path d="M-8.34 -29.69 C-5.35 -16.38, -0.32 -6.87, -0.39 -1.22 M-9.59 -28.66 C-5.88 -21.04, -2.22 -11.64, -0.08 -0.03" stroke="#2f9e44" stroke-width="1" fill="none"></path></g><g transform="translate(923 532) rotate(0 -35.37366307241848 -93.08512905597956)"><path d="M12.18 -29.62 C7 -16.48, 3.85 -7, -0.39 -1.22 M10.93 -28.6 C8.14 -20.81, 5.31 -11.44, -0.08 -0.03" stroke="#2f9e44" stroke-width="1" fill="none"></path></g><g transform="translate(923 532) rotate(0 -35.37366307241848 -93.08512905597956)"><path d="M-42.49 -196 C-55.04 -190.53, -65.43 -188.59, -73.26 -186.54 M-43.73 -194.98 C-52.31 -193.03, -60.9 -189.65, -72.95 -185.35" stroke="#2f9e44" stroke-width="1" fill="none"></path></g><g transform="translate(923 532) rotate(0 -35.37366307241848 -93.08512905597956)"><path d="M-43.24 -175.49 C-55.63 -178.19, -65.72 -184.41, -73.26 -186.54 M-44.49 -174.47 C-52.85 -179.02, -61.2 -182.14, -72.95 -185.35" stroke="#2f9e44" stroke-width="1" fill="none"></path></g></g><mask></mask><g stroke-linecap="round" transform="translate(659 378) rotate(0 83.5 25)"><path d="M12.5 0 M12.5 0 C59.99 0.67, 110.4 -0.38, 154.5 0 M12.5 0 C55 -0.4, 96.59 -0.84, 154.5 0 M154.5 0 C162.83 1.09, 165.19 4.27, 167 12.5 M154.5 0 C163.18 1.92, 166.07 2.69, 167 12.5 M167 12.5 C168.14 19.75, 169.08 27.02, 167 37.5 M167 12.5 C167.69 20.1, 168.06 27.15, 167 37.5 M167 37.5 C168.96 46.15, 162.45 50.43, 154.5 50 M167 37.5 C166.27 47.92, 165.07 48.79, 154.5 50 M154.5 50 C116.29 50.46, 81.3 49.75, 12.5 50 M154.5 50 C118.35 50.76, 83.36 50.14, 12.5 50 M12.5 50 C3.13 51.89, 1.99 45.19, 0 37.5 M12.5 50 C5.11 52.04, -1.57 45.29, 0 37.5 M0 37.5 C-0.18 28.88, 0.18 25.47, 0 12.5 M0 37.5 C0.14 28.78, 0.08 18.46, 0 12.5 M0 12.5 C1.7 5.95, 6.1 -0.88, 12.5 0 M0 12.5 C1.62 2.77, 2.23 -0.48, 12.5 0" stroke="#2f9e44" stroke-width="1" fill="none"></path></g><g transform="translate(667.8666687011719 383) rotate(0 74.63333129882812 20)"><text x="74.63333129882812" y="0" font-family="Virgil, Segoe UI Emoji" font-size="16px" fill="#2f9e44" text-anchor="middle" style="white-space: pre;" direction="ltr" dominant-baseline="text-before-edge">Quote Verification </text><text x="74.63333129882812" y="20" font-family="Virgil, Segoe UI Emoji" font-size="16px" fill="#2f9e44" text-anchor="middle" style="white-space: pre;" direction="ltr" dominant-baseline="text-before-edge">Enclave</text></g><g stroke-linecap="round" transform="translate(540.5 698) rotate(0 185 25)"><path d="M12.5 0 M12.5 0 C112.05 0.38, 208.86 0.59, 357.5 0 M12.5 0 C113.2 2.19, 213.73 0.93, 357.5 0 M357.5 0 C365.26 1.16, 371.77 4.7, 370 12.5 M357.5 0 C366.31 1.68, 368.05 2.57, 370 12.5 M370 12.5 C371.35 20.11, 371.2 24.58, 370 37.5 M370 12.5 C369.53 19.9, 368.91 26.12, 370 37.5 M370 37.5 C371.28 47.01, 366.5 50.96, 357.5 50 M370 37.5 C371.19 44.02, 366.25 50.75, 357.5 50 M357.5 50 C235 48.41, 112.99 48.46, 12.5 50 M357.5 50 C232.69 49.14, 107.55 49.28, 12.5 50 M12.5 50 C2.23 49.86, 0.07 47.77, 0 37.5 M12.5 50 C6.09 48.17, -1.83 44.86, 0 37.5 M0 37.5 C1.29 29.54, -1.45 23.75, 0 12.5 M0 37.5 C0.15 27.71, 0.45 18.7, 0 12.5 M0 12.5 C-0.46 2.72, 5.96 -1.04, 12.5 0 M0 12.5 C-1.88 3.93, 2.93 -2.04, 12.5 0" stroke="#1971c2" stroke-width="1" fill="none"></path></g><g transform="translate(659.0166702270508 713) rotate(0 66.48332977294922 10)"><text x="66.48332977294922" y="0" font-family="Virgil, Segoe UI Emoji" font-size="16px" fill="#1971c2" text-anchor="middle" style="white-space: pre;" direction="ltr" dominant-baseline="text-before-edge">Intel SGX Driver</text></g><g stroke-linecap="round" transform="translate(542 575) rotate(0 121 52)"><path d="M26 0 M26 0 C100.25 -2.04, 174.29 -0.15, 216 0 M26 0 C81.96 0.83, 137.61 1.72, 216 0 M216 0 C235.12 -1.08, 242.66 8.06, 242 26 M216 0 C235.55 -0.23, 242.26 8.52, 242 26 M242 26 C240.18 46.49, 242.78 66.07, 242 78 M242 26 C242.93 45.41, 241.13 62.94, 242 78 M242 78 C241.95 93.8, 234.79 104.24, 216 104 M242 78 C241.94 95.84, 233.97 103.67, 216 104 M216 104 C166.05 103.87, 115.41 103.6, 26 104 M216 104 C162.41 102.07, 107.97 101.98, 26 104 M26 104 C8.77 102.78, -0.88 96.55, 0 78 M26 104 C6.51 102.42, -0.79 94.16, 0 78 M0 78 C-0.31 58.67, 0.04 38.09, 0 26 M0 78 C0.08 59.85, -0.29 42.26, 0 26 M0 26 C-0.23 8.39, 7.39 0.77, 26 0 M0 26 C-0.84 8.9, 10.11 2.04, 26 0" stroke="#1971c2" stroke-width="1" fill="none"></path></g><g transform="translate(563.5500030517578 580) rotate(0 99.44999694824219 20)"><text x="99.44999694824219" y="0" font-family="Virgil, Segoe UI Emoji" font-size="16px" fill="#1971c2" text-anchor="middle" style="white-space: pre;" direction="ltr" dominant-baseline="text-before-edge">DCAP Quote Generation </text><text x="99.44999694824219" y="20" font-family="Virgil, Segoe UI Emoji" font-size="16px" fill="#1971c2" text-anchor="middle" style="white-space: pre;" direction="ltr" dominant-baseline="text-before-edge">Library</text></g><g stroke-linecap="round" transform="translate(680 625) rotate(0 50 25)"><path d="M12.5 0 M12.5 0 C38.66 -1.75, 67.82 -0.87, 87.5 0 M12.5 0 C35.07 -0.64, 56.03 0.2, 87.5 0 M87.5 0 C97.42 -0.02, 100.2 3.72, 100 12.5 M87.5 0 C95.93 -0.62, 102.14 6, 100 12.5 M100 12.5 C100.6 20.79, 101.2 31.08, 100 37.5 M100 12.5 C101.2 19.45, 101.05 26.48, 100 37.5 M100 37.5 C101.98 44.14, 94.01 51.49, 87.5 50 M100 37.5 C99.45 46.99, 95.22 49.99, 87.5 50 M87.5 50 C64.77 49.79, 47.66 49.05, 12.5 50 M87.5 50 C71.73 51.08, 56.41 50.58, 12.5 50 M12.5 50 C3.9 50.83, -1.42 47.13, 0 37.5 M12.5 50 C6.26 50.88, 0.2 43.76, 0 37.5 M0 37.5 C-1.86 31.76, 1.51 21.25, 0 12.5 M0 37.5 C1.1 29.89, -0.77 21.59, 0 12.5 M0 12.5 C-0.32 3.84, 5.47 -0.59, 12.5 0 M0 12.5 C0.82 6.09, 4.58 2.07, 12.5 0" stroke="#2f9e44" stroke-width="1" fill="none"></path></g><g transform="translate(700.8500003814697 630) rotate(0 29.149999618530273 20)"><text x="29.149999618530273" y="0" font-family="Virgil, Segoe UI Emoji" font-size="16px" fill="#2f9e44" text-anchor="middle" style="white-space: pre;" direction="ltr" dominant-baseline="text-before-edge">Quoting</text><text x="29.149999618530273" y="20" font-family="Virgil, Segoe UI Emoji" font-size="16px" fill="#2f9e44" text-anchor="middle" style="white-space: pre;" direction="ltr" dominant-baseline="text-before-edge">Enclave</text></g><g stroke-linecap="round" transform="translate(551 628.5) rotate(0 59.5 25)"><path d="M12.5 0 M12.5 0 C34.64 -2.25, 59.32 -1.94, 106.5 0 M12.5 0 C46.55 0.2, 80.96 -0.02, 106.5 0 M106.5 0 C113.92 -0.23, 118.97 4.6, 119 12.5 M106.5 0 C116.98 -0.23, 119.36 4.53, 119 12.5 M119 12.5 C120.58 22.33, 120.84 29.54, 119 37.5 M119 12.5 C118.07 20.77, 118.99 27.22, 119 37.5 M119 37.5 C120.41 47.58, 116.52 51.58, 106.5 50 M119 37.5 C117.69 47.19, 116.25 51.9, 106.5 50 M106.5 50 C82.87 50.9, 62.56 51.36, 12.5 50 M106.5 50 C71.38 51.31, 37.04 51.1, 12.5 50 M12.5 50 C5.21 49.21, 1.68 43.93, 0 37.5 M12.5 50 C4.49 48.99, 0.53 46.37, 0 37.5 M0 37.5 C-1.28 26.59, -2.04 18.28, 0 12.5 M0 37.5 C0.01 30.24, 0.27 23.47, 0 12.5 M0 12.5 C-0.13 4.68, 5.83 0.69, 12.5 0 M0 12.5 C2.1 3.57, 4.02 0.69, 12.5 0" stroke="#2f9e44" stroke-width="1" fill="none"></path></g><g transform="translate(563.6666679382324 633.5) rotate(0 46.83333206176758 20)"><text x="46.83333206176758" y="0" font-family="Virgil, Segoe UI Emoji" font-size="16px" fill="#2f9e44" text-anchor="middle" style="white-space: pre;" direction="ltr" dominant-baseline="text-before-edge">Provisioning </text><text x="46.83333206176758" y="20" font-family="Virgil, Segoe UI Emoji" font-size="16px" fill="#2f9e44" text-anchor="middle" style="white-space: pre;" direction="ltr" dominant-baseline="text-before-edge">Enclave</text></g><g stroke-linecap="round" transform="translate(546 512) rotate(0 121 25)"><path d="M12.5 0 M12.5 0 C96.1 0.65, 178.04 2.19, 229.5 0 M12.5 0 C69.68 -0.04, 125.02 0.03, 229.5 0 M229.5 0 C238.21 -1.4, 242.52 4.2, 242 12.5 M229.5 0 C237.03 -1.17, 244.1 3.21, 242 12.5 M242 12.5 C240.99 19.93, 243.86 30.06, 242 37.5 M242 12.5 C242.08 20.99, 241.38 28.91, 242 37.5 M242 37.5 C243.1 45.63, 236.43 48.32, 229.5 50 M242 37.5 C242.7 45.63, 239.21 48.98, 229.5 50 M229.5 50 C176.34 48.03, 124.67 49.28, 12.5 50 M229.5 50 C157.14 49.5, 86.26 49.36, 12.5 50 M12.5 50 C3.27 48.27, -0.14 44.39, 0 37.5 M12.5 50 C3.87 48.33, -2.06 44.41, 0 37.5 M0 37.5 C1.9 33.57, 0.56 25.53, 0 12.5 M0 37.5 C-1.13 30.36, -0.7 25.24, 0 12.5 M0 12.5 C0.01 5.48, 4.26 -0.8, 12.5 0 M0 12.5 C1.67 3.02, 3.47 -0.56, 12.5 0" stroke="#1971c2" stroke-width="1" fill="none"></path></g><g transform="translate(566.7333297729492 517) rotate(0 100.26667022705078 20)"><text x="100.26667022705078" y="0" font-family="Virgil, Segoe UI Emoji" font-size="16px" fill="#1971c2" text-anchor="middle" style="white-space: pre;" direction="ltr" dominant-baseline="text-before-edge">DCAP Quote Provisioning </text><text x="100.26667022705078" y="20" font-family="Virgil, Segoe UI Emoji" font-size="16px" fill="#1971c2" text-anchor="middle" style="white-space: pre;" direction="ltr" dominant-baseline="text-before-edge">Library</text></g><g stroke-linecap="round" transform="translate(654 252.5) rotate(0 92 25)"><path d="M12.5 0 M12.5 0 C51.77 0.64, 89.49 -0.42, 171.5 0 M12.5 0 C62.14 -0.16, 112.52 -0.41, 171.5 0 M171.5 0 C178.71 -1.89, 182.47 4.91, 184 12.5 M171.5 0 C181.13 2, 184.19 2.84, 184 12.5 M184 12.5 C182.92 21.05, 183.53 32.68, 184 37.5 M184 12.5 C184.08 21, 184.44 30.8, 184 37.5 M184 37.5 C182.83 45.48, 180.71 51.7, 171.5 50 M184 37.5 C183.58 44.83, 180.76 48.47, 171.5 50 M171.5 50 C134.33 52.21, 95.32 51.94, 12.5 50 M171.5 50 C110.01 51.42, 49.87 51.5, 12.5 50 M12.5 50 C4.96 49.31, 1.03 44.32, 0 37.5 M12.5 50 C4.93 51.68, 0.41 44.02, 0 37.5 M0 37.5 C0.87 32.12, 0.16 23.86, 0 12.5 M0 37.5 C0.62 30.42, 0.56 24.09, 0 12.5 M0 12.5 C-1.92 2.41, 2.83 1.96, 12.5 0 M0 12.5 C0.65 2.02, 4.12 0.97, 12.5 0" stroke="#1971c2" stroke-width="1" fill="none"></path></g><g transform="translate(672.5999984741211 257.5) rotate(0 73.4000015258789 20)"><text x="73.4000015258789" y="0" font-family="Virgil, Segoe UI Emoji" font-size="16px" fill="#1971c2" text-anchor="middle" style="white-space: pre;" direction="ltr" dominant-baseline="text-before-edge">DCAP Quote </text><text x="73.4000015258789" y="20" font-family="Virgil, Segoe UI Emoji" font-size="16px" fill="#1971c2" text-anchor="middle" style="white-space: pre;" direction="ltr" dominant-baseline="text-before-edge">Provisioning Library</text></g><g stroke-linecap="round"><g transform="translate(652 272) rotate(0 -139.94870201062406 27.86524516355246)"><path d="M0.07 -1.02 C-46.48 8.03, -232.87 45.83, -279.35 55.14 M-1.36 1.06 C-48.01 10.25, -233.69 47.58, -279.96 56.75" stroke="#1971c2" stroke-width="1" fill="none"></path></g><g transform="translate(652 272) rotate(0 -139.94870201062406 27.86524516355246)"><path d="M-256.03 42.24 C-261.56 47.73, -269.66 50.74, -278.95 57.09 M-254.71 41.9 C-260.2 46.15, -268.06 48.73, -279.12 57.63" stroke="#1971c2" stroke-width="1" fill="none"></path></g><g transform="translate(652 272) rotate(0 -139.94870201062406 27.86524516355246)"><path d="M-252.01 62.37 C-258.87 61.91, -268.16 58.96, -278.95 57.09 M-250.69 62.02 C-257.07 61.03, -265.98 58.35, -279.12 57.63" stroke="#1971c2" stroke-width="1" fill="none"></path></g></g><mask></mask><g stroke-linecap="round"><g transform="translate(367 401) rotate(0 92.42787267763163 60.676681541949506)"><path d="M-0.11 0.72 C31.06 20.73, 155.25 100.08, 186.48 120.18 M-1.62 0.06 C29.39 20.18, 153.87 100.83, 185.26 121.29" stroke="#1971c2" stroke-width="1" fill="none"></path></g><g transform="translate(367 401) rotate(0 92.42787267763163 60.676681541949506)"><path d="M157.23 113.67 C162.12 116.77, 171.47 117.22, 184.56 119.76 M155.97 114.9 C162.35 116.18, 170.78 118.32, 185.36 121.84" stroke="#1971c2" stroke-width="1" fill="none"></path></g><g transform="translate(367 401) rotate(0 92.42787267763163 60.676681541949506)"><path d="M168.41 96.46 C170.48 103.93, 176.98 108.76, 184.56 119.76 M167.15 97.7 C170.82 103, 176.6 109.22, 185.36 121.84" stroke="#1971c2" stroke-width="1" fill="none"></path></g></g><mask></mask><g stroke-linecap="round"><g transform="translate(222 297) rotate(0 1.2966268878057576 -57.54526954997331)"><path d="M0.72 -0.5 C1.02 -19.32, 2.77 -94.04, 2.95 -112.99 M-0.36 -1.81 C-0.24 -20.93, 2.28 -96.05, 2.5 -114.59" stroke="#1971c2" stroke-width="1" fill="none"></path></g><g transform="translate(222 297) rotate(0 1.2966268878057576 -57.54526954997331)"><path d="M-9.79 -27.32 C-3.45 -17.98, -1.64 -6.3, 0.33 -1.23 M-8.17 -28.05 C-4.95 -19.18, -1.16 -7.24, 0.65 -0.46" stroke="#1971c2" stroke-width="1" fill="none"></path></g><g transform="translate(222 297) rotate(0 1.2966268878057576 -57.54526954997331)"><path d="M10.72 -26.89 C8.9 -17.61, 2.55 -6.09, 0.33 -1.23 M12.35 -27.62 C7.88 -18.96, 3.98 -7.17, 0.65 -0.46" stroke="#1971c2" stroke-width="1" fill="none"></path></g><g transform="translate(222 297) rotate(0 1.2966268878057576 -57.54526954997331)"><path d="M11.25 -84.58 C9.98 -97.74, 4.13 -108.66, 2.11 -115.31 M12.87 -85.31 C8.96 -97.77, 5.53 -107.12, 2.42 -114.54" stroke="#1971c2" stroke-width="1" fill="none"></path></g><g transform="translate(222 297) rotate(0 1.2966268878057576 -57.54526954997331)"><path d="M-9.27 -85.07 C-2.37 -98.16, -0.06 -108.88, 2.11 -115.31 M-7.64 -85.8 C-3.87 -98.04, 0.39 -107.2, 2.42 -114.54" stroke="#1971c2" stroke-width="1" fill="none"></path></g></g><mask></mask><g stroke-linecap="round" transform="translate(796 508) rotate(0 72 49.5)"><path d="M24.75 0 M24.75 0 C46.85 0.95, 71.68 0.41, 119.25 0 M24.75 0 C46.23 1.4, 70.51 0.22, 119.25 0 M119.25 0 C136.78 1.6, 145.11 7.47, 144 24.75 M119.25 0 C137.9 -1.7, 144.12 8.4, 144 24.75 M144 24.75 C144.82 36.71, 145.56 49.5, 144 74.25 M144 24.75 C144.74 42.68, 143.45 61.97, 144 74.25 M144 74.25 C143.31 92.61, 136.08 100.23, 119.25 99 M144 74.25 C142.29 89.11, 136.62 101.08, 119.25 99 M119.25 99 C92.01 99.93, 64.2 100.48, 24.75 99 M119.25 99 C88.06 99.87, 54.74 98.78, 24.75 99 M24.75 99 C7.11 97.77, -0.16 92.43, 0 74.25 M24.75 99 C6.78 97.9, -0.98 91.3, 0 74.25 M0 74.25 C1.84 57.91, -0.2 41.73, 0 24.75 M0 74.25 C-0.78 59.18, -1.34 44.61, 0 24.75 M0 24.75 C-0.25 8.08, 10.1 -1.95, 24.75 0 M0 24.75 C1.29 8.47, 6.44 2.3, 24.75 0" stroke="#1971c2" stroke-width="1" fill="none"></path></g><g transform="translate(827.216667175293 513) rotate(0 40.78333282470703 10)"><text x="40.78333282470703" y="0" font-family="Virgil, Segoe UI Emoji" font-size="16px" fill="#1971c2" text-anchor="middle" style="white-space: pre;" direction="ltr" dominant-baseline="text-before-edge">Application</text></g><g mask="url(#mask-YjrqYdpx0T0awERZAI5WV)" stroke-linecap="round"><g transform="translate(895 510) rotate(0 -33.01826572464779 -54.76204010396634)"><path d="M1 0.41 C0.91 -35.53, -0.25 -67.33, -2.72 -109.14 M-0.41 -0.23 C0.54 -43.4, -2.22 -85.32, -2.44 -109.07 M-1.51 -107.12 C-17.45 -110.05, -32.83 -110.91, -66.45 -108.57 M-2.69 -108.29 C-17.31 -109.07, -33.03 -109.39, -67.03 -109.94" stroke="#1971c2" stroke-width="1" fill="none"></path></g><g transform="translate(895 510) rotate(0 -33.01826572464779 -54.76204010396634)"><path d="M-37.67 -119.3 C-47.24 -117.99, -56.73 -112.3, -67.76 -110.08 M-39.08 -119.95 C-48.79 -116.83, -61.83 -112.4, -67.47 -110" stroke="#1971c2" stroke-width="1" fill="none"></path></g><g transform="translate(895 510) rotate(0 -33.01826572464779 -54.76204010396634)"><path d="M-38.03 -98.78 C-47.28 -103.94, -56.65 -104.73, -67.76 -110.08 M-39.43 -99.43 C-48.94 -104.32, -61.85 -107.89, -67.47 -110" stroke="#1971c2" stroke-width="1" fill="none"></path></g></g><mask id="mask-YjrqYdpx0T0awERZAI5WV"><rect x="0" y="0" fill="#fff" width="1063" height="720.1144912609718"></rect><rect x="869.4833335876465" y="391" fill="#000" width="47.03333282470703" height="20" opacity="1"></rect></mask><g transform="translate(869.4833335876465 391) rotate(0 -7.501599312294275 64.23795989603366)"><text x="23.516666412353516" y="0" font-family="Virgil, Segoe UI Emoji" font-size="16px" fill="#1971c2" text-anchor="middle" style="white-space: pre;" direction="ltr" dominant-baseline="text-before-edge">Quote</text></g><g mask="url(#mask-UPjh4R8Iz2ChAA_mlLZDf)" stroke-linecap="round"><g transform="translate(41 808) rotate(0 185.9116627257407 1.7636239221109236)"><path d="M0.99 -0.56 C80.08 4.14, 163.49 5.06, 371.44 3.18 M0.38 -0.03 C145.39 0.35, 289.7 1.41, 371.45 3.57" stroke="#1971c2" stroke-width="1" fill="none"></path></g><g transform="translate(41 808) rotate(0 185.9116627257407 1.7636239221109236)"><path d="M344.68 12.38 C347.43 13.05, 357.17 11, 372.16 2.23 M343.68 13.25 C354.72 9.98, 364.62 5.36, 372.18 2.87" stroke="#1971c2" stroke-width="1" fill="none"></path></g><g transform="translate(41 808) rotate(0 185.9116627257407 1.7636239221109236)"><path d="M345.06 -8.13 C347.69 -2.98, 357.35 -0.54, 372.16 2.23 M344.06 -7.27 C354.97 -2.52, 364.73 0.88, 372.18 2.87" stroke="#1971c2" stroke-width="1" fill="none"></path></g></g><mask id="mask-UPjh4R8Iz2ChAA_mlLZDf"><rect x="0" y="0" fill="#fff" width="512" height="912"></rect><rect x="114.56666564941406" y="800" fill="#000" width="223.86666870117188" height="20" opacity="1"></rect></mask><g transform="translate(114.56666564941406 800) rotate(0 112.34499707632665 9.763623922110924)"><text x="111.93333435058594" y="0" font-family="Virgil, Segoe UI Emoji" font-size="16px" fill="#1971c2" text-anchor="middle" style="white-space: pre;" direction="ltr" dominant-baseline="text-before-edge">Platform Deployment Pipeline</text></g><g mask="url(#mask-6BmVOHmxKxZ1lGG50_Kq4)" stroke-linecap="round"><g transform="translate(540.0883372742592 807) rotate(0 185.61632902404006 1.8229099379284435)"><path d="M0.72 -0.6 C136.55 0.05, 271.87 1.41, 371.8 4.13 M-0.57 -0.31 C96.72 1.28, 193.65 1.62, 371.5 4.25" stroke="#1971c2" stroke-width="1" fill="none"></path></g><g transform="translate(540.0883372742592 807) rotate(0 185.61632902404006 1.8229099379284435)"><path d="M344.35 13.16 C353.72 9.51, 362.28 5.68, 372.8 4.46 M342.25 13.64 C350.3 12.46, 357.74 8.74, 372.31 4.66" stroke="#1971c2" stroke-width="1" fill="none"></path></g><g transform="translate(540.0883372742592 807) rotate(0 185.61632902404006 1.8229099379284435)"><path d="M344.62 -7.36 C353.9 -3.46, 362.36 0.26, 372.8 4.46 M342.52 -6.88 C350.47 -2.7, 357.84 -1.06, 372.31 4.66" stroke="#1971c2" stroke-width="1" fill="none"></path></g></g><mask id="mask-6BmVOHmxKxZ1lGG50_Kq4"><rect x="0" y="0" fill="#fff" width="1011.0883372742592" height="911"></rect><rect x="664.8383372742592" y="799" fill="#000" width="121.5" height="20" opacity="1"></rect></mask><g transform="translate(664.8383372742592 799) rotate(0 60.866329024040056 9.822909937928443)"><text x="60.75" y="0" font-family="Virgil, Segoe UI Emoji" font-size="16px" fill="#1971c2" text-anchor="middle" style="white-space: pre;" direction="ltr" dominant-baseline="text-before-edge">Runtime Pipeline</text></g></svg>