<svg version="1.1" xmlns="http://www.w3.org/2000/svg" viewBox="0 0 329 449.25" width="329" height="449.25">
  <!-- svg-source:excalidraw -->
  
  <defs>
    <style class="style-fonts">
      @font-face {
        font-family: "Virgil";
        src: url("https://excalidraw.com/Virgil.woff2");
      }
      @font-face {
        font-family: "Cascadia";
        src: url("https://excalidraw.com/Cascadia.woff2");
      }
    </style>
  </defs>
  <g stroke-linecap="round" transform="translate(10.25 204) rotate(0 82 15)"><path d="M7.5 0 M7.5 0 C51.06 1.91, 97.89 1.05, 156.5 0 M7.5 0 C49.24 0.25, 89.58 0.19, 156.5 0 M156.5 0 C160.54 1.07, 165.38 2.3, 164 7.5 M156.5 0 C163.2 -2.04, 163.03 4.43, 164 7.5 M164 7.5 C162.92 11.17, 162.67 15.35, 164 22.5 M164 7.5 C163.95 11.08, 164.08 14.68, 164 22.5 M164 22.5 C163.85 26.39, 163.38 29.94, 156.5 30 M164 22.5 C166.23 27.56, 163.14 28.58, 156.5 30 M156.5 30 C115.56 30.1, 74.81 31.72, 7.5 30 M156.5 30 C116.1 30.42, 74.44 28.93, 7.5 30 M7.5 30 C1.41 31.3, 1.5 26.93, 0 22.5 M7.5 30 C1.82 28.72, -1.43 27.88, 0 22.5 M0 22.5 C-0.19 17.73, 0.62 12.8, 0 7.5 M0 22.5 C0.34 16.27, 0.39 11.54, 0 7.5 M0 7.5 C1.89 3.59, 3.57 1.2, 7.5 0 M0 7.5 C0.32 1.86, 4.18 0.52, 7.5 0" stroke="#1971c2" stroke-width="1" fill="none"></path></g><g transform="translate(53.46666717529297 209) rotate(0 38.78333282470703 10)"><text x="38.78333282470703" y="0" font-family="Virgil, Segoe UI Emoji" font-size="16px" fill="#1971c2" text-anchor="middle" style="white-space: pre;" direction="ltr" dominant-baseline="text-before-edge">Guest OS</text></g><g stroke-linecap="round" transform="translate(13.5 240) rotate(0 80.5 15)"><path d="M7.5 0 M7.5 0 C42.4 1.21, 73.71 0.32, 153.5 0 M7.5 0 C38.62 0.08, 70.05 -0.72, 153.5 0 M153.5 0 C157.05 1.87, 162.19 2.94, 161 7.5 M153.5 0 C159.6 2.12, 161.25 1.61, 161 7.5 M161 7.5 C160.77 10.93, 159.96 14.23, 161 22.5 M161 7.5 C161.64 13.16, 160.85 19.02, 161 22.5 M161 22.5 C160.57 27.04, 158.26 31.23, 153.5 30 M161 22.5 C161.53 26.3, 160.26 31.82, 153.5 30 M153.5 30 C107.75 31.74, 59.96 32.38, 7.5 30 M153.5 30 C109.7 30.94, 64.89 30.76, 7.5 30 M7.5 30 C0.78 29.19, 1.8 27.51, 0 22.5 M7.5 30 C2.34 28.25, 0.8 25.51, 0 22.5 M0 22.5 C-0.41 17.56, -0.33 15.57, 0 7.5 M0 22.5 C0.15 18.54, -0.33 16.04, 0 7.5 M0 7.5 C-1.17 1.19, 1.32 -1.05, 7.5 0 M0 7.5 C1.94 3.94, 1.22 -0.91, 7.5 0" stroke="#1971c2" stroke-width="1" fill="none"></path></g><g transform="translate(55.93333435058594 245) rotate(0 38.06666564941406 10)"><text x="38.06666564941406" y="0" font-family="Virgil, Segoe UI Emoji" font-size="16px" fill="#1971c2" text-anchor="middle" style="white-space: pre;" direction="ltr" dominant-baseline="text-before-edge">Hypervisor</text></g><g stroke-linecap="round" transform="translate(12 276) rotate(0 81.5 15)"><path d="M7.5 0 M7.5 0 C50.12 0.51, 89.07 -0.6, 155.5 0 M7.5 0 C38.75 0.32, 71.4 -0.53, 155.5 0 M155.5 0 C161.42 -0.54, 164.82 1.99, 163 7.5 M155.5 0 C161.69 -0.2, 162.63 1.62, 163 7.5 M163 7.5 C162.86 14.26, 164.02 20.29, 163 22.5 M163 7.5 C163.05 10.46, 163.27 14.2, 163 22.5 M163 22.5 C162.31 27.37, 162.32 30.35, 155.5 30 M163 22.5 C161.47 26.34, 160.58 31.47, 155.5 30 M155.5 30 C107.78 28.79, 61.56 26.76, 7.5 30 M155.5 30 C122.33 31.7, 90.33 30.02, 7.5 30 M7.5 30 C4.13 29.55, 0.53 25.58, 0 22.5 M7.5 30 C4.03 31.18, -1.78 26.9, 0 22.5 M0 22.5 C-0.69 17.46, -0.39 14.86, 0 7.5 M0 22.5 C-0.31 16.12, -0.17 10.73, 0 7.5 M0 7.5 C0.16 3.42, 3.41 1.72, 7.5 0 M0 7.5 C1.19 3.92, 0.52 -1.13, 7.5 0" stroke="#1971c2" stroke-width="1" fill="none"></path></g><g transform="translate(61.13333511352539 281) rotate(0 32.36666488647461 10)"><text x="32.36666488647461" y="0" font-family="Virgil, Segoe UI Emoji" font-size="16px" fill="#1971c2" text-anchor="middle" style="white-space: pre;" direction="ltr" dominant-baseline="text-before-edge">Host OS</text></g><g stroke-linecap="round" transform="translate(12 344.25) rotate(0 84 47.5)"><path d="M23.75 0 M23.75 0 C61.25 -0.33, 98.89 0.14, 144.25 0 M23.75 0 C68.14 -0.17, 110.58 0.99, 144.25 0 M144.25 0 C159.31 -0.74, 167.32 6.79, 168 23.75 M144.25 0 C160.59 -1.52, 169.54 7.53, 168 23.75 M168 23.75 C169.33 41.39, 167.62 59.38, 168 71.25 M168 23.75 C168.74 35.14, 167.97 48.57, 168 71.25 M168 71.25 C169.92 87.49, 161.48 95.74, 144.25 95 M168 71.25 C165.77 87.56, 158.56 96.89, 144.25 95 M144.25 95 C113.84 95.23, 83.95 96.65, 23.75 95 M144.25 95 C95.81 95.24, 49.87 96.71, 23.75 95 M23.75 95 C6.57 95.01, 1.53 88.13, 0 71.25 M23.75 95 C7.85 96.72, -0.58 86.95, 0 71.25 M0 71.25 C-2.08 59.95, 0.62 45.08, 0 23.75 M0 71.25 C0.66 58.23, 0.17 45.05, 0 23.75 M0 23.75 C-1.03 7.17, 7.09 -1.2, 23.75 0 M0 23.75 C-1.11 9.17, 10.11 0.14, 23.75 0" stroke="#2f9e44" stroke-width="1" fill="none"></path></g><g transform="translate(44.599998474121094 414.25) rotate(0 51.400001525878906 10)"><text x="51.400001525878906" y="0" font-family="Virgil, Segoe UI Emoji" font-size="16px" fill="#2f9e44" text-anchor="middle" style="white-space: pre;" direction="ltr" dominant-baseline="text-before-edge">Hardware 🔑</text></g><g stroke-linecap="round" transform="translate(14.25 312.5) rotate(0 81 15)"><path d="M7.5 0 M7.5 0 C66 -1.98, 123.07 -0.97, 154.5 0 M7.5 0 C47.49 1.37, 87.38 1.29, 154.5 0 M154.5 0 C158.22 -0.33, 161.42 1.89, 162 7.5 M154.5 0 C158.49 -0.82, 161.54 0.74, 162 7.5 M162 7.5 C162 12.38, 160.49 14.05, 162 22.5 M162 7.5 C161.55 11.33, 161.62 14.86, 162 22.5 M162 22.5 C160.93 28.33, 160.51 28.75, 154.5 30 M162 22.5 C163.84 28.7, 159.18 28.59, 154.5 30 M154.5 30 C116.94 29.81, 77.23 28.63, 7.5 30 M154.5 30 C125.29 30.22, 94.9 31.18, 7.5 30 M7.5 30 C3.46 29.65, 1.89 25.95, 0 22.5 M7.5 30 C3.38 31.11, 0.8 29.05, 0 22.5 M0 22.5 C-0.73 18.5, -0.23 15.55, 0 7.5 M0 22.5 C-0.29 17.76, -0.29 12.09, 0 7.5 M0 7.5 C-1.5 1.06, 3.41 -0.54, 7.5 0 M0 7.5 C0.25 3.59, 0.8 -0.7, 7.5 0" stroke="#1971c2" stroke-width="1" fill="none"></path></g><g transform="translate(34.03333282470703 317.5) rotate(0 61.21666717529297 10)"><text x="61.21666717529297" y="0" font-family="Virgil, Segoe UI Emoji" font-size="16px" fill="#1971c2" text-anchor="middle" style="white-space: pre;" direction="ltr" dominant-baseline="text-before-edge">Bios / Firmware</text></g><g stroke-linecap="round" transform="translate(11.5 167) rotate(0 81.5 15)"><path d="M7.5 0 M7.5 0 C43.21 -1.52, 77.96 -0.82, 155.5 0 M7.5 0 C43.6 1.67, 78.61 1.91, 155.5 0 M155.5 0 C159.55 -0.64, 162.38 3.77, 163 7.5 M155.5 0 C158.59 -0.29, 162.21 1.9, 163 7.5 M163 7.5 C164.14 10.67, 163.93 13.59, 163 22.5 M163 7.5 C163.08 13.33, 162.63 18.27, 163 22.5 M163 22.5 C164.97 28.61, 159.53 29.46, 155.5 30 M163 22.5 C161.01 27.04, 159.56 31.5, 155.5 30 M155.5 30 C119.93 30.56, 84 30.05, 7.5 30 M155.5 30 C111.61 29.76, 66.96 29.82, 7.5 30 M7.5 30 C2.38 31.3, 1.66 29.44, 0 22.5 M7.5 30 C3.3 29, -0.6 26.16, 0 22.5 M0 22.5 C-0.4 20.03, -1.36 16.58, 0 7.5 M0 22.5 C0.58 18.82, 0.61 14.07, 0 7.5 M0 7.5 C1.47 2.43, 3.47 1.39, 7.5 0 M0 7.5 C-0.02 0.25, 1.16 1.39, 7.5 0" stroke="#1971c2" stroke-width="1" fill="none"></path></g><g transform="translate(52.21666717529297 172) rotate(0 40.78333282470703 10)"><text x="40.78333282470703" y="0" font-family="Virgil, Segoe UI Emoji" font-size="16px" fill="#1971c2" text-anchor="middle" style="white-space: pre;" direction="ltr" dominant-baseline="text-before-edge">Application</text></g><g stroke-linecap="round" transform="translate(15.75 348.5) rotate(0 81.5 28)"><path d="M14 0 M14 0 C66.96 -1.15, 115.9 -0.89, 149 0 M14 0 C57.64 -0.51, 98.76 0.42, 149 0 M149 0 C156.37 1.15, 163.54 5.35, 163 14 M149 0 C158.5 -2.22, 161.8 3.27, 163 14 M163 14 C161.93 21.92, 163.53 32.78, 163 42 M163 14 C162.09 19.11, 162.66 24.53, 163 42 M163 42 C162.66 49.82, 159 54.6, 149 56 M163 42 C162.13 50.62, 159.01 54.15, 149 56 M149 56 C105.06 56.3, 64.93 53.83, 14 56 M149 56 C97.19 54.59, 46.05 54.56, 14 56 M14 56 C5.39 56.45, -0.8 50.85, 0 42 M14 56 C4.94 54.4, -1.12 49.58, 0 42 M0 42 C0.41 30.1, 0.75 18.32, 0 14 M0 42 C1.14 34.54, 0.28 27.69, 0 14 M0 14 C1.6 6.52, 5.19 -0.06, 14 0 M0 14 C-0.97 5, 6.45 -2.3, 14 0" stroke="#2f9e44" stroke-width="1" fill="none"></path></g><g transform="translate(20.75 379.5) rotate(0 17.233333587646484 10)"><text x="0" y="0" font-family="Virgil, Segoe UI Emoji" font-size="16px" fill="#2f9e44" text-anchor="start" style="white-space: pre;" direction="ltr" dominant-baseline="text-before-edge">TEE</text></g><g stroke-linecap="round" transform="translate(99.75 350) rotate(0 38.5 15)"><path d="M7.5 0 M7.5 0 C30.07 2.33, 54.87 2.36, 69.5 0 M7.5 0 C28.9 0.97, 49.26 0.49, 69.5 0 M69.5 0 C73.04 -0.96, 75.44 3.85, 77 7.5 M69.5 0 C72.73 -1.96, 78.14 4.04, 77 7.5 M77 7.5 C77.51 12.01, 78.36 19.83, 77 22.5 M77 7.5 C76.83 10.92, 77.32 14.02, 77 22.5 M77 22.5 C77.65 25.85, 74.93 31.48, 69.5 30 M77 22.5 C77.24 26.8, 74.47 31.29, 69.5 30 M69.5 30 C46.23 29.01, 22.78 31.46, 7.5 30 M69.5 30 C57.06 30.8, 42.85 29.49, 7.5 30 M7.5 30 C4.4 31.46, -0.35 28.4, 0 22.5 M7.5 30 C4.01 30.33, -0.73 29.09, 0 22.5 M0 22.5 C-1.01 15.98, 1.42 13.58, 0 7.5 M0 22.5 C0.36 16.61, -0.62 11.73, 0 7.5 M0 7.5 C1.69 1.41, 0.52 1.32, 7.5 0 M0 7.5 C2.13 2.8, 3.64 1.51, 7.5 0" stroke="#2f9e44" stroke-width="1" fill="none"></path></g><g transform="translate(109.10000038146973 355) rotate(0 29.149999618530273 10)"><text x="29.149999618530273" y="0" font-family="Virgil, Segoe UI Emoji" font-size="16px" fill="#2f9e44" text-anchor="middle" style="white-space: pre;" direction="ltr" dominant-baseline="text-before-edge">Enclave</text></g><g stroke-linecap="round" transform="translate(10 10) rotate(0 81.5 15)"><path d="M7.5 0 M7.5 0 C50.91 2.7, 95.48 2, 155.5 0 M7.5 0 C50.79 -0.72, 92.7 -0.16, 155.5 0 M155.5 0 C160.3 1.9, 161.83 2.86, 163 7.5 M155.5 0 C158.46 -1.54, 163.94 0.85, 163 7.5 M163 7.5 C163.99 12.08, 163.47 18.6, 163 22.5 M163 7.5 C163.15 10.81, 162.76 13.17, 163 22.5 M163 22.5 C162.66 28, 161.07 30.58, 155.5 30 M163 22.5 C165.26 27.32, 162.34 28.75, 155.5 30 M155.5 30 C119.53 28.54, 82.76 27.81, 7.5 30 M155.5 30 C110.2 30.44, 65.6 31, 7.5 30 M7.5 30 C2.12 28.09, 1.06 28.21, 0 22.5 M7.5 30 C1.63 29.6, -2.29 28.94, 0 22.5 M0 22.5 C-0.43 17.78, -0.31 13.07, 0 7.5 M0 22.5 C0.04 17.59, 0.42 10.69, 0 7.5 M0 7.5 C0.76 3.87, 1.43 1.22, 7.5 0 M0 7.5 C0.71 2.41, 1.22 0.48, 7.5 0" stroke="#2f9e44" stroke-width="1" fill="none"></path></g><g transform="translate(69.86666679382324 15) rotate(0 21.633333206176758 10)"><text x="21.633333206176758" y="0" font-family="Virgil, Segoe UI Emoji" font-size="16px" fill="#2f9e44" text-anchor="middle" style="white-space: pre;" direction="ltr" dominant-baseline="text-before-edge">Client</text></g><g stroke-linecap="round" transform="translate(13 67) rotate(0 82 15)"><path d="M7.5 0 M7.5 0 C46.24 -1.18, 81.93 -2.34, 156.5 0 M7.5 0 C55.42 0.89, 101.06 1.47, 156.5 0 M156.5 0 C163.31 -1.86, 163.03 3.78, 164 7.5 M156.5 0 C159.39 1.35, 165 3.99, 164 7.5 M164 7.5 C163.73 13.78, 164.41 18.48, 164 22.5 M164 7.5 C163.65 11.62, 164.01 15.52, 164 22.5 M164 22.5 C164.74 28.71, 160.33 29.23, 156.5 30 M164 22.5 C165.88 29.39, 159.86 31.6, 156.5 30 M156.5 30 C115.53 30.08, 77.98 28.01, 7.5 30 M156.5 30 C123.93 29, 92.56 28.64, 7.5 30 M7.5 30 C4.21 28.78, -0.09 26.33, 0 22.5 M7.5 30 C3.72 28.37, 1.33 26.98, 0 22.5 M0 22.5 C0.13 17.61, 0.47 11.46, 0 7.5 M0 22.5 C-0.4 18.41, -0.26 13.74, 0 7.5 M0 7.5 C-1.65 0.59, 2.04 -0.62, 7.5 0 M0 7.5 C1.08 4.46, 2.54 -1.98, 7.5 0" stroke="#1971c2" stroke-width="1" fill="none"></path></g><g transform="translate(64.3166675567627 72) rotate(0 30.683332443237305 10)"><text x="30.683332443237305" y="0" font-family="Virgil, Segoe UI Emoji" font-size="16px" fill="#1971c2" text-anchor="middle" style="white-space: pre;" direction="ltr" dominant-baseline="text-before-edge">Network</text></g><g stroke-linecap="round"><g transform="translate(163.55887120499665 31.5) rotate(0 0.9652034583604632 156.50978802013844)"><path d="M0 0 C0.32 52.17, 1.61 260.85, 1.93 313.02 M0 0 C0.32 52.17, 1.61 260.85, 1.93 313.02" stroke="#2f9e44" stroke-width="4" fill="none"></path></g><g transform="translate(163.55887120499665 31.5) rotate(0 0.9652034583604632 156.50978802013844)"><path d="M0 0 L6.42 13.56 L-6.26 13.63 L0 0" stroke="none" stroke-width="0" fill="#2f9e44" fill-rule="evenodd"></path><path d="M0 0 C1.64 3.45, 3.27 6.91, 6.42 13.56 M0 0 C1.89 3.99, 3.78 7.98, 6.42 13.56 M6.42 13.56 C2.36 13.58, -1.7 13.61, -6.26 13.63 M6.42 13.56 C3.63 13.57, 0.84 13.59, -6.26 13.63 M-6.26 13.63 C-3.91 8.52, -1.56 3.4, 0 0 M-6.26 13.63 C-4.08 8.9, -1.91 4.16, 0 0 M0 0 C0 0, 0 0, 0 0 M0 0 C0 0, 0 0, 0 0" stroke="#2f9e44" stroke-width="4" fill="none"></path></g><g transform="translate(163.55887120499665 31.5) rotate(0 0.9652034583604632 156.50978802013844)"><path d="M1.93 313.02 L-4.49 299.46 L8.19 299.39 L1.93 313.02" stroke="none" stroke-width="0" fill="#2f9e44" fill-rule="evenodd"></path><path d="M1.93 313.02 C0.29 309.57, -1.34 306.11, -4.49 299.46 M1.93 313.02 C0.04 309.03, -1.85 305.04, -4.49 299.46 M-4.49 299.46 C-0.43 299.44, 3.63 299.41, 8.19 299.39 M-4.49 299.46 C-1.7 299.45, 1.09 299.43, 8.19 299.39 M8.19 299.39 C5.84 304.5, 3.49 309.62, 1.93 313.02 M8.19 299.39 C6.01 304.12, 3.84 308.86, 1.93 313.02 M1.93 313.02 C1.93 313.02, 1.93 313.02, 1.93 313.02 M1.93 313.02 C1.93 313.02, 1.93 313.02, 1.93 313.02" stroke="#2f9e44" stroke-width="4" fill="none"></path></g></g><mask></mask><g stroke-linecap="round" transform="translate(196 141.125) rotate(0 61.5 147)"><path d="M30.75 0 M30.75 0 C45.55 0, 60.34 0, 92.25 0 M30.75 0 C50.95 0, 71.16 0, 92.25 0 M92.25 0 C112.75 0, 123 10.25, 123 30.75 M92.25 0 C112.75 0, 123 10.25, 123 30.75 M123 30.75 C123 89.68, 123 148.61, 123 263.25 M123 30.75 C123 119.24, 123 207.73, 123 263.25 M123 263.25 C123 283.75, 112.75 294, 92.25 294 M123 263.25 C123 283.75, 112.75 294, 92.25 294 M92.25 294 C68.2 294, 44.16 294, 30.75 294 M92.25 294 C73.53 294, 54.82 294, 30.75 294 M30.75 294 C10.25 294, 0 283.75, 0 263.25 M30.75 294 C10.25 294, 0 283.75, 0 263.25 M0 263.25 C0 205.79, 0 148.33, 0 30.75 M0 263.25 C0 213.28, 0 163.31, 0 30.75 M0 30.75 C0 10.25, 10.25 0, 30.75 0 M0 30.75 C0 10.25, 10.25 0, 30.75 0" stroke="#1971c2" stroke-width="4" fill="none"></path></g><g transform="translate(223.8499984741211 146.125) rotate(0 33.650001525878906 9.599999999999994)"><text x="33.650001525878906" y="0" font-family="Cascadia, Segoe UI Emoji" font-size="16px" fill="#1971c2" text-anchor="middle" style="white-space: pre;" direction="ltr" dominant-baseline="text-before-edge">Memory</text></g><g stroke-linecap="round" transform="translate(197 346.125) rotate(0 61 44.5)"><path d="M22.25 0 M22.25 0 C41.18 0, 60.1 0, 99.75 0 M22.25 0 C49.2 0, 76.15 0, 99.75 0 M99.75 0 C114.58 0, 122 7.42, 122 22.25 M99.75 0 C114.58 0, 122 7.42, 122 22.25 M122 22.25 C122 38.02, 122 53.79, 122 66.75 M122 22.25 C122 38.94, 122 55.63, 122 66.75 M122 66.75 C122 81.58, 114.58 89, 99.75 89 M122 66.75 C122 81.58, 114.58 89, 99.75 89 M99.75 89 C77.57 89, 55.4 89, 22.25 89 M99.75 89 C77.32 89, 54.89 89, 22.25 89 M22.25 89 C7.42 89, 0 81.58, 0 66.75 M22.25 89 C7.42 89, 0 81.58, 0 66.75 M0 66.75 C0 56.3, 0 45.84, 0 22.25 M0 66.75 C0 57.04, 0 47.34, 0 22.25 M0 22.25 C0 7.42, 7.42 0, 22.25 0 M0 22.25 C0 7.42, 7.42 0, 22.25 0" stroke="#2f9e44" stroke-width="4" fill="none"></path></g><g transform="translate(227.86666679382324 410.92499999999995) rotate(0 30.133333206176758 9.600000000000023)"><text x="30.133333206176758" y="0" font-family="Cascadia, Segoe UI Emoji" font-size="16px" fill="#2f9e44" text-anchor="middle" style="white-space: pre;" direction="ltr" dominant-baseline="text-before-edge">PRM 🔑</text></g><g stroke-linecap="round" transform="translate(197.5 166.125) rotate(0 41.5 15)"><path d="M7.5 0 M7.5 0 C20.21 0.81, 38.55 -0.21, 75.5 0 M7.5 0 C28.68 0.75, 47.94 -0.23, 75.5 0 M75.5 0 C81.42 -0.89, 82.85 1.62, 83 7.5 M75.5 0 C81.84 -2.07, 81.05 2.05, 83 7.5 M83 7.5 C83.06 14.38, 83.96 19.5, 83 22.5 M83 7.5 C82.36 10.79, 82.66 13.64, 83 22.5 M83 22.5 C84.85 27.43, 79.64 30.32, 75.5 30 M83 22.5 C83.37 28.8, 81.82 32.24, 75.5 30 M75.5 30 C55.8 29.85, 37.33 29.38, 7.5 30 M75.5 30 C59.65 30.15, 43.94 30.02, 7.5 30 M7.5 30 C3.06 28.37, 1.16 26.17, 0 22.5 M7.5 30 C2.7 32.24, -1.42 25.25, 0 22.5 M0 22.5 C1.07 18.63, 0.35 15.25, 0 7.5 M0 22.5 C-0.52 17.71, -0.26 12.86, 0 7.5 M0 7.5 C1.4 1.01, 2.53 -0.08, 7.5 0 M0 7.5 C0.34 1.76, 4.63 0.98, 7.5 0" stroke="#1971c2" stroke-width="1" fill="none"></path></g><g transform="translate(203.1500015258789 171.125) rotate(0 35.849998474121094 10)"><text x="35.849998474121094" y="0" font-family="Virgil, Segoe UI Emoji" font-size="16px" fill="#1971c2" text-anchor="middle" style="white-space: pre;" direction="ltr" dominant-baseline="text-before-edge">App host</text></g><g stroke-linecap="round" transform="translate(195.5 277.125) rotate(0 35.5 15)"><path d="M7.5 0 M7.5 0 C18.94 -1.72, 33.88 -1.74, 63.5 0 M7.5 0 C26.32 0.54, 45.77 0.58, 63.5 0 M63.5 0 C69.28 1, 69.53 4.25, 71 7.5 M63.5 0 C69.49 -1.75, 71.18 4.7, 71 7.5 M71 7.5 C72.3 11.19, 69.48 14.61, 71 22.5 M71 7.5 C70.45 12.35, 71.66 19.12, 71 22.5 M71 22.5 C71.57 27.8, 69.85 28.34, 63.5 30 M71 22.5 C70.35 29.75, 66.32 28.43, 63.5 30 M63.5 30 C51.67 27.79, 40.89 27.75, 7.5 30 M63.5 30 C43.89 28.96, 22.2 30.11, 7.5 30 M7.5 30 C2.51 30.49, 1.25 27.53, 0 22.5 M7.5 30 C4.51 28.55, 0.85 28.43, 0 22.5 M0 22.5 C1.32 16.88, -0.36 13.12, 0 7.5 M0 22.5 C0.47 18.71, -0.53 14.62, 0 7.5 M0 7.5 C1.19 4.15, 0.67 1.47, 7.5 0 M0 7.5 C-0.87 1.8, 0.99 -2.07, 7.5 0" stroke="#1971c2" stroke-width="1" fill="none"></path></g><g transform="translate(201.03333282470703 282.125) rotate(0 29.96666717529297 10)"><text x="29.96666717529297" y="0" font-family="Virgil, Segoe UI Emoji" font-size="16px" fill="#1971c2" text-anchor="middle" style="white-space: pre;" direction="ltr" dominant-baseline="text-before-edge">Drivers</text></g><g stroke-linecap="round" transform="translate(202.5 348.125) rotate(0 55 15)"><path d="M7.5 0 M7.5 0 C34.66 0.2, 58.15 2.4, 102.5 0 M7.5 0 C40.8 1.43, 75.51 1.49, 102.5 0 M102.5 0 C109.12 0.86, 111.95 2.5, 110 7.5 M102.5 0 C107.3 -1.31, 111.42 3.11, 110 7.5 M110 7.5 C109.11 10.05, 109.92 13.5, 110 22.5 M110 7.5 C110.43 13.81, 109.25 18.32, 110 22.5 M110 22.5 C108.2 29.44, 108.88 30.11, 102.5 30 M110 22.5 C110.8 27.19, 108.71 30.74, 102.5 30 M102.5 30 C70.23 31.35, 37.52 31.04, 7.5 30 M102.5 30 C82.53 29.48, 64.92 28.84, 7.5 30 M7.5 30 C2.04 31.99, -0.37 28.29, 0 22.5 M7.5 30 C2.12 28.56, 0.61 27.98, 0 22.5 M0 22.5 C-0.61 15.37, -0.08 9.97, 0 7.5 M0 22.5 C-0.04 17.03, 0.32 12.29, 0 7.5 M0 7.5 C-1.4 2.72, 1.99 -0.2, 7.5 0 M0 7.5 C-1.09 4.32, 3.86 0.86, 7.5 0" stroke="#2f9e44" stroke-width="1" fill="none"></path></g><g transform="translate(207.98333358764648 353.125) rotate(0 49.516666412353516 10)"><text x="49.516666412353516" y="0" font-family="Virgil, Segoe UI Emoji" font-size="16px" fill="#2f9e44" text-anchor="middle" style="white-space: pre;" direction="ltr" dominant-baseline="text-before-edge">App enclave</text></g></svg>