<svg version="1.1" xmlns="http://www.w3.org/2000/svg" viewBox="0 0 611.417632851806 286.7885153238516" width="611.417632851806" height="286.7885153238516">
  <!-- svg-source:excalidraw -->
  
  <defs>
    <style class="style-fonts">
      @font-face {
        font-family: "Virgil";
        src: url("https://excalidraw.com/Virgil.woff2");
      }
      @font-face {
        font-family: "Cascadia";
        src: url("https://excalidraw.com/Cascadia.woff2");
      }
    </style>
    
  </defs>
  <g stroke-linecap="round" transform="translate(198.09526842414505 171.73310524606788) rotate(0 36.5 15.5)"><path d="M7.75 0 M7.75 0 C24.45 -0.29, 42.82 -1.38, 65.25 0 M7.75 0 C26.29 0.14, 44.94 -0.57, 65.25 0 M65.25 0 C71.66 -1.71, 73.46 3.77, 73 7.75 M65.25 0 C70.7 -1.28, 73.11 4.84, 73 7.75 M73 7.75 C71.53 12.64, 71.78 16.6, 73 23.25 M73 7.75 C72.73 12.92, 72.48 16.81, 73 23.25 M73 23.25 C74.15 29.15, 71.96 29.36, 65.25 31 M73 23.25 C72.55 30.41, 69.74 31.83, 65.25 31 M65.25 31 C49.93 30.14, 36.69 32.36, 7.75 31 M65.25 31 C49.75 31.09, 32.98 31.84, 7.75 31 M7.75 31 C1.17 31.38, -1.39 27.82, 0 23.25 M7.75 31 C4.15 31.56, 1.6 30.52, 0 23.25 M0 23.25 C-0.57 20.37, -0.05 16.58, 0 7.75 M0 23.25 C-0.02 19.94, -0.55 15.16, 0 7.75 M0 7.75 C0.96 2.48, 1.56 -1.79, 7.75 0 M0 7.75 C0.01 4.78, 3.81 0.71, 7.75 0" stroke="#1971c2" stroke-width="1" fill="none"></path></g><g transform="translate(211.91948717414505 178.03310524606786) rotate(0 22.67578125 9.2)"><text x="22.67578125" y="0" font-family="Helvetica, Segoe UI Emoji" font-size="16px" fill="#1971c2" text-anchor="middle" style="white-space: pre;" direction="ltr" dominant-baseline="text-before-edge">Admin</text></g><g stroke-linecap="round" transform="translate(196.62091754303498 96.53471868192574) rotate(0 36.5 15.5)"><path d="M7.75 0 M7.75 0 C21.56 0.01, 31.73 0.45, 65.25 0 M7.75 0 C30.67 -0.95, 52.17 -0.94, 65.25 0 M65.25 0 C69.82 1.36, 73.48 3.97, 73 7.75 M65.25 0 C72.52 -1.33, 74.83 3.6, 73 7.75 M73 7.75 C73.93 11.15, 74.32 17.41, 73 23.25 M73 7.75 C72.7 12.97, 73.07 17.05, 73 23.25 M73 23.25 C71.21 28.43, 72.33 32.06, 65.25 31 M73 23.25 C73.71 26.73, 69.33 30.6, 65.25 31 M65.25 31 C44.58 31.44, 26.68 29.7, 7.75 31 M65.25 31 C45.2 30.44, 26.27 30.79, 7.75 31 M7.75 31 C1.78 30.99, 1.89 30.24, 0 23.25 M7.75 31 C0.39 32.74, -2.06 28.74, 0 23.25 M0 23.25 C1.49 20.97, -0.49 16.58, 0 7.75 M0 23.25 C0.54 16.38, -0.29 11.31, 0 7.75 M0 7.75 C-0.46 3.06, 4.17 -1.76, 7.75 0 M0 7.75 C-0.99 3.79, 4.05 0.07, 7.75 0" stroke="#f08c00" stroke-width="1" fill="none"></path></g><g transform="translate(210.44123004303498 102.83471868192574) rotate(0 22.6796875 9.2)"><text x="22.6796875" y="0" font-family="Helvetica, Segoe UI Emoji" font-size="16px" fill="#f08c00" text-anchor="middle" style="white-space: pre;" direction="ltr" dominant-baseline="text-before-edge">States</text></g><g stroke-linecap="round" transform="translate(198.60482244575545 209.2875596764264) rotate(0 36.5 15.5)"><path d="M7.75 0 M7.75 0 C26.23 1.58, 41.59 0.35, 65.25 0 M7.75 0 C21.26 0.3, 35.19 -0.97, 65.25 0 M65.25 0 C72.01 0.88, 72.43 3.71, 73 7.75 M65.25 0 C70.52 1.25, 71.8 4.41, 73 7.75 M73 7.75 C72.16 12.83, 73.76 19.45, 73 23.25 M73 7.75 C73.6 12.02, 73.1 14.9, 73 23.25 M73 23.25 C72.06 28.07, 71.1 30.92, 65.25 31 M73 23.25 C74.36 26.73, 70.54 30.82, 65.25 31 M65.25 31 C52.99 30.38, 38.92 31.48, 7.75 31 M65.25 31 C50.61 31.91, 33.13 31.75, 7.75 31 M7.75 31 C0.79 31.28, -1.51 27.87, 0 23.25 M7.75 31 C3.38 33.15, 1.79 27.63, 0 23.25 M0 23.25 C1.26 19.47, -1.56 12.88, 0 7.75 M0 23.25 C0.65 17.12, -0.3 12.76, 0 7.75 M0 7.75 C1.28 2.65, 2.78 0.37, 7.75 0 M0 7.75 C0.82 3.01, 2.4 1.41, 7.75 0" stroke="#1971c2" stroke-width="1" fill="none"></path></g><g transform="translate(212.42904119575545 215.5875596764264) rotate(0 22.67578125 9.199999999999996)"><text x="22.67578125" y="0" font-family="Helvetica, Segoe UI Emoji" font-size="16px" fill="#1971c2" text-anchor="middle" style="white-space: pre;" direction="ltr" dominant-baseline="text-before-edge">Admin</text></g><g stroke-linecap="round" transform="translate(198.220468966743 134.12417713906416) rotate(0 36.5 15.5)"><path d="M7.75 0 M7.75 0 C27.45 0.66, 45.82 2, 65.25 0 M7.75 0 C21.39 0.31, 35.65 0.29, 65.25 0 M65.25 0 C69.37 1.59, 74.6 2.84, 73 7.75 M65.25 0 C72 -1.27, 71.8 3.68, 73 7.75 M73 7.75 C72.93 13.8, 73.74 17.37, 73 23.25 M73 7.75 C73.19 11.23, 73.39 14.21, 73 23.25 M73 23.25 C73.1 28.26, 68.77 31.78, 65.25 31 M73 23.25 C75.09 28.72, 69.11 29.53, 65.25 31 M65.25 31 C48.12 32.66, 32.83 28.87, 7.75 31 M65.25 31 C42.91 30.81, 22.42 32.02, 7.75 31 M7.75 31 C4.14 30.31, 0.39 30.38, 0 23.25 M7.75 31 C3.34 33.1, 1.74 26.33, 0 23.25 M0 23.25 C0.29 20.3, -1.44 14.22, 0 7.75 M0 23.25 C-0.02 17.93, 0.18 12.47, 0 7.75 M0 7.75 C-0.16 3.81, 2.95 -1.68, 7.75 0 M0 7.75 C-1.85 1.04, 3.65 0.4, 7.75 0" stroke="#1971c2" stroke-width="1" fill="none"></path></g><g transform="translate(212.044687716743 140.42417713906417) rotate(0 22.67578125 9.2)"><text x="22.67578125" y="0" font-family="Helvetica, Segoe UI Emoji" font-size="16px" fill="#1971c2" text-anchor="middle" style="white-space: pre;" direction="ltr" dominant-baseline="text-before-edge">Admin</text></g><g stroke-linecap="round" transform="translate(178.73616913696236 88.04144732630547) rotate(0 55.98429982978061 81.37717868114538)"><path d="M27.99 0 M27.99 0 C42.22 0.72, 57.91 -0.98, 83.98 0 M27.99 0 C42.41 -0.46, 59.48 1.25, 83.98 0 M83.98 0 C104.04 1.2, 112.35 8.73, 111.97 27.99 M83.98 0 C100.86 1.37, 110.29 8.25, 111.97 27.99 M111.97 27.99 C110.81 71.73, 113.56 111.31, 111.97 134.76 M111.97 27.99 C110.99 57.2, 111.32 87.84, 111.97 134.76 M111.97 134.76 C110.56 153.25, 101.47 162.27, 83.98 162.75 M111.97 134.76 C111.47 155.61, 100.83 161.15, 83.98 162.75 M83.98 162.75 C64.92 163.62, 41.99 161.45, 27.99 162.75 M83.98 162.75 C63.6 162.48, 42.52 162.45, 27.99 162.75 M27.99 162.75 C11.09 163.5, 1.97 152.59, 0 134.76 M27.99 162.75 C8.66 162, 0.39 154.69, 0 134.76 M0 134.76 C0.27 108.72, -0.6 80.26, 0 27.99 M0 134.76 C-0.57 98.21, 0.08 62.74, 0 27.99 M0 27.99 C-1.12 8.31, 8.16 1.44, 27.99 0 M0 27.99 C-0.74 7.45, 8.51 0.99, 27.99 0" stroke="#f08c00" stroke-width="1" fill="none"></path></g><g transform="translate(216.81542645168386 66.80243546134619) rotate(0 15.12109375 9.2)"><text x="0" y="0" font-family="Helvetica, Segoe UI Emoji" font-size="16px" fill="#f08c00" text-anchor="start" style="white-space: pre;" direction="ltr" dominant-baseline="text-before-edge">KAL</text></g><g stroke-linecap="round" transform="translate(332.85747587154555 171.13327346217739) rotate(0 36.5 15.5)"><path d="M7.75 0 M7.75 0 C21.31 1.98, 37.97 0.24, 65.25 0 M7.75 0 C30.49 -0.01, 52.78 1.06, 65.25 0 M65.25 0 C68.86 1.66, 73.54 3.05, 73 7.75 M65.25 0 C70.41 0.77, 71.79 1.67, 73 7.75 M73 7.75 C71.51 13.36, 71.37 19.21, 73 23.25 M73 7.75 C73.19 11.73, 73.67 17.05, 73 23.25 M73 23.25 C72.04 28.28, 71.86 29.04, 65.25 31 M73 23.25 C72.16 29.03, 68.96 29.67, 65.25 31 M65.25 31 C43.5 31.94, 22.18 31.69, 7.75 31 M65.25 31 C52.74 30.62, 42.32 30.86, 7.75 31 M7.75 31 C1.41 32.42, 1 27.78, 0 23.25 M7.75 31 C3.67 29.25, 0.02 27, 0 23.25 M0 23.25 C-1.38 17.85, -0.75 10.55, 0 7.75 M0 23.25 C-0.41 18.25, -0.01 12.07, 0 7.75 M0 7.75 C0.67 3.62, 2.18 1.04, 7.75 0 M0 7.75 C-1.62 2.95, 1.73 -0.78, 7.75 0" stroke="#1971c2" stroke-width="1" fill="none"></path></g><g transform="translate(350.23247587154555 177.43327346217737) rotate(0 19.125 9.2)"><text x="19.125" y="0" font-family="Helvetica, Segoe UI Emoji" font-size="16px" fill="#1971c2" text-anchor="middle" style="white-space: pre;" direction="ltr" dominant-baseline="text-before-edge">Table</text></g><g stroke-linecap="round" transform="translate(331.38312499043553 95.93488689803523) rotate(0 36.5 15.5)"><path d="M7.75 0 M7.75 0 C31.42 -1.65, 50.95 0.5, 65.25 0 M7.75 0 C23.33 0.3, 40.75 -0.3, 65.25 0 M65.25 0 C70.41 0.67, 71.95 1.79, 73 7.75 M65.25 0 C72.19 -1.21, 74.73 0.49, 73 7.75 M73 7.75 C72.68 13.19, 73.32 16.77, 73 23.25 M73 7.75 C72.74 11.34, 73.67 14.27, 73 23.25 M73 23.25 C72.27 28.95, 69.15 29.84, 65.25 31 M73 23.25 C74.46 28.67, 71.64 30.02, 65.25 31 M65.25 31 C44.33 29.27, 25.24 29.95, 7.75 31 M65.25 31 C46.48 31.94, 29.39 30.91, 7.75 31 M7.75 31 C3.52 29.48, 0.02 27.18, 0 23.25 M7.75 31 C4.87 30.78, 0.67 26.35, 0 23.25 M0 23.25 C0.99 18.8, 0.82 11.74, 0 7.75 M0 23.25 C0.24 17.89, -0.18 12.13, 0 7.75 M0 7.75 C-1.41 2.9, 1.84 -0.67, 7.75 0 M0 7.75 C-1.45 2.46, 1.84 0.79, 7.75 0" stroke="#1971c2" stroke-width="1" fill="none"></path></g><g transform="translate(348.75812499043553 102.23488689803523) rotate(0 19.125 9.2)"><text x="19.125" y="0" font-family="Helvetica, Segoe UI Emoji" font-size="16px" fill="#1971c2" text-anchor="middle" style="white-space: pre;" direction="ltr" dominant-baseline="text-before-edge">Table</text></g><g stroke-linecap="round" transform="translate(334.18233998192454 209.5030379813045) rotate(0 36.5 15.5)"><path d="M7.75 0 M7.75 0 C19.82 -0.12, 34.36 -1.69, 65.25 0 M7.75 0 C29.77 0.2, 51.26 -0.53, 65.25 0 M65.25 0 C71.96 -1.05, 74.5 0.77, 73 7.75 M65.25 0 C70.07 -2.29, 72.65 2.34, 73 7.75 M73 7.75 C72.04 14.57, 73.7 18.36, 73 23.25 M73 7.75 C72.83 12.51, 72.62 16.4, 73 23.25 M73 23.25 C74.27 28.64, 71.48 30.15, 65.25 31 M73 23.25 C73.73 26.95, 70.85 28.87, 65.25 31 M65.25 31 C53.61 32.54, 42.12 29.5, 7.75 31 M65.25 31 C44.38 30.06, 22.58 30.2, 7.75 31 M7.75 31 C4.58 30.81, 0.58 26.62, 0 23.25 M7.75 31 C3.76 29.86, -0.46 29.77, 0 23.25 M0 23.25 C1.04 17.79, -0.21 12.49, 0 7.75 M0 23.25 C-0.51 17.92, -0.26 12.08, 0 7.75 M0 7.75 C-1.26 2.48, 1.94 0.69, 7.75 0 M0 7.75 C0.11 1.03, 0.55 0.47, 7.75 0" stroke="#1971c2" stroke-width="1" fill="none"></path></g><g transform="translate(351.55733998192454 215.80303798130447) rotate(0 19.125 9.200000000000003)"><text x="19.125" y="0" font-family="Helvetica, Segoe UI Emoji" font-size="16px" fill="#1971c2" text-anchor="middle" style="white-space: pre;" direction="ltr" dominant-baseline="text-before-edge">Table</text></g><g stroke-linecap="round" transform="translate(332.98267641414355 133.52434535517364) rotate(0 36.5 15.5)"><path d="M7.75 0 M7.75 0 C26.69 0.99, 42.77 0.45, 65.25 0 M7.75 0 C27.7 -0.3, 46.86 -0.68, 65.25 0 M65.25 0 C70.12 -2, 72.7 2.37, 73 7.75 M65.25 0 C71.94 0.71, 73.27 1.09, 73 7.75 M73 7.75 C72.96 14.66, 71.55 18.77, 73 23.25 M73 7.75 C73.39 12.9, 73.31 17.55, 73 23.25 M73 23.25 C73.63 27.14, 70.8 29.15, 65.25 31 M73 23.25 C70.88 26.26, 69.09 31.37, 65.25 31 M65.25 31 C44.04 31.67, 19.35 31.61, 7.75 31 M65.25 31 C53.37 30.55, 39.79 29.75, 7.75 31 M7.75 31 C3.6 30.01, -0.4 29.59, 0 23.25 M7.75 31 C4.05 32.11, -0.94 30.06, 0 23.25 M0 23.25 C0.82 18.1, 0.82 12.49, 0 7.75 M0 23.25 C-0.43 18.31, -0.19 13.72, 0 7.75 M0 7.75 C0.1 1.23, 0.82 0.41, 7.75 0 M0 7.75 C0.99 2.31, 0.82 1.22, 7.75 0" stroke="#1971c2" stroke-width="1" fill="none"></path></g><g transform="translate(350.35767641414355 139.82434535517365) rotate(0 19.125 9.2)"><text x="19.125" y="0" font-family="Helvetica, Segoe UI Emoji" font-size="16px" fill="#1971c2" text-anchor="middle" style="white-space: pre;" direction="ltr" dominant-baseline="text-before-edge">Table</text></g><g stroke-linecap="round" transform="translate(313.4983765843629 87.44161554241497) rotate(0 55.98429982978061 81.37717868114538)"><path d="M27.99 0 M27.99 0 C46.97 -1.05, 63.81 1.54, 83.98 0 M27.99 0 C41.7 -0.49, 55.56 0.4, 83.98 0 M83.98 0 C103.96 0.61, 112.2 8.03, 111.97 27.99 M83.98 0 C104.33 0.97, 110.87 9.18, 111.97 27.99 M111.97 27.99 C111.46 66.46, 109.77 108.74, 111.97 134.76 M111.97 27.99 C112.85 60.57, 112.73 93.5, 111.97 134.76 M111.97 134.76 C110.13 151.55, 101.48 163.08, 83.98 162.75 M111.97 134.76 C114.12 154.34, 101.29 164.39, 83.98 162.75 M83.98 162.75 C62.85 163.03, 43.53 165.01, 27.99 162.75 M83.98 162.75 C68.22 161.76, 51.25 162.84, 27.99 162.75 M27.99 162.75 C10.61 163.72, -0.81 154.86, 0 134.76 M27.99 162.75 C9.6 162.56, 0.77 154.62, 0 134.76 M0 134.76 C-0.23 104.15, -1.23 73.78, 0 27.99 M0 134.76 C0.39 102.63, -0.54 72.05, 0 27.99 M0 27.99 C0.86 9.09, 7.8 1.06, 27.99 0 M0 27.99 C0.54 10.12, 10.29 -1.74, 27.99 0" stroke="#1971c2" stroke-width="1" fill="none"></path></g><g transform="translate(342.6901900670342 69.64632559348077) rotate(0 24.91015625 9.2)"><text x="0" y="0" font-family="Helvetica, Segoe UI Emoji" font-size="16px" fill="#1971c2" text-anchor="start" style="white-space: pre;" direction="ltr" dominant-baseline="text-before-edge">Ledger</text></g><g stroke-linecap="round" transform="translate(464.42058047153 172.3329370299584) rotate(0 36.5 15.5)"><path d="M7.75 0 M7.75 0 C27.5 1.41, 50.7 -1.03, 65.25 0 M7.75 0 C24.25 0.83, 40.86 -0.02, 65.25 0 M65.25 0 C71.68 0.22, 74.06 1.73, 73 7.75 M65.25 0 C71.14 -1.47, 73.44 0.46, 73 7.75 M73 7.75 C73.11 12.42, 73.47 13.29, 73 23.25 M73 7.75 C73.44 12.91, 73.08 18.78, 73 23.25 M73 23.25 C74.99 28.23, 71 29.21, 65.25 31 M73 23.25 C74.17 27.28, 69.96 32.35, 65.25 31 M65.25 31 C45.76 31, 23.23 31.43, 7.75 31 M65.25 31 C44.31 31.46, 24.41 30.96, 7.75 31 M7.75 31 C1.33 30.89, -0.65 29.1, 0 23.25 M7.75 31 C2.69 29.44, -2.03 28.89, 0 23.25 M0 23.25 C0.84 18.3, 0.55 13.26, 0 7.75 M0 23.25 C-0.76 19.7, -0.12 16, 0 7.75 M0 7.75 C-1.79 4.03, 1.47 1.15, 7.75 0 M0 7.75 C-0.13 1.54, 0.86 -0.54, 7.75 0" stroke="#1971c2" stroke-width="1" fill="none"></path></g><g transform="translate(481.79558047153 178.63293702995838) rotate(0 19.125 9.199999999999996)"><text x="19.125" y="0" font-family="Helvetica, Segoe UI Emoji" font-size="16px" fill="#1971c2" text-anchor="middle" style="white-space: pre;" direction="ltr" dominant-baseline="text-before-edge">Table</text></g><g stroke-linecap="round" transform="translate(462.94622959042 97.13455046581625) rotate(0 36.5 15.5)"><path d="M7.75 0 M7.75 0 C29.11 1.72, 48.78 -0.46, 65.25 0 M7.75 0 C27.18 0.44, 45.87 -0.09, 65.25 0 M65.25 0 C71.05 -1.27, 73.38 0.73, 73 7.75 M65.25 0 C68.3 -2.15, 71.67 2.96, 73 7.75 M73 7.75 C74.16 14.63, 72.57 20.68, 73 23.25 M73 7.75 C73.77 11.15, 73.23 14, 73 23.25 M73 23.25 C74.02 27.43, 70.02 32.17, 65.25 31 M73 23.25 C74.47 29.53, 69.48 32.65, 65.25 31 M65.25 31 C48.35 30.79, 30.42 29.79, 7.75 31 M65.25 31 C46.45 30.75, 28.58 31.15, 7.75 31 M7.75 31 C2.68 29.65, -1.77 28.83, 0 23.25 M7.75 31 C3.58 30.73, -1.76 29.64, 0 23.25 M0 23.25 C-1.23 19.45, -0.7 11.93, 0 7.75 M0 23.25 C-0.69 19.31, -0.43 14.69, 0 7.75 M0 7.75 C-0.11 1.67, 1.08 -0.47, 7.75 0 M0 7.75 C1.19 4.55, 0.7 1.41, 7.75 0" stroke="#1971c2" stroke-width="1" fill="none"></path></g><g transform="translate(480.32122959042 103.43455046581624) rotate(0 19.125 9.2)"><text x="19.125" y="0" font-family="Helvetica, Segoe UI Emoji" font-size="16px" fill="#1971c2" text-anchor="middle" style="white-space: pre;" direction="ltr" dominant-baseline="text-before-edge">Table</text></g><g stroke-linecap="round" transform="translate(465.745444581909 210.7027015490855) rotate(0 36.5 15.5)"><path d="M7.75 0 M7.75 0 C29.69 -1.06, 49.39 1.48, 65.25 0 M7.75 0 C25.96 -0.39, 43.72 -0.68, 65.25 0 M65.25 0 C68.58 -1.87, 71.84 2.91, 73 7.75 M65.25 0 C72.57 0.91, 71.65 4.22, 73 7.75 M73 7.75 C71.77 13.19, 71.99 20.15, 73 23.25 M73 7.75 C73.44 11.87, 72.89 17.21, 73 23.25 M73 23.25 C74.28 29.38, 69.6 32.43, 65.25 31 M73 23.25 C73.27 28.22, 71.18 32.19, 65.25 31 M65.25 31 C49.49 29.85, 32.41 29.34, 7.75 31 M65.25 31 C48.36 30.52, 30.49 31.4, 7.75 31 M7.75 31 C3.45 30.76, -1.53 29.48, 0 23.25 M7.75 31 C3.13 31.79, 0.96 26.67, 0 23.25 M0 23.25 C-0.08 17.39, -0.54 10.13, 0 7.75 M0 23.25 C0.04 17.12, -0.49 11.52, 0 7.75 M0 7.75 C1.03 4.29, 0.95 1.23, 7.75 0 M0 7.75 C-0.55 4.37, 1.69 -0.7, 7.75 0" stroke="#1971c2" stroke-width="1" fill="none"></path></g><g transform="translate(483.120444581909 217.0027015490855) rotate(0 19.125 9.199999999999996)"><text x="19.125" y="0" font-family="Helvetica, Segoe UI Emoji" font-size="16px" fill="#1971c2" text-anchor="middle" style="white-space: pre;" direction="ltr" dominant-baseline="text-before-edge">Table</text></g><g stroke-linecap="round" transform="translate(464.545781014128 134.72400892295468) rotate(0 36.5 15.5)"><path d="M7.75 0 M7.75 0 C21.58 0.7, 34.11 0.27, 65.25 0 M7.75 0 C20.42 -0.4, 34.35 0.69, 65.25 0 M65.25 0 C72.29 0.79, 71.83 4.01, 73 7.75 M65.25 0 C71.57 -0.73, 74.08 0.83, 73 7.75 M73 7.75 C72.76 12.87, 71.51 17.87, 73 23.25 M73 7.75 C73.46 12.01, 72.65 16.07, 73 23.25 M73 23.25 C73.24 28.24, 71.08 32.04, 65.25 31 M73 23.25 C72.53 29.61, 68.8 31.37, 65.25 31 M65.25 31 C50.03 29.99, 35.71 30.73, 7.75 31 M65.25 31 C52.32 31, 37.76 31.65, 7.75 31 M7.75 31 C3.06 31.69, 0.83 26.9, 0 23.25 M7.75 31 C4.39 30.05, -1.91 28.2, 0 23.25 M0 23.25 C1.18 17.73, 0.95 13.84, 0 7.75 M0 23.25 C0.52 19.97, -0.52 15.84, 0 7.75 M0 7.75 C-0.48 4.14, 1.81 -0.61, 7.75 0 M0 7.75 C-0.63 2.77, 3.77 -0.65, 7.75 0" stroke="#1971c2" stroke-width="1" fill="none"></path></g><g transform="translate(481.920781014128 141.0240089229547) rotate(0 19.125 9.2)"><text x="19.125" y="0" font-family="Helvetica, Segoe UI Emoji" font-size="16px" fill="#1971c2" text-anchor="middle" style="white-space: pre;" direction="ltr" dominant-baseline="text-before-edge">Table</text></g><g stroke-linecap="round" transform="translate(445.0614811843474 88.64127911019598) rotate(0 55.98429982978061 81.37717868114538)"><path d="M27.99 0 M27.99 0 C46.49 0.2, 65.69 -2.02, 83.98 0 M27.99 0 C40.48 0.31, 50.52 0.62, 83.98 0 M83.98 0 C103.64 -0.64, 112.91 7.81, 111.97 27.99 M83.98 0 C102.66 -1.42, 114.26 9.11, 111.97 27.99 M111.97 27.99 C110.02 62.75, 112.18 99.57, 111.97 134.76 M111.97 27.99 C111.65 65.09, 111.87 102.87, 111.97 134.76 M111.97 134.76 C111.56 154.46, 101.23 163.08, 83.98 162.75 M111.97 134.76 C111.11 152.65, 101.19 162.63, 83.98 162.75 M83.98 162.75 C67.64 161.02, 54.41 163.65, 27.99 162.75 M83.98 162.75 C68.09 163.4, 52.14 162.29, 27.99 162.75 M27.99 162.75 C10.9 161.93, -1.66 153.23, 0 134.76 M27.99 162.75 C9.35 161.86, -2.06 155.09, 0 134.76 M0 134.76 C-1.52 107.15, -1.08 83.57, 0 27.99 M0 134.76 C0.63 94.39, 0.48 52.17, 0 27.99 M0 27.99 C-0.55 9.49, 10.36 -0.57, 27.99 0 M0 27.99 C1.32 7.43, 10.43 1.23, 27.99 0" stroke="#1971c2" stroke-width="1" fill="none"></path></g><g transform="translate(474.2532946670187 67.84598916126181) rotate(0 24.91015625 9.2)"><text x="0" y="0" font-family="Helvetica, Segoe UI Emoji" font-size="16px" fill="#1971c2" text-anchor="start" style="white-space: pre;" direction="ltr" dominant-baseline="text-before-edge">Ledger</text></g><g stroke-linecap="round" transform="translate(129.94985071386782 38.0554653354299) rotate(0 235.73389106896911 119.36652499421083)"><path d="M32 0 M32 0 C138.28 2.2, 244.14 1.55, 439.47 0 M32 0 C162.8 1.07, 293.07 1.42, 439.47 0 M439.47 0 C459.74 -1.35, 469.69 10.9, 471.47 32 M439.47 0 C460.98 -2.16, 470.43 11.71, 471.47 32 M471.47 32 C473.7 97.77, 473.85 164.5, 471.47 206.73 M471.47 32 C470.46 87.45, 469.64 140.96, 471.47 206.73 M471.47 206.73 C473.11 226.74, 460.75 239.56, 439.47 238.73 M471.47 206.73 C470.67 226.43, 462.38 239.95, 439.47 238.73 M439.47 238.73 C279.68 241.76, 119.63 240.45, 32 238.73 M439.47 238.73 C287.57 237.55, 135.26 237.26, 32 238.73 M32 238.73 C9.54 239.7, 0.1 226.87, 0 206.73 M32 238.73 C9.46 237.18, -1.88 227.14, 0 206.73 M0 206.73 C2.31 161.59, 0.06 118.23, 0 32 M0 206.73 C0.09 163.3, 0.21 120.31, 0 32 M0 32 C1.53 12, 8.87 0.46, 32 0 M0 32 C-1.62 11.52, 9.3 1.8, 32 0" stroke="#6741d9" stroke-width="1" fill="none"></path></g><g transform="translate(280.62261401520334 10) rotate(0 87.6015625 9.200000000000003)"><text x="0" y="0" font-family="Helvetica, Segoe UI Emoji" font-size="16px" fill="#2f9e44" text-anchor="start" style="white-space: pre;" direction="ltr" dominant-baseline="text-before-edge">Klave Ledger ecosystem</text></g><g stroke-linecap="round"><g transform="translate(267.9116594204892 100.30198195033566) rotate(0.7467282195817728 28.08558259231102 -9.312741771761072)"><path d="M0.91 0.3 C3.92 -2.96, 9.09 -16.92, 17.91 -18.69 C26.73 -20.46, 47.59 -11.53, 53.82 -10.3 M-0.07 -0.59 C3.3 -3.7, 10.64 -15.65, 20.03 -17.06 C29.42 -18.47, 50.27 -10.09, 56.25 -9.05" stroke="#f08c00" stroke-width="1" fill="none"></path></g><g transform="translate(267.9116594204892 100.30198195033566) rotate(0.7467282195817728 28.08558259231102 -9.312741771761072)"><path d="M38.39 -9.43 C43.48 -9.59, 48.26 -7.72, 54.45 -10.38 M37.8 -8.2 C43.51 -7.87, 48.17 -8.35, 56.51 -8.34" stroke="#f08c00" stroke-width="1" fill="none"></path></g><g transform="translate(267.9116594204892 100.30198195033566) rotate(0.7467282195817728 28.08558259231102 -9.312741771761072)"><path d="M41.8 -21.51 C45.99 -18.17, 49.79 -12.82, 54.45 -10.38 M41.21 -20.29 C45.81 -16.32, 49.44 -13.17, 56.51 -8.34" stroke="#f08c00" stroke-width="1" fill="none"></path></g></g><mask></mask><g stroke-linecap="round"><g transform="translate(268.8260286442087 98.87637960364837) rotate(0.7467282195817728 96.53143130101033 -20.98742803708067)"><path d="M1.18 -0.95 C10.6 -7.8, 23.55 -38.92, 55.48 -41.42 C87.4 -43.93, 169.83 -20.06, 192.73 -15.96 M0.34 1.17 C9.76 -5.96, 23.05 -40.33, 54.93 -42.96 C86.81 -45.6, 168.61 -19.1, 191.6 -14.64" stroke="#f08c00" stroke-width="1" fill="none"></path></g><g transform="translate(268.8260286442087 98.87637960364837) rotate(0.7467282195817728 96.53143130101033 -20.98742803708067)"><path d="M160.17 -10.41 C169.89 -13.72, 174.32 -14.07, 190.17 -13.08 M162.69 -12.65 C173.9 -12.31, 185.48 -13.22, 191.94 -14.69" stroke="#f08c00" stroke-width="1" fill="none"></path></g><g transform="translate(268.8260286442087 98.87637960364837) rotate(0.7467282195817728 96.53143130101033 -20.98742803708067)"><path d="M165.25 -30.29 C173.84 -29.38, 177.21 -25.56, 190.17 -13.08 M167.77 -32.53 C176.98 -24.31, 186.54 -17.29, 191.94 -14.69" stroke="#f08c00" stroke-width="1" fill="none"></path></g></g><mask></mask><g stroke-linecap="round" transform="translate(10 49.35601475081066) rotate(0 39 25)"><path d="M12.5 0 M12.5 0 C30.82 0.61, 52.13 0.73, 65.5 0 M12.5 0 C27.33 -0.88, 43.63 -1.1, 65.5 0 M65.5 0 C73.42 -1.46, 76.73 6.16, 78 12.5 M65.5 0 C72.95 1.86, 80.18 3.74, 78 12.5 M78 12.5 C76.56 21.81, 77.09 32.06, 78 37.5 M78 12.5 C78.63 17.94, 77.28 23.25, 78 37.5 M78 37.5 C78.18 43.84, 73.7 48.82, 65.5 50 M78 37.5 C78.61 48.02, 72.4 50.64, 65.5 50 M65.5 50 C48.91 48.56, 33 50.88, 12.5 50 M65.5 50 C52.5 49.63, 37.76 48.82, 12.5 50 M12.5 50 C4.29 51.06, -0.1 45.88, 0 37.5 M12.5 50 C5.64 50.78, 0.63 44, 0 37.5 M0 37.5 C-0.45 26.65, -0.9 21.62, 0 12.5 M0 37.5 C-0.09 27.58, 0.38 18.69, 0 12.5 M0 12.5 C-0.73 4.49, 4.44 -1.18, 12.5 0 M0 12.5 C2.1 3.36, 6.28 0.49, 12.5 0" stroke="#2f9e44" stroke-width="1" fill="none"></path></g><g transform="translate(28.09765625 55.95601475081065) rotate(0 20.90234375 18.4)"><text x="20.90234375" y="0" font-family="Helvetica, Segoe UI Emoji" font-size="16px" fill="#2f9e44" text-anchor="middle" style="white-space: pre;" direction="ltr" dominant-baseline="text-before-edge">State </text><text x="20.90234375" y="18.4" font-family="Helvetica, Segoe UI Emoji" font-size="16px" fill="#2f9e44" text-anchor="middle" style="white-space: pre;" direction="ltr" dominant-baseline="text-before-edge">Hash</text></g><g stroke-linecap="round"><g transform="translate(183.7452029272086 94.50739370691477) rotate(0 -48.66175410286452 -12.52281428929546)"><path d="M-0.77 0.73 C-17.13 -3.29, -82.16 -19.62, -98.35 -24.01 M1.02 0.07 C-14.95 -4.32, -79.44 -21.64, -96.09 -25.78" stroke="#2f9e44" stroke-width="1" fill="none"></path></g><g transform="translate(183.7452029272086 94.50739370691477) rotate(0 -48.66175410286452 -12.52281428929546)"><path d="M-65 -30.07 C-73.65 -28.7, -84.81 -26.27, -94.13 -26.94 M-65.29 -29.23 C-75.16 -28.53, -84.19 -27.27, -96.6 -26.39" stroke="#2f9e44" stroke-width="1" fill="none"></path></g><g transform="translate(183.7452029272086 94.50739370691477) rotate(0 -48.66175410286452 -12.52281428929546)"><path d="M-70.17 -10.21 C-77.36 -14.48, -87.05 -17.72, -94.13 -26.94 M-70.45 -9.37 C-79 -14.31, -86.55 -18.72, -96.6 -26.39" stroke="#2f9e44" stroke-width="1" fill="none"></path></g></g><mask></mask></svg>