<?xml version="1.0" encoding="UTF-8"?>
<svg id="Layer_1" data-name="Layer 1" xmlns="http://www.w3.org/2000/svg" xmlns:xlink="http://www.w3.org/1999/xlink" viewBox="0 0 1001.87 300.12">
  <defs>
    <style>
      .cls-1 {
        fill: url(#New_Gradient_Swatch_6-8);
      }

      .cls-2 {
        fill: url(#New_Gradient_Swatch_6-7);
      }

      .cls-3 {
        fill: url(#New_Gradient_Swatch_6-9);
      }

      .cls-4 {
        fill: url(#New_Gradient_Swatch_6-6);
      }

      .cls-5 {
        fill: url(#New_Gradient_Swatch_6-2);
      }

      .cls-6 {
        fill: url(#New_Gradient_Swatch_6-3);
      }

      .cls-7 {
        fill: url(#New_Gradient_Swatch_6-4);
      }

      .cls-8 {
        fill: url(#New_Gradient_Swatch_6-5);
      }

      .cls-9 {
        stroke-linecap: round;
        stroke-linejoin: round;
        stroke-width: 1.85px;
      }

      .cls-9, .cls-10 {
        fill: none;
        stroke: #091118;
      }

      .cls-11 {
        fill: #091118;
      }

      .cls-12 {
        fill: url(#New_Gradient_Swatch_6);
      }

      .cls-12, .cls-13 {
        stroke: #0c1117;
        stroke-linecap: square;
      }

      .cls-12, .cls-13, .cls-14, .cls-10 {
        stroke-miterlimit: 10;
        stroke-width: 2px;
      }

      .cls-15 {
        fill: #fff;
      }

      .cls-13 {
        fill: url(#New_Gradient_Swatch_6-12);
      }

      .cls-16 {
        fill: #0c1117;
      }

      .cls-14 {
        fill: #ebf0fb;
        stroke: #000;
      }

      .cls-17 {
        fill: #171719;
      }

      .cls-18 {
        fill: url(#New_Gradient_Swatch_6-11);
      }

      .cls-19 {
        fill: url(#New_Gradient_Swatch_6-10);
      }
    </style>
    <linearGradient id="New_Gradient_Swatch_6" data-name="New Gradient Swatch 6" x1="489.65" y1="273.87" x2="540.15" y2="273.87" gradientUnits="userSpaceOnUse">
      <stop offset="0" stop-color="#0ffcd2"/>
      <stop offset="1" stop-color="#0cbcfc"/>
    </linearGradient>
    <linearGradient id="New_Gradient_Swatch_6-2" data-name="New Gradient Swatch 6" x1="699.42" y1="61.36" x2="786.63" y2="61.36" xlink:href="#New_Gradient_Swatch_6"/>
    <linearGradient id="New_Gradient_Swatch_6-3" data-name="New Gradient Swatch 6" x1="699.42" y1="62.9" x2="786.63" y2="62.9" xlink:href="#New_Gradient_Swatch_6"/>
    <linearGradient id="New_Gradient_Swatch_6-4" data-name="New Gradient Swatch 6" x1="699.42" y1="63.01" x2="786.63" y2="63.01" xlink:href="#New_Gradient_Swatch_6"/>
    <linearGradient id="New_Gradient_Swatch_6-5" data-name="New Gradient Swatch 6" x1="699.42" y1="61.4" x2="786.63" y2="61.4" xlink:href="#New_Gradient_Swatch_6"/>
    <linearGradient id="New_Gradient_Swatch_6-6" data-name="New Gradient Swatch 6" x1="699.42" y1="64.93" x2="786.63" y2="64.93" xlink:href="#New_Gradient_Swatch_6"/>
    <linearGradient id="New_Gradient_Swatch_6-7" data-name="New Gradient Swatch 6" x1="699.42" y1="61.36" x2="786.63" y2="61.36" xlink:href="#New_Gradient_Swatch_6"/>
    <linearGradient id="New_Gradient_Swatch_6-8" data-name="New Gradient Swatch 6" x1="699.42" y1="61.88" x2="786.63" y2="61.88" xlink:href="#New_Gradient_Swatch_6"/>
    <linearGradient id="New_Gradient_Swatch_6-9" data-name="New Gradient Swatch 6" x1="699.42" y1="63.01" x2="786.63" y2="63.01" xlink:href="#New_Gradient_Swatch_6"/>
    <linearGradient id="New_Gradient_Swatch_6-10" data-name="New Gradient Swatch 6" x1="699.42" y1="106.59" x2="786.63" y2="106.59" xlink:href="#New_Gradient_Swatch_6"/>
    <linearGradient id="New_Gradient_Swatch_6-11" data-name="New Gradient Swatch 6" x1="699.42" y1="191.92" x2="786.63" y2="191.92" xlink:href="#New_Gradient_Swatch_6"/>
    <linearGradient id="New_Gradient_Swatch_6-12" data-name="New Gradient Swatch 6" x1="445.57" y1="22.65" x2="591.36" y2="22.65" xlink:href="#New_Gradient_Swatch_6"/>
  </defs>
  <rect class="cls-15" x="405.64" y="22.51" width="225.67" height="251.58" rx="10" ry="10"/>
  <path class="cls-11" d="M621.34,275.59h-7.36v-3h7.32l.04,3ZM606.66,275.59h-7.32v-3h7.32v3ZM592.01,275.59h-7.32v-3h7.32v3ZM577.36,275.59h-7.32v-3h7.32v3ZM562.72,275.59h-7.32v-3h7.32v3ZM548.07,275.59h-7.32v-3h7.32v3ZM533.43,275.59h-7.32v-3h7.32v3ZM518.78,275.59h-7.32v-3h7.32v3ZM504.14,275.59h-7.32v-3h7.32v3ZM489.49,275.59h-7.32v-3h7.32v3ZM474.85,275.59h-7.32v-3h7.32v3ZM460.2,275.59h-7.32v-3h7.32v3ZM445.55,275.59h-7.32v-3h7.32v3ZM430.91,275.59h-7.32v-3h7.32v3ZM416.26,275.59h-.63c-2.62,0-5.09-.86-7.13-2.48l1.86-2.35c1.51,1.2,3.34,1.83,5.27,1.83h.63v3h0ZM629.02,272.62l-2.02-2.22c1.56-1.41,2.54-3.34,2.75-5.43l2.98.3c-.29,2.82-1.61,5.43-3.72,7.34h.01ZM404.3,266.03c-.11-.64-.16-1.29-.16-1.94v-5.63h3v5.63c0,.48.04.97.12,1.44l-2.96.51h0ZM632.8,257.8h-3v-7.32h3v7.32ZM407.14,251.14h-3v-7.32h3v7.32ZM632.8,243.15h-3v-7.32h3v7.32ZM407.14,236.5h-3v-7.32h3v7.32ZM632.8,228.51h-3v-7.32h3v7.32ZM407.14,221.85h-3v-7.32h3v7.32ZM632.8,213.86h-3v-7.32h3v7.32ZM407.14,207.21h-3v-7.32h3v7.32ZM632.8,199.22h-3v-7.32h3v7.32ZM407.14,192.56h-3v-7.32h3v7.32ZM632.8,184.57h-3v-7.32h3v7.32ZM407.14,177.92h-3v-7.32h3v7.32ZM632.8,169.93h-3v-7.32h3v7.32ZM407.14,163.27h-3v-7.32h3v7.32ZM632.8,155.28h-3v-7.32h3v7.32ZM407.14,148.63h-3v-7.32h3v7.32ZM632.8,140.63h-3v-7.32h3v7.32ZM407.14,133.98h-3v-7.32h3v7.32ZM632.8,125.99h-3v-7.32h3v7.32ZM407.14,119.34h-3v-7.32h3v7.32ZM632.8,111.34h-3v-7.32h3v7.32ZM407.14,104.69h-3v-7.32h3v7.32ZM632.8,96.7h-3v-7.32h3v7.32ZM407.14,90.04h-3v-7.32h3v7.32ZM632.8,82.05h-3v-7.32h3v7.32ZM407.14,75.4h-3v-7.32h3v7.32ZM632.8,67.41h-3v-7.32h3v7.32ZM407.14,60.75h-3v-7.32h3v7.32ZM632.8,52.76h-3v-7.32h3v7.32ZM407.14,46.11h-3v-7.32h3v7.32ZM632.8,38.12h-3v-5.61c0-.49-.04-.98-.12-1.45l2.96-.51c.11.64.17,1.3.17,1.96v5.61h-.01ZM407.18,31.62l-2.98-.31c.29-2.82,1.62-5.43,3.74-7.34l2.01,2.23c-1.56,1.41-2.54,3.34-2.76,5.42h0ZM626.56,25.83c-1.51-1.19-3.33-1.82-5.26-1.82h-.65v-3h.65c2.61,0,5.07.85,7.12,2.47l-1.86,2.36h0ZM613.33,24.01h-7.32v-3h7.32v3ZM598.68,24.01h-7.32v-3h7.32v3ZM584.04,24.01h-7.32v-3h7.32v3ZM569.39,24.01h-7.32v-3h7.32v3ZM554.75,24.01h-7.32v-3h7.32v3ZM540.1,24.01h-7.32v-3h7.32v3ZM525.46,24.01h-7.32v-3h7.32v3ZM510.81,24.01h-7.32v-3h7.32v3ZM496.17,24.01h-7.32v-3h7.32v3ZM481.52,24.01h-7.32v-3h7.32v3ZM466.87,24.01h-7.32v-3h7.32v3ZM452.23,24.01h-7.32v-3h7.32v3ZM437.58,24.01h-7.32v-3h7.32v3ZM422.94,24.01h-7.3l-.02-3h7.32v3h0Z"/>
  <circle class="cls-12" cx="514.9" cy="273.87" r="25.25"/>
  <rect class="cls-10" x="504.89" y="272.16" width="20.02" height="14.35" rx="2.85" ry="2.85"/>
  <path class="cls-10" d="M509.23,272.16v-5.27c0-3.13,2.54-5.67,5.67-5.67h0c3.13,0,5.67,2.54,5.67,5.67v5.27"/>
  <line class="cls-10" x1="514.9" y1="278.53" x2="514.9" y2="281.21"/>
  <path d="M460.78,144.48c2.97,0,5.38,2.41,5.38,5.38h5.38c0-5.94-4.82-10.76-10.76-10.76s-10.76,4.82-10.76,10.76h5.38c0-2.97,2.41-5.38,5.38-5.38Z"/>
  <g>
    <path d="M455.4,149.86c0,2.97-2.41,5.38-5.38,5.38v5.38c5.94,0,10.76-4.82,10.76-10.76h-5.38Z"/>
    <path d="M471.54,155.24c-2.97,0-5.38-2.41-5.38-5.38h-5.38c0,5.94,4.82,10.76,10.76,10.76v-5.38h0Z"/>
    <path d="M480.93,139.1h3.87l-.06,12.75,6.91-7.93h4.39l-5.75,6.51,6.08,10.17h-4.49l-4.18-7.22-2.98,3.38.06,3.84h-3.87v-21.51h.02Z"/>
    <path d="M497.77,139.1h3.93v21.51h-3.93v-21.51Z"/>
    <path d="M503.82,156.37c0-3.29,3.44-4.39,6.97-5.47,2.61-.8,3.87-1.41,3.87-2.64s-1.04-1.94-2.95-1.94c-2.15,0-3.56,1.23-3.93,3.29h-3.63c.49-3.59,3.44-6.05,7.65-6.05s6.73,2,6.73,5.72v11.34h-3.87v-1.87c-1.26,1.38-3.13,2.15-5.25,2.15-3.44,0-5.59-1.78-5.59-4.52h0ZM510.43,158.25c1.6,0,3.26-.65,4.24-1.75v-4.61c-.71.58-1.81.95-3.07,1.38-2.24.74-3.93,1.32-3.93,2.98,0,1.29,1.08,2,2.77,2h0Z"/>
    <path d="M519.1,143.93h4.15l2.21,6.42,2.18,6.39,2.21-6.39,2.24-6.42h3.96l-6.27,16.68h-4.42l-6.27-16.68h0Z"/>
    <path d="M536.27,152.29c0-5.41,3.32-8.79,8.08-8.79s7.9,3.2,7.9,8.85v.31h-12.11c.12,3.6,1.72,5.53,4.21,5.53,2.03,0,3.44-1.29,3.99-3.81h3.72c-.74,4.18-3.56,6.64-7.74,6.64-4.79,0-8.05-3.29-8.05-8.73h0ZM540.3,150.32h8.02c-.52-2.61-1.97-3.99-3.99-3.99s-3.53,1.41-4.03,3.99Z"/>
    <path d="M568.42,139.1h4.89l7.96,21.51h-4.49l-1.72-4.95h-8.66l-1.72,4.95h-4.21l7.96-21.51h-.01ZM567.43,152.59h6.57l-.28-.8-3.01-8.88-3.01,8.88-.28.8h.01Z"/>
    <path d="M582.83,139.1h4.09v21.51h-4.09v-21.51Z"/>
  </g>
  <circle class="cls-17" cx="224.49" cy="150.06" r="4.13"/>
  <circle class="cls-17" cx="247.39" cy="150.06" r="4.13"/>
  <circle class="cls-17" cx="270.29" cy="150.06" r="4.13"/>
  <circle class="cls-17" cx="293.2" cy="150.06" r="4.13"/>
  <rect class="cls-14" x="156.71" y="34.3" width="207.18" height="66.46"/>
  <path class="cls-17" d="M241,50.34h5.91c2.7,0,4.36,1.46,4.36,3.85s-1.64,3.84-4.32,3.84h-3.55v4.92h-2.39v-12.6h0ZM243.4,52.24v3.94h3.35c1.35,0,2.14-.67,2.14-1.96s-.79-1.98-2.14-1.98h-3.35Z"/>
  <path class="cls-17" d="M252.49,53.17h2.3v1.55c.63-1.1,1.64-1.71,2.93-1.71h.23v2.11c-.23-.04-.47-.05-.7-.05-1.03,0-1.98.41-2.47,1.21v6.68h-2.3v-9.78h.01Z"/>
  <path class="cls-17" d="M259.18,50.4h2.3v1.96h-2.3v-1.96ZM259.18,53.17h2.3v9.78h-2.3v-9.78Z"/>
  <path class="cls-17" d="M262.37,53.17h2.43l1.3,3.76,1.28,3.75,1.3-3.75,1.31-3.76h2.32l-3.67,9.78h-2.59l-3.67-9.78h0Z"/>
  <path class="cls-17" d="M272.21,60.46c0-1.93,2.02-2.58,4.09-3.21,1.53-.47,2.27-.83,2.27-1.55,0-.68-.61-1.13-1.73-1.13-1.26,0-2.09.72-2.3,1.93h-2.12c.29-2.11,2.02-3.55,4.48-3.55s3.94,1.17,3.94,3.35v6.64h-2.27v-1.1c-.74.81-1.84,1.26-3.08,1.26-2.02,0-3.28-1.04-3.28-2.65h0ZM276.08,61.56c.94,0,1.91-.38,2.48-1.03v-2.7c-.41.34-1.06.56-1.8.81-1.31.43-2.3.77-2.3,1.75,0,.76.63,1.17,1.62,1.17h0Z"/>
  <path class="cls-17" d="M283.97,60.72v-5.85h-2.3v-1.69h2.3v-1.94h2.27v1.94h2.86v1.69h-2.86v5.44c0,.65.34.94,1.13.94h1.73v1.71h-2.79c-1.58,0-2.34-.79-2.34-2.23h0Z"/>
  <path class="cls-17" d="M289.73,58.07c0-3.17,1.95-5.15,4.74-5.15s4.63,1.87,4.63,5.19v.18h-7.09c.07,2.11,1.01,3.24,2.47,3.24,1.19,0,2.02-.76,2.34-2.23h2.18c-.43,2.45-2.09,3.89-4.54,3.89-2.81,0-4.72-1.93-4.72-5.11h0ZM292.09,56.92h4.7c-.31-1.53-1.15-2.34-2.34-2.34s-2.07.83-2.36,2.34h0Z"/>
  <path class="cls-17" d="M241,71.95h6.14c2.56,0,4.12,1.3,4.12,3.46,0,1.4-.67,2.48-1.87,3.02,1.12.36,1.48,1.24,1.51,2.5.04,1.48.11,2.67.52,3.62h-2.47c-.36-.68-.4-1.64-.43-3.66-.02-1.1-.49-1.55-1.55-1.55h-3.58v5.2h-2.39v-12.6h0ZM243.4,73.84v3.66h3.56c1.19,0,1.95-.65,1.95-1.84s-.76-1.82-1.95-1.82c0,0-3.56,0-3.56,0Z"/>
  <path class="cls-17" d="M256.74,71.95h2.86l4.66,12.6h-2.63l-1.01-2.9h-5.08l-1.01,2.9h-2.47l4.66-12.6h.02ZM256.16,79.85h3.85l-.16-.47-1.76-5.2-1.76,5.2-.16.47h0Z"/>
  <path class="cls-17" d="M273.46,82.53c-.85,1.44-2.2,2.21-3.94,2.21-3.2,0-5.38-2.3-5.38-6.5s2.32-6.54,5.8-6.54c3.04,0,5.19,1.76,5.67,4.9h-2.41c-.36-1.94-1.64-2.99-3.26-2.99-2.05,0-3.35,1.58-3.35,4.63s1.31,4.61,3.35,4.61c1.73,0,3.01-1.13,3.38-3.28h-3.28v-1.85h5.6v6.82h-2.18v-2.02h0Z"/>
  <path d="M213.37,58.29l-.21-.15-2.63,1.1,1.38.57c.55.23.86.67.86,1.22s-.31.99-.86,1.22l-15.1,6.29-15.1-6.29c-.55-.23-.86-.67-.86-1.22s.31-.99.86-1.22l1.38-.57-2.44-1.02-.23-.05-.17.12c-.92.64-1.46,1.64-1.46,2.74,0,1.38.82,2.57,2.13,3.12l15.89,6.62,15.89-6.62c1.31-.55,2.13-1.74,2.13-3.12,0-1.1-.53-2.1-1.46-2.74h0Z"/>
  <path d="M180.92,55.65l15.89,6.62,15.89-6.62c1.31-.55,2.13-1.74,2.13-3.12s-.82-2.57-2.13-3.12l-15.74-6.56-.15-.06-15.89,6.62c-1.31.55-2.13,1.74-2.13,3.12s.82,2.57,2.13,3.12ZM180.85,52.54c0-.55.31-.99.86-1.22l15.1-6.29,15.1,6.29c.55.23.86.67.86,1.22s-.31.99-.86,1.22l-15.1,6.29-15.1-6.29c-.55-.23-.86-.67-.86-1.22Z"/>
  <path d="M202.05,80.97h-.27v-2.82l-1.94.77v2.04h-6.35v-3.68c0-1.72,1.37-3.01,3.18-3.01.74,0,1.43.22,1.99.63l.17.12,1.94-.78-.4-.4c-.96-.97-2.28-1.51-3.7-1.51-2.87,0-5.11,2.17-5.11,4.95v3.68h-.04c-1.68,0-3.05,1.37-3.05,3.05v6.33c0,1.68,1.37,3.05,3.11,3.05h10.48c1.68,0,3.05-1.37,3.05-3.05v-6.33c0-1.68-1.37-3.05-3.05-3.05h0ZM203.1,84.02v6.33c0,.61-.5,1.11-1.11,1.11h-10.42c-.61,0-1.11-.5-1.11-1.11v-6.33c0-.61.5-1.11,1.11-1.11h10.42c.61,0,1.11.5,1.11,1.11Z"/>
  <rect x="195.7" y="84.84" width="1.94" height="4.68"/>
  <path d="M190.63,76.2c.08-.41.19-.81.35-1.19l.14-.35-9.4-3.92c-.55-.23-.86-.67-.86-1.22s.31-.99.86-1.22l1.87-.78-2.51-1.05-.2-.05-.15.07c-1.21.59-1.92,1.72-1.92,3.02,0,1.38.82,2.57,2.13,3.12l9.62,4.01.08-.46v.02Z"/>
  <path d="M212.91,66.51l-.19-.09-2.67,1.11,1.87.78c.55.23.86.67.86,1.22s-.31.99-.86,1.22l-15.1,6.29-2.01-.84-.14.35c-.1.24-.14.48-.14.73v1.02l2.29.96,15.89-6.62c1.31-.55,2.13-1.74,2.13-3.12,0-1.3-.72-2.43-1.92-3.02h0Z"/>
  <g>
    <rect class="cls-16" x="631.3" y="149.06" width="50.33" height="2"/>
    <polygon class="cls-16" points="679.88 144.07 690.24 150.06 679.88 156.04 679.88 144.07"/>
    <rect class="cls-16" x="372.5" y="66.53" width="33.14" height="2"/>
    <polygon class="cls-16" points="374.25 73.52 363.89 67.53 374.25 61.55 374.25 73.52"/>
    <rect class="cls-16" x="372.5" y="231.58" width="33.14" height="2"/>
    <polygon class="cls-16" points="374.25 238.57 363.89 232.58 374.25 226.6 374.25 238.57"/>
  </g>
  <rect class="cls-14" x="156.71" y="199.35" width="207.18" height="66.46"/>
  <path class="cls-17" d="M241,215.39h5.91c2.7,0,4.36,1.46,4.36,3.85s-1.64,3.84-4.32,3.84h-3.55v4.92h-2.39v-12.6h0ZM243.4,217.28v3.94h3.35c1.35,0,2.14-.67,2.14-1.96s-.79-1.98-2.14-1.98h-3.35Z"/>
  <path class="cls-17" d="M252.49,218.22h2.3v1.55c.63-1.1,1.64-1.71,2.93-1.71h.23v2.11c-.23-.04-.47-.05-.7-.05-1.03,0-1.98.41-2.47,1.21v6.68h-2.3v-9.78h.01Z"/>
  <path class="cls-17" d="M259.18,215.45h2.3v1.96h-2.3v-1.96ZM259.18,218.22h2.3v9.78h-2.3v-9.78Z"/>
  <path class="cls-17" d="M262.37,218.22h2.43l1.3,3.76,1.28,3.75,1.3-3.75,1.31-3.76h2.32l-3.67,9.78h-2.59l-3.67-9.78h0Z"/>
  <path class="cls-17" d="M272.21,225.51c0-1.93,2.02-2.58,4.09-3.21,1.53-.47,2.27-.83,2.27-1.55s-.61-1.13-1.73-1.13c-1.26,0-2.09.72-2.3,1.93h-2.12c.29-2.11,2.02-3.55,4.48-3.55s3.94,1.17,3.94,3.35v6.64h-2.27v-1.1c-.74.81-1.84,1.26-3.08,1.26-2.02,0-3.28-1.04-3.28-2.65h0ZM276.08,226.61c.94,0,1.91-.38,2.48-1.03v-2.7c-.41.34-1.06.56-1.8.81-1.31.43-2.3.77-2.3,1.75,0,.76.63,1.17,1.62,1.17h0Z"/>
  <path class="cls-17" d="M283.97,225.76v-5.85h-2.3v-1.69h2.3v-1.94h2.27v1.94h2.86v1.69h-2.86v5.44c0,.65.34.94,1.13.94h1.73v1.71h-2.79c-1.58,0-2.34-.79-2.34-2.23h0Z"/>
  <path class="cls-17" d="M289.73,223.12c0-3.17,1.95-5.15,4.74-5.15s4.63,1.87,4.63,5.19v.18h-7.09c.07,2.11,1.01,3.24,2.47,3.24,1.19,0,2.02-.76,2.34-2.23h2.18c-.43,2.45-2.09,3.89-4.54,3.89-2.81,0-4.72-1.93-4.72-5.11h0ZM292.09,221.97h4.7c-.31-1.53-1.15-2.34-2.34-2.34s-2.07.83-2.36,2.34h0Z"/>
  <path class="cls-17" d="M241,236.99h6.14c2.56,0,4.12,1.3,4.12,3.46,0,1.4-.67,2.48-1.87,3.02,1.12.36,1.48,1.24,1.51,2.5.04,1.48.11,2.67.52,3.62h-2.47c-.36-.68-.4-1.64-.43-3.66-.02-1.1-.49-1.55-1.55-1.55h-3.58v5.2h-2.39v-12.6h0ZM243.4,238.88v3.65h3.56c1.19,0,1.95-.65,1.95-1.84s-.76-1.82-1.95-1.82h-3.56Z"/>
  <path class="cls-17" d="M256.74,236.99h2.86l4.66,12.6h-2.63l-1.01-2.9h-5.08l-1.01,2.9h-2.47l4.66-12.6h.02ZM256.16,244.9h3.85l-.16-.47-1.76-5.2-1.76,5.2-.16.47h0Z"/>
  <path class="cls-17" d="M273.46,247.58c-.85,1.44-2.2,2.21-3.94,2.21-3.2,0-5.38-2.3-5.38-6.5s2.32-6.54,5.8-6.54c3.04,0,5.19,1.76,5.67,4.9h-2.41c-.36-1.94-1.64-2.99-3.26-2.99-2.05,0-3.35,1.58-3.35,4.63s1.31,4.61,3.35,4.61c1.73,0,3.01-1.13,3.38-3.28h-3.28v-1.85h5.6v6.82h-2.18v-2.02h0Z"/>
  <path d="M213.37,223.4l-.21-.15-2.63,1.1,1.38.57c.55.23.86.67.86,1.22s-.31.99-.86,1.22l-15.1,6.29-15.1-6.29c-.55-.23-.86-.67-.86-1.22s.31-.99.86-1.22l1.38-.57-2.44-1.02-.23-.05-.17.12c-.92.64-1.46,1.64-1.46,2.74,0,1.38.82,2.57,2.13,3.12l15.89,6.62,15.89-6.62c1.31-.55,2.13-1.74,2.13-3.12,0-1.1-.53-2.1-1.46-2.74h0Z"/>
  <path d="M180.92,220.76l15.89,6.62,15.89-6.62c1.31-.55,2.13-1.74,2.13-3.12s-.82-2.57-2.13-3.12l-15.74-6.56-.15-.06-15.89,6.62c-1.31.55-2.13,1.74-2.13,3.12s.82,2.57,2.13,3.12ZM180.85,217.65c0-.55.31-.99.86-1.22l15.1-6.29,15.1,6.29c.55.23.86.67.86,1.22s-.31.99-.86,1.22l-15.1,6.29-15.1-6.29c-.55-.23-.86-.67-.86-1.22Z"/>
  <path d="M202.05,246.08h-.27v-2.82l-1.94.77v2.04h-6.35v-3.68c0-1.72,1.37-3.01,3.18-3.01.74,0,1.43.22,1.99.63l.17.12,1.94-.78-.4-.4c-.96-.97-2.28-1.51-3.7-1.51-2.87,0-5.11,2.17-5.11,4.95v3.68h-.04c-1.68,0-3.05,1.37-3.05,3.05v6.33c0,1.68,1.37,3.05,3.11,3.05h10.48c1.68,0,3.05-1.37,3.05-3.05v-6.33c0-1.68-1.37-3.05-3.05-3.05h0ZM203.1,249.13v6.33c0,.61-.5,1.11-1.11,1.11h-10.42c-.61,0-1.11-.5-1.11-1.11v-6.33c0-.61.5-1.11,1.11-1.11h10.42c.61,0,1.11.5,1.11,1.11Z"/>
  <rect x="195.7" y="249.95" width="1.94" height="4.68"/>
  <path d="M190.63,241.31c.08-.41.19-.81.35-1.19l.14-.35-9.4-3.92c-.55-.23-.86-.67-.86-1.22s.31-.99.86-1.22l1.87-.78-2.51-1.05-.2-.05-.15.07c-1.21.59-1.92,1.72-1.92,3.02,0,1.38.82,2.57,2.13,3.12l9.62,4.01.08-.46v.02Z"/>
  <path d="M212.91,231.62l-.19-.09-2.67,1.11,1.87.78c.55.23.86.67.86,1.22s-.31.99-.86,1.22l-15.1,6.29-2.01-.84-.14.35c-.1.24-.14.48-.14.73v1.02l2.29.96,15.89-6.62c1.31-.55,2.13-1.74,2.13-3.12,0-1.3-.72-2.43-1.92-3.02h0Z"/>
  <path d="M0,67.01c0-4.23,2.39-6.54,5.85-6.54s5.83,2.3,5.83,6.54-2.4,6.54-5.83,6.54S0,71.25,0,67.01ZM9.24,67.01c0-3.03-1.35-4.61-3.39-4.61s-3.4,1.58-3.4,4.61,1.37,4.61,3.4,4.61,3.39-1.58,3.39-4.61Z"/>
  <path d="M13.07,63.53h2.3v1.55c.63-1.1,1.64-1.71,2.94-1.71h.23v2.11c-.23-.04-.47-.05-.7-.05-1.03,0-1.98.41-2.47,1.21v6.68h-2.3v-9.78h0Z"/>
  <path d="M19.01,68.36c0-3.08,1.71-5.02,4.23-5.02,1.33,0,2.43.61,3.13,1.73v-1.53h2.3v9.31c0,2.63-1.84,3.96-4.75,3.96-2.52,0-4.23-1.03-4.65-2.92h2.27c.29.97,1.06,1.44,2.39,1.44,1.49,0,2.43-.72,2.43-2.16v-1.51c-.7,1.12-1.8,1.73-3.13,1.73-2.54,0-4.23-1.91-4.23-5.02h.01ZM26.37,68.36c0-2.21-1.01-3.37-2.56-3.37s-2.5,1.15-2.5,3.37.97,3.37,2.5,3.37,2.56-1.17,2.56-3.37Z"/>
  <path d="M29.92,70.83c0-1.93,2.02-2.58,4.09-3.21,1.53-.47,2.27-.83,2.27-1.55s-.61-1.13-1.73-1.13c-1.26,0-2.09.72-2.3,1.93h-2.12c.29-2.11,2.02-3.55,4.48-3.55s3.94,1.17,3.94,3.35v6.64h-2.27v-1.1c-.74.81-1.84,1.26-3.08,1.26-2.02,0-3.28-1.04-3.28-2.65h0ZM33.79,71.93c.94,0,1.91-.38,2.48-1.03v-2.7c-.41.34-1.06.56-1.8.81-1.31.43-2.3.77-2.3,1.75,0,.76.63,1.17,1.62,1.17Z"/>
  <path d="M40.01,63.53h2.3v1.13c.68-.83,1.69-1.33,2.92-1.33,2.09,0,3.46,1.31,3.46,3.31v6.66h-2.29v-6.3c0-1.28-.79-1.96-1.98-1.96-.88,0-1.66.41-2.11,1.04v7.22h-2.3v-9.78h0Z"/>
  <path d="M50.17,60.76h2.3v1.96h-2.3v-1.96ZM50.17,63.53h2.3v9.78h-2.3v-9.78Z"/>
  <path d="M53.69,69.84h2.14c.25,1.4,1.12,2.11,2.43,2.11s1.93-.5,1.93-1.21c0-.88-1.03-1.21-2.25-1.49-1.84-.45-4.11-.86-4.11-3.04,0-1.66,1.48-2.9,3.92-2.9s4.2,1.28,4.56,3.47h-2.11c-.31-1.3-1.15-1.87-2.43-1.87-1.13,0-1.75.49-1.75,1.08,0,.88,1.15,1.15,2.49,1.48,1.8.43,3.89.92,3.89,3.04,0,1.71-1.55,3.04-4.09,3.04s-4.29-1.22-4.63-3.71h0Z"/>
  <path d="M63.43,70.83c0-1.93,2.02-2.58,4.09-3.21,1.53-.47,2.27-.83,2.27-1.55s-.61-1.13-1.73-1.13c-1.26,0-2.09.72-2.3,1.93h-2.12c.29-2.11,2.02-3.55,4.48-3.55s3.94,1.17,3.94,3.35v6.64h-2.27v-1.1c-.74.81-1.84,1.26-3.08,1.26-2.02,0-3.28-1.04-3.28-2.65h0ZM67.3,71.93c.94,0,1.91-.38,2.48-1.03v-2.7c-.41.34-1.06.56-1.8.81-1.31.43-2.3.77-2.3,1.75,0,.76.63,1.17,1.62,1.17Z"/>
  <path d="M73.26,69.84h2.14c.25,1.4,1.12,2.11,2.43,2.11s1.93-.5,1.93-1.21c0-.88-1.03-1.21-2.25-1.49-1.84-.45-4.11-.86-4.11-3.04,0-1.66,1.48-2.9,3.92-2.9s4.2,1.28,4.56,3.47h-2.11c-.31-1.3-1.15-1.87-2.43-1.87-1.13,0-1.75.49-1.75,1.08,0,.88,1.15,1.15,2.49,1.48,1.8.43,3.89.92,3.89,3.04,0,1.71-1.55,3.04-4.09,3.04s-4.29-1.22-4.63-3.71h.01Z"/>
  <path d="M84.82,71.08v-5.85h-2.3v-1.69h2.3v-1.94h2.27v1.94h2.86v1.69h-2.86v5.44c0,.65.34.94,1.13.94h1.73v1.71h-2.79c-1.58,0-2.34-.79-2.34-2.23h0Z"/>
  <path d="M91.15,60.76h2.3v1.96h-2.3v-1.96ZM91.15,63.53h2.3v9.78h-2.3v-9.78Z"/>
  <path d="M94.73,68.43c0-3.24,1.94-5.15,4.81-5.15s4.83,1.91,4.83,5.15-1.93,5.11-4.83,5.11-4.81-1.91-4.81-5.11ZM102.06,68.41c0-2.25-.99-3.44-2.52-3.44s-2.5,1.19-2.5,3.44.99,3.44,2.5,3.44,2.52-1.17,2.52-3.44Z"/>
  <path d="M105.64,63.53h2.3v1.13c.68-.83,1.69-1.33,2.92-1.33,2.09,0,3.46,1.31,3.46,3.31v6.66h-2.29v-6.3c0-1.28-.79-1.96-1.98-1.96-.88,0-1.66.41-2.11,1.04v7.22h-2.3v-9.78h0Z"/>
  <path d="M123.98,60.71h2.86l4.66,12.6h-2.63l-1.01-2.9h-5.08l-1.01,2.9h-2.47l4.66-12.6h.02ZM123.41,68.61h3.85l-.16-.47-1.76-5.2-1.76,5.2-.16.47h0Z"/>
  <path d="M.33,232.39c0-4.23,2.39-6.54,5.85-6.54s5.83,2.3,5.83,6.54-2.39,6.54-5.83,6.54-5.85-2.3-5.85-6.54ZM9.57,232.39c0-3.03-1.35-4.61-3.38-4.61s-3.4,1.58-3.4,4.61,1.37,4.61,3.4,4.61,3.38-1.58,3.38-4.61Z"/>
  <path d="M13.4,228.91h2.3v1.55c.63-1.1,1.64-1.71,2.93-1.71h.23v2.11c-.23-.04-.47-.05-.7-.05-1.03,0-1.98.41-2.47,1.21v6.68h-2.3v-9.78h.01Z"/>
  <path d="M19.34,233.74c0-3.08,1.71-5.02,4.23-5.02,1.33,0,2.43.61,3.13,1.73v-1.53h2.3v9.31c0,2.63-1.84,3.96-4.75,3.96-2.52,0-4.23-1.03-4.65-2.92h2.27c.29.97,1.06,1.44,2.4,1.44,1.49,0,2.43-.72,2.43-2.16v-1.51c-.7,1.12-1.8,1.73-3.13,1.73-2.54,0-4.23-1.91-4.23-5.02h0ZM26.7,233.74c0-2.21-1.01-3.37-2.56-3.37s-2.5,1.15-2.5,3.37.97,3.37,2.5,3.37,2.56-1.17,2.56-3.37Z"/>
  <path d="M30.25,236.21c0-1.93,2.02-2.58,4.09-3.21,1.53-.47,2.27-.83,2.27-1.55s-.61-1.13-1.73-1.13c-1.26,0-2.09.72-2.3,1.93h-2.12c.29-2.11,2.02-3.55,4.48-3.55s3.94,1.17,3.94,3.35v6.64h-2.27v-1.1c-.74.81-1.84,1.26-3.08,1.26-2.02,0-3.28-1.04-3.28-2.65h0ZM34.12,237.3c.94,0,1.91-.38,2.49-1.03v-2.7c-.41.34-1.06.56-1.8.81-1.31.43-2.3.77-2.3,1.75,0,.76.63,1.17,1.62,1.17h-.01Z"/>
  <path d="M40.35,228.91h2.3v1.13c.68-.83,1.69-1.33,2.92-1.33,2.09,0,3.46,1.31,3.46,3.31v6.66h-2.29v-6.3c0-1.28-.79-1.96-1.98-1.96-.88,0-1.66.41-2.11,1.04v7.22h-2.3v-9.78h0Z"/>
  <path d="M50.5,226.14h2.3v1.96h-2.3v-1.96ZM50.5,228.91h2.3v9.78h-2.3v-9.78Z"/>
  <path d="M54.03,235.22h2.14c.25,1.4,1.12,2.11,2.43,2.11s1.93-.5,1.93-1.21c0-.88-1.03-1.21-2.25-1.49-1.84-.45-4.11-.86-4.11-3.04,0-1.66,1.48-2.9,3.93-2.9s4.2,1.28,4.55,3.47h-2.11c-.31-1.3-1.15-1.87-2.43-1.87-1.13,0-1.75.49-1.75,1.08,0,.88,1.15,1.15,2.48,1.48,1.8.43,3.89.92,3.89,3.04,0,1.71-1.55,3.04-4.09,3.04s-4.29-1.22-4.63-3.71h.02Z"/>
  <path d="M63.76,236.21c0-1.93,2.02-2.58,4.09-3.21,1.53-.47,2.27-.83,2.27-1.55s-.61-1.13-1.73-1.13c-1.26,0-2.09.72-2.3,1.93h-2.12c.29-2.11,2.02-3.55,4.48-3.55s3.94,1.17,3.94,3.35v6.64h-2.27v-1.1c-.74.81-1.84,1.26-3.08,1.26-2.02,0-3.28-1.04-3.28-2.65h0ZM67.63,237.3c.94,0,1.91-.38,2.49-1.03v-2.7c-.41.34-1.06.56-1.8.81-1.31.43-2.3.77-2.3,1.75,0,.76.63,1.17,1.62,1.17h0Z"/>
  <path d="M73.59,235.22h2.14c.25,1.4,1.12,2.11,2.43,2.11s1.93-.5,1.93-1.21c0-.88-1.03-1.21-2.25-1.49-1.84-.45-4.11-.86-4.11-3.04,0-1.66,1.48-2.9,3.93-2.9s4.2,1.28,4.55,3.47h-2.11c-.31-1.3-1.15-1.87-2.43-1.87-1.13,0-1.75.49-1.75,1.08,0,.88,1.15,1.15,2.48,1.48,1.8.43,3.89.92,3.89,3.04,0,1.71-1.55,3.04-4.09,3.04s-4.29-1.22-4.63-3.71h.02Z"/>
  <path d="M85.15,236.46v-5.85h-2.3v-1.69h2.3v-1.94h2.27v1.94h2.86v1.69h-2.86v5.44c0,.65.34.94,1.13.94h1.73v1.71h-2.79c-1.58,0-2.34-.79-2.34-2.23h0Z"/>
  <path d="M91.48,226.14h2.3v1.96h-2.3v-1.96ZM91.48,228.91h2.3v9.78h-2.3v-9.78Z"/>
  <path d="M95.07,233.81c0-3.24,1.94-5.15,4.81-5.15s4.83,1.91,4.83,5.15-1.93,5.11-4.83,5.11-4.81-1.91-4.81-5.11ZM102.39,233.79c0-2.25-.99-3.44-2.52-3.44s-2.5,1.19-2.5,3.44.99,3.44,2.5,3.44,2.52-1.17,2.52-3.44Z"/>
  <path d="M105.97,228.91h2.3v1.13c.68-.83,1.69-1.33,2.92-1.33,2.09,0,3.46,1.31,3.46,3.31v6.66h-2.29v-6.3c0-1.28-.79-1.96-1.98-1.96-.88,0-1.66.41-2.11,1.04v7.22h-2.3v-9.78h0Z"/>
  <path d="M120.3,226.09h2.76l2.72,4.66,2.7,4.65-.04-4.66-.02-4.65h2.11v12.6h-2.77l-2.72-4.63-2.68-4.61.04,4.61.02,4.63h-2.11v-12.6h-.01Z"/>
  <g>
    <g>
      <path class="cls-5" d="M701.57,54.01h2.79v14.7h-2.79v-14.7Z"/>
      <path class="cls-6" d="M705.83,57.31h2.69v1.32c.8-.97,1.97-1.55,3.4-1.55,2.44,0,4.03,1.53,4.03,3.86v7.77h-2.67v-7.35c0-1.49-.92-2.29-2.31-2.29-1.03,0-1.93.48-2.46,1.22v8.42h-2.69v-11.4h0Z"/>
      <path class="cls-7" d="M717.04,64.66h2.5c.29,1.64,1.3,2.46,2.83,2.46s2.25-.59,2.25-1.41c0-1.03-1.2-1.41-2.62-1.74-2.14-.52-4.79-1.01-4.79-3.55,0-1.93,1.72-3.38,4.58-3.38s4.89,1.49,5.31,4.05h-2.46c-.36-1.51-1.34-2.18-2.83-2.18-1.32,0-2.04.57-2.04,1.26,0,1.03,1.34,1.34,2.9,1.72,2.1.5,4.54,1.07,4.54,3.55,0,1.99-1.81,3.55-4.77,3.55s-5-1.43-5.4-4.33Z"/>
      <path class="cls-8" d="M728.38,54.08h2.69v2.29h-2.69v-2.29ZM728.38,57.31h2.69v11.4h-2.69s0-11.4,0-11.4Z"/>
      <path class="cls-4" d="M732.25,62.94c0-3.59,1.99-5.86,4.93-5.86,1.55,0,2.83.71,3.65,2.02v-1.78h2.69v10.85c0,3.07-2.14,4.62-5.54,4.62-2.94,0-4.93-1.2-5.42-3.4h2.65c.34,1.13,1.24,1.68,2.79,1.68,1.74,0,2.83-.84,2.83-2.52v-1.76c-.82,1.3-2.1,2.02-3.65,2.02-2.96,0-4.93-2.23-4.93-5.86h0ZM740.84,62.94c0-2.58-1.18-3.93-2.98-3.93s-2.92,1.34-2.92,3.93,1.13,3.93,2.92,3.93,2.98-1.37,2.98-3.93Z"/>
      <path class="cls-2" d="M744.95,54.01h2.69v4.6c.8-.94,1.97-1.53,3.38-1.53,2.46,0,4.05,1.53,4.05,3.86v7.77h-2.67v-7.35c0-1.49-.92-2.29-2.31-2.29-1.03,0-1.93.48-2.46,1.22v8.42h-2.69v-14.7h.01Z"/>
      <path class="cls-1" d="M758.41,66.11v-6.82h-2.69v-1.97h2.69v-2.27h2.65v2.27h3.34v1.97h-3.34v6.34c0,.76.4,1.09,1.32,1.09h2.02v1.99h-3.25c-1.85,0-2.73-.92-2.73-2.6h-.01Z"/>
      <path class="cls-3" d="M765.07,64.66h2.5c.29,1.64,1.3,2.46,2.83,2.46s2.25-.59,2.25-1.41c0-1.03-1.2-1.41-2.62-1.74-2.14-.52-4.79-1.01-4.79-3.55,0-1.93,1.72-3.38,4.58-3.38s4.89,1.49,5.31,4.05h-2.46c-.36-1.51-1.34-2.18-2.83-2.18-1.32,0-2.04.57-2.04,1.26,0,1.03,1.34,1.34,2.9,1.72,2.1.5,4.54,1.07,4.54,3.55,0,1.99-1.8,3.55-4.77,3.55s-5-1.43-5.4-4.33Z"/>
      <path class="cls-17" d="M747.39,99.06v8.31c0,1.46-.44,2.62-1.33,3.45s-2.1,1.26-3.65,1.26-2.74-.42-3.59-1.27-1.27-2-1.27-3.48v-8.28h1.49v8.38c0,1.07.29,1.9.88,2.47s1.45.86,2.58.86,1.92-.29,2.51-.87.88-1.4.88-2.48v-8.37h1.49v.02Z"/>
      <path class="cls-17" d="M756.98,111.91v-6.23c0-.79-.18-1.37-.54-1.76s-.92-.58-1.68-.58c-1.01,0-1.75.27-2.21.82s-.7,1.44-.7,2.7v5.05h-1.46v-9.63h1.19l.24,1.32h.07c.3-.47.72-.84,1.26-1.1.54-.26,1.14-.39,1.8-.39,1.16,0,2.03.28,2.62.84s.88,1.45.88,2.68v6.28h-1.47Z"/>
      <path class="cls-17" d="M762.72,111.91h-1.46v-13.68h1.46v13.68Z"/>
      <path class="cls-17" d="M773.94,107.09c0,1.57-.4,2.8-1.19,3.68s-1.88,1.32-3.28,1.32c-.86,0-1.63-.2-2.29-.61s-1.18-.98-1.55-1.74-.54-1.64-.54-2.65c0-1.57.39-2.79,1.18-3.67s1.88-1.31,3.27-1.31,2.42.45,3.21,1.34,1.19,2.11,1.19,3.64h0ZM766.6,107.09c0,1.23.25,2.17.74,2.81s1.22.97,2.17.97,1.68-.32,2.17-.96c.5-.64.74-1.58.74-2.82s-.25-2.15-.74-2.79-1.23-.95-2.19-.95-1.68.31-2.16.94-.73,1.56-.73,2.8Z"/>
      <path class="cls-17" d="M780.17,112.09c-1.39,0-2.47-.43-3.24-1.29s-1.15-2.07-1.15-3.64.39-2.86,1.17-3.74c.78-.88,1.88-1.32,3.32-1.32.46,0,.93.05,1.39.15s.83.22,1.09.35l-.45,1.24c-.32-.13-.67-.24-1.05-.32s-.72-.13-1.01-.13c-1.96,0-2.94,1.25-2.94,3.74,0,1.18.24,2.09.72,2.72.48.63,1.19.95,2.12.95.8,0,1.63-.17,2.47-.52v1.29c-.64.33-1.46.5-2.43.5v.02Z"/>
      <path class="cls-17" d="M786.15,106.98c.25-.36.64-.83,1.15-1.41l3.11-3.3h1.73l-3.9,4.1,4.17,5.53h-1.77l-3.4-4.55-1.1.95v3.6h-1.44v-13.68h1.44v7.25c0,.32-.02.82-.07,1.49h.07v.02Z"/>
      <path class="cls-17" d="M800.19,109.28c0,.9-.33,1.59-1,2.07s-1.61.73-2.81.73c-1.28,0-2.27-.2-2.99-.61v-1.35c.46.23.96.42,1.49.55s1.04.2,1.53.2c.76,0,1.35-.12,1.76-.36s.62-.61.62-1.11c0-.38-.16-.7-.49-.96s-.96-.58-1.9-.95c-.9-.33-1.53-.62-1.91-.88-.38-.25-.66-.53-.84-.85s-.28-.69-.28-1.13c0-.79.32-1.4.96-1.86s1.52-.68,2.63-.68c1.04,0,2.05.21,3.04.63l-.52,1.19c-.97-.4-1.84-.6-2.63-.6-.69,0-1.21.11-1.56.33s-.53.52-.53.9c0,.26.07.48.2.66s.34.35.64.52.86.4,1.69.71c1.14.42,1.92.83,2.32,1.26s.6.95.6,1.59h-.02Z"/>
      <path class="cls-17" d="M815.54,111.91h-2.68v-5.74c0-.71-.12-1.24-.36-1.59s-.61-.53-1.12-.53c-.69,0-1.18.25-1.49.76s-.47,1.33-.47,2.49v4.62h-2.68v-9.83h2.05l.36,1.26h.15c.26-.45.64-.8,1.14-1.06.5-.25,1.07-.38,1.71-.38,1.47,0,2.47.48,2.99,1.44h.24c.26-.46.65-.81,1.17-1.06.51-.25,1.09-.38,1.74-.38,1.11,0,1.96.29,2.53.86s.86,1.49.86,2.75v6.41h-2.69v-5.74c0-.71-.12-1.24-.36-1.59s-.61-.53-1.12-.53c-.66,0-1.15.23-1.47.7-.32.47-.49,1.21-.49,2.23v4.93-.02Z"/>
      <path class="cls-17" d="M833.17,106.98c0,1.6-.42,2.85-1.27,3.75s-2.02,1.35-3.52,1.35c-.94,0-1.78-.21-2.5-.62s-1.28-1.01-1.66-1.78-.58-1.68-.58-2.71c0-1.61.42-2.85,1.26-3.74s2.02-1.34,3.53-1.34c.94,0,1.78.21,2.5.62s1.27,1,1.66,1.77.58,1.67.58,2.7ZM826.37,106.98c0,.97.16,1.71.48,2.21s.84.75,1.56.75,1.23-.25,1.54-.74.47-1.23.47-2.21-.16-1.7-.47-2.19-.83-.73-1.55-.73-1.23.24-1.55.73c-.32.48-.47,1.21-.47,2.19h-.01Z"/>
      <path class="cls-17" d="M844.27,111.91h-2.68v-5.74c0-.71-.13-1.24-.38-1.59s-.65-.53-1.2-.53c-.75,0-1.29.25-1.63.75-.33.5-.5,1.33-.5,2.49v4.62h-2.68v-9.83h2.05l.36,1.26h.15c.3-.47.71-.83,1.23-1.08.52-.24,1.12-.36,1.79-.36,1.14,0,2.01.31,2.6.93.59.62.89,1.51.89,2.68v6.41h0Z"/>
      <path class="cls-17" d="M851.3,112.09c-1.58,0-2.82-.44-3.71-1.31s-1.34-2.11-1.34-3.71.41-2.92,1.23-3.82,1.96-1.35,3.42-1.35,2.47.4,3.24,1.19,1.16,1.88,1.16,3.28v1.3h-6.34c.03.76.25,1.36.68,1.78s1.01.64,1.78.64c.59,0,1.15-.06,1.68-.18s1.08-.32,1.65-.59v2.07c-.47.23-.97.41-1.5.52-.53.12-1.18.17-1.95.17h0ZM850.92,103.81c-.57,0-1.01.18-1.34.54-.32.36-.51.87-.55,1.53h3.76c-.01-.66-.18-1.17-.52-1.53-.33-.36-.79-.54-1.35-.54Z"/>
      <path class="cls-17" d="M861.44,109.95c.47,0,1.03-.1,1.69-.31v2c-.67.3-1.49.45-2.46.45-1.07,0-1.85-.27-2.34-.81s-.73-1.36-.73-2.44v-4.74h-1.28v-1.13l1.48-.9.77-2.07h1.71v2.09h2.75v2.01h-2.75v4.74c0,.38.11.66.32.84s.5.27.85.27h0Z"/>
      <path class="cls-17" d="M864.83,99.55c0-.87.49-1.31,1.46-1.31s1.46.44,1.46,1.31c0,.42-.12.74-.37.97s-.61.35-1.09.35c-.97,0-1.46-.44-1.46-1.32ZM867.62,111.91h-2.68v-9.83h2.68v9.83Z"/>
      <path class="cls-17" d="M877.11,108.99c0,1.01-.35,1.78-1.05,2.3-.7.53-1.75.79-3.14.79-.71,0-1.32-.05-1.83-.14-.5-.1-.98-.24-1.42-.43v-2.21c.5.23,1.06.43,1.68.59.62.16,1.17.24,1.65.24.97,0,1.46-.28,1.46-.84,0-.21-.06-.38-.19-.51-.13-.13-.35-.28-.67-.45s-.74-.36-1.27-.58c-.76-.32-1.31-.61-1.67-.88-.35-.27-.61-.58-.77-.93-.16-.35-.24-.78-.24-1.29,0-.87.34-1.55,1.01-2.03.68-.48,1.64-.72,2.88-.72s2.33.26,3.45.77l-.81,1.93c-.49-.21-.95-.38-1.38-.52s-.86-.2-1.31-.2c-.79,0-1.19.21-1.19.64,0,.24.13.45.38.62.25.18.81.44,1.67.78.77.31,1.33.6,1.69.87s.62.58.79.93.25.77.25,1.26h.03Z"/>
      <path class="cls-17" d="M885.26,111.91l-.52-1.34h-.07c-.45.57-.92.96-1.39,1.18-.48.22-1.1.33-1.87.33-.94,0-1.69-.27-2.23-.81s-.81-1.31-.81-2.3.36-1.81,1.09-2.31c.73-.5,1.83-.77,3.3-.82l1.71-.05v-.43c0-1-.51-1.49-1.53-1.49-.79,0-1.71.24-2.77.71l-.89-1.81c1.13-.59,2.38-.89,3.76-.89s2.33.29,3.03.86,1.05,1.45,1.05,2.62v6.55h-1.87.01ZM884.47,107.36l-1.04.04c-.78.02-1.36.16-1.74.42s-.57.65-.57,1.18c0,.76.43,1.13,1.3,1.13.62,0,1.12-.18,1.49-.54s.56-.83.56-1.42v-.81Z"/>
      <path class="cls-17" d="M893.85,109.95c.47,0,1.03-.1,1.69-.31v2c-.67.3-1.49.45-2.46.45-1.07,0-1.85-.27-2.34-.81s-.73-1.36-.73-2.44v-4.74h-1.28v-1.13l1.48-.9.77-2.07h1.71v2.09h2.75v2.01h-2.75v4.74c0,.38.11.66.32.84s.5.27.85.27h0Z"/>
      <path class="cls-17" d="M897.23,99.55c0-.87.49-1.31,1.46-1.31s1.46.44,1.46,1.31c0,.42-.12.74-.36.97s-.61.35-1.09.35c-.97,0-1.46-.44-1.46-1.32h-.01ZM900.03,111.91h-2.68v-9.83h2.68v9.83Z"/>
      <path class="cls-17" d="M911.59,106.98c0,1.6-.42,2.85-1.27,3.75s-2.02,1.35-3.52,1.35c-.94,0-1.78-.21-2.5-.62s-1.27-1.01-1.66-1.78-.58-1.68-.58-2.71c0-1.61.42-2.85,1.26-3.74s2.02-1.34,3.53-1.34c.94,0,1.78.21,2.5.62s1.27,1,1.66,1.77.58,1.67.58,2.7ZM904.79,106.98c0,.97.16,1.71.48,2.21s.84.75,1.56.75,1.23-.25,1.54-.74.47-1.23.47-2.21-.16-1.7-.47-2.19-.83-.73-1.56-.73-1.23.24-1.55.73c-.32.48-.47,1.21-.47,2.19h0Z"/>
      <path class="cls-17" d="M922.69,111.91h-2.68v-5.74c0-.71-.13-1.24-.38-1.59s-.65-.53-1.2-.53c-.75,0-1.29.25-1.63.75-.33.5-.5,1.33-.5,2.49v4.62h-2.68v-9.83h2.05l.36,1.26h.15c.3-.47.71-.83,1.23-1.08.52-.24,1.12-.36,1.79-.36,1.14,0,2.01.31,2.6.93.59.62.89,1.51.89,2.68v6.41h0Z"/>
      <path class="cls-17" d="M744.18,130.59c0,1.01-.35,1.78-1.05,2.3s-1.75.79-3.14.79c-.71,0-1.32-.05-1.83-.14-.5-.1-.98-.24-1.42-.43v-2.21c.5.23,1.06.43,1.68.59s1.17.24,1.65.24c.97,0,1.46-.28,1.46-.84,0-.21-.06-.38-.19-.51-.13-.13-.35-.28-.67-.45s-.74-.36-1.27-.58c-.76-.32-1.31-.61-1.67-.88s-.61-.58-.77-.93-.24-.78-.24-1.29c0-.87.34-1.55,1.02-2.03.68-.48,1.64-.72,2.88-.72s2.33.26,3.45.77l-.81,1.93c-.49-.21-.95-.38-1.38-.52s-.87-.2-1.31-.2c-.79,0-1.19.21-1.19.64,0,.24.13.45.38.62s.81.44,1.67.78c.77.31,1.33.6,1.69.87s.62.58.79.93.25.77.25,1.26h.02Z"/>
      <path class="cls-17" d="M750.23,131.55c.47,0,1.03-.1,1.69-.31v2c-.67.3-1.49.45-2.46.45-1.07,0-1.85-.27-2.34-.81-.49-.54-.73-1.36-.73-2.44v-4.74h-1.28v-1.13l1.48-.9.77-2.07h1.71v2.09h2.75v2.01h-2.75v4.74c0,.38.11.66.32.84s.5.27.85.27h0Z"/>
      <path class="cls-17" d="M759.21,123.5c.36,0,.67.03.91.08l-.2,2.51c-.22-.06-.48-.09-.79-.09-.86,0-1.52.22-2,.66s-.72,1.05-.72,1.85v5h-2.68v-9.83h2.03l.4,1.65h.13c.3-.55.72-.99,1.23-1.33.52-.34,1.08-.5,1.69-.5h0Z"/>
      <path class="cls-17" d="M767.96,133.51l-.52-1.34h-.07c-.45.57-.92.96-1.39,1.18-.48.22-1.1.33-1.87.33-.94,0-1.69-.27-2.23-.81s-.81-1.31-.81-2.3.37-1.81,1.09-2.31,1.83-.77,3.3-.82l1.71-.05v-.43c0-1-.51-1.49-1.53-1.49-.79,0-1.71.24-2.77.71l-.89-1.81c1.13-.59,2.38-.89,3.76-.89s2.33.29,3.03.86,1.05,1.45,1.05,2.62v6.55h-1.87.01ZM767.17,128.96l-1.04.04c-.78.02-1.36.16-1.74.42s-.57.65-.57,1.18c0,.76.43,1.13,1.3,1.13.62,0,1.12-.18,1.49-.54s.56-.83.56-1.42v-.81Z"/>
      <path class="cls-17" d="M776.55,131.55c.47,0,1.03-.1,1.69-.31v2c-.67.3-1.49.45-2.46.45-1.07,0-1.85-.27-2.34-.81-.49-.54-.73-1.36-.73-2.44v-4.74h-1.28v-1.13l1.48-.9.77-2.07h1.71v2.09h2.75v2.01h-2.75v4.74c0,.38.11.66.32.84s.5.27.85.27h0Z"/>
      <path class="cls-17" d="M784.49,133.69c-1.58,0-2.82-.44-3.71-1.31s-1.34-2.11-1.34-3.71.41-2.92,1.23-3.82,1.96-1.35,3.42-1.35,2.47.4,3.24,1.19,1.16,1.88,1.16,3.28v1.3h-6.34c.03.76.25,1.36.68,1.78s1.01.64,1.78.64c.59,0,1.15-.06,1.68-.18s1.08-.32,1.65-.59v2.07c-.47.23-.97.41-1.5.52-.53.12-1.18.17-1.95.17h0ZM784.11,125.41c-.57,0-1.01.18-1.34.54-.32.36-.51.87-.55,1.53h3.76c-.01-.66-.18-1.17-.52-1.53-.33-.36-.79-.54-1.35-.54Z"/>
      <path class="cls-17" d="M799.05,123.68v1.36l-1.54.4c.28.44.42.93.42,1.48,0,1.05-.37,1.88-1.1,2.46-.74.59-1.76.88-3.06.88l-.48-.03-.39-.04c-.28.21-.41.45-.41.7,0,.39.49.58,1.48.58h1.67c1.08,0,1.9.23,2.47.69s.85,1.14.85,2.04c0,1.15-.48,2.04-1.44,2.67s-2.33.95-4.13.95c-1.37,0-2.42-.24-3.14-.72s-1.08-1.15-1.08-2.01c0-.59.18-1.09.55-1.49s.91-.68,1.63-.85c-.28-.12-.52-.31-.72-.58-.21-.27-.31-.55-.31-.85,0-.38.11-.69.33-.94s.53-.49.94-.73c-.52-.22-.92-.58-1.23-1.07s-.45-1.07-.45-1.74c0-1.07.35-1.9,1.04-2.49s1.69-.88,2.99-.88c.28,0,.6.03.98.08s.62.09.72.11h3.43l-.02.02ZM791.47,134.9c0,.37.18.66.53.87s.85.32,1.49.32c.96,0,1.71-.13,2.26-.4s.82-.62.82-1.08c0-.37-.16-.62-.48-.76s-.82-.21-1.49-.21h-1.39c-.49,0-.9.12-1.23.35-.33.23-.5.54-.5.92h-.01ZM792.44,126.9c0,.53.12.96.37,1.27s.61.47,1.11.47.87-.16,1.11-.47.35-.73.35-1.27c0-1.18-.49-1.78-1.46-1.78s-1.48.59-1.48,1.78h0Z"/>
      <path class="cls-17" d="M800.37,121.14c0-.87.49-1.31,1.46-1.31s1.46.44,1.46,1.31c0,.42-.12.74-.37.97s-.61.35-1.09.35c-.97,0-1.46-.44-1.46-1.32ZM803.17,133.51h-2.68v-9.83h2.68v9.83Z"/>
      <path class="cls-17" d="M810.25,133.69c-1.58,0-2.82-.44-3.71-1.31s-1.34-2.11-1.34-3.71.41-2.92,1.24-3.82c.82-.9,1.96-1.35,3.41-1.35s2.47.4,3.24,1.19,1.16,1.88,1.16,3.28v1.3h-6.34c.03.76.25,1.36.68,1.78s1.01.64,1.78.64c.59,0,1.15-.06,1.68-.18s1.08-.32,1.65-.59v2.07c-.47.23-.97.41-1.5.52-.53.12-1.18.17-1.95.17h0ZM809.87,125.41c-.57,0-1.01.18-1.34.54-.32.36-.51.87-.55,1.53h3.76c-.01-.66-.18-1.17-.52-1.53-.33-.36-.79-.54-1.35-.54Z"/>
      <path class="cls-17" d="M823.11,130.59c0,1.01-.35,1.78-1.05,2.3s-1.75.79-3.14.79c-.71,0-1.32-.05-1.83-.14-.5-.1-.98-.24-1.42-.43v-2.21c.5.23,1.06.43,1.68.59s1.17.24,1.65.24c.97,0,1.46-.28,1.46-.84,0-.21-.06-.38-.19-.51-.13-.13-.35-.28-.67-.45s-.74-.36-1.27-.58c-.76-.32-1.31-.61-1.67-.88s-.61-.58-.77-.93-.24-.78-.24-1.29c0-.87.34-1.55,1.02-2.03.68-.48,1.64-.72,2.88-.72s2.33.26,3.45.77l-.81,1.93c-.49-.21-.95-.38-1.38-.52s-.87-.2-1.31-.2c-.79,0-1.19.21-1.19.64,0,.24.13.45.38.62s.81.44,1.67.78c.77.31,1.33.6,1.69.87s.62.58.79.93.25.77.25,1.26h.02Z"/>
      <path class="cls-17" d="M828.83,128.58c0-1.55.23-3.01.68-4.36s1.11-2.54,1.96-3.56h1.42c-.84,1.13-1.48,2.37-1.9,3.73-.42,1.35-.64,2.75-.64,4.17s.22,2.78.65,4.12,1.06,2.57,1.87,3.67h-1.41c-.86-1-1.52-2.16-1.97-3.49s-.68-2.76-.68-4.29h.02Z"/>
      <path class="cls-17" d="M834.68,121.27c0-.33.08-.58.25-.73s.37-.23.62-.23.44.08.61.24.25.4.25.73-.08.57-.25.73-.37.24-.61.24-.45-.08-.62-.24c-.16-.16-.25-.41-.25-.73h0ZM836.26,133.51h-1.46v-9.63h1.46v9.63Z"/>
      <path class="cls-17" d="M845.77,133.51v-6.23c0-.79-.18-1.37-.54-1.76s-.92-.58-1.68-.58c-1.01,0-1.75.27-2.21.82s-.7,1.44-.7,2.7v5.05h-1.46v-9.63h1.19l.24,1.32h.07c.3-.47.72-.84,1.26-1.1.54-.26,1.14-.39,1.8-.39,1.16,0,2.03.28,2.62.84s.88,1.45.88,2.68v6.28h-1.47Z"/>
      <path class="cls-17" d="M856.6,132.22h-.08c-.67.98-1.68,1.47-3.02,1.47-1.26,0-2.24-.43-2.94-1.29s-1.05-2.09-1.05-3.67.35-2.82,1.05-3.7,1.68-1.32,2.94-1.32,2.31.47,3.01,1.42h.11l-.06-.69-.04-.68v-3.92h1.46v13.68h-1.19l-.19-1.29h0ZM853.68,132.47c1,0,1.72-.27,2.17-.81s.67-1.42.67-2.62v-.31c0-1.37-.23-2.34-.68-2.92-.46-.58-1.18-.87-2.18-.87-.86,0-1.51.33-1.96,1s-.68,1.6-.68,2.82.23,2.16.68,2.79,1.11.94,1.99.94v-.02Z"/>
      <path class="cls-17" d="M862.27,123.88v6.25c0,.79.18,1.37.54,1.76s.92.58,1.68.58c1.01,0,1.75-.28,2.21-.83.47-.55.7-1.45.7-2.7v-5.06h1.46v9.63h-1.2l-.21-1.29h-.08c-.3.47-.71.84-1.24,1.09-.53.25-1.13.38-1.81.38-1.17,0-2.05-.28-2.63-.83-.58-.56-.87-1.45-.87-2.67v-6.3h1.48-.03Z"/>
      <path class="cls-17" d="M877.98,130.88c0,.9-.33,1.59-1,2.07s-1.61.73-2.81.73c-1.28,0-2.27-.2-2.99-.61v-1.35c.46.23.96.42,1.49.55s1.04.2,1.53.2c.76,0,1.35-.12,1.76-.36s.62-.61.62-1.11c0-.38-.16-.7-.49-.96s-.96-.58-1.9-.95c-.9-.33-1.53-.62-1.91-.88-.38-.25-.66-.53-.84-.85s-.28-.69-.28-1.13c0-.79.32-1.4.96-1.86s1.52-.68,2.63-.68c1.04,0,2.05.21,3.04.63l-.52,1.19c-.97-.4-1.84-.6-2.63-.6-.69,0-1.21.11-1.56.33s-.53.52-.53.9c0,.26.07.48.2.66s.34.35.64.52.86.4,1.69.71c1.14.42,1.92.83,2.32,1.26s.6.95.6,1.59h-.02Z"/>
      <path class="cls-17" d="M883.28,132.48c.26,0,.51-.02.75-.06s.43-.08.57-.12v1.12c-.16.08-.39.14-.7.19s-.58.07-.83.07c-1.86,0-2.79-.98-2.79-2.94v-5.73h-1.38v-.7l1.38-.61.62-2.06h.84v2.23h2.79v1.13h-2.79v5.67c0,.58.14,1.03.41,1.34s.65.47,1.13.47h0Z"/>
      <path class="cls-17" d="M890.74,123.7c.43,0,.81.04,1.15.11l-.2,1.35c-.4-.09-.75-.13-1.05-.13-.78,0-1.45.32-2,.95s-.83,1.42-.83,2.36v5.17h-1.46v-9.63h1.2l.17,1.78h.07c.36-.63.79-1.11,1.29-1.45s1.06-.51,1.66-.51h0Z"/>
      <path class="cls-17" d="M891.98,123.88h1.56l2.11,5.49c.46,1.25.75,2.16.86,2.72h.07c.08-.3.24-.81.48-1.53s1.04-2.95,2.39-6.68h1.56l-4.14,10.97c-.41,1.08-.89,1.85-1.44,2.31s-1.22.68-2.02.68c-.45,0-.88-.05-1.32-.15v-1.17c.32.07.68.11,1.08.11,1,0,1.72-.56,2.14-1.69l.54-1.37-3.88-9.69h.01Z"/>
      <path class="cls-17" d="M741.95,145.32c1.27,0,2.25.43,2.95,1.3s1.05,2.09,1.05,3.67-.35,2.81-1.06,3.69-1.69,1.31-2.94,1.31c-.63,0-1.2-.12-1.72-.35-.52-.23-.95-.59-1.31-1.07h-.11l-.31,1.24h-1.05v-13.68h1.46v3.32c0,.74-.02,1.41-.07,2h.07c.68-.96,1.69-1.44,3.02-1.44h.02ZM741.74,146.54c-1,0-1.71.29-2.15.86s-.66,1.53-.66,2.89.23,2.32.68,2.91,1.17.87,2.17.87c.9,0,1.56-.33,2-.98s.66-1.59.66-2.82-.22-2.19-.66-2.8-1.12-.92-2.04-.92h0Z"/>
      <path class="cls-17" d="M752.38,155.29c-1.42,0-2.55-.43-3.37-1.3-.82-.87-1.23-2.07-1.23-3.61s.38-2.79,1.15-3.7,1.79-1.37,3.08-1.37c1.21,0,2.16.4,2.87,1.19s1.05,1.84,1.05,3.14v.92h-6.64c.03,1.13.31,1.99.86,2.58.54.59,1.3.88,2.29.88,1.04,0,2.06-.22,3.08-.65v1.3c-.52.22-1,.38-1.46.48-.46.1-1.02.14-1.67.14h-.01ZM751.99,146.52c-.77,0-1.39.25-1.85.76-.46.5-.73,1.2-.81,2.09h5.04c0-.92-.21-1.62-.62-2.11s-1-.73-1.76-.73h0Z"/>
      <path class="cls-17" d="M764.83,155.11v-6.23c0-.79-.18-1.37-.54-1.76s-.92-.58-1.68-.58c-1.01,0-1.75.27-2.21.82s-.7,1.44-.7,2.7v5.05h-1.46v-9.63h1.19l.24,1.32h.07c.3-.47.72-.84,1.26-1.1.54-.26,1.14-.39,1.8-.39,1.16,0,2.03.28,2.62.84s.88,1.45.88,2.68v6.28h-1.47Z"/>
      <path class="cls-17" d="M772.95,155.29c-1.39,0-2.47-.43-3.24-1.29s-1.15-2.07-1.15-3.64.39-2.86,1.16-3.74,1.88-1.32,3.32-1.32c.46,0,.93.05,1.39.15s.83.22,1.09.35l-.45,1.24c-.32-.13-.67-.24-1.05-.32s-.72-.13-1.01-.13c-1.96,0-2.94,1.25-2.94,3.74,0,1.18.24,2.09.72,2.72s1.18.95,2.12.95c.8,0,1.63-.17,2.47-.52v1.29c-.64.33-1.46.5-2.44.5v.02Z"/>
      <path class="cls-17" d="M784.08,155.11v-6.23c0-.79-.18-1.37-.54-1.76s-.92-.58-1.68-.58c-1.01,0-1.75.28-2.22.83-.46.55-.7,1.45-.7,2.71v5.04h-1.46v-13.68h1.46v4.14c0,.5-.02.91-.07,1.24h.09c.29-.46.7-.83,1.23-1.09.53-.27,1.14-.4,1.82-.4,1.18,0,2.06.28,2.65.84s.88,1.45.88,2.67v6.28h-1.46Z"/>
      <path class="cls-17" d="M800.64,155.11v-6.27c0-.77-.16-1.34-.49-1.73-.33-.38-.84-.58-1.53-.58-.91,0-1.58.26-2.01.78s-.65,1.32-.65,2.41v5.38h-1.46v-6.27c0-.77-.16-1.34-.49-1.73-.33-.38-.84-.58-1.54-.58-.91,0-1.58.27-2.01.82-.42.55-.64,1.45-.64,2.69v5.05h-1.46v-9.63h1.19l.24,1.32h.07c.28-.47.66-.83,1.16-1.1.5-.26,1.06-.4,1.68-.4,1.51,0,2.49.54,2.95,1.63h.07c.29-.5.7-.9,1.25-1.2s1.17-.44,1.86-.44c1.09,0,1.91.28,2.45.84.54.56.81,1.45.81,2.68v6.28h-1.46v.05Z"/>
      <path class="cls-17" d="M810.84,155.11l-.29-1.37h-.07c-.48.6-.96,1.01-1.44,1.23-.48.21-1.07.32-1.79.32-.96,0-1.7-.25-2.25-.74s-.81-1.19-.81-2.1c0-1.95,1.56-2.96,4.67-3.06l1.63-.05v-.6c0-.76-.16-1.31-.49-1.67s-.85-.54-1.56-.54c-.8,0-1.71.25-2.72.74l-.45-1.12c.47-.26.99-.46,1.56-.61s1.13-.22,1.7-.22c1.15,0,2,.25,2.55.76s.83,1.33.83,2.45v6.57h-1.08,0ZM807.55,154.08c.91,0,1.62-.25,2.14-.75s.78-1.2.78-2.09v-.87l-1.46.06c-1.16.04-2,.22-2.51.54s-.77.82-.77,1.49c0,.53.16.93.48,1.2s.77.41,1.34.41h0Z"/>
      <path class="cls-17" d="M819.15,145.3c.43,0,.81.04,1.15.11l-.2,1.35c-.4-.09-.75-.13-1.05-.13-.78,0-1.45.32-2,.95s-.83,1.42-.83,2.36v5.17h-1.46v-9.63h1.2l.17,1.78h.07c.36-.63.79-1.11,1.29-1.45s1.06-.51,1.66-.51h0Z"/>
      <path class="cls-17" d="M823.36,150.18c.25-.36.64-.83,1.15-1.41l3.11-3.3h1.73l-3.9,4.1,4.17,5.53h-1.77l-3.4-4.55-1.1.95v3.6h-1.44v-13.68h1.44v7.25c0,.32-.02.82-.07,1.49h.07v.02Z"/>
      <path class="cls-17" d="M837.4,152.48c0,.9-.33,1.59-1,2.07s-1.61.73-2.81.73c-1.28,0-2.27-.2-2.99-.61v-1.35c.46.23.96.42,1.49.55s1.04.2,1.53.2c.76,0,1.35-.12,1.76-.36s.62-.61.62-1.11c0-.38-.16-.7-.49-.96s-.96-.58-1.9-.95c-.9-.33-1.53-.62-1.91-.88-.38-.25-.66-.53-.84-.85s-.28-.69-.28-1.13c0-.79.32-1.4.96-1.86s1.52-.68,2.63-.68c1.04,0,2.05.21,3.04.63l-.52,1.19c-.97-.4-1.84-.6-2.63-.6-.69,0-1.21.11-1.56.33s-.53.52-.53.9c0,.26.07.48.2.66s.34.35.64.52.86.4,1.69.71c1.14.42,1.92.83,2.32,1.26s.6.95.6,1.59h-.02Z"/>
      <path class="cls-17" d="M841.12,153.02l.13.2c-.15.59-.37,1.27-.66,2.04-.29.78-.59,1.5-.9,2.17h-1.1c.16-.61.33-1.36.52-2.26s.32-1.61.4-2.15h1.61Z"/>
      <path class="cls-17" d="M852.17,155.29c-1.39,0-2.47-.43-3.24-1.29s-1.15-2.07-1.15-3.64.39-2.86,1.17-3.74,1.88-1.32,3.32-1.32c.46,0,.93.05,1.39.15s.83.22,1.09.35l-.45,1.24c-.32-.13-.67-.24-1.05-.32s-.72-.13-1.01-.13c-1.96,0-2.94,1.25-2.94,3.74,0,1.18.24,2.09.72,2.72s1.19.95,2.12.95c.8,0,1.62-.17,2.47-.52v1.29c-.64.33-1.46.5-2.43.5v.02Z"/>
      <path class="cls-17" d="M858.17,155.11h-1.46v-13.68h1.46v13.68h0Z"/>
      <path class="cls-17" d="M865.15,155.29c-1.42,0-2.55-.43-3.37-1.3-.82-.87-1.24-2.07-1.24-3.61s.38-2.79,1.15-3.7c.76-.91,1.79-1.37,3.08-1.37,1.21,0,2.16.4,2.87,1.19s1.05,1.84,1.05,3.14v.92h-6.64c.03,1.13.32,1.99.86,2.58s1.31.88,2.29.88c1.04,0,2.06-.22,3.08-.65v1.3c-.52.22-1,.38-1.46.48-.46.1-1.01.14-1.67.14h0ZM864.76,146.52c-.77,0-1.39.25-1.85.76-.46.5-.73,1.2-.81,2.09h5.04c0-.92-.21-1.62-.62-2.11s-1-.73-1.76-.73h0Z"/>
      <path class="cls-17" d="M876.93,155.11l-.29-1.37h-.07c-.48.6-.96,1.01-1.44,1.23-.48.21-1.07.32-1.79.32-.96,0-1.7-.25-2.25-.74s-.81-1.19-.81-2.1c0-1.95,1.56-2.96,4.67-3.06l1.63-.05v-.6c0-.76-.16-1.31-.49-1.67s-.85-.54-1.56-.54c-.8,0-1.71.25-2.72.74l-.45-1.12c.47-.26.99-.46,1.56-.61s1.13-.22,1.7-.22c1.15,0,2,.25,2.55.76s.83,1.33.83,2.45v6.57h-1.08,0ZM873.63,154.08c.91,0,1.62-.25,2.14-.75s.78-1.2.78-2.09v-.87l-1.46.06c-1.16.04-2,.22-2.51.54s-.77.82-.77,1.49c0,.53.16.93.48,1.2s.77.41,1.34.41h0Z"/>
      <path class="cls-17" d="M887.43,155.11v-6.23c0-.79-.18-1.37-.54-1.76s-.92-.58-1.68-.58c-1.01,0-1.75.27-2.21.82s-.7,1.44-.7,2.7v5.05h-1.46v-9.63h1.19l.24,1.32h.07c.3-.47.72-.84,1.26-1.1.54-.26,1.14-.39,1.8-.39,1.16,0,2.03.28,2.62.84s.88,1.45.88,2.68v6.28h-1.47Z"/>
      <path class="cls-17" d="M902.75,153.82h-.08c-.67.98-1.68,1.47-3.02,1.47-1.26,0-2.24-.43-2.94-1.29s-1.05-2.09-1.05-3.67.35-2.82,1.05-3.7,1.68-1.32,2.94-1.32,2.31.47,3.01,1.42h.12l-.06-.69-.04-.68v-3.92h1.46v13.68h-1.19l-.19-1.29h-.01ZM899.84,154.06c1,0,1.72-.27,2.17-.81s.67-1.42.67-2.62v-.31c0-1.37-.23-2.34-.68-2.92s-1.18-.87-2.17-.87c-.86,0-1.51.33-1.96,1s-.68,1.6-.68,2.82.23,2.16.68,2.79,1.11.94,1.99.94l-.02-.02Z"/>
      <path class="cls-17" d="M912.97,155.11l-.29-1.37h-.07c-.48.6-.96,1.01-1.44,1.23-.48.21-1.07.32-1.79.32-.96,0-1.7-.25-2.25-.74s-.81-1.19-.81-2.1c0-1.95,1.56-2.96,4.67-3.06l1.63-.05v-.6c0-.76-.16-1.31-.49-1.67s-.85-.54-1.56-.54c-.8,0-1.71.25-2.72.74l-.45-1.12c.47-.26.99-.46,1.56-.61s1.13-.22,1.7-.22c1.15,0,2,.25,2.55.76s.83,1.33.83,2.45v6.57h-1.08,0ZM909.68,154.08c.91,0,1.62-.25,2.14-.75s.78-1.2.78-2.09v-.87l-1.46.06c-1.16.04-2,.22-2.51.54s-.77.82-.77,1.49c0,.53.16.93.48,1.2s.77.41,1.34.41h0Z"/>
      <path class="cls-17" d="M919.99,154.08c.26,0,.51-.02.75-.06s.43-.08.57-.12v1.12c-.16.08-.39.14-.7.19s-.58.07-.83.07c-1.86,0-2.79-.98-2.79-2.94v-5.73h-1.38v-.7l1.38-.61.62-2.06h.84v2.23h2.79v1.13h-2.79v5.67c0,.58.14,1.03.41,1.34s.65.47,1.13.47h0Z"/>
      <path class="cls-17" d="M928.98,155.11l-.29-1.37h-.07c-.48.6-.96,1.01-1.44,1.23-.48.21-1.07.32-1.79.32-.96,0-1.7-.25-2.25-.74-.54-.49-.81-1.19-.81-2.1,0-1.95,1.56-2.96,4.67-3.06l1.63-.05v-.6c0-.76-.16-1.31-.49-1.67s-.85-.54-1.56-.54c-.8,0-1.71.25-2.72.74l-.45-1.12c.47-.26,1-.46,1.56-.61.57-.15,1.13-.22,1.7-.22,1.15,0,2,.25,2.55.76s.83,1.33.83,2.45v6.57h-1.08,0ZM925.68,154.08c.91,0,1.62-.25,2.14-.75s.78-1.2.78-2.09v-.87l-1.46.06c-1.16.04-2,.22-2.51.54-.51.32-.77.82-.77,1.49,0,.53.16.93.48,1.2.32.28.77.41,1.34.41h0Z"/>
      <path class="cls-17" d="M941.77,145.3c.43,0,.81.04,1.15.11l-.2,1.35c-.4-.09-.75-.13-1.05-.13-.78,0-1.45.32-2,.95-.55.63-.83,1.42-.83,2.36v5.17h-1.46v-9.63h1.2l.17,1.78h.07c.36-.63.79-1.11,1.29-1.45s1.06-.51,1.66-.51h0Z"/>
      <path class="cls-17" d="M952.86,150.29c0,1.57-.4,2.8-1.19,3.68s-1.88,1.32-3.28,1.32c-.86,0-1.63-.2-2.29-.61s-1.18-.98-1.55-1.74-.54-1.64-.54-2.65c0-1.57.39-2.79,1.18-3.67s1.88-1.31,3.27-1.31,2.42.45,3.21,1.34c.79.9,1.19,2.11,1.19,3.64h0ZM945.52,150.29c0,1.23.25,2.17.74,2.81s1.22.97,2.17.97,1.68-.32,2.18-.96c.49-.64.74-1.58.74-2.82s-.25-2.15-.74-2.79c-.5-.64-1.23-.95-2.19-.95s-1.68.31-2.16.94-.73,1.56-.73,2.8h-.01Z"/>
      <path class="cls-17" d="M963.55,150.29c0,1.57-.39,2.8-1.19,3.68s-1.88,1.32-3.28,1.32c-.86,0-1.62-.2-2.29-.61s-1.18-.98-1.55-1.74-.54-1.64-.54-2.65c0-1.57.39-2.79,1.18-3.67s1.88-1.31,3.27-1.31,2.42.45,3.21,1.34,1.19,2.11,1.19,3.64h0ZM956.22,150.29c0,1.23.25,2.17.74,2.81s1.21.97,2.17.97,1.68-.32,2.18-.96.74-1.58.74-2.82-.25-2.15-.74-2.79-1.23-.95-2.19-.95-1.68.31-2.16.94-.73,1.56-.73,2.8h-.01Z"/>
      <path class="cls-17" d="M978.21,155.11v-6.27c0-.77-.16-1.34-.49-1.73-.33-.38-.84-.58-1.53-.58-.91,0-1.58.26-2.01.78s-.65,1.32-.65,2.41v5.38h-1.46v-6.27c0-.77-.16-1.34-.49-1.73-.33-.38-.84-.58-1.54-.58-.91,0-1.58.27-2.01.82s-.64,1.45-.64,2.69v5.05h-1.46v-9.63h1.19l.24,1.32h.07c.28-.47.66-.83,1.17-1.1.5-.26,1.06-.4,1.68-.4,1.51,0,2.49.54,2.95,1.63h.07c.29-.5.7-.9,1.25-1.2s1.17-.44,1.86-.44c1.09,0,1.91.28,2.45.84.54.56.81,1.45.81,2.68v6.28h-1.46v.05Z"/>
      <path class="cls-17" d="M988.71,152.48c0,.9-.33,1.59-1,2.07s-1.61.73-2.81.73c-1.28,0-2.27-.2-2.99-.61v-1.35c.46.23.96.42,1.49.55.53.13,1.04.2,1.53.2.76,0,1.35-.12,1.76-.36s.62-.61.62-1.11c0-.38-.16-.7-.49-.96-.33-.27-.96-.58-1.9-.95-.9-.33-1.53-.62-1.91-.88-.38-.25-.66-.53-.84-.85-.19-.32-.28-.69-.28-1.13,0-.79.32-1.4.96-1.86s1.51-.68,2.63-.68c1.04,0,2.05.21,3.04.63l-.52,1.19c-.97-.4-1.84-.6-2.63-.6-.69,0-1.21.11-1.56.33s-.53.52-.53.9c0,.26.07.48.2.66.13.18.34.35.64.52s.86.4,1.69.71c1.14.42,1.92.83,2.32,1.26.4.42.6.95.6,1.59h-.02Z"/>
      <path class="cls-17" d="M993.96,150.18c0,1.54-.23,2.98-.68,4.31s-1.11,2.49-1.96,3.47h-1.41c.81-1.1,1.44-2.32,1.87-3.67.43-1.34.65-2.72.65-4.13s-.21-2.82-.64-4.17-1.06-2.6-1.9-3.73h1.42c.86,1.03,1.52,2.22,1.97,3.57.45,1.36.68,2.81.68,4.35h0Z"/>
      <path class="cls-17" d="M743.19,186.61c-1.41,0-2.53.47-3.34,1.41-.82.94-1.23,2.23-1.23,3.86s.39,2.98,1.18,3.9,1.91,1.38,3.37,1.38c.9,0,1.92-.16,3.07-.48v1.31c-.89.33-1.99.5-3.29.5-1.89,0-3.35-.57-4.38-1.72s-1.54-2.78-1.54-4.9c0-1.32.25-2.48.74-3.48s1.21-1.76,2.14-2.3,2.04-.81,3.3-.81c1.35,0,2.53.25,3.53.74l-.63,1.28c-.97-.46-1.95-.69-2.92-.69h0Z"/>
      <path class="cls-17" d="M753.03,188.5c.43,0,.81.04,1.15.11l-.2,1.35c-.4-.09-.75-.13-1.05-.13-.78,0-1.45.32-2,.95-.55.63-.83,1.42-.83,2.36v5.17h-1.46v-9.63h1.2l.17,1.78h.07c.36-.63.79-1.11,1.29-1.45s1.06-.51,1.66-.51h0Z"/>
      <path class="cls-17" d="M759.88,198.49c-1.42,0-2.55-.43-3.37-1.3-.82-.87-1.24-2.07-1.24-3.61s.38-2.79,1.15-3.7c.76-.91,1.79-1.37,3.08-1.37,1.21,0,2.16.4,2.87,1.19s1.05,1.84,1.05,3.14v.92h-6.64c.03,1.13.32,1.99.86,2.58s1.31.88,2.29.88c1.04,0,2.06-.22,3.08-.65v1.3c-.52.22-1,.38-1.46.48-.46.1-1.01.14-1.67.14h0ZM759.48,189.72c-.77,0-1.39.25-1.85.76-.46.5-.73,1.2-.81,2.09h5.04c0-.92-.21-1.62-.62-2.11s-1-.73-1.76-.73h0Z"/>
      <path class="cls-17" d="M771.65,198.31l-.29-1.37h-.07c-.48.6-.96,1.01-1.44,1.23-.48.21-1.07.32-1.79.32-.96,0-1.7-.25-2.25-.74s-.81-1.19-.81-2.1c0-1.95,1.56-2.96,4.67-3.06l1.63-.05v-.6c0-.76-.16-1.31-.49-1.67s-.85-.54-1.56-.54c-.8,0-1.71.25-2.72.74l-.45-1.12c.47-.26.99-.46,1.56-.61s1.13-.22,1.7-.22c1.15,0,2,.25,2.55.76s.83,1.33.83,2.45v6.57h-1.08,0ZM768.35,197.28c.91,0,1.62-.25,2.14-.75s.78-1.2.78-2.09v-.87l-1.46.06c-1.16.04-2,.22-2.51.54s-.77.82-.77,1.49c0,.53.16.93.48,1.2s.77.41,1.34.41h0Z"/>
      <path class="cls-17" d="M778.67,197.28c.26,0,.51-.02.75-.06s.43-.08.57-.12v1.12c-.16.08-.39.14-.7.19s-.58.07-.83.07c-1.86,0-2.79-.98-2.79-2.94v-5.73h-1.38v-.7l1.38-.61.62-2.06h.84v2.23h2.79v1.13h-2.79v5.67c0,.58.14,1.03.41,1.34s.65.47,1.13.47h0Z"/>
      <path class="cls-17" d="M785.8,198.49c-1.42,0-2.55-.43-3.37-1.3-.82-.87-1.24-2.07-1.24-3.61s.38-2.79,1.15-3.7c.76-.91,1.79-1.37,3.08-1.37,1.21,0,2.16.4,2.87,1.19s1.05,1.84,1.05,3.14v.92h-6.64c.03,1.13.32,1.99.86,2.58s1.31.88,2.29.88c1.04,0,2.06-.22,3.08-.65v1.3c-.52.22-1,.38-1.46.48-.46.1-1.01.14-1.67.14h0ZM785.41,189.72c-.77,0-1.39.25-1.85.76-.46.5-.73,1.2-.81,2.09h5.04c0-.92-.21-1.62-.62-2.11s-1-.73-1.76-.73h0Z"/>
      <path class="cls-17" d="M797.86,195.68c0,.9-.33,1.59-1,2.07s-1.61.73-2.81.73c-1.28,0-2.27-.2-2.99-.61v-1.35c.46.23.96.42,1.49.55s1.04.2,1.53.2c.76,0,1.35-.12,1.76-.36s.62-.61.62-1.11c0-.38-.16-.7-.49-.96s-.96-.58-1.9-.95c-.9-.33-1.53-.62-1.91-.88-.38-.25-.66-.53-.84-.85s-.28-.69-.28-1.13c0-.79.32-1.4.96-1.86s1.51-.68,2.63-.68c1.04,0,2.05.21,3.04.63l-.52,1.19c-.97-.4-1.84-.6-2.63-.6-.69,0-1.21.11-1.56.33s-.53.52-.53.9c0,.26.07.48.2.66s.34.35.64.52.86.4,1.69.71c1.14.42,1.91.83,2.32,1.26s.6.95.6,1.59h-.02Z"/>
      <path class="cls-17" d="M804.3,185.94c0-.87.49-1.31,1.46-1.31s1.46.44,1.46,1.31c0,.42-.12.74-.37.97-.24.23-.61.35-1.09.35-.97,0-1.46-.44-1.46-1.32ZM807.09,198.31h-2.68v-9.83h2.68v9.83Z"/>
      <path class="cls-17" d="M818.8,198.31h-2.68v-5.74c0-.71-.12-1.24-.38-1.59s-.65-.53-1.21-.53c-.75,0-1.29.25-1.62.75s-.5,1.33-.5,2.49v4.62h-2.68v-9.83h2.05l.36,1.26h.15c.3-.47.71-.83,1.24-1.08.52-.24,1.12-.36,1.79-.36,1.14,0,2.01.31,2.6.93.59.62.89,1.51.89,2.68v6.41h0Z"/>
      <path class="cls-17" d="M823.71,198.31l-3.74-9.83h2.8l1.9,5.6c.21.71.34,1.38.4,2.01h.05c.03-.56.16-1.23.39-2.01l1.89-5.6h2.8l-3.74,9.83h-2.75Z"/>
      <path class="cls-17" d="M837.67,198.31l-.52-1.34h-.07c-.45.57-.92.96-1.39,1.18-.48.22-1.1.33-1.87.33-.94,0-1.69-.27-2.23-.81s-.81-1.31-.81-2.3.37-1.81,1.09-2.31c.73-.5,1.83-.77,3.3-.82l1.71-.05v-.43c0-1-.51-1.49-1.53-1.49-.79,0-1.71.24-2.77.71l-.89-1.81c1.13-.59,2.38-.89,3.76-.89s2.33.29,3.03.86,1.05,1.45,1.05,2.62v6.55h-1.87.01ZM836.88,193.76l-1.04.04c-.78.02-1.36.16-1.74.42s-.57.65-.57,1.18c0,.76.43,1.13,1.3,1.13.62,0,1.12-.18,1.49-.54s.56-.83.56-1.42v-.81Z"/>
      <path class="cls-17" d="M844.81,198.31h-2.68v-13.68h2.68v13.68Z"/>
      <path class="cls-17" d="M854.4,198.31l-.36-1.26h-.14c-.29.46-.69.81-1.22,1.06-.53.25-1.13.37-1.8.37-1.15,0-2.02-.31-2.61-.93-.59-.62-.88-1.51-.88-2.67v-6.41h2.68v5.74c0,.71.13,1.24.38,1.59.25.36.65.53,1.2.53.75,0,1.29-.25,1.63-.75.33-.5.5-1.33.5-2.49v-4.62h2.68v9.83h-2.06Z"/>
      <path class="cls-17" d="M865.33,198.31l-.52-1.34h-.07c-.45.57-.92.96-1.39,1.18-.48.22-1.1.33-1.87.33-.94,0-1.69-.27-2.23-.81s-.81-1.31-.81-2.3.36-1.81,1.09-2.31c.73-.5,1.83-.77,3.3-.82l1.71-.05v-.43c0-1-.51-1.49-1.53-1.49-.79,0-1.71.24-2.77.71l-.89-1.81c1.13-.59,2.38-.89,3.76-.89s2.33.29,3.03.86,1.05,1.45,1.05,2.62v6.55h-1.87.01ZM864.54,193.76l-1.04.04c-.78.02-1.36.16-1.74.42s-.57.65-.57,1.18c0,.76.43,1.13,1.3,1.13.62,0,1.12-.18,1.49-.54s.56-.83.56-1.42v-.81Z"/>
      <path class="cls-17" d="M875.25,188.3c1.16,0,2.07.45,2.72,1.36.66.9.98,2.15.98,3.72s-.34,2.88-1.02,3.77-1.6,1.34-2.76,1.34-2.06-.42-2.72-1.26h-.18l-.45,1.08h-2.05v-13.68h2.68v3.18c0,.4-.04,1.05-.11,1.94h.11c.63-.97,1.56-1.46,2.79-1.46h.01ZM874.39,190.44c-.66,0-1.15.2-1.45.61s-.46,1.08-.47,2.02v.29c0,1.05.16,1.81.47,2.27s.81.69,1.49.69c.55,0,.99-.25,1.31-.76s.49-1.24.49-2.21-.16-1.69-.49-2.17-.78-.73-1.34-.73h0Z"/>
      <path class="cls-17" d="M883.67,198.31h-2.68v-13.68h2.68v13.68Z"/>
      <path class="cls-17" d="M890.75,198.49c-1.58,0-2.82-.44-3.71-1.31s-1.34-2.11-1.34-3.71.41-2.92,1.23-3.82c.82-.9,1.96-1.35,3.42-1.35s2.47.4,3.24,1.19,1.16,1.88,1.16,3.28v1.3h-6.34c.03.76.25,1.36.68,1.78s1.01.64,1.78.64c.59,0,1.15-.06,1.68-.18s1.08-.32,1.65-.59v2.07c-.47.23-.97.41-1.5.52-.53.12-1.18.17-1.95.17h0ZM890.38,190.21c-.57,0-1.01.18-1.34.54-.32.36-.51.87-.55,1.53h3.76c-.01-.66-.18-1.17-.52-1.53-.33-.36-.79-.54-1.35-.54Z"/>
      <path class="cls-17" d="M901.14,185.94c0-.87.49-1.31,1.46-1.31s1.46.44,1.46,1.31c0,.42-.12.74-.36.97s-.61.35-1.09.35c-.97,0-1.46-.44-1.46-1.32h-.01ZM903.94,198.31h-2.68v-9.83h2.68v9.83Z"/>
      <path class="cls-17" d="M915.64,198.31h-2.68v-5.74c0-.71-.13-1.24-.38-1.59s-.65-.53-1.2-.53c-.75,0-1.29.25-1.63.75-.33.5-.5,1.33-.5,2.49v4.62h-2.68v-9.83h2.05l.36,1.26h.15c.3-.47.71-.83,1.24-1.08.52-.24,1.12-.36,1.79-.36,1.14,0,2.01.31,2.6.93.59.62.89,1.51.89,2.68v6.41h0Z"/>
      <path class="cls-17" d="M922.36,196.35c.47,0,1.03-.1,1.69-.31v2c-.67.3-1.49.45-2.46.45-1.07,0-1.85-.27-2.34-.81-.49-.54-.73-1.36-.73-2.44v-4.74h-1.28v-1.13l1.48-.9.77-2.07h1.71v2.09h2.75v2.01h-2.75v4.74c0,.38.11.66.32.84s.5.27.85.27h0Z"/>
      <path class="cls-17" d="M930.3,198.49c-1.58,0-2.82-.44-3.71-1.31s-1.34-2.11-1.34-3.71.41-2.92,1.24-3.82c.82-.9,1.96-1.35,3.42-1.35s2.47.4,3.24,1.19,1.16,1.88,1.16,3.28v1.3h-6.34c.03.76.25,1.36.68,1.78s1.01.64,1.78.64c.59,0,1.15-.06,1.68-.18s1.08-.32,1.65-.59v2.07c-.47.23-.97.41-1.5.52-.53.12-1.18.17-1.95.17h0ZM929.92,190.21c-.57,0-1.01.18-1.34.54-.32.36-.51.87-.55,1.53h3.76c-.01-.66-.18-1.17-.52-1.53-.33-.36-.79-.54-1.35-.54Z"/>
      <path class="cls-17" d="M938.99,198.31h-2.68v-13.68h2.68v13.68Z"/>
      <path class="cls-17" d="M944.3,198.31h-2.68v-13.68h2.68v13.68Z"/>
      <path class="cls-17" d="M946.82,185.94c0-.87.49-1.31,1.46-1.31s1.46.44,1.46,1.31c0,.42-.12.74-.36.97s-.61.35-1.09.35c-.97,0-1.46-.44-1.46-1.32h-.01ZM949.61,198.31h-2.68v-9.83h2.68v9.83Z"/>
      <path class="cls-17" d="M960.8,188.48v1.36l-1.54.4c.28.44.42.93.42,1.48,0,1.05-.37,1.88-1.1,2.46-.73.59-1.76.88-3.06.88l-.48-.03-.4-.04c-.28.21-.41.45-.41.7,0,.39.49.58,1.48.58h1.67c1.08,0,1.9.23,2.47.69.56.46.85,1.14.85,2.04,0,1.15-.48,2.04-1.44,2.67s-2.33.95-4.13.95c-1.37,0-2.42-.24-3.14-.72-.72-.48-1.09-1.15-1.09-2.01,0-.59.18-1.09.55-1.49s.91-.68,1.63-.85c-.28-.12-.52-.31-.72-.58-.21-.27-.31-.55-.31-.85,0-.38.11-.69.33-.94s.53-.49.94-.73c-.52-.22-.92-.58-1.23-1.07-.3-.49-.45-1.07-.45-1.74,0-1.07.35-1.9,1.05-2.49s1.69-.88,2.99-.88c.28,0,.6.03.98.08s.62.09.73.11h3.43l-.02.02ZM953.21,199.7c0,.37.18.66.53.87.36.21.85.32,1.49.32.96,0,1.71-.13,2.26-.4s.82-.62.82-1.08c0-.37-.16-.62-.48-.76s-.82-.21-1.49-.21h-1.39c-.49,0-.9.12-1.24.35-.33.23-.5.54-.5.92h0ZM954.19,191.7c0,.53.12.96.36,1.27s.61.47,1.11.47.87-.16,1.11-.47.35-.73.35-1.27c0-1.18-.49-1.78-1.46-1.78s-1.48.59-1.48,1.78h.01Z"/>
      <path class="cls-17" d="M966.68,198.49c-1.58,0-2.82-.44-3.71-1.31s-1.34-2.11-1.34-3.71.41-2.92,1.24-3.82c.82-.9,1.96-1.35,3.41-1.35s2.47.4,3.24,1.19,1.16,1.88,1.16,3.28v1.3h-6.34c.03.76.25,1.36.68,1.78s1.01.64,1.78.64c.59,0,1.15-.06,1.68-.18s1.08-.32,1.65-.59v2.07c-.47.23-.97.41-1.5.52-.53.12-1.18.17-1.95.17h0ZM966.31,190.21c-.57,0-1.01.18-1.34.54-.32.36-.51.87-.55,1.53h3.76c-.01-.66-.18-1.17-.52-1.53-.33-.36-.79-.54-1.35-.54Z"/>
      <path class="cls-17" d="M981.76,198.31h-2.68v-5.74c0-.71-.13-1.24-.38-1.59s-.65-.53-1.2-.53c-.75,0-1.29.25-1.63.75-.33.5-.5,1.33-.5,2.49v4.62h-2.68v-9.83h2.05l.36,1.26h.15c.3-.47.71-.83,1.23-1.08.52-.24,1.12-.36,1.79-.36,1.14,0,2.01.31,2.6.93.59.62.89,1.51.89,2.68v6.41h0Z"/>
      <path class="cls-17" d="M988.33,198.49c-3.06,0-4.59-1.68-4.59-5.04,0-1.67.42-2.95,1.25-3.83s2.03-1.32,3.58-1.32c1.14,0,2.16.22,3.06.67l-.79,2.07c-.42-.17-.81-.31-1.18-.42s-.73-.16-1.09-.16c-1.39,0-2.09.99-2.09,2.97s.7,2.88,2.09,2.88c.52,0,.99-.07,1.43-.21s.88-.35,1.32-.65v2.29c-.43.28-.87.47-1.31.57s-1,.16-1.67.16v.02Z"/>
      <path class="cls-17" d="M997.86,198.49c-1.58,0-2.82-.44-3.71-1.31s-1.34-2.11-1.34-3.71.41-2.92,1.24-3.82c.82-.9,1.96-1.35,3.41-1.35s2.47.4,3.24,1.19,1.16,1.88,1.16,3.28v1.3h-6.34c.03.76.25,1.36.68,1.78s1.01.64,1.78.64c.59,0,1.15-.06,1.68-.18s1.08-.32,1.65-.59v2.07c-.47.23-.97.41-1.5.52-.53.12-1.18.17-1.95.17h0ZM997.49,190.21c-.57,0-1.01.18-1.34.54-.32.36-.51.87-.55,1.53h3.76c-.01-.66-.18-1.17-.52-1.53-.33-.36-.79-.54-1.35-.54Z"/>
      <path class="cls-17" d="M736.64,214.98c0-1.55.23-3.01.68-4.36s1.11-2.54,1.96-3.56h1.42c-.84,1.13-1.48,2.37-1.9,3.73s-.64,2.75-.64,4.17.22,2.78.65,4.12,1.06,2.57,1.87,3.67h-1.41c-.86-1-1.52-2.16-1.97-3.49s-.68-2.76-.68-4.29h.02Z"/>
      <path class="cls-17" d="M749.17,218.62h-.08c-.67.98-1.68,1.47-3.02,1.47-1.26,0-2.24-.43-2.94-1.29s-1.05-2.09-1.05-3.67.35-2.82,1.05-3.7,1.68-1.32,2.94-1.32,2.31.47,3.01,1.42h.11l-.06-.69-.04-.68v-3.92h1.46v13.68h-1.19l-.19-1.29h0ZM746.25,218.87c1,0,1.72-.27,2.17-.81s.67-1.42.67-2.62v-.31c0-1.37-.23-2.34-.68-2.92-.46-.58-1.18-.87-2.18-.87-.86,0-1.51.33-1.96,1s-.68,1.6-.68,2.82.23,2.16.68,2.79,1.11.94,1.99.94v-.02Z"/>
      <path class="cls-17" d="M757.53,220.09c-1.42,0-2.55-.43-3.37-1.3-.82-.87-1.23-2.07-1.23-3.61s.38-2.79,1.15-3.7,1.79-1.37,3.08-1.37c1.21,0,2.16.4,2.87,1.19s1.05,1.84,1.05,3.14v.92h-6.64c.03,1.13.31,1.99.86,2.58.54.59,1.3.88,2.29.88,1.04,0,2.06-.22,3.08-.65v1.3c-.52.22-1,.38-1.46.48-.46.1-1.02.14-1.67.14h-.01ZM757.13,211.32c-.77,0-1.39.25-1.85.76-.46.5-.73,1.2-.81,2.09h5.04c0-.92-.21-1.62-.62-2.11s-1-.73-1.76-.73h0Z"/>
      <path class="cls-17" d="M767.72,211.41h-2.45v8.5h-1.46v-8.5h-1.72v-.66l1.72-.53v-.54c0-2.37,1.04-3.55,3.1-3.55.51,0,1.11.1,1.79.31l-.38,1.17c-.56-.18-1.04-.27-1.44-.27-.55,0-.96.18-1.22.55-.26.37-.4.95-.4,1.76v.62h2.45v1.13h.01Z"/>
      <path class="cls-17" d="M773.37,220.09c-1.42,0-2.55-.43-3.37-1.3-.82-.87-1.23-2.07-1.23-3.61s.38-2.79,1.15-3.7,1.79-1.37,3.08-1.37c1.21,0,2.16.4,2.87,1.19s1.05,1.84,1.05,3.14v.92h-6.64c.03,1.13.31,1.99.86,2.58.54.59,1.3.88,2.29.88,1.04,0,2.06-.22,3.08-.65v1.3c-.52.22-1,.38-1.46.48-.46.1-1.02.14-1.67.14h-.01ZM772.97,211.32c-.77,0-1.39.25-1.85.76-.46.5-.73,1.2-.81,2.09h5.04c0-.92-.21-1.62-.62-2.11s-1-.73-1.76-.73h0Z"/>
      <path class="cls-17" d="M785.81,219.91v-6.23c0-.79-.18-1.37-.54-1.76s-.92-.58-1.68-.58c-1.01,0-1.75.27-2.21.82s-.7,1.44-.7,2.7v5.05h-1.46v-9.63h1.19l.24,1.32h.07c.3-.47.72-.84,1.26-1.1.54-.26,1.14-.39,1.8-.39,1.16,0,2.03.28,2.62.84s.88,1.45.88,2.68v6.28h-1.47Z"/>
      <path class="cls-17" d="M793.93,220.09c-1.39,0-2.47-.43-3.24-1.29s-1.15-2.07-1.15-3.64.39-2.86,1.16-3.74,1.88-1.32,3.32-1.32c.46,0,.93.05,1.39.15s.83.22,1.09.35l-.45,1.24c-.32-.13-.67-.24-1.05-.32s-.72-.13-1.01-.13c-1.96,0-2.94,1.25-2.94,3.74,0,1.18.24,2.09.72,2.72s1.18.95,2.12.95c.8,0,1.63-.17,2.47-.52v1.29c-.64.33-1.46.5-2.44.5v.02Z"/>
      <path class="cls-17" d="M802.54,220.09c-1.42,0-2.55-.43-3.37-1.3s-1.24-2.07-1.24-3.61.38-2.79,1.15-3.7,1.79-1.37,3.08-1.37c1.21,0,2.16.4,2.87,1.19s1.05,1.84,1.05,3.14v.92h-6.64c.03,1.13.32,1.99.86,2.58s1.3.88,2.29.88c1.04,0,2.06-.22,3.08-.65v1.3c-.52.22-1,.38-1.46.48-.46.1-1.02.14-1.67.14h0ZM802.15,211.32c-.77,0-1.39.25-1.85.76s-.73,1.2-.81,2.09h5.04c0-.92-.21-1.62-.62-2.11s-1-.73-1.76-.73h0Z"/>
      <path class="cls-17" d="M809.92,217.82l.13.2c-.15.59-.37,1.27-.66,2.04-.29.78-.59,1.5-.9,2.17h-1.1c.16-.61.33-1.36.52-2.26s.32-1.61.4-2.15h1.61Z"/>
      <path class="cls-17" d="M823.71,219.91v-6.23c0-.79-.18-1.37-.54-1.76s-.92-.58-1.68-.58c-1.01,0-1.75.28-2.22.83s-.7,1.45-.7,2.71v5.04h-1.46v-13.68h1.46v4.14c0,.5-.02.91-.07,1.24h.09c.29-.46.7-.83,1.23-1.09s1.14-.4,1.82-.4c1.18,0,2.06.28,2.65.84s.88,1.45.88,2.67v6.28h-1.46Z"/>
      <path class="cls-17" d="M832.06,220.09c-1.42,0-2.55-.43-3.37-1.3-.82-.87-1.24-2.07-1.24-3.61s.38-2.79,1.15-3.7c.76-.91,1.79-1.37,3.08-1.37,1.21,0,2.16.4,2.87,1.19s1.05,1.84,1.05,3.14v.92h-6.64c.03,1.13.32,1.99.86,2.58s1.31.88,2.29.88c1.04,0,2.06-.22,3.08-.65v1.3c-.52.22-1,.38-1.46.48-.46.1-1.01.14-1.67.14h0ZM831.66,211.32c-.77,0-1.39.25-1.85.76-.46.5-.73,1.2-.81,2.09h5.04c0-.92-.21-1.62-.62-2.11s-1-.73-1.76-.73h0Z"/>
      <path class="cls-17" d="M843.83,219.91l-.29-1.37h-.07c-.48.6-.96,1.01-1.44,1.23-.48.21-1.07.32-1.79.32-.96,0-1.7-.25-2.25-.74s-.81-1.19-.81-2.1c0-1.95,1.56-2.96,4.67-3.06l1.63-.05v-.6c0-.76-.16-1.31-.49-1.67s-.85-.54-1.56-.54c-.8,0-1.71.25-2.72.74l-.45-1.12c.47-.26.99-.46,1.56-.61s1.13-.22,1.7-.22c1.15,0,2,.25,2.55.76s.83,1.33.83,2.45v6.57h-1.08,0ZM840.54,218.88c.91,0,1.62-.25,2.14-.75s.78-1.2.78-2.09v-.87l-1.46.06c-1.16.04-2,.22-2.51.54s-.77.82-.77,1.49c0,.53.16.93.48,1.2s.77.41,1.34.41h0Z"/>
      <path class="cls-17" d="M849.2,219.91h-1.46v-13.68h1.46v13.68Z"/>
      <path class="cls-17" d="M855.22,218.88c.26,0,.51-.02.75-.06s.43-.08.57-.12v1.12c-.16.08-.39.14-.7.19s-.58.07-.83.07c-1.86,0-2.79-.98-2.79-2.94v-5.73h-1.38v-.7l1.38-.61.62-2.06h.84v2.23h2.79v1.13h-2.79v5.67c0,.58.14,1.03.41,1.34s.65.47,1.13.47h0Z"/>
      <path class="cls-17" d="M864.88,219.91v-6.23c0-.79-.18-1.37-.54-1.76s-.92-.58-1.68-.58c-1.01,0-1.75.28-2.22.83s-.7,1.45-.7,2.71v5.04h-1.46v-13.68h1.46v4.14c0,.5-.02.91-.07,1.24h.09c.29-.46.7-.83,1.23-1.09s1.14-.4,1.82-.4c1.18,0,2.06.28,2.65.84s.88,1.45.88,2.67v6.28h-1.46Z"/>
      <path class="cls-17" d="M873,220.09c-1.39,0-2.47-.43-3.24-1.29s-1.15-2.07-1.15-3.64.39-2.86,1.16-3.74,1.88-1.32,3.32-1.32c.46,0,.93.05,1.39.15s.83.22,1.09.35l-.45,1.24c-.32-.13-.67-.24-1.05-.32s-.72-.13-1.01-.13c-1.96,0-2.94,1.25-2.94,3.74,0,1.18.24,2.09.72,2.72s1.18.95,2.12.95c.8,0,1.63-.17,2.47-.52v1.29c-.64.33-1.46.5-2.44.5v.02Z"/>
      <path class="cls-17" d="M883.47,219.91l-.29-1.37h-.07c-.48.6-.96,1.01-1.44,1.23-.48.21-1.07.32-1.79.32-.96,0-1.7-.25-2.25-.74-.54-.49-.81-1.19-.81-2.1,0-1.95,1.56-2.96,4.67-3.06l1.63-.05v-.6c0-.76-.16-1.31-.49-1.67-.32-.36-.84-.54-1.56-.54-.8,0-1.71.25-2.72.74l-.45-1.12c.47-.26.99-.46,1.56-.61.56-.15,1.13-.22,1.7-.22,1.15,0,2,.25,2.55.76s.83,1.33.83,2.45v6.57h-1.08,0ZM880.17,218.88c.91,0,1.62-.25,2.14-.75s.78-1.2.78-2.09v-.87l-1.46.06c-1.16.04-2,.22-2.51.54-.51.32-.77.82-.77,1.49,0,.53.16.93.48,1.2.32.28.77.41,1.34.41h0Z"/>
      <path class="cls-17" d="M891.77,210.1c.43,0,.81.04,1.15.11l-.2,1.35c-.4-.09-.75-.13-1.05-.13-.78,0-1.45.32-2,.95s-.83,1.42-.83,2.36v5.17h-1.46v-9.63h1.2l.17,1.78h.07c.36-.63.79-1.11,1.29-1.45s1.06-.51,1.66-.51h0Z"/>
      <path class="cls-17" d="M898.61,220.09c-1.42,0-2.55-.43-3.37-1.3s-1.24-2.07-1.24-3.61.38-2.79,1.15-3.7,1.79-1.37,3.08-1.37c1.21,0,2.16.4,2.87,1.19s1.05,1.84,1.05,3.14v.92h-6.64c.03,1.13.32,1.99.86,2.58s1.3.88,2.29.88c1.04,0,2.06-.22,3.08-.65v1.3c-.52.22-1,.38-1.46.48-.46.1-1.02.14-1.67.14h0ZM898.22,211.32c-.77,0-1.39.25-1.85.76s-.73,1.2-.81,2.09h5.04c0-.92-.21-1.62-.62-2.11s-1-.73-1.76-.73h0Z"/>
      <path class="cls-17" d="M905.99,217.82l.13.2c-.15.59-.37,1.27-.66,2.04-.29.78-.59,1.5-.9,2.17h-1.1c.16-.61.33-1.36.52-2.26s.32-1.61.4-2.15h1.61Z"/>
      <path class="cls-17" d="M917.58,210.1c.43,0,.81.04,1.15.11l-.2,1.35c-.4-.09-.75-.13-1.05-.13-.78,0-1.45.32-2,.95s-.83,1.42-.83,2.36v5.17h-1.46v-9.63h1.2l.17,1.78h.07c.36-.63.79-1.11,1.29-1.45s1.06-.51,1.66-.51h0Z"/>
      <path class="cls-17" d="M924.42,220.09c-1.42,0-2.55-.43-3.37-1.3-.82-.87-1.23-2.07-1.23-3.61s.38-2.79,1.15-3.7,1.79-1.37,3.08-1.37c1.21,0,2.16.4,2.87,1.19s1.05,1.84,1.05,3.14v.92h-6.64c.03,1.13.31,1.99.86,2.58.54.59,1.3.88,2.29.88,1.04,0,2.06-.22,3.08-.65v1.3c-.52.22-1,.38-1.46.48-.46.1-1.02.14-1.67.14h-.01ZM924.03,211.32c-.77,0-1.39.25-1.85.76-.46.5-.73,1.2-.81,2.09h5.04c0-.92-.21-1.62-.62-2.11s-1-.73-1.76-.73h0Z"/>
      <path class="cls-17" d="M936.49,217.28c0,.9-.33,1.59-1,2.07s-1.61.73-2.81.73c-1.28,0-2.27-.2-2.99-.61v-1.35c.46.23.96.42,1.49.55.53.13,1.04.2,1.53.2.76,0,1.35-.12,1.76-.36s.62-.61.62-1.11c0-.38-.16-.7-.49-.96-.33-.27-.96-.58-1.9-.95-.9-.33-1.53-.62-1.91-.88-.38-.25-.66-.53-.84-.85-.19-.32-.28-.69-.28-1.13,0-.79.32-1.4.96-1.86s1.51-.68,2.63-.68c1.04,0,2.05.21,3.04.63l-.52,1.19c-.97-.4-1.84-.6-2.63-.6-.69,0-1.21.11-1.56.33s-.53.52-.53.9c0,.26.07.48.2.66.13.18.34.35.64.52s.86.4,1.69.71c1.14.42,1.92.83,2.32,1.26.4.42.6.95.6,1.59h-.02Z"/>
      <path class="cls-17" d="M942.75,220.09c-1.42,0-2.55-.43-3.37-1.3s-1.23-2.07-1.23-3.61.38-2.79,1.15-3.7,1.79-1.37,3.08-1.37c1.21,0,2.16.4,2.87,1.19s1.05,1.84,1.05,3.14v.92h-6.63c.03,1.13.31,1.99.86,2.58s1.31.88,2.29.88c1.04,0,2.06-.22,3.08-.65v1.3c-.52.22-1,.38-1.46.48-.46.1-1.01.14-1.67.14h-.02ZM942.35,211.32c-.77,0-1.39.25-1.85.76s-.73,1.2-.81,2.09h5.04c0-.92-.21-1.62-.62-2.11s-1-.73-1.76-.73h0Z"/>
      <path class="cls-17" d="M954.52,219.91l-.29-1.37h-.07c-.48.6-.96,1.01-1.44,1.23-.48.21-1.07.32-1.79.32-.96,0-1.7-.25-2.25-.74-.54-.49-.81-1.19-.81-2.1,0-1.95,1.56-2.96,4.67-3.06l1.63-.05v-.6c0-.76-.16-1.31-.49-1.67-.32-.36-.84-.54-1.56-.54-.8,0-1.71.25-2.72.74l-.45-1.12c.47-.26.99-.46,1.56-.61.56-.15,1.13-.22,1.7-.22,1.15,0,2,.25,2.55.76s.83,1.33.83,2.45v6.57h-1.08,0ZM951.23,218.88c.91,0,1.62-.25,2.14-.75s.78-1.2.78-2.09v-.87l-1.46.06c-1.16.04-2,.22-2.51.54-.51.32-.77.82-.77,1.49,0,.53.16.93.48,1.2.32.28.77.41,1.34.41h0Z"/>
      <path class="cls-17" d="M962.83,210.1c.43,0,.81.04,1.15.11l-.2,1.35c-.4-.09-.75-.13-1.05-.13-.78,0-1.45.32-2,.95-.55.63-.83,1.42-.83,2.36v5.17h-1.46v-9.63h1.2l.17,1.78h.07c.36-.63.79-1.11,1.29-1.45s1.06-.51,1.66-.51h0Z"/>
      <path class="cls-17" d="M969.45,220.09c-1.39,0-2.47-.43-3.24-1.29s-1.15-2.07-1.15-3.64.39-2.86,1.17-3.74,1.88-1.32,3.32-1.32c.46,0,.93.05,1.39.15s.83.22,1.09.35l-.45,1.24c-.32-.13-.67-.24-1.05-.32s-.72-.13-1.01-.13c-1.96,0-2.94,1.25-2.94,3.74,0,1.18.24,2.09.72,2.72s1.19.95,2.12.95c.8,0,1.62-.17,2.47-.52v1.29c-.64.33-1.46.5-2.43.5v.02Z"/>
      <path class="cls-17" d="M980.58,219.91v-6.23c0-.79-.18-1.37-.54-1.76s-.92-.58-1.68-.58c-1.01,0-1.75.28-2.22.83s-.7,1.45-.7,2.71v5.04h-1.46v-13.68h1.46v4.14c0,.5-.02.91-.07,1.24h.09c.29-.46.7-.83,1.23-1.09.53-.27,1.13-.4,1.81-.4,1.18,0,2.06.28,2.65.84s.88,1.45.88,2.67v6.28h-1.46,0Z"/>
      <path class="cls-17" d="M986.38,217.82l.13.2c-.15.59-.37,1.27-.66,2.04-.29.78-.59,1.5-.9,2.17h-1.1c.16-.61.33-1.36.52-2.26s.32-1.61.4-2.15h1.61Z"/>
      <path class="cls-17" d="M743.68,238.88c0,.9-.33,1.59-1,2.07s-1.61.73-2.81.73c-1.28,0-2.27-.2-2.99-.61v-1.35c.46.23.96.42,1.49.55s1.04.2,1.53.2c.76,0,1.35-.12,1.76-.36s.62-.61.62-1.11c0-.38-.16-.7-.49-.96s-.96-.58-1.9-.95c-.9-.33-1.53-.62-1.91-.88-.38-.25-.66-.53-.84-.85s-.28-.69-.28-1.13c0-.79.32-1.4.96-1.86s1.51-.68,2.63-.68c1.04,0,2.05.21,3.04.63l-.52,1.19c-.97-.4-1.84-.6-2.63-.6-.69,0-1.21.11-1.56.33s-.53.52-.53.9c0,.26.07.48.2.66s.34.35.64.52.86.4,1.69.71c1.14.42,1.91.83,2.32,1.26s.6.95.6,1.59h-.02Z"/>
      <path class="cls-17" d="M747.24,231.88v6.25c0,.79.18,1.37.54,1.76s.92.58,1.68.58c1.01,0,1.75-.28,2.21-.83.47-.55.7-1.45.7-2.7v-5.06h1.46v9.63h-1.2l-.21-1.29h-.08c-.3.47-.71.84-1.24,1.09-.53.25-1.13.38-1.81.38-1.17,0-2.05-.28-2.63-.83-.58-.56-.87-1.45-.87-2.67v-6.3h1.48-.03Z"/>
      <path class="cls-17" d="M761.22,241.69c-.63,0-1.2-.12-1.72-.35-.52-.23-.95-.59-1.3-1.07h-.11c.07.56.11,1.1.11,1.6v3.96h-1.46v-13.96h1.19l.2,1.32h.07c.38-.53.81-.91,1.31-1.14s1.07-.35,1.71-.35c1.28,0,2.26.44,2.96,1.31s1.04,2.1,1.04,3.67-.35,2.81-1.06,3.69-1.69,1.31-2.94,1.31h0ZM761.01,232.94c-.98,0-1.7.27-2.14.82s-.67,1.41-.68,2.6v.33c0,1.35.23,2.32.68,2.91s1.17.87,2.17.87c.83,0,1.48-.34,1.96-1.01.47-.67.71-1.6.71-2.79s-.24-2.12-.71-2.76c-.47-.64-1.13-.96-1.99-.96h0Z"/>
      <path class="cls-17" d="M772.07,241.69c-.63,0-1.2-.12-1.72-.35-.52-.23-.95-.59-1.31-1.07h-.11c.07.56.11,1.1.11,1.6v3.96h-1.46v-13.96h1.19l.2,1.32h.07c.38-.53.81-.91,1.31-1.14s1.07-.35,1.71-.35c1.28,0,2.26.44,2.96,1.31s1.04,2.1,1.04,3.67-.35,2.81-1.06,3.69-1.69,1.31-2.94,1.31h0ZM771.86,232.94c-.98,0-1.7.27-2.13.82s-.67,1.41-.68,2.6v.33c0,1.35.23,2.32.68,2.91s1.17.87,2.17.87c.83,0,1.48-.34,1.96-1.01s.71-1.6.71-2.79-.24-2.12-.71-2.76c-.47-.64-1.14-.96-1.99-.96h-.01Z"/>
      <path class="cls-17" d="M779.9,241.51h-1.46v-13.68h1.46v13.68h0Z"/>
      <path class="cls-17" d="M781.28,231.88h1.56l2.11,5.49c.46,1.25.75,2.16.86,2.72h.07c.08-.3.24-.81.48-1.53s1.04-2.95,2.39-6.68h1.56l-4.14,10.97c-.41,1.08-.89,1.85-1.44,2.31-.55.45-1.22.68-2.02.68-.45,0-.88-.05-1.32-.15v-1.17c.32.07.68.11,1.08.11,1,0,1.72-.56,2.14-1.69l.54-1.37-3.88-9.69h.01Z"/>
      <path class="cls-17" d="M800.05,241.69c-1.39,0-2.47-.43-3.24-1.29s-1.15-2.07-1.15-3.64.39-2.86,1.16-3.74,1.88-1.32,3.32-1.32c.46,0,.93.05,1.39.15s.83.22,1.09.35l-.45,1.24c-.32-.13-.67-.24-1.05-.32s-.72-.13-1.01-.13c-1.96,0-2.94,1.25-2.94,3.74,0,1.18.24,2.09.72,2.72s1.18.95,2.12.95c.8,0,1.63-.17,2.47-.52v1.29c-.64.33-1.46.5-2.44.5v.02Z"/>
      <path class="cls-17" d="M811.18,241.51v-6.23c0-.79-.18-1.37-.54-1.76s-.92-.58-1.68-.58c-1.01,0-1.75.28-2.22.83-.46.55-.7,1.45-.7,2.71v5.04h-1.46v-13.68h1.46v4.14c0,.5-.02.91-.07,1.24h.09c.29-.46.7-.83,1.23-1.09.53-.27,1.14-.4,1.82-.4,1.18,0,2.06.28,2.65.84s.88,1.45.88,2.67v6.28h-1.46Z"/>
      <path class="cls-17" d="M821.38,241.51l-.29-1.37h-.07c-.48.6-.96,1.01-1.44,1.23-.48.21-1.07.32-1.79.32-.96,0-1.7-.25-2.25-.74s-.81-1.19-.81-2.1c0-1.95,1.55-2.96,4.67-3.06l1.63-.05v-.6c0-.76-.16-1.31-.49-1.67s-.84-.54-1.56-.54c-.8,0-1.71.25-2.72.74l-.45-1.12c.47-.26,1-.46,1.56-.61s1.13-.22,1.7-.22c1.15,0,2,.25,2.55.76s.83,1.33.83,2.45v6.57h-1.08,0ZM818.08,240.48c.91,0,1.62-.25,2.14-.75s.78-1.2.78-2.09v-.87l-1.46.06c-1.16.04-2,.22-2.51.54s-.77.82-.77,1.49c0,.53.16.93.48,1.2s.77.41,1.34.41h0Z"/>
      <path class="cls-17" d="M825.16,229.27c0-.33.08-.58.25-.73s.37-.23.62-.23.44.08.61.24.25.4.25.73-.08.57-.25.73c-.17.16-.37.24-.61.24s-.45-.08-.62-.24c-.16-.16-.25-.41-.25-.73h0ZM826.75,241.51h-1.46v-9.63h1.46v9.63Z"/>
      <path class="cls-17" d="M836.25,241.51v-6.23c0-.79-.18-1.37-.54-1.76s-.92-.58-1.68-.58c-1.01,0-1.75.27-2.21.82s-.7,1.44-.7,2.7v5.05h-1.46v-9.63h1.19l.24,1.32h.07c.3-.47.72-.84,1.26-1.1.54-.26,1.14-.39,1.8-.39,1.16,0,2.03.28,2.62.84s.88,1.45.88,2.68v6.28h-1.47Z"/>
      <path class="cls-17" d="M843.58,236.58c0,1.54-.23,2.98-.68,4.31s-1.11,2.49-1.96,3.47h-1.41c.81-1.1,1.44-2.32,1.87-3.67.43-1.34.65-2.72.65-4.13s-.21-2.82-.64-4.17-1.06-2.6-1.9-3.73h1.42c.86,1.03,1.52,2.22,1.97,3.57.45,1.36.68,2.81.68,4.35h0Z"/>
    </g>
    <g>
      <circle class="cls-19" cx="713.93" cy="106.59" r="12.46"/>
      <polyline class="cls-9" points="708.64 107.73 711.77 111.57 719.22 102.02"/>
    </g>
    <g>
      <circle class="cls-18" cx="713.93" cy="191.92" r="12.46"/>
      <polyline class="cls-9" points="708.64 193.06 711.77 196.9 719.22 187.35"/>
    </g>
  </g>
  <path class="cls-13" d="M462.7,1h111.54c9.46,0,17.13,9.69,17.13,21.65h0c0,11.96-7.67,21.65-17.13,21.65h-111.54c-9.46,0-17.13-9.69-17.13-21.65h0c0-11.96,7.67-21.65,17.13-21.65Z"/>
  <g>
    <g>
      <path d="M480.89,17.36c2.74,0,4.97,2.22,4.97,4.97h4.97c0-5.48-4.45-9.93-9.93-9.93s-9.93,4.45-9.93,9.93h4.97c0-2.74,2.22-4.97,4.97-4.97Z"/>
      <path d="M475.92,22.33c0,2.74-2.22,4.97-4.97,4.97v4.97c5.48,0,9.93-4.45,9.93-9.93h-4.97Z"/>
      <path d="M490.82,27.3c-2.74,0-4.97-2.22-4.97-4.97h-4.97c0,5.48,4.45,9.93,9.93,9.93v-4.97h0Z"/>
    </g>
    <g>
      <path d="M499.49,12.4h3.57l-.06,11.77,6.38-7.32h4.05l-5.31,6.01,5.61,9.39h-4.14l-3.86-6.66-2.75,3.12.06,3.54h-3.57V12.39h.02Z"/>
      <path d="M515.03,12.4h3.63v19.86h-3.63V12.4Z"/>
      <path d="M520.62,28.34c0-3.04,3.18-4.05,6.43-5.05,2.41-.74,3.57-1.3,3.57-2.44s-.96-1.79-2.72-1.79c-1.98,0-3.29,1.14-3.63,3.04h-3.35c.45-3.31,3.18-5.58,7.06-5.58s6.21,1.85,6.21,5.28v10.47h-3.57v-1.73c-1.16,1.27-2.89,1.98-4.85,1.98-3.18,0-5.16-1.64-5.16-4.17h0ZM526.72,30.07c1.48,0,3.01-.6,3.91-1.62v-4.26c-.66.54-1.67.88-2.83,1.27-2.07.68-3.63,1.22-3.63,2.75,0,1.19,1,1.85,2.56,1.85h0Z"/>
      <path d="M534.72,16.86h3.83l2.04,5.93,2.01,5.9,2.04-5.9,2.07-5.93h3.66l-5.79,15.4h-4.08l-5.79-15.4h0Z"/>
      <path d="M550.57,24.57c0-4.99,3.06-8.11,7.46-8.11s7.29,2.95,7.29,8.17v.29h-11.18c.11,3.32,1.59,5.1,3.89,5.1,1.87,0,3.18-1.19,3.68-3.52h3.43c-.68,3.86-3.29,6.13-7.14,6.13-4.42,0-7.43-3.04-7.43-8.06h0ZM554.29,22.75h7.4c-.48-2.41-1.82-3.68-3.68-3.68s-3.26,1.3-3.72,3.68Z"/>
    </g>
  </g>
</svg>