<?xml version="1.0" encoding="UTF-8"?>
<svg id="Layer_1" data-name="Layer 1" xmlns="http://www.w3.org/2000/svg" viewBox="0 0 784.46 332.31">
  <defs>
    <style>
      .cls-1 {
        fill: #0b1117;
      }

      .cls-2 {
        fill: #9797ff;
      }

      .cls-3 {
        fill: #6fb;
      }

      .cls-4 {
        fill: #fff;
      }

      .cls-5 {
        fill: #66dbff;
      }

      .cls-6 {
        fill: #171719;
      }
    </style>
  </defs>
  <g>
    <path d="M784.46,332.3h-246.71V0h246.71v332.3ZM539.74,330.3h242.71V2h-242.71v328.3Z"/>
    <g>
      <g>
        <rect class="cls-4" x="629.34" y="7.2" width="63.52" height="196.13" transform="translate(766.37 -555.84) rotate(90)"/>
        <path class="cls-1" d="M760.17,138.02h-198.13v-65.52h198.13v65.52ZM564.04,136.02h194.13v-61.52h-194.13v61.52Z"/>
      </g>
      <g>
        <path class="cls-6" d="M619.07,98.75c-.85,1.44-2.2,2.21-3.94,2.21-3.2,0-5.38-2.3-5.38-6.5s2.32-6.54,5.8-6.54c3.04,0,5.19,1.76,5.67,4.9h-2.41c-.36-1.94-1.64-2.99-3.26-2.99-2.05,0-3.35,1.58-3.35,4.63s1.31,4.61,3.35,4.61c1.73,0,3.01-1.13,3.38-3.28h-3.28v-1.85h5.6v6.82h-2.18v-2.02Z"/>
        <path class="cls-6" d="M622.53,95.88c0-3.24,1.94-5.15,4.81-5.15s4.83,1.91,4.83,5.15-1.93,5.11-4.83,5.11-4.81-1.91-4.81-5.11ZM629.85,95.87c0-2.25-.99-3.44-2.52-3.44s-2.5,1.19-2.5,3.44.99,3.44,2.5,3.44,2.52-1.17,2.52-3.44Z"/>
        <path class="cls-6" d="M632.28,90.99h2.43l1.3,3.76,1.28,3.75,1.3-3.75,1.31-3.76h2.32l-3.67,9.78h-2.59l-3.67-9.78Z"/>
        <path class="cls-6" d="M642.34,95.88c0-3.17,1.94-5.15,4.74-5.15,2.65,0,4.63,1.87,4.63,5.19v.18h-7.09c.07,2.11,1.01,3.24,2.47,3.24,1.19,0,2.02-.76,2.34-2.23h2.18c-.43,2.45-2.09,3.89-4.54,3.89-2.81,0-4.72-1.93-4.72-5.11ZM644.7,94.73h4.7c-.31-1.53-1.15-2.34-2.34-2.34s-2.07.83-2.36,2.34Z"/>
        <path class="cls-6" d="M652.98,90.99h2.3v1.55c.63-1.1,1.64-1.71,2.94-1.71h.23v2.11c-.23-.04-.47-.05-.7-.05-1.03,0-1.98.41-2.47,1.21v6.68h-2.3v-9.78Z"/>
        <path class="cls-6" d="M659.68,90.99h2.3v1.13c.68-.83,1.69-1.33,2.92-1.33,2.09,0,3.46,1.31,3.46,3.31v6.66h-2.29v-6.3c0-1.28-.79-1.96-1.98-1.96-.88,0-1.66.41-2.11,1.04v7.22h-2.3v-9.78Z"/>
        <path class="cls-6" d="M669.58,98.28c0-1.93,2.02-2.58,4.09-3.21,1.53-.47,2.27-.83,2.27-1.55s-.61-1.13-1.73-1.13c-1.26,0-2.09.72-2.3,1.93h-2.12c.29-2.11,2.02-3.55,4.48-3.55s3.94,1.17,3.94,3.35v6.64h-2.27v-1.1c-.74.81-1.84,1.26-3.08,1.26-2.02,0-3.28-1.04-3.28-2.65ZM673.45,99.38c.94,0,1.91-.38,2.48-1.03v-2.7c-.41.34-1.06.56-1.8.81-1.31.43-2.3.77-2.3,1.75,0,.76.63,1.17,1.62,1.17Z"/>
        <path class="cls-6" d="M679.67,90.99h2.3v1.13c.68-.83,1.69-1.33,2.92-1.33,2.09,0,3.46,1.31,3.46,3.31v6.66h-2.29v-6.3c0-1.28-.79-1.96-1.98-1.96-.88,0-1.66.41-2.11,1.04v7.22h-2.3v-9.78Z"/>
        <path class="cls-6" d="M689.61,95.88c0-3.24,1.93-5.15,4.75-5.15,2.48,0,4.27,1.51,4.59,4.16h-2.2c-.25-1.62-1.13-2.47-2.39-2.47-1.48,0-2.45,1.19-2.45,3.44s.97,3.44,2.45,3.44c1.3,0,2.2-.9,2.41-2.61h2.18c-.27,2.74-2.03,4.3-4.59,4.3-2.84,0-4.75-1.89-4.75-5.11Z"/>
        <path class="cls-6" d="M700.07,95.88c0-3.17,1.94-5.15,4.74-5.15,2.65,0,4.63,1.87,4.63,5.19v.18h-7.09c.07,2.11,1.01,3.24,2.47,3.24,1.19,0,2.02-.76,2.34-2.23h2.18c-.43,2.45-2.09,3.89-4.54,3.89-2.81,0-4.72-1.93-4.72-5.11ZM702.43,94.73h4.7c-.31-1.53-1.15-2.34-2.34-2.34s-2.07.83-2.36,2.34Z"/>
        <path class="cls-6" d="M609.98,109.76h4.56c3.71,0,6.19,2.29,6.19,6.32s-2.52,6.28-6.25,6.28h-4.5v-12.6ZM612.38,111.69v8.79h2.05c2.41,0,3.85-1.46,3.85-4.38s-1.44-4.41-3.85-4.41h-2.05Z"/>
        <path class="cls-6" d="M621.68,119.88c0-1.93,2.02-2.58,4.09-3.21,1.53-.47,2.27-.83,2.27-1.55,0-.68-.61-1.13-1.73-1.13-1.26,0-2.09.72-2.3,1.93h-2.12c.29-2.11,2.02-3.55,4.48-3.55s3.94,1.17,3.94,3.35v6.64h-2.27v-1.1c-.74.81-1.84,1.26-3.08,1.26-2.02,0-3.28-1.04-3.28-2.65ZM625.55,120.98c.94,0,1.91-.38,2.48-1.03v-2.7c-.41.34-1.06.56-1.8.81-1.31.43-2.3.77-2.3,1.75,0,.76.63,1.17,1.62,1.17Z"/>
        <path class="cls-6" d="M633.44,120.13v-5.85h-2.3v-1.69h2.3v-1.94h2.27v1.94h2.86v1.69h-2.86v5.44c0,.65.34.94,1.13.94h1.73v1.71h-2.79c-1.58,0-2.34-.79-2.34-2.23Z"/>
        <path class="cls-6" d="M639.52,119.88c0-1.93,2.02-2.58,4.09-3.21,1.53-.47,2.27-.83,2.27-1.55,0-.68-.61-1.13-1.73-1.13-1.26,0-2.09.72-2.3,1.93h-2.12c.29-2.11,2.02-3.55,4.48-3.55s3.94,1.17,3.94,3.35v6.64h-2.27v-1.1c-.74.81-1.84,1.26-3.08,1.26-2.02,0-3.28-1.04-3.28-2.65ZM643.39,120.98c.94,0,1.91-.38,2.48-1.03v-2.7c-.41.34-1.06.56-1.8.81-1.31.43-2.3.77-2.3,1.75,0,.76.63,1.17,1.62,1.17Z"/>
        <path class="cls-6" d="M649.62,109.76h2.3l-.02,4.38c.7-1.13,1.8-1.75,3.15-1.75,2.54,0,4.21,1.93,4.21,5.08s-1.71,5.1-4.21,5.1c-1.35,0-2.45-.61-3.15-1.75v1.55h-2.29v-12.6ZM656.98,117.48c0-2.25-.97-3.44-2.52-3.44s-2.54,1.21-2.54,3.44.99,3.42,2.54,3.42,2.52-1.19,2.52-3.42Z"/>
        <path class="cls-6" d="M660.22,119.88c0-1.93,2.02-2.58,4.09-3.21,1.53-.47,2.27-.83,2.27-1.55,0-.68-.61-1.13-1.73-1.13-1.26,0-2.09.72-2.3,1.93h-2.12c.29-2.11,2.02-3.55,4.48-3.55s3.94,1.17,3.94,3.35v6.64h-2.27v-1.1c-.74.81-1.84,1.26-3.08,1.26-2.02,0-3.28-1.04-3.28-2.65ZM664.09,120.98c.94,0,1.91-.38,2.48-1.03v-2.7c-.41.34-1.06.56-1.8.81-1.31.43-2.3.77-2.3,1.75,0,.76.63,1.17,1.62,1.17Z"/>
        <path class="cls-6" d="M670.05,118.89h2.14c.25,1.4,1.12,2.11,2.43,2.11s1.93-.5,1.93-1.21c0-.88-1.03-1.21-2.25-1.49-1.84-.45-4.11-.86-4.11-3.04,0-1.66,1.48-2.9,3.93-2.9s4.2,1.28,4.56,3.47h-2.11c-.31-1.3-1.15-1.87-2.43-1.87-1.13,0-1.75.49-1.75,1.08,0,.88,1.15,1.15,2.48,1.48,1.8.43,3.89.92,3.89,3.04,0,1.71-1.55,3.04-4.09,3.04s-4.29-1.22-4.63-3.71Z"/>
        <path class="cls-6" d="M679.82,117.48c0-3.17,1.94-5.15,4.74-5.15,2.65,0,4.63,1.87,4.63,5.19v.18h-7.09c.07,2.11,1.01,3.24,2.47,3.24,1.19,0,2.02-.76,2.34-2.23h2.18c-.43,2.45-2.09,3.89-4.54,3.89-2.81,0-4.72-1.93-4.72-5.11ZM682.18,116.33h4.7c-.31-1.53-1.15-2.34-2.34-2.34s-2.07.83-2.36,2.34Z"/>
      </g>
      <g>
        <circle cx="585.57" cy="105.26" r="12.62"/>
        <g>
          <path class="cls-4" d="M587.73,112.09h-4.32c-1.84,0-3.35-1.5-3.35-3.35v-1.48c0-1.84,1.5-3.35,3.35-3.35h4.32c1.84,0,3.35,1.5,3.35,3.35v1.48c0,1.84-1.5,3.35-3.35,3.35ZM583.41,104.91c-1.29,0-2.35,1.05-2.35,2.35v1.48c0,1.29,1.05,2.35,2.35,2.35h4.32c1.29,0,2.35-1.05,2.35-2.35v-1.48c0-1.29-1.05-2.35-2.35-2.35h-4.32Z"/>
          <path class="cls-4" d="M588.9,104.41h-1v-2.64c0-1.29-1.05-2.33-2.33-2.33s-2.33,1.05-2.33,2.33v2.64h-1v-2.64c0-1.84,1.5-3.33,3.33-3.33s3.33,1.5,3.33,3.33v2.64Z"/>
          <rect class="cls-4" x="585.07" y="107.59" width="1" height="1.34"/>
        </g>
      </g>
    </g>
    <g>
      <g>
        <rect class="cls-4" x="629.34" y="163.01" width="63.52" height="196.13" transform="translate(922.17 -400.03) rotate(90)"/>
        <path class="cls-1" d="M760.17,293.83h-198.13v-65.52h198.13v65.52ZM564.04,291.83h194.13v-61.52h-194.13v61.52Z"/>
      </g>
      <g>
        <path class="cls-6" d="M618.75,249.13c-.27-2.29-1.55-3.47-3.26-3.47-1.98,0-3.29,1.57-3.29,4.61s1.31,4.61,3.29,4.61c1.75,0,3.02-1.24,3.26-3.6h2.36c-.32,3.55-2.57,5.53-5.65,5.53-3.4,0-5.71-2.32-5.71-6.54s2.32-6.54,5.73-6.54c3.02,0,5.31,1.91,5.64,5.4h-2.36Z"/>
        <path class="cls-6" d="M621.86,251.69c0-3.24,1.94-5.15,4.81-5.15s4.83,1.91,4.83,5.15-1.93,5.11-4.83,5.11-4.81-1.91-4.81-5.11ZM629.19,251.67c0-2.25-.99-3.44-2.52-3.44s-2.5,1.19-2.5,3.44.99,3.44,2.5,3.44,2.52-1.17,2.52-3.44Z"/>
        <path class="cls-6" d="M632.41,246.79h2.3v1.13c.68-.83,1.69-1.33,2.92-1.33,2.09,0,3.46,1.31,3.46,3.31v6.66h-2.29v-6.3c0-1.28-.79-1.96-1.98-1.96-.88,0-1.66.41-2.11,1.04v7.22h-2.3v-9.78Z"/>
        <path class="cls-6" d="M643.86,254.34v-5.85h-2.3v-1.69h2.3v-1.94h2.27v1.94h2.86v1.69h-2.86v5.44c0,.65.34.94,1.13.94h1.73v1.71h-2.79c-1.58,0-2.34-.79-2.34-2.23Z"/>
        <path class="cls-6" d="M649.26,251.69c0-3.17,1.94-5.15,4.74-5.15,2.65,0,4.63,1.87,4.63,5.19v.18h-7.09c.07,2.11,1.01,3.24,2.47,3.24,1.19,0,2.02-.76,2.34-2.23h2.18c-.43,2.45-2.09,3.89-4.54,3.89-2.81,0-4.72-1.93-4.72-5.11ZM651.61,250.54h4.7c-.31-1.53-1.15-2.34-2.34-2.34s-2.07.83-2.36,2.34Z"/>
        <path class="cls-6" d="M659.53,246.79h2.3v1.13c.68-.83,1.69-1.33,2.92-1.33,2.09,0,3.46,1.31,3.46,3.31v6.66h-2.29v-6.3c0-1.28-.79-1.96-1.98-1.96-.88,0-1.66.41-2.11,1.04v7.22h-2.3v-9.78Z"/>
        <path class="cls-6" d="M670.98,254.34v-5.85h-2.3v-1.69h2.3v-1.94h2.27v1.94h2.86v1.69h-2.86v5.44c0,.65.34.94,1.13.94h1.73v1.71h-2.79c-1.58,0-2.34-.79-2.34-2.23Z"/>
        <path class="cls-6" d="M689.54,249.13c-.27-2.29-1.55-3.47-3.26-3.47-1.98,0-3.29,1.57-3.29,4.61s1.31,4.61,3.29,4.61c1.75,0,3.02-1.24,3.26-3.6h2.36c-.32,3.55-2.57,5.53-5.65,5.53-3.4,0-5.71-2.32-5.71-6.54s2.32-6.54,5.73-6.54c3.02,0,5.31,1.91,5.64,5.4h-2.36Z"/>
        <path class="cls-6" d="M692.87,243.97h2.3v3.94c.68-.81,1.69-1.31,2.9-1.31,2.11,0,3.48,1.31,3.48,3.31v6.66h-2.29v-6.3c0-1.28-.79-1.96-1.98-1.96-.88,0-1.66.41-2.11,1.04v7.22h-2.3v-12.6Z"/>
        <path class="cls-6" d="M702.62,253.46v-6.66h2.3v6.3c0,1.28.79,1.98,1.98,1.98.88,0,1.66-.43,2.11-1.06v-7.22h2.3v9.78h-2.3v-1.15c-.68.83-1.71,1.35-2.92,1.35-2.11,0-3.48-1.31-3.48-3.31Z"/>
        <path class="cls-6" d="M712.43,246.79h2.3v1.13c.68-.83,1.69-1.33,2.92-1.33,2.09,0,3.46,1.31,3.46,3.31v6.66h-2.29v-6.3c0-1.28-.79-1.96-1.98-1.96-.88,0-1.66.41-2.11,1.04v7.22h-2.3v-9.78Z"/>
        <path class="cls-6" d="M722.23,243.97h2.27l-.04,7.47,4.05-4.65h2.57l-3.37,3.82,3.57,5.96h-2.63l-2.45-4.23-1.75,1.98.04,2.25h-2.27v-12.6Z"/>
        <path class="cls-6" d="M730.83,253.1h2.14c.25,1.4,1.12,2.11,2.43,2.11s1.93-.5,1.93-1.21c0-.88-1.03-1.21-2.25-1.49-1.84-.45-4.11-.86-4.11-3.04,0-1.66,1.48-2.9,3.93-2.9s4.2,1.28,4.56,3.47h-2.11c-.31-1.3-1.15-1.87-2.43-1.87-1.13,0-1.75.49-1.75,1.08,0,.88,1.15,1.15,2.48,1.48,1.8.43,3.89.92,3.89,3.04,0,1.71-1.55,3.04-4.09,3.04s-4.29-1.22-4.63-3.71Z"/>
        <path class="cls-6" d="M609.98,265.57h4.56c3.71,0,6.19,2.29,6.19,6.32s-2.52,6.28-6.25,6.28h-4.5v-12.6ZM612.38,267.5v8.79h2.05c2.41,0,3.85-1.46,3.85-4.38s-1.44-4.41-3.85-4.41h-2.05Z"/>
        <path class="cls-6" d="M621.32,275.69c0-1.93,2.02-2.58,4.09-3.21,1.53-.47,2.27-.83,2.27-1.55s-.61-1.13-1.73-1.13c-1.26,0-2.09.72-2.3,1.93h-2.12c.29-2.11,2.02-3.55,4.48-3.55s3.94,1.17,3.94,3.35v6.64h-2.27v-1.1c-.74.81-1.84,1.26-3.08,1.26-2.02,0-3.28-1.04-3.28-2.65ZM625.19,276.79c.94,0,1.91-.38,2.48-1.03v-2.7c-.41.34-1.06.56-1.8.81-1.31.43-2.3.77-2.3,1.75,0,.76.63,1.17,1.62,1.17Z"/>
        <path class="cls-6" d="M632.72,275.94v-5.85h-2.3v-1.69h2.3v-1.94h2.27v1.94h2.86v1.69h-2.86v5.44c0,.65.34.94,1.13.94h1.73v1.71h-2.79c-1.58,0-2.34-.79-2.34-2.23Z"/>
        <path class="cls-6" d="M638.44,275.69c0-1.93,2.02-2.58,4.09-3.21,1.53-.47,2.27-.83,2.27-1.55s-.61-1.13-1.73-1.13c-1.26,0-2.09.72-2.3,1.93h-2.12c.29-2.11,2.02-3.55,4.48-3.55s3.94,1.17,3.94,3.35v6.64h-2.27v-1.1c-.74.81-1.84,1.26-3.08,1.26-2.02,0-3.28-1.04-3.28-2.65ZM642.31,276.79c.94,0,1.91-.38,2.48-1.03v-2.7c-.41.34-1.06.56-1.8.81-1.31.43-2.3.77-2.3,1.75,0,.76.63,1.17,1.62,1.17Z"/>
        <path class="cls-6" d="M648.18,265.57h2.3l-.02,4.38c.7-1.13,1.8-1.75,3.15-1.75,2.54,0,4.21,1.93,4.21,5.08s-1.71,5.1-4.21,5.1c-1.35,0-2.45-.61-3.15-1.75v1.55h-2.29v-12.6ZM655.54,273.29c0-2.25-.97-3.44-2.52-3.44s-2.54,1.21-2.54,3.44.99,3.42,2.54,3.42,2.52-1.19,2.52-3.42Z"/>
        <path class="cls-6" d="M658.42,275.69c0-1.93,2.02-2.58,4.09-3.21,1.53-.47,2.27-.83,2.27-1.55s-.61-1.13-1.73-1.13c-1.26,0-2.09.72-2.3,1.93h-2.12c.29-2.11,2.02-3.55,4.48-3.55s3.94,1.17,3.94,3.35v6.64h-2.27v-1.1c-.74.81-1.84,1.26-3.08,1.26-2.02,0-3.28-1.04-3.28-2.65ZM662.29,276.79c.94,0,1.91-.38,2.48-1.03v-2.7c-.41.34-1.06.56-1.8.81-1.31.43-2.3.77-2.3,1.75,0,.76.63,1.17,1.62,1.17Z"/>
        <path class="cls-6" d="M667.89,274.7h2.14c.25,1.4,1.12,2.11,2.43,2.11s1.93-.5,1.93-1.21c0-.88-1.03-1.21-2.25-1.49-1.84-.45-4.11-.86-4.11-3.04,0-1.66,1.48-2.9,3.93-2.9s4.2,1.28,4.56,3.47h-2.11c-.31-1.3-1.15-1.87-2.43-1.87-1.13,0-1.75.49-1.75,1.08,0,.88,1.15,1.15,2.48,1.48,1.8.43,3.89.92,3.89,3.04,0,1.71-1.55,3.04-4.09,3.04s-4.29-1.22-4.63-3.71Z"/>
        <path class="cls-6" d="M677.3,273.29c0-3.17,1.94-5.15,4.74-5.15,2.65,0,4.63,1.87,4.63,5.19v.18h-7.09c.07,2.11,1.01,3.24,2.47,3.24,1.19,0,2.02-.76,2.34-2.23h2.18c-.43,2.45-2.09,3.89-4.54,3.89-2.81,0-4.72-1.93-4.72-5.11ZM679.66,272.14h4.7c-.31-1.53-1.15-2.34-2.34-2.34s-2.07.83-2.36,2.34Z"/>
      </g>
      <g>
        <circle cx="585.57" cy="261.07" r="12.62"/>
        <g>
          <path class="cls-4" d="M587.73,267.89h-4.32c-1.84,0-3.35-1.5-3.35-3.35v-1.48c0-1.84,1.5-3.35,3.35-3.35h4.32c1.84,0,3.35,1.5,3.35,3.35v1.48c0,1.84-1.5,3.35-3.35,3.35ZM583.41,260.72c-1.29,0-2.35,1.05-2.35,2.35v1.48c0,1.29,1.05,2.35,2.35,2.35h4.32c1.29,0,2.35-1.05,2.35-2.35v-1.48c0-1.29-1.05-2.35-2.35-2.35h-4.32Z"/>
          <path class="cls-4" d="M588.9,260.22h-1v-2.64c0-1.29-1.05-2.33-2.33-2.33s-2.33,1.05-2.33,2.33v2.64h-1v-2.64c0-1.84,1.5-3.33,3.33-3.33s3.33,1.5,3.33,3.33v2.64Z"/>
          <rect class="cls-4" x="585.07" y="263.4" width="1" height="1.34"/>
        </g>
      </g>
    </g>
    <g>
      <g>
        <rect class="cls-4" x="629.34" y="85.1" width="63.52" height="196.13" transform="translate(844.27 -477.93) rotate(90)"/>
        <path class="cls-1" d="M760.17,215.93h-198.13v-65.52h198.13v65.52ZM564.04,213.93h194.13v-61.52h-194.13v61.52Z"/>
      </g>
      <g>
        <path class="cls-6" d="M616.86,178.67h-2.86l-4.66-12.6h2.61l3.57,10.23,1.76-5.11,1.78-5.11h2.47l-4.66,12.6Z"/>
        <path class="cls-6" d="M620.83,173.79c0-3.17,1.94-5.15,4.74-5.15,2.65,0,4.63,1.87,4.63,5.19v.18h-7.09c.07,2.11,1.01,3.24,2.47,3.24,1.19,0,2.02-.76,2.34-2.23h2.18c-.43,2.45-2.09,3.89-4.54,3.89-2.81,0-4.72-1.93-4.72-5.11ZM623.19,172.63h4.7c-.31-1.53-1.15-2.34-2.34-2.34s-2.07.83-2.36,2.34Z"/>
        <path class="cls-6" d="M631.35,173.79c0-3.24,1.93-5.15,4.75-5.15,2.48,0,4.27,1.51,4.59,4.16h-2.2c-.25-1.62-1.13-2.47-2.39-2.47-1.48,0-2.45,1.19-2.45,3.44s.97,3.44,2.45,3.44c1.3,0,2.2-.9,2.41-2.61h2.18c-.27,2.74-2.03,4.3-4.59,4.3-2.84,0-4.75-1.89-4.75-5.11Z"/>
        <path class="cls-6" d="M643.41,176.43v-5.85h-2.3v-1.69h2.3v-1.94h2.27v1.94h2.86v1.69h-2.86v5.44c0,.65.34.94,1.13.94h1.73v1.71h-2.79c-1.58,0-2.34-.79-2.34-2.23Z"/>
        <path class="cls-6" d="M649.17,173.79c0-3.24,1.94-5.15,4.81-5.15s4.83,1.91,4.83,5.15-1.93,5.11-4.83,5.11-4.81-1.91-4.81-5.11ZM656.49,173.77c0-2.25-.99-3.44-2.52-3.44s-2.5,1.19-2.5,3.44.99,3.44,2.5,3.44,2.52-1.17,2.52-3.44Z"/>
        <path class="cls-6" d="M660.07,168.89h2.3v1.55c.63-1.1,1.64-1.71,2.94-1.71h.23v2.11c-.23-.04-.47-.05-.7-.05-1.03,0-1.98.41-2.47,1.21v6.68h-2.3v-9.78Z"/>
        <path class="cls-6" d="M609.98,187.66h4.56c3.71,0,6.19,2.29,6.19,6.32s-2.52,6.28-6.25,6.28h-4.5v-12.6ZM612.38,189.59v8.79h2.05c2.41,0,3.85-1.46,3.85-4.38s-1.44-4.41-3.85-4.41h-2.05Z"/>
        <path class="cls-6" d="M621.68,197.78c0-1.93,2.02-2.58,4.09-3.21,1.53-.47,2.27-.83,2.27-1.55,0-.68-.61-1.13-1.73-1.13-1.26,0-2.09.72-2.3,1.93h-2.12c.29-2.11,2.02-3.55,4.48-3.55s3.94,1.17,3.94,3.35v6.64h-2.27v-1.1c-.74.81-1.84,1.26-3.08,1.26-2.02,0-3.28-1.04-3.28-2.65ZM625.55,198.88c.94,0,1.91-.38,2.48-1.03v-2.7c-.41.34-1.06.56-1.8.81-1.31.43-2.3.77-2.3,1.75,0,.76.63,1.17,1.62,1.17Z"/>
        <path class="cls-6" d="M633.44,198.03v-5.85h-2.3v-1.69h2.3v-1.94h2.27v1.94h2.86v1.69h-2.86v5.44c0,.65.34.94,1.13.94h1.73v1.71h-2.79c-1.58,0-2.34-.79-2.34-2.23Z"/>
        <path class="cls-6" d="M639.52,197.78c0-1.93,2.02-2.58,4.09-3.21,1.53-.47,2.27-.83,2.27-1.55,0-.68-.61-1.13-1.73-1.13-1.26,0-2.09.72-2.3,1.93h-2.12c.29-2.11,2.02-3.55,4.48-3.55s3.94,1.17,3.94,3.35v6.64h-2.27v-1.1c-.74.81-1.84,1.26-3.08,1.26-2.02,0-3.28-1.04-3.28-2.65ZM643.39,198.88c.94,0,1.91-.38,2.48-1.03v-2.7c-.41.34-1.06.56-1.8.81-1.31.43-2.3.77-2.3,1.75,0,.76.63,1.17,1.62,1.17Z"/>
        <path class="cls-6" d="M649.62,187.66h2.3l-.02,4.38c.7-1.13,1.8-1.75,3.15-1.75,2.54,0,4.21,1.93,4.21,5.08s-1.71,5.1-4.21,5.1c-1.35,0-2.45-.61-3.15-1.75v1.55h-2.29v-12.6ZM656.98,195.39c0-2.25-.97-3.44-2.52-3.44s-2.54,1.21-2.54,3.44.99,3.42,2.54,3.42,2.52-1.19,2.52-3.42Z"/>
        <path class="cls-6" d="M660.22,197.78c0-1.93,2.02-2.58,4.09-3.21,1.53-.47,2.27-.83,2.27-1.55,0-.68-.61-1.13-1.73-1.13-1.26,0-2.09.72-2.3,1.93h-2.12c.29-2.11,2.02-3.55,4.48-3.55s3.94,1.17,3.94,3.35v6.64h-2.27v-1.1c-.74.81-1.84,1.26-3.08,1.26-2.02,0-3.28-1.04-3.28-2.65ZM664.09,198.88c.94,0,1.91-.38,2.48-1.03v-2.7c-.41.34-1.06.56-1.8.81-1.31.43-2.3.77-2.3,1.75,0,.76.63,1.17,1.62,1.17Z"/>
        <path class="cls-6" d="M670.05,196.79h2.14c.25,1.4,1.12,2.11,2.43,2.11s1.93-.5,1.93-1.21c0-.88-1.03-1.21-2.25-1.49-1.84-.45-4.11-.86-4.11-3.04,0-1.66,1.48-2.9,3.93-2.9s4.2,1.28,4.56,3.47h-2.11c-.31-1.3-1.15-1.87-2.43-1.87-1.13,0-1.75.49-1.75,1.08,0,.88,1.15,1.15,2.48,1.48,1.8.43,3.89.92,3.89,3.04,0,1.71-1.55,3.04-4.09,3.04s-4.29-1.22-4.63-3.71Z"/>
        <path class="cls-6" d="M679.82,195.39c0-3.17,1.94-5.15,4.74-5.15,2.65,0,4.63,1.87,4.63,5.19v.18h-7.09c.07,2.11,1.01,3.24,2.47,3.24,1.19,0,2.02-.76,2.34-2.23h2.18c-.43,2.45-2.09,3.89-4.54,3.89-2.81,0-4.72-1.93-4.72-5.11ZM682.18,194.23h4.7c-.31-1.53-1.15-2.34-2.34-2.34s-2.07.83-2.36,2.34Z"/>
      </g>
    </g>
    <g>
      <path d="M615.19,30.95h5.91c2.7,0,4.36,1.46,4.36,3.85s-1.64,3.84-4.32,3.84h-3.55v4.92h-2.4v-12.6ZM617.58,32.84v3.94h3.35c1.35,0,2.14-.67,2.14-1.96s-.79-1.98-2.14-1.98h-3.35Z"/>
      <path d="M626.04,33.78h2.3v1.55c.63-1.1,1.64-1.71,2.94-1.71h.23v2.11c-.23-.04-.47-.05-.7-.05-1.03,0-1.98.41-2.47,1.21v6.68h-2.3v-9.78Z"/>
      <path d="M632.1,31h2.3v1.96h-2.3v-1.96ZM632.1,33.78h2.3v9.78h-2.3v-9.78Z"/>
      <path d="M634.66,33.78h2.43l1.3,3.76,1.28,3.75,1.3-3.75,1.31-3.76h2.32l-3.67,9.78h-2.59l-3.67-9.78Z"/>
      <path d="M643.88,41.07c0-1.93,2.02-2.58,4.09-3.21,1.53-.47,2.27-.83,2.27-1.55,0-.68-.61-1.13-1.73-1.13-1.26,0-2.09.72-2.3,1.93h-2.12c.29-2.11,2.02-3.55,4.48-3.55s3.94,1.17,3.94,3.35v6.64h-2.27v-1.1c-.74.81-1.84,1.26-3.08,1.26-2.02,0-3.28-1.04-3.28-2.65ZM647.75,42.17c.94,0,1.91-.38,2.48-1.03v-2.7c-.41.34-1.06.56-1.8.81-1.31.43-2.3.77-2.3,1.75,0,.76.63,1.17,1.62,1.17Z"/>
      <path d="M655,41.32v-5.85h-2.3v-1.69h2.3v-1.94h2.27v1.94h2.86v1.69h-2.86v5.44c0,.65.34.94,1.13.94h1.73v1.71h-2.79c-1.58,0-2.34-.79-2.34-2.23Z"/>
      <path d="M660.13,38.67c0-3.17,1.94-5.15,4.74-5.15,2.65,0,4.63,1.87,4.63,5.19v.18h-7.09c.07,2.11,1.01,3.24,2.47,3.24,1.19,0,2.02-.76,2.34-2.23h2.18c-.43,2.45-2.09,3.89-4.54,3.89-2.81,0-4.72-1.93-4.72-5.11ZM662.49,37.52h4.7c-.31-1.53-1.15-2.34-2.34-2.34s-2.07.83-2.36,2.34Z"/>
      <path d="M673.68,30.95h6.14c2.56,0,4.12,1.3,4.12,3.46,0,1.4-.67,2.48-1.87,3.02,1.12.36,1.48,1.24,1.51,2.5.04,1.48.11,2.67.52,3.62h-2.47c-.36-.68-.4-1.64-.43-3.66-.02-1.1-.49-1.55-1.55-1.55h-3.58v5.2h-2.4v-12.6ZM676.08,32.84v3.65h3.56c1.19,0,1.94-.65,1.94-1.84s-.76-1.82-1.94-1.82h-3.56Z"/>
      <path d="M688.79,30.95h2.86l4.66,12.6h-2.63l-1.01-2.9h-5.08l-1.01,2.9h-2.47l4.66-12.6ZM688.21,38.85h3.85l-.16-.47-1.76-5.2-1.76,5.2-.16.47Z"/>
      <path d="M704.88,41.54c-.85,1.44-2.2,2.21-3.94,2.21-3.2,0-5.38-2.3-5.38-6.5s2.32-6.54,5.8-6.54c3.04,0,5.19,1.76,5.67,4.9h-2.41c-.36-1.94-1.64-2.99-3.26-2.99-2.05,0-3.35,1.58-3.35,4.63s1.31,4.61,3.35,4.61c1.73,0,3.01-1.13,3.38-3.28h-3.28v-1.85h5.6v6.82h-2.18v-2.02Z"/>
    </g>
    <g>
      <g>
        <rect class="cls-2" x="-54.3" y="128.8" width="219.31" height="108.72" transform="translate(238.52 127.8) rotate(90)"/>
        <path d="M110.72,293.81H0V72.51h110.72v221.31ZM2,291.81h106.72V74.51H2v217.31Z"/>
      </g>
      <g>
        <path d="M26.44,155.26h5.91c2.7,0,4.36,1.46,4.36,3.85s-1.64,3.84-4.32,3.84h-3.55v4.92h-2.39v-12.6ZM28.83,157.15v3.94h3.35c1.35,0,2.14-.67,2.14-1.96s-.79-1.98-2.14-1.98h-3.35Z"/>
        <path d="M37.92,158.09h2.3v1.55c.63-1.1,1.64-1.71,2.94-1.71h.23v2.11c-.23-.04-.47-.05-.7-.05-1.03,0-1.98.41-2.47,1.21v6.68h-2.3v-9.78Z"/>
        <path d="M44.62,155.32h2.3v1.96h-2.3v-1.96ZM44.62,158.09h2.3v9.78h-2.3v-9.78Z"/>
        <path d="M47.81,158.09h2.43l1.3,3.76,1.28,3.75,1.3-3.75,1.31-3.76h2.32l-3.67,9.78h-2.59l-3.67-9.78Z"/>
        <path d="M57.65,165.38c0-1.93,2.02-2.58,4.09-3.21,1.53-.47,2.27-.83,2.27-1.55s-.61-1.13-1.73-1.13c-1.26,0-2.09.72-2.3,1.93h-2.12c.29-2.11,2.02-3.55,4.48-3.55s3.94,1.17,3.94,3.35v6.64h-2.27v-1.1c-.74.81-1.84,1.26-3.08,1.26-2.02,0-3.28-1.04-3.28-2.65ZM61.52,166.48c.94,0,1.91-.38,2.48-1.03v-2.7c-.41.34-1.06.56-1.8.81-1.31.43-2.3.77-2.3,1.75,0,.76.63,1.17,1.62,1.17Z"/>
        <path d="M69.41,165.63v-5.85h-2.3v-1.69h2.3v-1.94h2.27v1.94h2.86v1.69h-2.86v5.44c0,.65.34.94,1.13.94h1.73v1.71h-2.79c-1.58,0-2.34-.79-2.34-2.23Z"/>
        <path d="M75.17,162.99c0-3.17,1.94-5.15,4.74-5.15,2.65,0,4.63,1.87,4.63,5.19v.18h-7.09c.07,2.11,1.01,3.24,2.47,3.24,1.19,0,2.02-.76,2.34-2.23h2.18c-.43,2.45-2.09,3.89-4.54,3.89-2.81,0-4.72-1.93-4.72-5.11ZM77.52,161.84h4.7c-.31-1.53-1.15-2.34-2.34-2.34s-2.07.83-2.36,2.34Z"/>
        <path d="M30.14,182.03c-.27-2.29-1.55-3.47-3.26-3.47-1.98,0-3.29,1.57-3.29,4.61s1.31,4.61,3.29,4.61c1.75,0,3.02-1.24,3.26-3.6h2.36c-.32,3.55-2.57,5.53-5.65,5.53-3.4,0-5.71-2.32-5.71-6.54s2.32-6.54,5.73-6.54c3.02,0,5.31,1.91,5.64,5.4h-2.36Z"/>
        <path d="M33.61,184.59c0-3.24,1.94-5.15,4.81-5.15s4.83,1.91,4.83,5.15-1.93,5.11-4.83,5.11-4.81-1.91-4.81-5.11ZM40.94,184.57c0-2.25-.99-3.44-2.52-3.44s-2.5,1.19-2.5,3.44.99,3.44,2.5,3.44,2.52-1.17,2.52-3.44Z"/>
        <path d="M44.52,179.69h2.3v1.13c.68-.83,1.69-1.33,2.92-1.33,2.09,0,3.46,1.31,3.46,3.31v6.66h-2.29v-6.3c0-1.28-.79-1.96-1.98-1.96-.88,0-1.66.41-2.11,1.04v7.22h-2.3v-9.78Z"/>
        <path d="M56.33,187.23v-5.85h-2.3v-1.69h2.3v-1.94h2.27v1.94h2.86v1.69h-2.86v5.44c0,.65.34.94,1.13.94h1.73v1.71h-2.79c-1.58,0-2.34-.79-2.34-2.23Z"/>
        <path d="M62.09,184.59c0-3.17,1.94-5.15,4.74-5.15,2.65,0,4.63,1.87,4.63,5.19v.18h-7.09c.07,2.11,1.01,3.24,2.47,3.24,1.19,0,2.02-.76,2.34-2.23h2.18c-.43,2.45-2.09,3.89-4.54,3.89-2.81,0-4.72-1.93-4.72-5.11ZM64.45,183.43h4.7c-.31-1.53-1.15-2.34-2.34-2.34s-2.07.83-2.36,2.34Z"/>
        <path d="M72.73,179.69h2.3v1.13c.68-.83,1.69-1.33,2.92-1.33,2.09,0,3.46,1.31,3.46,3.31v6.66h-2.29v-6.3c0-1.28-.79-1.96-1.98-1.96-.88,0-1.66.41-2.11,1.04v7.22h-2.3v-9.78Z"/>
        <path d="M84.53,187.23v-5.85h-2.3v-1.69h2.3v-1.94h2.27v1.94h2.86v1.69h-2.86v5.44c0,.65.34.94,1.13.94h1.73v1.71h-2.79c-1.58,0-2.34-.79-2.34-2.23Z"/>
        <path d="M33.97,203.63c-.27-2.29-1.55-3.47-3.26-3.47-1.98,0-3.29,1.57-3.29,4.61s1.31,4.61,3.29,4.61c1.75,0,3.02-1.24,3.26-3.6h2.36c-.32,3.55-2.57,5.53-5.65,5.53-3.4,0-5.71-2.32-5.71-6.54s2.32-6.54,5.73-6.54c3.02,0,5.31,1.91,5.64,5.4h-2.36Z"/>
        <path d="M37.65,198.46h2.3v3.94c.68-.81,1.69-1.31,2.9-1.31,2.11,0,3.48,1.31,3.48,3.31v6.66h-2.29v-6.3c0-1.28-.79-1.96-1.98-1.96-.88,0-1.66.41-2.11,1.04v7.22h-2.3v-12.6Z"/>
        <path d="M47.77,207.95v-6.66h2.3v6.3c0,1.28.79,1.98,1.98,1.98.88,0,1.66-.43,2.11-1.06v-7.22h2.3v9.78h-2.3v-1.15c-.68.83-1.71,1.35-2.92,1.35-2.11,0-3.48-1.31-3.48-3.31Z"/>
        <path d="M57.94,201.29h2.3v1.13c.68-.83,1.69-1.33,2.92-1.33,2.09,0,3.46,1.31,3.46,3.31v6.66h-2.29v-6.3c0-1.28-.79-1.96-1.98-1.96-.88,0-1.66.41-2.11,1.04v7.22h-2.3v-9.78Z"/>
        <path d="M68.09,198.46h2.27l-.04,7.47,4.05-4.65h2.57l-3.37,3.82,3.57,5.96h-2.63l-2.45-4.23-1.75,1.98.04,2.25h-2.27v-12.6Z"/>
        <path d="M77.06,207.59h2.14c.25,1.4,1.12,2.11,2.43,2.11s1.93-.5,1.93-1.21c0-.88-1.03-1.21-2.25-1.49-1.84-.45-4.11-.86-4.11-3.04,0-1.66,1.48-2.9,3.93-2.9s4.2,1.28,4.56,3.47h-2.11c-.31-1.3-1.15-1.87-2.43-1.87-1.13,0-1.75.49-1.75,1.08,0,.88,1.15,1.15,2.48,1.48,1.8.43,3.89.92,3.89,3.04,0,1.71-1.55,3.04-4.09,3.04s-4.29-1.22-4.63-3.71Z"/>
      </g>
    </g>
    <g>
      <g>
        <rect class="cls-3" x="385.09" y="85.1" width="63.52" height="196.13" transform="translate(600.01 -233.68) rotate(90)"/>
        <path class="cls-1" d="M515.91,215.93h-198.13v-65.52h198.13v65.52ZM319.78,213.93h194.13v-61.52h-194.13v61.52Z"/>
      </g>
      <g>
        <path class="cls-6" d="M346.66,181.07h-2.86l-4.66-12.6h2.61l3.56,10.23,1.76-5.11,1.78-5.11h2.47l-4.66,12.6Z"/>
        <path class="cls-6" d="M350.64,176.19c0-3.17,1.94-5.15,4.74-5.15,2.65,0,4.63,1.87,4.63,5.19v.18h-7.09c.07,2.11,1.01,3.24,2.47,3.24,1.19,0,2.02-.76,2.34-2.23h2.18c-.43,2.45-2.09,3.89-4.54,3.89-2.81,0-4.72-1.93-4.72-5.11ZM353,175.04h4.7c-.31-1.53-1.15-2.34-2.34-2.34s-2.07.83-2.36,2.34Z"/>
        <path class="cls-6" d="M361.15,176.19c0-3.24,1.93-5.15,4.75-5.15,2.48,0,4.27,1.51,4.59,4.16h-2.2c-.25-1.62-1.13-2.47-2.39-2.47-1.48,0-2.45,1.19-2.45,3.44s.97,3.44,2.45,3.44c1.3,0,2.2-.9,2.41-2.61h2.18c-.27,2.74-2.03,4.3-4.59,4.3-2.84,0-4.75-1.89-4.75-5.11Z"/>
        <path class="cls-6" d="M373.21,178.84v-5.85h-2.3v-1.69h2.3v-1.94h2.27v1.94h2.86v1.69h-2.86v5.44c0,.65.34.94,1.13.94h1.73v1.71h-2.79c-1.58,0-2.34-.79-2.34-2.23Z"/>
        <path class="cls-6" d="M378.97,176.19c0-3.24,1.94-5.15,4.81-5.15s4.83,1.91,4.83,5.15-1.93,5.11-4.83,5.11-4.81-1.91-4.81-5.11ZM386.3,176.17c0-2.25-.99-3.44-2.52-3.44s-2.5,1.19-2.5,3.44.99,3.44,2.5,3.44,2.52-1.17,2.52-3.44Z"/>
        <path class="cls-6" d="M389.88,171.29h2.3v1.55c.63-1.1,1.64-1.71,2.94-1.71h.23v2.11c-.23-.04-.47-.05-.7-.05-1.03,0-1.98.41-2.47,1.21v6.68h-2.3v-9.78Z"/>
        <path class="cls-6" d="M400.75,168.46h9.2v1.91h-6.81v3.28h5.06v1.87h-5.06v3.67h6.81v1.87h-9.2v-12.6Z"/>
        <path class="cls-6" d="M411.26,171.29h2.3v1.17c.65-.85,1.64-1.37,2.83-1.37,1.28,0,2.27.56,2.79,1.51.7-.92,1.8-1.51,3.13-1.51,2.02,0,3.33,1.31,3.33,3.31v6.66h-2.29v-6.37c0-1.24-.76-1.89-1.87-1.89-.79,0-1.46.36-1.93.9.04.22.05.45.05.7v6.66h-2.3v-6.37c0-1.24-.72-1.89-1.78-1.89-.83,0-1.53.4-1.96.99v7.27h-2.3v-9.78Z"/>
        <path class="cls-6" d="M427.12,168.46h2.3l-.02,4.38c.7-1.13,1.8-1.75,3.15-1.75,2.54,0,4.21,1.93,4.21,5.08s-1.71,5.1-4.21,5.1c-1.35,0-2.45-.61-3.15-1.75v1.55h-2.29v-12.6ZM434.48,176.19c0-2.25-.97-3.44-2.52-3.44s-2.54,1.21-2.54,3.44.99,3.42,2.54,3.42,2.52-1.19,2.52-3.42Z"/>
        <path class="cls-6" d="M437.93,176.19c0-3.17,1.94-5.15,4.74-5.15,2.65,0,4.63,1.87,4.63,5.19v.18h-7.09c.07,2.11,1.01,3.24,2.47,3.24,1.19,0,2.02-.76,2.34-2.23h2.18c-.43,2.45-2.09,3.89-4.54,3.89-2.81,0-4.72-1.93-4.72-5.11ZM440.29,175.04h4.7c-.31-1.53-1.15-2.34-2.34-2.34s-2.07.83-2.36,2.34Z"/>
        <path class="cls-6" d="M448.45,176.19c0-3.11,1.71-5.09,4.23-5.09,1.33,0,2.43.63,3.13,1.76v-4.39h2.3v12.6h-2.3v-1.55c-.7,1.13-1.8,1.75-3.13,1.75-2.54,0-4.23-1.93-4.23-5.08ZM455.81,176.19c0-2.25-1.01-3.44-2.56-3.44s-2.5,1.19-2.5,3.42.97,3.44,2.5,3.44,2.56-1.19,2.56-3.42Z"/>
        <path class="cls-6" d="M459.39,176.19c0-3.11,1.71-5.09,4.23-5.09,1.33,0,2.43.63,3.13,1.76v-4.39h2.3v12.6h-2.3v-1.55c-.7,1.13-1.8,1.75-3.13,1.75-2.54,0-4.23-1.93-4.23-5.08ZM466.75,176.19c0-2.25-1.01-3.44-2.56-3.44s-2.5,1.19-2.5,3.42.97,3.44,2.5,3.44,2.56-1.19,2.56-3.42Z"/>
        <path class="cls-6" d="M470.55,168.52h2.3v1.96h-2.3v-1.96ZM470.55,171.29h2.3v9.78h-2.3v-9.78Z"/>
        <path class="cls-6" d="M474.35,171.29h2.3v1.13c.68-.83,1.69-1.33,2.92-1.33,2.09,0,3.46,1.31,3.46,3.31v6.66h-2.29v-6.3c0-1.28-.79-1.96-1.98-1.96-.88,0-1.66.41-2.11,1.04v7.22h-2.3v-9.78Z"/>
        <path class="cls-6" d="M484.28,176.12c0-3.08,1.71-5.02,4.23-5.02,1.33,0,2.43.61,3.13,1.73v-1.53h2.3v9.31c0,2.63-1.84,3.96-4.75,3.96-2.52,0-4.23-1.03-4.65-2.92h2.27c.29.97,1.06,1.44,2.4,1.44,1.49,0,2.43-.72,2.43-2.16v-1.51c-.7,1.12-1.8,1.73-3.13,1.73-2.54,0-4.23-1.91-4.23-5.02ZM491.65,176.12c0-2.21-1.01-3.37-2.56-3.37s-2.5,1.15-2.5,3.37.97,3.37,2.5,3.37,2.56-1.17,2.56-3.37Z"/>
        <path class="cls-6" d="M367.07,188.06h4.01v1.33h-2.17v9.71h2.17v1.33h-4.01v-12.37Z"/>
        <path class="cls-6" d="M371.82,192.96c0-3.11,1.67-5.08,4.3-5.08s4.27,1.97,4.27,5.08-1.64,5.08-4.27,5.08-4.3-1.97-4.3-5.08ZM378.51,192.96c0-2.34-.9-3.63-2.4-3.63s-2.44,1.29-2.44,3.63.91,3.63,2.44,3.63,2.4-1.29,2.4-3.63Z"/>
        <path class="cls-6" d="M380.96,196.12h1.96v1.75h-1.96v-1.75Z"/>
        <path class="cls-6" d="M384.18,190.32h-1.75v-1.06c1.27-.04,2.04-.53,2.34-1.19h1.25v9.81h-1.83v-7.55Z"/>
        <path class="cls-6" d="M387.13,196.54c1.53-1.34,2.62-2.31,3.42-3.05,1.71-1.57,1.98-2.09,1.98-2.82s-.62-1.34-1.61-1.34c-1.13,0-1.89.7-2.19,2.1h-1.77c.35-2.28,1.75-3.53,4.03-3.54,1.92,0,3.38,1.12,3.38,2.66,0,.94-.29,1.83-2.38,3.61-.7.6-1.51,1.33-2.61,2.31l5.04-.06v1.46h-7.3v-1.33Z"/>
        <path class="cls-6" d="M395.41,199.04c.71-.06,1.02-.42,1.02-1.18h-1.01v-1.75h1.98v1.64c0,1.34-.77,2.12-1.99,2.12v-.83Z"/>
        <path class="cls-6" d="M401.68,192.1h4.37v1.34h-4.37v-1.34Z"/>
        <path class="cls-6" d="M412.11,195.79h-5.29v-1.37l4.89-6.36h2.2v6.33h1.27v1.4h-1.27v2.07h-1.79v-2.07ZM412.11,194.39v-4.61s-3.4,4.61-3.4,4.61h3.4Z"/>
        <path class="cls-6" d="M415.93,196.12h1.96v1.75h-1.96v-1.75Z"/>
        <path class="cls-6" d="M418.91,196.54c1.53-1.34,2.62-2.31,3.42-3.05,1.71-1.57,1.98-2.09,1.98-2.82s-.62-1.34-1.61-1.34c-1.13,0-1.89.7-2.19,2.1h-1.77c.35-2.28,1.75-3.53,4.03-3.54,1.92,0,3.38,1.12,3.38,2.66,0,.94-.29,1.83-2.38,3.61-.7.6-1.51,1.33-2.61,2.31l5.04-.06v1.46h-7.3v-1.33Z"/>
        <path class="cls-6" d="M427.19,199.04c.71-.06,1.02-.42,1.02-1.18h-1.01v-1.75h1.98v1.64c0,1.34-.77,2.12-1.99,2.12v-.83Z"/>
        <path class="cls-6" d="M433.3,194.58h1.82c.14,1.4.87,2.09,2.04,2.09s1.98-.81,1.98-2.1-.8-2.04-2-2.04c-.85,0-1.44.34-1.92.95h-1.81l.84-5.41h6.23v1.44h-4.87l-.36,2.42c.6-.46,1.37-.71,2.26-.71,2,0,3.43,1.27,3.43,3.28,0,2.17-1.48,3.56-3.74,3.56s-3.68-1.2-3.89-3.47Z"/>
        <path class="cls-6" d="M441.75,196.12h1.96v1.75h-1.96v-1.75Z"/>
        <path class="cls-6" d="M449.53,189.52h-5.8v-1.46h7.62v1.37c-2.61,2.1-3.6,4.78-3.54,8.43h-2c.06-3.45,1.26-6.49,3.73-8.35Z"/>
        <path class="cls-6" d="M450.9,199.04c.71-.06,1.02-.42,1.02-1.18h-1.01v-1.75h1.98v1.64c0,1.34-.77,2.12-1.99,2.12v-.83Z"/>
        <path class="cls-6" d="M453.89,196.12h1.96v1.75h-1.96v-1.75Z"/>
        <path class="cls-6" d="M456.84,196.12h1.96v1.75h-1.96v-1.75Z"/>
        <path class="cls-6" d="M459.79,196.12h1.96v1.75h-1.96v-1.75Z"/>
        <path class="cls-6" d="M466.63,200.43h-4.01v-1.33h2.17v-9.71h-2.17v-1.33h4.01v12.37Z"/>
      </g>
    </g>
    <g>
      <g>
        <rect class="cls-5" x="328.92" y="6.35" width="63.52" height="196.13" transform="translate(465.09 -256.27) rotate(90)"/>
        <path class="cls-1" d="M459.74,137.17h-198.13v-65.52h198.13v65.52ZM263.62,135.17h194.13v-61.52h-194.13v61.52Z"/>
      </g>
      <g>
        <path class="cls-6" d="M346.2,97.92h2.39v12.6h-2.39v-12.6Z"/>
        <path class="cls-6" d="M354.17,97.92h2.86l4.66,12.6h-2.63l-1.01-2.9h-5.08l-1.01,2.9h-2.47l4.66-12.6ZM353.6,105.82h3.85l-.16-.47-1.76-5.2-1.76,5.2-.16.47Z"/>
        <path class="cls-6" d="M362.61,97.92h3.48l1.42,4.72,1.39,4.7,1.39-4.7,1.4-4.72h3.48v12.6h-2.23l.02-6.21.05-4.07-1.19,4.07-1.84,6.21h-2.25l-1.84-6.21-1.19-4.07.05,4.07.02,6.21h-2.16v-12.6Z"/>
      </g>
    </g>
    <polygon class="cls-6" points="214.25 151.4 133.54 222.11 214.25 292.82 294.96 222.11 214.25 151.4"/>
    <g>
      <rect class="cls-1" x="109.72" y="221.11" width="14.43" height="2"/>
      <polygon class="cls-1" points="122.4 216.13 132.76 222.11 122.4 228.1 122.4 216.13"/>
    </g>
    <g>
      <rect class="cls-1" x="243.94" y="184.9" width="66.23" height="2"/>
      <polygon class="cls-1" points="308.42 179.92 318.78 185.9 308.42 191.89 308.42 179.92"/>
    </g>
    <g>
      <rect class="cls-1" x="241.46" y="260.07" width="312.54" height="2"/>
      <polygon class="cls-1" points="552.25 255.09 562.62 261.07 552.25 267.05 552.25 255.09"/>
    </g>
    <g>
      <rect class="cls-1" x="458.74" y="104.26" width="95.26" height="2"/>
      <polygon class="cls-1" points="552.25 99.28 562.62 105.26 552.25 111.25 552.25 99.28"/>
    </g>
    <g>
      <rect class="cls-1" x="515.91" y="184.9" width="38.09" height="2"/>
      <polygon class="cls-1" points="552.25 179.92 562.62 185.9 552.25 191.89 552.25 179.92"/>
    </g>
    <g>
      <rect class="cls-1" x="109.72" y="104.26" width="144.29" height="2"/>
      <polygon class="cls-1" points="252.25 99.28 262.62 105.26 252.25 111.25 252.25 99.28"/>
    </g>
  </g>
  <circle cx="585.57" cy="185.9" r="12.62"/>
  <g>
    <path class="cls-4" d="M592.71,188.25l-.13-.05-1.4.58,1.01.42c.21.09.33.26.33.46s-.12.37-.33.46l-6.64,2.77-6.64-2.77c-.21-.09-.33-.25-.33-.46s.12-.37.33-.46l1.01-.42-1.3-.54-.12-.04-.1.05c-.56.28-.9.8-.9,1.41,0,.64.38,1.2.99,1.45l6.96,2.9.1.04,7.05-2.94c.61-.25.99-.81.99-1.45,0-.61-.34-1.13-.9-1.41Z"/>
    <path class="cls-4" d="M592.93,184.62l-.13-.09-1.39.58.79.33c.21.09.33.25.33.46s-.12.37-.33.46l-6.64,2.77-6.64-2.77c-.21-.09-.33-.26-.33-.46s.12-.37.33-.46l.79-.33-1.26-.53-.15-.04-.11.08c-.43.3-.68.77-.68,1.28,0,.64.38,1.2.99,1.46l6.96,2.9.1.04,7.05-2.94c.61-.25.99-.81.99-1.46,0-.51-.25-.98-.68-1.28Z"/>
    <path class="cls-4" d="M578.52,183.6l6.96,2.9.1.04,7.05-2.94c.61-.25.99-.81.99-1.45s-.38-1.2-.99-1.45l-6.96-2.9-.1-.04-7.05,2.94c-.61.25-.99.81-.99,1.45s.38,1.2.99,1.45ZM578.6,182.15c0-.21.12-.37.33-.46l6.64-2.77,6.64,2.77c.21.09.33.25.33.46s-.12.37-.33.46l-6.64,2.77-6.64-2.77c-.21-.09-.33-.26-.33-.46Z"/>
  </g>
  <g>
    <path class="cls-4" d="M189.98,203.26h3.48l1.42,4.72,1.39,4.7,1.39-4.7,1.4-4.72h3.48v12.6h-2.23l.02-6.21.05-4.07-1.19,4.07-1.84,6.21h-2.25l-1.84-6.21-1.19-4.07.05,4.07.02,6.21h-2.16v-12.6Z"/>
    <path class="cls-4" d="M203.84,210.99c0-3.24,1.94-5.15,4.81-5.15s4.83,1.91,4.83,5.15-1.93,5.11-4.83,5.11-4.81-1.91-4.81-5.11ZM211.17,210.97c0-2.25-.99-3.44-2.52-3.44s-2.5,1.19-2.5,3.44.99,3.44,2.5,3.44,2.52-1.17,2.52-3.44Z"/>
    <path class="cls-4" d="M214.63,210.99c0-3.11,1.71-5.09,4.23-5.09,1.33,0,2.43.63,3.13,1.76v-4.39h2.3v12.6h-2.3v-1.55c-.7,1.13-1.8,1.75-3.13,1.75-2.54,0-4.23-1.93-4.23-5.08ZM221.99,210.99c0-2.25-1.01-3.44-2.56-3.44s-2.5,1.19-2.5,3.42.97,3.44,2.5,3.44,2.56-1.19,2.56-3.42Z"/>
    <path class="cls-4" d="M225.57,210.99c0-3.17,1.94-5.15,4.74-5.15,2.65,0,4.63,1.87,4.63,5.19v.18h-7.09c.07,2.11,1.01,3.24,2.47,3.24,1.19,0,2.02-.76,2.34-2.23h2.18c-.43,2.45-2.09,3.89-4.54,3.89-2.81,0-4.72-1.93-4.72-5.11ZM227.93,209.84h4.7c-.31-1.53-1.15-2.34-2.34-2.34s-2.07.83-2.36,2.34Z"/>
    <path class="cls-4" d="M236.21,203.26h2.3v12.6h-2.3v-12.6Z"/>
    <path class="cls-4" d="M167.65,224.86h9.2v1.91h-6.81v3.28h5.06v1.87h-5.06v3.67h6.81v1.87h-9.2v-12.6Z"/>
    <path class="cls-4" d="M178.16,227.69h2.3v1.17c.65-.85,1.64-1.37,2.83-1.37,1.28,0,2.27.56,2.79,1.51.7-.92,1.8-1.51,3.13-1.51,2.02,0,3.33,1.31,3.33,3.31v6.66h-2.29v-6.37c0-1.24-.76-1.89-1.87-1.89-.79,0-1.46.36-1.93.9.04.22.05.45.05.7v6.66h-2.3v-6.37c0-1.24-.72-1.89-1.78-1.89-.83,0-1.53.4-1.96.99v7.27h-2.3v-9.78Z"/>
    <path class="cls-4" d="M194.02,224.86h2.3l-.02,4.38c.7-1.13,1.8-1.75,3.15-1.75,2.54,0,4.21,1.93,4.21,5.08s-1.71,5.1-4.21,5.1c-1.35,0-2.45-.61-3.15-1.75v1.55h-2.29v-12.6ZM201.38,232.59c0-2.25-.97-3.44-2.52-3.44s-2.54,1.21-2.54,3.44.99,3.42,2.54,3.42,2.52-1.19,2.52-3.42Z"/>
    <path class="cls-4" d="M204.83,232.59c0-3.17,1.94-5.15,4.74-5.15,2.65,0,4.63,1.87,4.63,5.19v.18h-7.09c.07,2.11,1.01,3.24,2.47,3.24,1.19,0,2.02-.76,2.34-2.23h2.18c-.43,2.45-2.09,3.89-4.54,3.89-2.81,0-4.72-1.93-4.72-5.11ZM207.19,231.44h4.7c-.31-1.53-1.15-2.34-2.34-2.34s-2.07.83-2.36,2.34Z"/>
    <path class="cls-4" d="M215.35,232.59c0-3.11,1.71-5.09,4.23-5.09,1.33,0,2.43.63,3.13,1.76v-4.39h2.3v12.6h-2.3v-1.55c-.7,1.13-1.8,1.75-3.13,1.75-2.54,0-4.23-1.93-4.23-5.08ZM222.71,232.59c0-2.25-1.01-3.44-2.56-3.44s-2.5,1.19-2.5,3.42.97,3.44,2.5,3.44,2.56-1.19,2.56-3.42Z"/>
    <path class="cls-4" d="M226.29,232.59c0-3.11,1.71-5.09,4.23-5.09,1.33,0,2.43.63,3.13,1.76v-4.39h2.3v12.6h-2.3v-1.55c-.7,1.13-1.8,1.75-3.13,1.75-2.54,0-4.23-1.93-4.23-5.08ZM233.65,232.59c0-2.25-1.01-3.44-2.56-3.44s-2.5,1.19-2.5,3.42.97,3.44,2.5,3.44,2.56-1.19,2.56-3.42Z"/>
    <path class="cls-4" d="M237.45,224.92h2.3v1.96h-2.3v-1.96ZM237.45,227.69h2.3v9.78h-2.3v-9.78Z"/>
    <path class="cls-4" d="M241.25,227.69h2.3v1.13c.68-.83,1.69-1.33,2.92-1.33,2.09,0,3.46,1.31,3.46,3.31v6.66h-2.29v-6.3c0-1.28-.79-1.96-1.98-1.96-.88,0-1.66.41-2.11,1.04v7.22h-2.3v-9.78Z"/>
    <path class="cls-4" d="M251.18,232.52c0-3.08,1.71-5.02,4.23-5.02,1.33,0,2.43.61,3.13,1.73v-1.53h2.3v9.31c0,2.63-1.84,3.96-4.75,3.96-2.52,0-4.23-1.03-4.65-2.92h2.27c.29.97,1.06,1.44,2.4,1.44,1.49,0,2.43-.72,2.43-2.16v-1.51c-.7,1.12-1.8,1.73-3.13,1.73-2.54,0-4.23-1.91-4.23-5.02ZM258.55,232.52c0-2.21-1.01-3.37-2.56-3.37s-2.5,1.15-2.5,3.37.97,3.37,2.5,3.37,2.56-1.17,2.56-3.37Z"/>
  </g>
</svg>