<?xml version="1.0" encoding="UTF-8"?>
<svg id="Layer_1" data-name="Layer 1" xmlns="http://www.w3.org/2000/svg" viewBox="0 0 1424.85 665.43">
  <defs>
    <style>
      .cls-1 {
        fill: #1e293a;
      }

      .cls-2 {
        fill: #0b1117;
      }

      .cls-3 {
        fill: #ac92e8;
      }

      .cls-4 {
        fill: #fda971;
      }

      .cls-5 {
        fill: #c6c6c6;
      }

      .cls-6 {
        fill: #3c82f6;
      }

      .cls-7 {
        fill: #6fb;
      }

      .cls-8 {
        fill: #fff;
      }

      .cls-9 {
        fill: #666;
      }

      .cls-10 {
        fill: #999;
      }
    </style>
  </defs>
  <g>
    <path class="cls-1" d="M1409.22,665.43H15.63C7.01,665.43,0,658.42,0,649.81V15.63C0,7.01,7.01,0,15.63,0h1393.6c8.62,0,15.62,7.01,15.62,15.62v634.18c0,8.62-7.01,15.62-15.62,15.62ZM15.63,1.25C7.7,1.25,1.25,7.7,1.25,15.63v634.18c0,7.93,6.45,14.38,14.37,14.38h1393.6c7.93,0,14.38-6.45,14.38-14.38V15.63c0-7.93-6.45-14.38-14.38-14.38H15.63Z"/>
    <g>
      <path d="M98.11,84.8h4.37c.26,1.99,1.39,2.9,3.5,2.9s2.93-.72,2.93-1.61c0-1.32-1.68-1.8-3.7-2.3-3.1-.74-6.98-1.54-6.98-5.33,0-3,2.64-5.04,6.96-5.04,4.54,0,7.44,2.09,7.9,5.88h-4.2c-.31-1.75-1.58-2.74-3.55-2.74s-2.64.65-2.64,1.51c0,1.3,1.78,1.78,3.89,2.3,3.05.74,6.77,1.61,6.77,5.28,0,3.07-2.74,5.18-7.25,5.18s-7.54-2.14-7.99-6.05Z"/>
      <path d="M117.67,87.2v-7.08h-3.14v-2.88h3.14v-2.64h4.22v2.64h3.84v2.88h-3.84v6.31c0,.82.46,1.18,1.51,1.18h2.33v2.93h-4.49c-2.42,0-3.58-1.18-3.58-3.34Z"/>
      <path d="M126.99,87.1c0-2.71,2.81-3.48,5.66-4.3,2.11-.6,2.98-1.08,2.98-1.9,0-.72-.67-1.22-1.9-1.22-1.49,0-2.4.84-2.62,2.23h-3.89c.43-2.98,3.05-5.02,6.67-5.02,3.82,0,5.93,1.75,5.93,4.99v8.64h-4.2v-1.34c-.98,1.03-2.42,1.58-4.1,1.58-2.76,0-4.54-1.46-4.54-3.67ZM132.89,88.16c1.03,0,2.09-.38,2.74-1.06v-1.97l.02-1.1c-.5.36-1.2.58-2.04.86-1.51.5-2.5.94-2.5,1.97,0,.77.65,1.3,1.78,1.3Z"/>
      <path d="M141.77,77.24h4.27v1.46c.94-1.08,2.28-1.75,3.91-1.75,2.83,0,4.7,1.75,4.7,4.49v9.1h-4.27v-8.47c0-1.39-.86-2.11-2.11-2.11-.94,0-1.73.38-2.23,1.03v9.55h-4.27v-13.3Z"/>
      <path d="M156.29,83.89c0-4.22,2.3-6.94,5.81-6.94,1.73,0,3.14.74,4.1,2.13v-5.35h4.27v16.8h-4.27v-1.85c-.96,1.39-2.38,2.14-4.1,2.14-3.53,0-5.81-2.64-5.81-6.94ZM166.23,83.89c0-2.71-1.1-4.03-2.88-4.03s-2.83,1.32-2.83,4.01,1.08,4.06,2.83,4.06,2.88-1.32,2.88-4.03Z"/>
      <path d="M172.11,87.1c0-2.71,2.81-3.48,5.66-4.3,2.11-.6,2.98-1.08,2.98-1.9,0-.72-.67-1.22-1.9-1.22-1.49,0-2.4.84-2.62,2.23h-3.89c.43-2.98,3.05-5.02,6.67-5.02,3.82,0,5.93,1.75,5.93,4.99v8.64h-4.2v-1.34c-.98,1.03-2.42,1.58-4.1,1.58-2.76,0-4.54-1.46-4.54-3.67ZM178.01,88.16c1.03,0,2.09-.38,2.74-1.06v-1.97l.02-1.1c-.5.36-1.2.58-2.04.86-1.51.5-2.5.94-2.5,1.97,0,.77.65,1.3,1.78,1.3Z"/>
      <path d="M186.89,77.24h4.27v2.16c.89-1.56,2.3-2.42,4.2-2.42h.22v3.72c-.38-.1-.77-.12-1.18-.12-1.32,0-2.57.48-3.24,1.37v8.59h-4.27v-13.3Z"/>
      <path d="M196.44,83.89c0-4.22,2.3-6.94,5.81-6.94,1.73,0,3.14.74,4.1,2.13v-5.35h4.27v16.8h-4.27v-1.85c-.96,1.39-2.38,2.14-4.1,2.14-3.53,0-5.81-2.64-5.81-6.94ZM206.38,83.89c0-2.71-1.1-4.03-2.88-4.03s-2.83,1.32-2.83,4.01,1.08,4.06,2.83,4.06,2.88-1.32,2.88-4.03Z"/>
      <path d="M217.85,84.8h4.37c.26,1.99,1.39,2.9,3.5,2.9s2.93-.72,2.93-1.61c0-1.32-1.68-1.8-3.7-2.3-3.1-.74-6.98-1.54-6.98-5.33,0-3,2.64-5.04,6.96-5.04,4.54,0,7.44,2.09,7.9,5.88h-4.2c-.31-1.75-1.58-2.74-3.55-2.74s-2.64.65-2.64,1.51c0,1.3,1.78,1.78,3.89,2.3,3.05.74,6.77,1.61,6.77,5.28,0,3.07-2.74,5.18-7.25,5.18s-7.54-2.14-7.99-6.05Z"/>
      <path d="M234.53,87.1c0-2.71,2.81-3.48,5.66-4.3,2.11-.6,2.98-1.08,2.98-1.9,0-.72-.67-1.22-1.9-1.22-1.49,0-2.4.84-2.62,2.23h-3.89c.43-2.98,3.05-5.02,6.67-5.02,3.82,0,5.93,1.75,5.93,4.99v8.64h-4.2v-1.34c-.98,1.03-2.42,1.58-4.1,1.58-2.76,0-4.54-1.46-4.54-3.67ZM240.43,88.16c1.03,0,2.09-.38,2.74-1.06v-1.97l.02-1.1c-.5.36-1.2.58-2.04.86-1.51.5-2.5.94-2.5,1.97,0,.77.65,1.3,1.78,1.3Z"/>
      <path d="M248.98,87.1c0-2.71,2.81-3.48,5.66-4.3,2.11-.6,2.98-1.08,2.98-1.9,0-.72-.67-1.22-1.9-1.22-1.49,0-2.4.84-2.62,2.23h-3.89c.43-2.98,3.05-5.02,6.67-5.02,3.82,0,5.93,1.75,5.93,4.99v8.64h-4.2v-1.34c-.98,1.03-2.42,1.58-4.1,1.58-2.76,0-4.54-1.46-4.54-3.67ZM254.88,88.16c1.03,0,2.09-.38,2.74-1.06v-1.97l.02-1.1c-.5.36-1.2.58-2.04.86-1.51.5-2.5.94-2.5,1.97,0,.77.65,1.3,1.78,1.3Z"/>
      <path d="M263.47,84.8h4.37c.26,1.99,1.39,2.9,3.5,2.9s2.93-.72,2.93-1.61c0-1.32-1.68-1.8-3.7-2.3-3.1-.74-6.98-1.54-6.98-5.33,0-3,2.64-5.04,6.96-5.04,4.54,0,7.44,2.09,7.9,5.88h-4.2c-.31-1.75-1.58-2.74-3.55-2.74s-2.64.65-2.64,1.51c0,1.3,1.78,1.78,3.89,2.3,3.05.74,6.77,1.61,6.77,5.28,0,3.07-2.74,5.18-7.25,5.18s-7.54-2.14-7.99-6.05Z"/>
    </g>
    <g>
      <rect class="cls-8" x="128.05" y="118.94" width="90.77" height="160" transform="translate(372.37 25.51) rotate(90)"/>
      <path d="M254.43,245.32H92.43v-92.77h162v92.77ZM94.43,243.32h158v-88.77H94.43v88.77Z"/>
    </g>
    <g>
      <rect class="cls-8" x="1086.8" y="85.21" width="90.77" height="227.45" transform="translate(1331.12 -933.25) rotate(90)"/>
      <path d="M1246.91,245.32h-229.45v-92.77h229.45v92.77ZM1019.46,243.32h225.45v-88.77h-225.45v88.77Z"/>
    </g>
    <path class="cls-10" d="M638.07,664.81h-1v-1.83h1v1.83ZM638.07,655.27h-1v-7.7h1v7.7ZM638.07,639.87h-1v-7.7h1v7.7ZM638.07,624.46h-1v-7.7h1v7.7ZM638.07,609.06h-1v-7.7h1v7.7ZM638.07,593.66h-1v-7.7h1v7.7ZM638.07,578.25h-1v-7.7h1v7.7ZM638.07,562.85h-1v-7.7h1v7.7ZM638.07,547.45h-1v-7.7h1v7.7ZM638.07,532.04h-1v-7.7h1v7.7ZM638.07,516.64h-1v-7.7h1v7.7ZM638.07,501.24h-1v-7.7h1v7.7ZM638.07,485.83h-1v-7.7h1v7.7ZM638.07,470.43h-1v-7.7h1v7.7ZM638.07,455.03h-1v-7.7h1v7.7ZM638.07,439.62h-1v-7.7h1v7.7ZM638.07,424.22h-1v-7.7h1v7.7ZM638.07,408.82h-1v-7.7h1v7.7ZM638.07,393.41h-1v-7.7h1v7.7ZM638.07,378.01h-1v-7.7h1v7.7ZM638.07,362.6h-1v-7.7h1v7.7ZM638.07,347.2h-1v-7.7h1v7.7ZM638.07,331.8h-1v-7.7h1v7.7ZM638.07,316.39h-1v-7.7h1v7.7ZM638.07,300.99h-1v-7.7h1v7.7ZM638.07,285.59h-1v-7.7h1v7.7ZM638.07,270.18h-1v-7.7h1v7.7ZM638.07,254.78h-1v-7.7h1v7.7ZM638.07,239.38h-1v-7.7h1v7.7ZM638.07,223.97h-1v-7.7h1v7.7ZM638.07,208.57h-1v-7.7h1v7.7ZM638.07,193.17h-1v-7.7h1v7.7ZM638.07,177.76h-1v-7.7h1v7.7ZM638.07,162.36h-1v-7.7h1v7.7ZM638.07,146.96h-1v-7.7h1v7.7ZM638.07,131.55h-1v-7.7h1v7.7ZM638.07,116.15h-1v-7.7h1v7.7ZM638.07,100.75h-1v-7.7h1v7.7ZM638.07,85.34h-1v-7.7h1v7.7ZM638.07,69.94h-1v-7.7h1v7.7ZM638.07,54.54h-1v-7.7h1v7.7ZM638.07,39.13h-1v-7.7h1v7.7ZM638.07,23.73h-1v-7.7h1v7.7ZM638.07,8.33h-1V.63h1v7.7Z"/>
    <path class="cls-10" d="M361.82,664.81h-1v-1.83h1v1.83ZM361.82,655.27h-1v-7.7h1v7.7ZM361.82,639.87h-1v-7.7h1v7.7ZM361.82,624.46h-1v-7.7h1v7.7ZM361.82,609.06h-1v-7.7h1v7.7ZM361.82,593.66h-1v-7.7h1v7.7ZM361.82,578.25h-1v-7.7h1v7.7ZM361.82,562.85h-1v-7.7h1v7.7ZM361.82,547.45h-1v-7.7h1v7.7ZM361.82,532.04h-1v-7.7h1v7.7ZM361.82,516.64h-1v-7.7h1v7.7ZM361.82,501.24h-1v-7.7h1v7.7ZM361.82,485.83h-1v-7.7h1v7.7ZM361.82,470.43h-1v-7.7h1v7.7ZM361.82,455.03h-1v-7.7h1v7.7ZM361.82,439.62h-1v-7.7h1v7.7ZM361.82,424.22h-1v-7.7h1v7.7ZM361.82,408.82h-1v-7.7h1v7.7ZM361.82,393.41h-1v-7.7h1v7.7ZM361.82,378.01h-1v-7.7h1v7.7ZM361.82,362.6h-1v-7.7h1v7.7ZM361.82,347.2h-1v-7.7h1v7.7ZM361.82,331.8h-1v-7.7h1v7.7ZM361.82,316.39h-1v-7.7h1v7.7ZM361.82,300.99h-1v-7.7h1v7.7ZM361.82,285.59h-1v-7.7h1v7.7ZM361.82,270.18h-1v-7.7h1v7.7ZM361.82,254.78h-1v-7.7h1v7.7ZM361.82,239.38h-1v-7.7h1v7.7ZM361.82,223.97h-1v-7.7h1v7.7ZM361.82,208.57h-1v-7.7h1v7.7ZM361.82,193.17h-1v-7.7h1v7.7ZM361.82,177.76h-1v-7.7h1v7.7ZM361.82,162.36h-1v-7.7h1v7.7ZM361.82,146.96h-1v-7.7h1v7.7ZM361.82,131.55h-1v-7.7h1v7.7ZM361.82,116.15h-1v-7.7h1v7.7ZM361.82,100.75h-1v-7.7h1v7.7ZM361.82,85.34h-1v-7.7h1v7.7ZM361.82,69.94h-1v-7.7h1v7.7ZM361.82,54.54h-1v-7.7h1v7.7ZM361.82,39.13h-1v-7.7h1v7.7ZM361.82,23.73h-1v-7.7h1v7.7ZM361.82,8.33h-1V.63h1v7.7Z"/>
    <g>
      <path d="M432.06,75.2h2.63v13.86h-2.63v-13.86Z"/>
      <path d="M436.38,78.31h2.54v1.25c.75-.91,1.86-1.47,3.21-1.47,2.3,0,3.8,1.45,3.8,3.64v7.33h-2.52v-6.93c0-1.41-.87-2.16-2.18-2.16-.97,0-1.82.46-2.32,1.15v7.94h-2.54v-10.75Z"/>
      <path d="M449.37,86.61v-6.44h-2.54v-1.86h2.54v-2.14h2.5v2.14h3.15v1.86h-3.15v5.98c0,.71.38,1.03,1.25,1.03h1.9v1.88h-3.07c-1.74,0-2.57-.87-2.57-2.46Z"/>
      <path d="M455.71,83.7c0-3.49,2.14-5.67,5.21-5.67,2.91,0,5.09,2.06,5.09,5.71v.2h-7.8c.08,2.32,1.11,3.57,2.71,3.57,1.31,0,2.22-.83,2.57-2.46h2.4c-.48,2.69-2.3,4.28-4.99,4.28-3.09,0-5.19-2.12-5.19-5.62ZM458.3,82.43h5.17c-.34-1.68-1.27-2.58-2.57-2.58s-2.28.91-2.59,2.58Z"/>
      <path d="M467.41,78.31h2.54v1.7c.69-1.21,1.8-1.88,3.23-1.88h.26v2.32c-.26-.04-.51-.06-.77-.06-1.13,0-2.18.46-2.71,1.33v7.35h-2.54v-10.75Z"/>
      <path d="M474.78,78.31h2.54v1.25c.75-.91,1.86-1.47,3.21-1.47,2.3,0,3.8,1.45,3.8,3.64v7.33h-2.52v-6.93c0-1.41-.87-2.16-2.18-2.16-.97,0-1.82.46-2.32,1.15v7.94h-2.54v-10.75Z"/>
      <path d="M485.71,83.7c0-3.49,2.14-5.67,5.21-5.67,2.91,0,5.09,2.06,5.09,5.71v.2h-7.8c.08,2.32,1.11,3.57,2.71,3.57,1.31,0,2.22-.83,2.57-2.46h2.4c-.48,2.69-2.3,4.28-4.99,4.28-3.09,0-5.19-2.12-5.19-5.62ZM488.3,82.43h5.17c-.34-1.68-1.27-2.58-2.57-2.58s-2.28.91-2.59,2.58Z"/>
      <path d="M499.04,86.61v-6.44h-2.54v-1.86h2.54v-2.14h2.5v2.14h3.15v1.86h-3.15v5.98c0,.71.38,1.03,1.25,1.03h1.9v1.88h-3.07c-1.74,0-2.57-.87-2.57-2.46Z"/>
      <path d="M512.66,80.18h-2.42v-1.86h2.42v-.97c0-1.7.81-2.55,2.69-2.55h2.69v1.72h-1.82c-.77,0-1.07.3-1.07.97v.83h2.89v1.86h-2.89v8.89h-2.5v-8.89Z"/>
      <path d="M518.6,86.34c0-2.12,2.22-2.83,4.5-3.53,1.68-.51,2.5-.91,2.5-1.7s-.67-1.25-1.9-1.25c-1.39,0-2.3.79-2.54,2.12h-2.34c.32-2.32,2.22-3.9,4.93-3.9s4.34,1.29,4.34,3.68v7.31h-2.5v-1.21c-.81.89-2.02,1.39-3.39,1.39-2.22,0-3.6-1.15-3.6-2.91ZM522.86,87.54c1.03,0,2.1-.42,2.73-1.13v-2.97c-.46.38-1.17.61-1.98.89-1.45.47-2.54.85-2.54,1.92,0,.83.69,1.29,1.78,1.29Z"/>
      <path d="M529.48,83.7c0-3.57,2.12-5.67,5.23-5.67,2.73,0,4.69,1.66,5.05,4.58h-2.42c-.28-1.78-1.25-2.71-2.63-2.71-1.62,0-2.69,1.31-2.69,3.78s1.07,3.78,2.69,3.78c1.43,0,2.42-.99,2.65-2.87h2.4c-.3,3.01-2.24,4.73-5.05,4.73-3.13,0-5.23-2.08-5.23-5.62Z"/>
      <path d="M541.12,75.26h2.54v2.16h-2.54v-2.16ZM541.12,78.31h2.54v10.75h-2.54v-10.75Z"/>
      <path d="M545.3,78.31h2.54v1.25c.75-.91,1.86-1.47,3.21-1.47,2.3,0,3.8,1.45,3.8,3.64v7.33h-2.52v-6.93c0-1.41-.87-2.16-2.18-2.16-.97,0-1.82.46-2.32,1.15v7.94h-2.54v-10.75Z"/>
      <path d="M556.23,83.62c0-3.39,1.88-5.53,4.65-5.53,1.47,0,2.67.67,3.45,1.9v-1.68h2.54v10.24c0,2.89-2.02,4.36-5.23,4.36-2.77,0-4.65-1.13-5.11-3.21h2.5c.32,1.07,1.17,1.58,2.63,1.58,1.64,0,2.67-.79,2.67-2.38v-1.66c-.77,1.23-1.98,1.9-3.45,1.9-2.79,0-4.65-2.1-4.65-5.53ZM564.33,83.62c0-2.44-1.11-3.7-2.81-3.7s-2.75,1.27-2.75,3.7,1.07,3.7,2.75,3.7,2.81-1.29,2.81-3.7Z"/>
    </g>
    <g>
      <path d="M1088.75,191.77h5.01c4.08,0,6.81,2.52,6.81,6.95s-2.77,6.91-6.87,6.91h-4.95v-13.86ZM1091.39,193.89v9.67h2.26c2.65,0,4.24-1.61,4.24-4.81s-1.58-4.85-4.24-4.85h-2.26Z"/>
      <path d="M1101.63,202.9c0-2.12,2.22-2.83,4.5-3.53,1.68-.51,2.5-.91,2.5-1.7s-.67-1.25-1.9-1.25c-1.39,0-2.3.79-2.54,2.12h-2.34c.32-2.32,2.22-3.9,4.93-3.9s4.34,1.29,4.34,3.68v7.31h-2.5v-1.21c-.81.89-2.02,1.39-3.39,1.39-2.22,0-3.6-1.15-3.6-2.91ZM1105.88,204.11c1.03,0,2.1-.42,2.73-1.13v-2.97c-.46.38-1.17.61-1.98.89-1.45.47-2.54.85-2.54,1.92,0,.83.69,1.29,1.78,1.29Z"/>
      <path d="M1114.56,203.18v-6.44h-2.54v-1.86h2.54v-2.14h2.5v2.14h3.15v1.86h-3.15v5.98c0,.71.38,1.03,1.25,1.03h1.9v1.88h-3.07c-1.74,0-2.57-.87-2.57-2.46Z"/>
      <path d="M1121.25,202.9c0-2.12,2.22-2.83,4.5-3.53,1.68-.51,2.5-.91,2.5-1.7s-.67-1.25-1.9-1.25c-1.39,0-2.3.79-2.54,2.12h-2.34c.32-2.32,2.22-3.9,4.93-3.9s4.34,1.29,4.34,3.68v7.31h-2.5v-1.21c-.81.89-2.02,1.39-3.39,1.39-2.22,0-3.6-1.15-3.6-2.91ZM1125.51,204.11c1.03,0,2.1-.42,2.73-1.13v-2.97c-.46.38-1.17.61-1.98.89-1.45.47-2.54.85-2.54,1.92,0,.83.69,1.29,1.78,1.29Z"/>
      <path d="M1132.36,191.77h2.54l-.02,4.81c.77-1.25,1.98-1.92,3.47-1.92,2.79,0,4.63,2.12,4.63,5.58s-1.88,5.61-4.63,5.61c-1.49,0-2.69-.67-3.47-1.92v1.7h-2.52v-13.86ZM1140.46,200.27c0-2.48-1.07-3.78-2.77-3.78s-2.79,1.33-2.79,3.78,1.09,3.76,2.79,3.76,2.77-1.31,2.77-3.76Z"/>
      <path d="M1144.03,202.9c0-2.12,2.22-2.83,4.5-3.53,1.68-.51,2.5-.91,2.5-1.7s-.67-1.25-1.9-1.25c-1.39,0-2.3.79-2.54,2.12h-2.34c.32-2.32,2.22-3.9,4.93-3.9s4.34,1.29,4.34,3.68v7.31h-2.5v-1.21c-.81.89-2.02,1.39-3.39,1.39-2.22,0-3.6-1.15-3.6-2.91ZM1148.29,204.11c1.03,0,2.1-.42,2.73-1.13v-2.97c-.46.38-1.17.61-1.98.89-1.45.47-2.54.85-2.54,1.92,0,.83.69,1.29,1.78,1.29Z"/>
      <path d="M1154.84,201.81h2.36c.28,1.54,1.23,2.32,2.67,2.32s2.12-.55,2.12-1.33c0-.97-1.13-1.33-2.48-1.64-2.02-.5-4.52-.95-4.52-3.35,0-1.82,1.62-3.19,4.32-3.19s4.61,1.41,5.01,3.82h-2.32c-.34-1.43-1.27-2.06-2.67-2.06-1.25,0-1.92.53-1.92,1.19,0,.97,1.27,1.27,2.73,1.62,1.98.47,4.28,1.01,4.28,3.35,0,1.88-1.7,3.35-4.5,3.35s-4.71-1.35-5.09-4.08Z"/>
      <path d="M1165.6,200.27c0-3.49,2.14-5.67,5.21-5.67,2.91,0,5.09,2.06,5.09,5.71v.2h-7.8c.08,2.32,1.11,3.57,2.71,3.57,1.31,0,2.22-.83,2.57-2.46h2.4c-.48,2.69-2.3,4.28-4.99,4.28-3.09,0-5.19-2.12-5.19-5.62ZM1168.19,199h5.17c-.34-1.68-1.27-2.58-2.57-2.58s-2.28.91-2.59,2.58Z"/>
    </g>
    <g>
      <g>
        <rect class="cls-8" x="454.06" y="118.94" width="90.77" height="160" transform="translate(698.38 -300.5) rotate(90)"/>
        <path d="M580.44,245.32h-162v-92.77h162v92.77ZM420.44,243.32h158v-88.77h-158v88.77Z"/>
      </g>
      <g>
        <path d="M489.88,191.77h3.15l5.13,13.86h-2.89l-1.11-3.19h-5.58l-1.11,3.19h-2.71l5.13-13.86ZM489.24,200.46h4.24l-.18-.52-1.94-5.72-1.94,5.72-.18.52Z"/>
        <path d="M499.16,191.77h6.5c2.97,0,4.79,1.6,4.79,4.24s-1.8,4.22-4.75,4.22h-3.9v5.41h-2.63v-13.86ZM501.8,193.85v4.34h3.68c1.49,0,2.36-.73,2.36-2.16s-.87-2.18-2.36-2.18h-3.68Z"/>
        <path d="M511.84,191.77h2.63v13.86h-2.63v-13.86Z"/>
      </g>
    </g>
    <g>
      <path d="M165.5,200.54v-8.77h2.65v8.89c0,1.96,1.31,3.05,3.11,3.05s3.17-1.09,3.17-3.03v-8.91h2.55v8.79c0,3.37-2.3,5.31-5.76,5.31s-5.72-1.96-5.72-5.33Z"/>
      <path d="M178.65,191.77h2.63v13.86h-2.63v-13.86Z"/>
    </g>
    <g>
      <path d="M958.86,75.2h6.5c2.97,0,4.79,1.6,4.79,4.24s-1.8,4.22-4.75,4.22h-3.9v5.41h-2.63v-13.86ZM961.49,77.28v4.34h3.68c1.49,0,2.36-.73,2.36-2.16s-.87-2.18-2.36-2.18h-3.68Z"/>
      <path d="M971.5,78.31h2.54v1.7c.69-1.21,1.8-1.88,3.23-1.88h.26v2.32c-.26-.04-.51-.06-.77-.06-1.13,0-2.18.46-2.71,1.33v7.35h-2.54v-10.75Z"/>
      <path d="M978.86,75.26h2.54v2.16h-2.54v-2.16ZM978.86,78.31h2.54v10.75h-2.54v-10.75Z"/>
      <path d="M982.37,78.31h2.67l1.43,4.14,1.41,4.12,1.43-4.12,1.45-4.14h2.56l-4.04,10.75h-2.85l-4.04-10.75Z"/>
      <path d="M993.2,86.34c0-2.12,2.22-2.83,4.5-3.53,1.68-.51,2.5-.91,2.5-1.7s-.67-1.25-1.9-1.25c-1.39,0-2.3.79-2.54,2.12h-2.34c.32-2.32,2.22-3.9,4.93-3.9s4.34,1.29,4.34,3.68v7.31h-2.5v-1.21c-.81.89-2.02,1.39-3.39,1.39-2.22,0-3.6-1.15-3.6-2.91ZM997.46,87.54c1.03,0,2.1-.42,2.73-1.13v-2.97c-.46.38-1.17.61-1.98.89-1.45.47-2.54.85-2.54,1.92,0,.83.69,1.29,1.78,1.29Z"/>
      <path d="M1006.13,86.61v-6.44h-2.54v-1.86h2.54v-2.14h2.5v2.14h3.15v1.86h-3.15v5.98c0,.71.38,1.03,1.25,1.03h1.9v1.88h-3.07c-1.74,0-2.57-.87-2.57-2.46Z"/>
      <path d="M1012.47,83.7c0-3.49,2.14-5.67,5.21-5.67,2.91,0,5.09,2.06,5.09,5.71v.2h-7.8c.08,2.32,1.11,3.57,2.71,3.57,1.31,0,2.22-.83,2.58-2.46h2.4c-.48,2.69-2.3,4.28-4.99,4.28-3.09,0-5.19-2.12-5.19-5.62ZM1015.07,82.43h5.17c-.34-1.68-1.27-2.58-2.57-2.58s-2.28.91-2.59,2.58Z"/>
      <path d="M1028.73,78.31h2.54v1.25c.75-.91,1.86-1.47,3.21-1.47,2.3,0,3.8,1.45,3.8,3.64v7.33h-2.52v-6.93c0-1.41-.87-2.16-2.18-2.16-.97,0-1.82.46-2.32,1.15v7.94h-2.54v-10.75Z"/>
      <path d="M1039.66,83.7c0-3.49,2.14-5.67,5.21-5.67,2.91,0,5.09,2.06,5.09,5.71v.2h-7.8c.08,2.32,1.11,3.57,2.71,3.57,1.31,0,2.22-.83,2.57-2.46h2.4c-.48,2.69-2.3,4.28-4.99,4.28-3.09,0-5.19-2.12-5.19-5.62ZM1042.26,82.43h5.17c-.34-1.68-1.27-2.58-2.57-2.58s-2.28.91-2.59,2.58Z"/>
      <path d="M1052.99,86.61v-6.44h-2.54v-1.86h2.54v-2.14h2.5v2.14h3.15v1.86h-3.15v5.98c0,.71.38,1.03,1.25,1.03h1.9v1.88h-3.07c-1.74,0-2.57-.87-2.57-2.46Z"/>
      <path d="M1059.55,78.31h2.38l.81,4.16.81,4.14.99-4.14.97-4.16h2.4l.99,4.16,1.01,4.14.81-4.14.79-4.16h2.3l-2.44,10.75h-2.85l-.93-3.92-.91-3.94-.91,3.94-.93,3.92h-2.85l-2.44-10.75Z"/>
      <path d="M1074.4,83.7c0-3.57,2.14-5.67,5.29-5.67s5.31,2.1,5.31,5.67-2.12,5.62-5.31,5.62-5.29-2.1-5.29-5.62ZM1082.46,83.68c0-2.47-1.09-3.78-2.77-3.78s-2.75,1.31-2.75,3.78,1.09,3.78,2.75,3.78,2.77-1.29,2.77-3.78Z"/>
      <path d="M1086.4,78.31h2.54v1.7c.69-1.21,1.8-1.88,3.23-1.88h.26v2.32c-.26-.04-.51-.06-.77-.06-1.13,0-2.18.46-2.71,1.33v7.35h-2.54v-10.75Z"/>
      <path d="M1093.77,75.2h2.5l-.04,8.22,4.46-5.11h2.83l-3.7,4.2,3.92,6.56h-2.89l-2.69-4.65-1.92,2.18.04,2.48h-2.5v-13.86Z"/>
    </g>
    <g>
      <path d="M1271.45,180.12h10.12v2.1h-7.49v3.6h5.57v2.06h-5.57v4.04h7.49v2.06h-10.12v-13.86Z"/>
      <path d="M1283.02,183.23h2.54v1.25c.75-.91,1.86-1.47,3.21-1.47,2.3,0,3.8,1.45,3.8,3.64v7.33h-2.52v-6.93c0-1.41-.87-2.16-2.18-2.16-.97,0-1.82.46-2.32,1.15v7.94h-2.54v-10.75Z"/>
      <path d="M1293.95,188.62c0-3.56,2.12-5.66,5.23-5.66,2.73,0,4.69,1.66,5.05,4.58h-2.42c-.28-1.78-1.25-2.71-2.63-2.71-1.62,0-2.69,1.31-2.69,3.78s1.07,3.78,2.69,3.78c1.43,0,2.42-.99,2.65-2.87h2.4c-.3,3.01-2.24,4.73-5.05,4.73-3.13,0-5.23-2.08-5.23-5.62Z"/>
      <path d="M1305.59,183.23h2.54v1.7c.69-1.21,1.8-1.88,3.23-1.88h.26v2.32c-.26-.04-.51-.06-.77-.06-1.13,0-2.18.46-2.71,1.33v7.35h-2.54v-10.75Z"/>
      <path d="M1313.91,195.71h1.41c.73,0,1.13-.28,1.45-.95l.12-.34-4.4-11.19h2.71l2.93,7.7,2.75-7.7h2.57l-4.63,12.28c-.59,1.47-1.58,2.1-3.05,2.1h-1.86v-1.9Z"/>
      <path d="M1324.43,183.23h2.52v1.7c.77-1.25,1.98-1.92,3.47-1.92,2.79,0,4.63,2.12,4.63,5.59s-1.88,5.61-4.63,5.61c-1.49,0-2.69-.67-3.47-1.92l.02,5.33h-2.54v-14.38ZM1332.53,188.62c0-2.48-1.07-3.78-2.77-3.78s-2.79,1.33-2.79,3.78,1.09,3.76,2.79,3.76,2.77-1.31,2.77-3.76Z"/>
      <path d="M1338.09,191.53v-6.44h-2.54v-1.86h2.54v-2.14h2.5v2.14h3.15v1.86h-3.15v5.98c0,.71.38,1.03,1.25,1.03h1.9v1.88h-3.07c-1.74,0-2.57-.87-2.57-2.46Z"/>
      <path d="M1345.07,180.18h2.54v2.16h-2.54v-2.16ZM1345.07,183.23h2.54v10.75h-2.54v-10.75Z"/>
      <path d="M1349.01,188.62c0-3.56,2.14-5.66,5.29-5.66s5.31,2.1,5.31,5.66-2.12,5.62-5.31,5.62-5.29-2.1-5.29-5.62ZM1357.07,188.6c0-2.48-1.09-3.78-2.77-3.78s-2.75,1.31-2.75,3.78,1.09,3.78,2.75,3.78,2.77-1.29,2.77-3.78Z"/>
      <path d="M1361.01,183.23h2.54v1.25c.75-.91,1.86-1.47,3.21-1.47,2.3,0,3.8,1.45,3.8,3.64v7.33h-2.52v-6.93c0-1.41-.87-2.16-2.18-2.16-.97,0-1.82.46-2.32,1.15v7.94h-2.54v-10.75Z"/>
      <path d="M1271.14,215.02c0-2.12,2.22-2.83,4.5-3.53,1.68-.52,2.5-.91,2.5-1.7s-.67-1.25-1.9-1.25c-1.39,0-2.3.79-2.54,2.12h-2.34c.32-2.32,2.22-3.9,4.93-3.9s4.34,1.29,4.34,3.68v7.31h-2.5v-1.21c-.81.89-2.02,1.39-3.39,1.39-2.22,0-3.6-1.15-3.6-2.91ZM1275.39,216.23c1.03,0,2.1-.42,2.73-1.13v-2.97c-.46.38-1.17.62-1.98.89-1.45.47-2.54.85-2.54,1.92,0,.83.69,1.29,1.78,1.29Z"/>
      <path d="M1284.07,215.3v-6.44h-2.54v-1.86h2.54v-2.14h2.5v2.14h3.15v1.86h-3.15v5.98c0,.71.38,1.03,1.25,1.03h1.9v1.88h-3.07c-1.74,0-2.57-.87-2.57-2.46Z"/>
      <path d="M1295.63,203.89h6.75c2.81,0,4.54,1.43,4.54,3.8,0,1.54-.73,2.73-2.06,3.33,1.23.4,1.62,1.37,1.66,2.75.04,1.62.12,2.93.57,3.98h-2.71c-.4-.75-.44-1.8-.48-4.02-.02-1.21-.54-1.7-1.7-1.7h-3.94v5.72h-2.63v-13.86ZM1298.27,205.97v4.02h3.92c1.31,0,2.14-.71,2.14-2.02s-.83-2-2.14-2h-3.92Z"/>
      <path d="M1307.95,212.39c0-3.49,2.14-5.66,5.21-5.66,2.91,0,5.09,2.06,5.09,5.7v.2h-7.8c.08,2.32,1.11,3.56,2.71,3.56,1.31,0,2.22-.83,2.57-2.46h2.4c-.48,2.69-2.3,4.28-4.99,4.28-3.09,0-5.19-2.12-5.19-5.62ZM1310.55,211.12h5.17c-.34-1.68-1.27-2.57-2.57-2.57s-2.28.91-2.59,2.57Z"/>
      <path d="M1319.36,213.93h2.36c.28,1.54,1.23,2.32,2.67,2.32s2.12-.55,2.12-1.33c0-.97-1.13-1.33-2.48-1.64-2.02-.5-4.52-.95-4.52-3.35,0-1.82,1.62-3.19,4.32-3.19s4.61,1.41,5.01,3.82h-2.32c-.34-1.43-1.27-2.06-2.67-2.06-1.25,0-1.92.54-1.92,1.19,0,.97,1.27,1.27,2.73,1.62,1.98.48,4.28,1.01,4.28,3.35,0,1.88-1.7,3.35-4.5,3.35s-4.71-1.35-5.09-4.08Z"/>
      <path d="M1332.07,215.3v-6.44h-2.54v-1.86h2.54v-2.14h2.5v2.14h3.15v1.86h-3.15v5.98c0,.71.38,1.03,1.25,1.03h1.9v1.88h-3.07c-1.74,0-2.57-.87-2.57-2.46Z"/>
    </g>
    <g>
      <rect x="254.43" y="197.94" width="157.44" height="2"/>
      <polygon points="410.12 192.96 420.49 198.94 410.12 204.92 410.12 192.96"/>
    </g>
    <g>
      <rect x="581.13" y="197.94" width="428.72" height="2"/>
      <polygon points="1008.1 192.96 1018.46 198.94 1008.1 204.92 1008.1 192.96"/>
    </g>
    <rect class="cls-9" x=".63" y="318.23" width="1423.6" height="1.25"/>
    <g>
      <path d="M98.43,389.77h4.42l-.05,7.49,6.24-7.49h4.99l-5.59,6.77,5.74,10.03h-5.06l-3.67-6.84-2.64,2.95.05,3.89h-4.42v-16.8Z"/>
      <path d="M115.44,389.77h4.27v16.8h-4.27v-16.8Z"/>
      <path d="M121.32,403.14c0-2.71,2.81-3.48,5.66-4.3,2.11-.6,2.98-1.08,2.98-1.9,0-.72-.67-1.22-1.9-1.22-1.49,0-2.4.84-2.62,2.23h-3.89c.43-2.98,3.05-5.02,6.67-5.02,3.82,0,5.93,1.75,5.93,4.99v8.64h-4.2v-1.34c-.98,1.03-2.42,1.58-4.1,1.58-2.76,0-4.54-1.46-4.54-3.67ZM127.23,404.2c1.03,0,2.09-.38,2.74-1.06v-1.97l.02-1.1c-.5.36-1.2.58-2.04.86-1.51.5-2.5.94-2.5,1.97,0,.77.65,1.3,1.78,1.3Z"/>
      <path d="M134.59,393.27h4.46l1.51,4.63,1.46,4.61,1.51-4.61,1.51-4.63h4.25l-4.94,13.3h-4.82l-4.94-13.3Z"/>
      <path d="M149.33,399.92c0-4.32,2.83-7.01,6.94-7.01,3.86,0,6.77,2.57,6.77,7.18v.29h-9.55c.12,2.47,1.15,3.67,2.81,3.67,1.32,0,2.23-.79,2.59-2.52h4.03c-.62,3.38-3.07,5.4-6.67,5.4-4.13,0-6.91-2.66-6.91-7.01ZM153.63,398.24h5.21c-.41-1.68-1.32-2.52-2.59-2.52-1.34,0-2.26.84-2.62,2.52Z"/>
      <path d="M170.26,389.77h6.94c5.21,0,8.66,3.05,8.66,8.42s-3.5,8.38-8.76,8.38h-6.84v-16.8ZM174.72,393.13v10.13h2.26c2.74,0,4.32-1.61,4.32-5.04s-1.58-5.09-4.32-5.09h-2.26Z"/>
      <path d="M187.56,389.77h9c3.65,0,5.71,1.78,5.71,4.54,0,1.61-.82,2.93-2.35,3.67,1.75.67,2.71,2.04,2.71,3.91,0,2.83-2.14,4.68-5.83,4.68h-9.24v-16.8ZM192,392.99v3.58h3.98c1.18,0,1.94-.6,1.94-1.78s-.77-1.8-1.94-1.8h-3.98ZM192,399.64v3.77h4.18c1.27,0,2.06-.62,2.06-1.87s-.79-1.9-2.06-1.9h-4.18Z"/>
    </g>
    <g>
      <rect class="cls-4" x="113.28" y="450.13" width="120.3" height="160" transform="translate(703.56 356.7) rotate(90)"/>
      <path class="cls-2" d="M254.43,591.28H92.43v-122.3h162v122.3ZM94.43,589.28h158v-118.3H94.43v118.3Z"/>
    </g>
    <g>
      <rect class="cls-3" x="1072.04" y="416.4" width="120.3" height="227.45" transform="translate(1662.31 -602.06) rotate(90)"/>
      <path class="cls-2" d="M1246.91,591.28h-229.45v-122.3h229.45v122.3ZM1019.46,589.28h225.45v-118.3h-225.45v118.3Z"/>
    </g>
    <g>
      <g>
        <rect class="cls-6" x="439.29" y="450.13" width="120.3" height="160" transform="translate(1029.57 30.69) rotate(90)"/>
        <path class="cls-2" d="M580.44,591.28h-162v-122.3h162v122.3ZM420.44,589.28h158v-118.3h-158v118.3Z"/>
      </g>
      <g>
        <path d="M489.35,522.96h3.15l5.13,13.86h-2.89l-1.11-3.19h-5.58l-1.11,3.19h-2.71l5.13-13.86ZM488.72,531.65h4.24l-.18-.52-1.94-5.72-1.94,5.72-.18.52Z"/>
        <path d="M498.64,522.96h6.5c2.97,0,4.79,1.6,4.79,4.24s-1.8,4.22-4.75,4.22h-3.9v5.41h-2.63v-13.86ZM501.28,525.04v4.34h3.68c1.49,0,2.36-.73,2.36-2.16s-.87-2.18-2.36-2.18h-3.68Z"/>
        <path d="M511.32,522.96h2.63v13.86h-2.63v-13.86Z"/>
      </g>
    </g>
    <g>
      <path d="M1106.08,522.96h5.01c4.08,0,6.81,2.52,6.81,6.95s-2.77,6.91-6.87,6.91h-4.95v-13.86ZM1108.72,525.08v9.67h2.26c2.65,0,4.24-1.61,4.24-4.81s-1.58-4.85-4.24-4.85h-2.26Z"/>
      <path d="M1118.95,534.09c0-2.12,2.22-2.83,4.5-3.53,1.68-.51,2.5-.91,2.5-1.7s-.67-1.25-1.9-1.25c-1.39,0-2.3.79-2.54,2.12h-2.34c.32-2.32,2.22-3.9,4.93-3.9s4.34,1.29,4.34,3.68v7.31h-2.5v-1.21c-.81.89-2.02,1.39-3.39,1.39-2.22,0-3.6-1.15-3.6-2.91ZM1123.21,535.3c1.03,0,2.1-.42,2.73-1.13v-2.97c-.46.38-1.17.61-1.98.89-1.45.47-2.54.85-2.54,1.92,0,.83.69,1.29,1.78,1.29Z"/>
      <path d="M1131.89,534.37v-6.44h-2.54v-1.86h2.54v-2.14h2.5v2.14h3.15v1.86h-3.15v5.98c0,.71.38,1.03,1.25,1.03h1.9v1.88h-3.07c-1.74,0-2.57-.87-2.57-2.46Z"/>
      <path d="M1138.58,534.09c0-2.12,2.22-2.83,4.5-3.53,1.68-.51,2.5-.91,2.5-1.7s-.67-1.25-1.9-1.25c-1.39,0-2.3.79-2.54,2.12h-2.34c.32-2.32,2.22-3.9,4.93-3.9s4.34,1.29,4.34,3.68v7.31h-2.5v-1.21c-.81.89-2.02,1.39-3.39,1.39-2.22,0-3.6-1.15-3.6-2.91ZM1142.84,535.3c1.03,0,2.1-.42,2.73-1.13v-2.97c-.46.38-1.17.61-1.98.89-1.45.47-2.54.85-2.54,1.92,0,.83.69,1.29,1.78,1.29Z"/>
      <path d="M1149.69,522.96h2.54l-.02,4.81c.77-1.25,1.98-1.92,3.47-1.92,2.79,0,4.63,2.12,4.63,5.58s-1.88,5.61-4.63,5.61c-1.49,0-2.69-.67-3.47-1.92v1.7h-2.52v-13.86ZM1157.79,531.46c0-2.48-1.07-3.78-2.77-3.78s-2.79,1.33-2.79,3.78,1.09,3.76,2.79,3.76,2.77-1.31,2.77-3.76Z"/>
      <path d="M1161.36,534.09c0-2.12,2.22-2.83,4.5-3.53,1.68-.51,2.5-.91,2.5-1.7s-.67-1.25-1.9-1.25c-1.39,0-2.3.79-2.54,2.12h-2.34c.32-2.32,2.22-3.9,4.93-3.9s4.34,1.29,4.34,3.68v7.31h-2.5v-1.21c-.81.89-2.02,1.39-3.39,1.39-2.22,0-3.6-1.15-3.6-2.91ZM1165.61,535.3c1.03,0,2.1-.42,2.73-1.13v-2.97c-.46.38-1.17.61-1.98.89-1.45.47-2.54.85-2.54,1.92,0,.83.69,1.29,1.78,1.29Z"/>
      <path d="M1172.17,533h2.36c.28,1.54,1.23,2.32,2.67,2.32s2.12-.55,2.12-1.33c0-.97-1.13-1.33-2.48-1.64-2.02-.5-4.52-.95-4.52-3.35,0-1.82,1.62-3.19,4.32-3.19s4.61,1.41,5.01,3.82h-2.32c-.34-1.43-1.27-2.06-2.67-2.06-1.25,0-1.92.53-1.92,1.19,0,.97,1.27,1.27,2.73,1.62,1.98.47,4.28,1.01,4.28,3.35,0,1.88-1.7,3.35-4.5,3.35s-4.71-1.35-5.09-4.08Z"/>
      <path d="M1182.92,531.46c0-3.49,2.14-5.67,5.21-5.67,2.91,0,5.09,2.06,5.09,5.71v.2h-7.8c.08,2.32,1.11,3.57,2.71,3.57,1.31,0,2.22-.83,2.57-2.46h2.4c-.48,2.69-2.3,4.28-4.99,4.28-3.09,0-5.19-2.12-5.19-5.62ZM1185.52,530.19h5.17c-.34-1.68-1.27-2.58-2.57-2.58s-2.28.91-2.59,2.58Z"/>
    </g>
    <g>
      <path d="M165.5,531.73v-8.77h2.65v8.89c0,1.96,1.31,3.05,3.11,3.05s3.17-1.09,3.17-3.03v-8.91h2.55v8.79c0,3.37-2.3,5.31-5.76,5.31s-5.72-1.96-5.72-5.33Z"/>
      <path d="M178.65,522.96h2.63v13.86h-2.63v-13.86Z"/>
    </g>
    <g>
      <path d="M432.06,391.24h2.63v13.86h-2.63v-13.86Z"/>
      <path d="M436.38,394.35h2.54v1.25c.75-.91,1.86-1.47,3.21-1.47,2.3,0,3.8,1.45,3.8,3.64v7.33h-2.52v-6.93c0-1.41-.87-2.16-2.18-2.16-.97,0-1.82.46-2.32,1.15v7.94h-2.54v-10.75Z"/>
      <path d="M449.37,402.65v-6.44h-2.54v-1.86h2.54v-2.14h2.5v2.14h3.15v1.86h-3.15v5.98c0,.71.38,1.03,1.25,1.03h1.9v1.88h-3.07c-1.74,0-2.57-.87-2.57-2.46Z"/>
      <path d="M455.71,399.74c0-3.49,2.14-5.67,5.21-5.67,2.91,0,5.09,2.06,5.09,5.71v.2h-7.8c.08,2.32,1.11,3.57,2.71,3.57,1.31,0,2.22-.83,2.57-2.46h2.4c-.48,2.69-2.3,4.28-4.99,4.28-3.09,0-5.19-2.12-5.19-5.62ZM458.3,398.47h5.17c-.34-1.68-1.27-2.58-2.57-2.58s-2.28.91-2.59,2.58Z"/>
      <path d="M467.41,394.35h2.54v1.7c.69-1.21,1.8-1.88,3.23-1.88h.26v2.32c-.26-.04-.51-.06-.77-.06-1.13,0-2.18.46-2.71,1.33v7.35h-2.54v-10.75Z"/>
      <path d="M474.78,394.35h2.54v1.25c.75-.91,1.86-1.47,3.21-1.47,2.3,0,3.8,1.45,3.8,3.64v7.33h-2.52v-6.93c0-1.41-.87-2.16-2.18-2.16-.97,0-1.82.46-2.32,1.15v7.94h-2.54v-10.75Z"/>
      <path d="M485.71,399.74c0-3.49,2.14-5.67,5.21-5.67,2.91,0,5.09,2.06,5.09,5.71v.2h-7.8c.08,2.32,1.11,3.57,2.71,3.57,1.31,0,2.22-.83,2.57-2.46h2.4c-.48,2.69-2.3,4.28-4.99,4.28-3.09,0-5.19-2.12-5.19-5.62ZM488.3,398.47h5.17c-.34-1.68-1.27-2.58-2.57-2.58s-2.28.91-2.59,2.58Z"/>
      <path d="M499.04,402.65v-6.44h-2.54v-1.86h2.54v-2.14h2.5v2.14h3.15v1.86h-3.15v5.98c0,.71.38,1.03,1.25,1.03h1.9v1.88h-3.07c-1.74,0-2.57-.87-2.57-2.46Z"/>
      <path d="M512.66,396.21h-2.42v-1.86h2.42v-.97c0-1.7.81-2.55,2.69-2.55h2.69v1.72h-1.82c-.77,0-1.07.3-1.07.97v.83h2.89v1.86h-2.89v8.89h-2.5v-8.89Z"/>
      <path d="M518.6,402.37c0-2.12,2.22-2.83,4.5-3.53,1.68-.51,2.5-.91,2.5-1.7s-.67-1.25-1.9-1.25c-1.39,0-2.3.79-2.54,2.12h-2.34c.32-2.32,2.22-3.9,4.93-3.9s4.34,1.29,4.34,3.68v7.31h-2.5v-1.21c-.81.89-2.02,1.39-3.39,1.39-2.22,0-3.6-1.15-3.6-2.91ZM522.86,403.58c1.03,0,2.1-.42,2.73-1.13v-2.97c-.46.38-1.17.61-1.98.89-1.45.47-2.54.85-2.54,1.92,0,.83.69,1.29,1.78,1.29Z"/>
      <path d="M529.48,399.74c0-3.57,2.12-5.67,5.23-5.67,2.73,0,4.69,1.66,5.05,4.58h-2.42c-.28-1.78-1.25-2.71-2.63-2.71-1.62,0-2.69,1.31-2.69,3.78s1.07,3.78,2.69,3.78c1.43,0,2.42-.99,2.65-2.87h2.4c-.3,3.01-2.24,4.73-5.05,4.73-3.13,0-5.23-2.08-5.23-5.62Z"/>
      <path d="M541.12,391.3h2.54v2.16h-2.54v-2.16ZM541.12,394.35h2.54v10.75h-2.54v-10.75Z"/>
      <path d="M545.3,394.35h2.54v1.25c.75-.91,1.86-1.47,3.21-1.47,2.3,0,3.8,1.45,3.8,3.64v7.33h-2.52v-6.93c0-1.41-.87-2.16-2.18-2.16-.97,0-1.82.46-2.32,1.15v7.94h-2.54v-10.75Z"/>
      <path d="M556.23,399.66c0-3.39,1.88-5.53,4.65-5.53,1.47,0,2.67.67,3.45,1.9v-1.68h2.54v10.24c0,2.89-2.02,4.36-5.23,4.36-2.77,0-4.65-1.13-5.11-3.21h2.5c.32,1.07,1.17,1.58,2.63,1.58,1.64,0,2.67-.79,2.67-2.38v-1.66c-.77,1.23-1.98,1.9-3.45,1.9-2.79,0-4.65-2.1-4.65-5.53ZM564.33,399.66c0-2.44-1.11-3.7-2.81-3.7s-2.75,1.27-2.75,3.7,1.07,3.7,2.75,3.7,2.81-1.29,2.81-3.7Z"/>
    </g>
    <g>
      <path class="cls-5" d="M1424.22,408.66h-7.7v-1h7.7v1ZM1408.82,408.66h-7.7v-1h7.7v1ZM1393.42,408.66h-7.7v-1h7.7v1ZM1378.01,408.66h-7.7v-1h7.7v1ZM1362.61,408.66h-7.7v-1h7.7v1ZM1347.21,408.66h-7.7v-1h7.7v1ZM1331.8,408.66h-7.7v-1h7.7v1ZM1316.4,408.66h-7.7v-1h7.7v1ZM1301,408.66h-7.7v-1h7.7v1ZM1285.59,408.66h-7.7v-1h7.7v1ZM1270.19,408.66h-7.7v-1h7.7v1ZM1254.79,408.66h-7.7v-1h7.7v1ZM1239.38,408.66h-7.7v-1h7.7v1ZM1223.98,408.66h-7.7v-1h7.7v1ZM1208.58,408.66h-7.7v-1h7.7v1ZM1193.17,408.66h-7.7v-1h7.7v1ZM1177.77,408.66h-7.7v-1h7.7v1ZM1162.37,408.66h-7.7v-1h7.7v1ZM1146.96,408.66h-7.7v-1h7.7v1ZM1131.56,408.66h-7.7v-1h7.7v1ZM1116.16,408.66h-7.7v-1h7.7v1ZM1100.75,408.66h-7.7v-1h7.7v1ZM1085.35,408.66h-7.7v-1h7.7v1ZM1069.95,408.66h-7.7v-1h7.7v1ZM1054.54,408.66h-7.7v-1h7.7v1ZM1039.14,408.66h-7.7v-1h7.7v1ZM1023.74,408.66h-7.7v-1h7.7v1ZM1008.33,408.66h-7.7v-1h7.7v1ZM992.93,408.66h-7.7v-1h7.7v1ZM977.53,408.66h-7.7v-1h7.7v1ZM962.12,408.66h-7.7v-1h7.7v1ZM946.72,408.66h-7.7v-1h7.7v1ZM931.32,408.66h-7.7v-1h7.7v1ZM915.91,408.66h-7.7v-1h7.7v1ZM900.51,408.66h-7.7v-1h7.7v1ZM885.11,408.66h-7.7v-1h7.7v1ZM869.7,408.66h-7.7v-1h7.7v1ZM854.3,408.66h-7.7v-1h7.7v1ZM838.9,408.66h-7.7v-1h7.7v1ZM823.49,408.66h-7.7v-1h7.7v1ZM808.09,408.66h-7.7v-1h7.7v1ZM792.69,408.66h-7.7v-1h7.7v1ZM777.28,408.66h-7.7v-1h7.7v1ZM761.88,408.66h-7.7v-1h7.7v1ZM746.47,408.66h-7.7v-1h7.7v1ZM731.07,408.66h-7.7v-1h7.7v1ZM715.67,408.66h-7.7v-1h7.7v1ZM700.26,408.66h-7.7v-1h7.7v1ZM684.86,408.66h-7.7v-1h7.7v1ZM669.46,408.66h-7.7v-1h7.7v1ZM654.05,408.66h-7.7v-1h7.7v1ZM638.65,408.66h-1.58v-7.12h1v6.12h.58v1ZM1424.72,404.56h-1v-7.7h1v7.7ZM638.07,393.84h-1v-6.15h2.55v1h-1.55v5.15ZM1424.72,389.15h-1v-.47h-6.23v-1h7.23v1.47ZM1409.79,388.68h-7.7v-1h7.7v1ZM1394.39,388.68h-7.7v-1h7.7v1ZM1378.98,388.68h-7.7v-1h7.7v1ZM1363.58,388.68h-7.7v-1h7.7v1ZM1348.18,388.68h-7.7v-1h7.7v1ZM1332.77,388.68h-7.7v-1h7.7v1ZM1317.37,388.68h-7.7v-1h7.7v1ZM1301.97,388.68h-7.7v-1h7.7v1ZM1286.56,388.68h-7.7v-1h7.7v1ZM1271.16,388.68h-7.7v-1h7.7v1ZM1255.76,388.68h-7.7v-1h7.7v1ZM1240.35,388.68h-7.7v-1h7.7v1ZM1224.95,388.68h-7.7v-1h7.7v1ZM1209.55,388.68h-7.7v-1h7.7v1ZM1194.14,388.68h-7.7v-1h7.7v1ZM1178.74,388.68h-7.7v-1h7.7v1ZM1163.34,388.68h-7.7v-1h7.7v1ZM1147.93,388.68h-7.7v-1h7.7v1ZM1132.53,388.68h-7.7v-1h7.7v1ZM1117.12,388.68h-7.7v-1h7.7v1ZM1101.72,388.68h-7.7v-1h7.7v1ZM1086.32,388.68h-7.7v-1h7.7v1ZM1070.91,388.68h-7.7v-1h7.7v1ZM1055.51,388.68h-7.7v-1h7.7v1ZM1040.11,388.68h-7.7v-1h7.7v1ZM1024.7,388.68h-7.7v-1h7.7v1ZM1009.3,388.68h-7.7v-1h7.7v1ZM993.9,388.68h-7.7v-1h7.7v1ZM978.49,388.68h-7.7v-1h7.7v1ZM963.09,388.68h-7.7v-1h7.7v1ZM947.69,388.68h-7.7v-1h7.7v1ZM932.28,388.68h-7.7v-1h7.7v1ZM916.88,388.68h-7.7v-1h7.7v1ZM901.48,388.68h-7.7v-1h7.7v1ZM886.07,388.68h-7.7v-1h7.7v1ZM870.67,388.68h-7.7v-1h7.7v1ZM855.27,388.68h-7.7v-1h7.7v1ZM839.86,388.68h-7.7v-1h7.7v1ZM824.46,388.68h-7.7v-1h7.7v1ZM809.06,388.68h-7.7v-1h7.7v1ZM793.65,388.68h-7.7v-1h7.7v1ZM778.25,388.68h-7.7v-1h7.7v1ZM762.85,388.68h-7.7v-1h7.7v1ZM747.44,388.68h-7.7v-1h7.7v1ZM732.04,388.68h-7.7v-1h7.7v1ZM716.64,388.68h-7.7v-1h7.7v1ZM701.23,388.68h-7.7v-1h7.7v1ZM685.83,388.68h-7.7v-1h7.7v1ZM670.43,388.68h-7.7v-1h7.7v1ZM655.02,388.68h-7.7v-1h7.7v1Z"/>
      <path d="M958.86,391.24h6.5c2.97,0,4.79,1.6,4.79,4.24s-1.8,4.22-4.75,4.22h-3.9v5.41h-2.63v-13.86ZM961.49,393.32v4.34h3.68c1.49,0,2.36-.73,2.36-2.16s-.87-2.18-2.36-2.18h-3.68Z"/>
      <path d="M971.5,394.35h2.54v1.7c.69-1.21,1.8-1.88,3.23-1.88h.26v2.32c-.26-.04-.51-.06-.77-.06-1.13,0-2.18.46-2.71,1.33v7.35h-2.54v-10.75Z"/>
      <path d="M978.86,391.3h2.54v2.16h-2.54v-2.16ZM978.86,394.35h2.54v10.75h-2.54v-10.75Z"/>
      <path d="M982.37,394.35h2.67l1.43,4.14,1.41,4.12,1.43-4.12,1.45-4.14h2.56l-4.04,10.75h-2.85l-4.04-10.75Z"/>
      <path d="M993.2,402.37c0-2.12,2.22-2.83,4.5-3.53,1.68-.51,2.5-.91,2.5-1.7s-.67-1.25-1.9-1.25c-1.39,0-2.3.79-2.54,2.12h-2.34c.32-2.32,2.22-3.9,4.93-3.9s4.34,1.29,4.34,3.68v7.31h-2.5v-1.21c-.81.89-2.02,1.39-3.39,1.39-2.22,0-3.6-1.15-3.6-2.91ZM997.46,403.58c1.03,0,2.1-.42,2.73-1.13v-2.97c-.46.38-1.17.61-1.98.89-1.45.47-2.54.85-2.54,1.92,0,.83.69,1.29,1.78,1.29Z"/>
      <path d="M1006.13,402.65v-6.44h-2.54v-1.86h2.54v-2.14h2.5v2.14h3.15v1.86h-3.15v5.98c0,.71.38,1.03,1.25,1.03h1.9v1.88h-3.07c-1.74,0-2.57-.87-2.57-2.46Z"/>
      <path d="M1012.47,399.74c0-3.49,2.14-5.67,5.21-5.67,2.91,0,5.09,2.06,5.09,5.71v.2h-7.8c.08,2.32,1.11,3.57,2.71,3.57,1.31,0,2.22-.83,2.58-2.46h2.4c-.48,2.69-2.3,4.28-4.99,4.28-3.09,0-5.19-2.12-5.19-5.62ZM1015.07,398.47h5.17c-.34-1.68-1.27-2.58-2.57-2.58s-2.28.91-2.59,2.58Z"/>
      <path d="M1028.73,394.35h2.54v1.25c.75-.91,1.86-1.47,3.21-1.47,2.3,0,3.8,1.45,3.8,3.64v7.33h-2.52v-6.93c0-1.41-.87-2.16-2.18-2.16-.97,0-1.82.46-2.32,1.15v7.94h-2.54v-10.75Z"/>
      <path d="M1039.66,399.74c0-3.49,2.14-5.67,5.21-5.67,2.91,0,5.09,2.06,5.09,5.71v.2h-7.8c.08,2.32,1.11,3.57,2.71,3.57,1.31,0,2.22-.83,2.57-2.46h2.4c-.48,2.69-2.3,4.28-4.99,4.28-3.09,0-5.19-2.12-5.19-5.62ZM1042.26,398.47h5.17c-.34-1.68-1.27-2.58-2.57-2.58s-2.28.91-2.59,2.58Z"/>
      <path d="M1052.99,402.65v-6.44h-2.54v-1.86h2.54v-2.14h2.5v2.14h3.15v1.86h-3.15v5.98c0,.71.38,1.03,1.25,1.03h1.9v1.88h-3.07c-1.74,0-2.57-.87-2.57-2.46Z"/>
      <path d="M1059.55,394.35h2.38l.81,4.16.81,4.14.99-4.14.97-4.16h2.4l.99,4.16,1.01,4.14.81-4.14.79-4.16h2.3l-2.44,10.75h-2.85l-.93-3.92-.91-3.94-.91,3.94-.93,3.92h-2.85l-2.44-10.75Z"/>
      <path d="M1074.4,399.74c0-3.57,2.14-5.67,5.29-5.67s5.31,2.1,5.31,5.67-2.12,5.62-5.31,5.62-5.29-2.1-5.29-5.62ZM1082.46,399.72c0-2.47-1.09-3.78-2.77-3.78s-2.75,1.31-2.75,3.78,1.09,3.78,2.75,3.78,2.77-1.29,2.77-3.78Z"/>
      <path d="M1086.4,394.35h2.54v1.7c.69-1.21,1.8-1.88,3.23-1.88h.26v2.32c-.26-.04-.51-.06-.77-.06-1.13,0-2.18.46-2.71,1.33v7.35h-2.54v-10.75Z"/>
      <path d="M1093.77,391.24h2.5l-.04,8.22,4.46-5.11h2.83l-3.7,4.2,3.92,6.56h-2.89l-2.69-4.65-1.92,2.18.04,2.48h-2.5v-13.86Z"/>
    </g>
    <g>
      <path d="M1271.45,487.36h10.12v2.1h-7.49v3.6h5.57v2.06h-5.57v4.04h7.49v2.06h-10.12v-13.86Z"/>
      <path d="M1283.02,490.47h2.54v1.25c.75-.91,1.86-1.47,3.21-1.47,2.3,0,3.8,1.45,3.8,3.64v7.33h-2.52v-6.93c0-1.41-.87-2.16-2.18-2.16-.97,0-1.82.46-2.32,1.15v7.94h-2.54v-10.75Z"/>
      <path d="M1293.95,495.86c0-3.56,2.12-5.66,5.23-5.66,2.73,0,4.69,1.66,5.05,4.58h-2.42c-.28-1.78-1.25-2.71-2.63-2.71-1.62,0-2.69,1.31-2.69,3.78s1.07,3.78,2.69,3.78c1.43,0,2.42-.99,2.65-2.87h2.4c-.3,3.01-2.24,4.73-5.05,4.73-3.13,0-5.23-2.08-5.23-5.62Z"/>
      <path d="M1305.59,490.47h2.54v1.7c.69-1.21,1.8-1.88,3.23-1.88h.26v2.32c-.26-.04-.51-.06-.77-.06-1.13,0-2.18.46-2.71,1.33v7.35h-2.54v-10.75Z"/>
      <path d="M1313.91,502.95h1.41c.73,0,1.13-.28,1.45-.95l.12-.34-4.4-11.19h2.71l2.93,7.7,2.75-7.7h2.57l-4.63,12.28c-.59,1.47-1.58,2.1-3.05,2.1h-1.86v-1.9Z"/>
      <path d="M1324.43,490.47h2.52v1.7c.77-1.25,1.98-1.92,3.47-1.92,2.79,0,4.63,2.12,4.63,5.59s-1.88,5.61-4.63,5.61c-1.49,0-2.69-.67-3.47-1.92l.02,5.33h-2.54v-14.38ZM1332.53,495.86c0-2.48-1.07-3.78-2.77-3.78s-2.79,1.33-2.79,3.78,1.09,3.76,2.79,3.76,2.77-1.31,2.77-3.76Z"/>
      <path d="M1338.09,498.77v-6.44h-2.54v-1.86h2.54v-2.14h2.5v2.14h3.15v1.86h-3.15v5.98c0,.71.38,1.03,1.25,1.03h1.9v1.88h-3.07c-1.74,0-2.57-.87-2.57-2.46Z"/>
      <path d="M1345.07,487.42h2.54v2.16h-2.54v-2.16ZM1345.07,490.47h2.54v10.75h-2.54v-10.75Z"/>
      <path d="M1349.01,495.86c0-3.56,2.14-5.66,5.29-5.66s5.31,2.1,5.31,5.66-2.12,5.62-5.31,5.62-5.29-2.1-5.29-5.62ZM1357.07,495.84c0-2.48-1.09-3.78-2.77-3.78s-2.75,1.31-2.75,3.78,1.09,3.78,2.75,3.78,2.77-1.29,2.77-3.78Z"/>
      <path d="M1361.01,490.47h2.54v1.25c.75-.91,1.86-1.47,3.21-1.47,2.3,0,3.8,1.45,3.8,3.64v7.33h-2.52v-6.93c0-1.41-.87-2.16-2.18-2.16-.97,0-1.82.46-2.32,1.15v7.94h-2.54v-10.75Z"/>
      <path d="M1271.14,522.26c0-2.12,2.22-2.83,4.5-3.53,1.68-.52,2.5-.91,2.5-1.7s-.67-1.25-1.9-1.25c-1.39,0-2.3.79-2.54,2.12h-2.34c.32-2.32,2.22-3.9,4.93-3.9s4.34,1.29,4.34,3.68v7.31h-2.5v-1.21c-.81.89-2.02,1.39-3.39,1.39-2.22,0-3.6-1.15-3.6-2.91ZM1275.39,523.47c1.03,0,2.1-.42,2.73-1.13v-2.97c-.46.38-1.17.62-1.98.89-1.45.47-2.54.85-2.54,1.92,0,.83.69,1.29,1.78,1.29Z"/>
      <path d="M1284.07,522.54v-6.44h-2.54v-1.86h2.54v-2.14h2.5v2.14h3.15v1.86h-3.15v5.98c0,.71.38,1.03,1.25,1.03h1.9v1.88h-3.07c-1.74,0-2.57-.87-2.57-2.46Z"/>
      <path d="M1295.63,511.13h6.75c2.81,0,4.54,1.43,4.54,3.8,0,1.54-.73,2.73-2.06,3.33,1.23.4,1.62,1.37,1.66,2.75.04,1.62.12,2.93.57,3.98h-2.71c-.4-.75-.44-1.8-.48-4.02-.02-1.21-.54-1.7-1.7-1.7h-3.94v5.72h-2.63v-13.86ZM1298.27,513.21v4.02h3.92c1.31,0,2.14-.71,2.14-2.02s-.83-2-2.14-2h-3.92Z"/>
      <path d="M1307.95,519.63c0-3.49,2.14-5.66,5.21-5.66,2.91,0,5.09,2.06,5.09,5.7v.2h-7.8c.08,2.32,1.11,3.56,2.71,3.56,1.31,0,2.22-.83,2.58-2.46h2.4c-.48,2.69-2.3,4.28-4.99,4.28-3.09,0-5.19-2.12-5.19-5.62ZM1310.55,518.36h5.17c-.34-1.68-1.27-2.57-2.57-2.57s-2.28.91-2.59,2.57Z"/>
      <path d="M1319.36,521.17h2.36c.28,1.54,1.23,2.32,2.67,2.32s2.12-.55,2.12-1.33c0-.97-1.13-1.33-2.48-1.64-2.02-.5-4.52-.95-4.52-3.35,0-1.82,1.62-3.19,4.32-3.19s4.61,1.41,5.01,3.82h-2.32c-.34-1.43-1.27-2.06-2.67-2.06-1.25,0-1.92.54-1.92,1.19,0,.97,1.27,1.27,2.73,1.62,1.98.48,4.28,1.01,4.28,3.35,0,1.88-1.7,3.35-4.5,3.35s-4.71-1.35-5.09-4.08Z"/>
      <path d="M1332.07,522.54v-6.44h-2.54v-1.86h2.54v-2.14h2.5v2.14h3.15v1.86h-3.15v5.98c0,.71.38,1.03,1.25,1.03h1.9v1.88h-3.07c-1.74,0-2.57-.87-2.57-2.46Z"/>
      <path d="M1347.42,519.41h-3.78v-2.18h3.78v-3.58h2.32v3.58h3.76v2.18h-3.76v3.6h-2.32v-3.6Z"/>
      <path d="M1271.45,534.89h10.12v2.1h-7.49v3.6h5.57v2.06h-5.57v4.04h7.49v2.06h-10.12v-13.86Z"/>
      <path d="M1283.02,538.01h2.54v1.25c.75-.91,1.86-1.47,3.21-1.47,2.3,0,3.8,1.45,3.8,3.64v7.33h-2.52v-6.93c0-1.41-.87-2.16-2.18-2.16-.97,0-1.82.46-2.32,1.15v7.94h-2.54v-10.75Z"/>
      <path d="M1293.95,543.39c0-3.57,2.12-5.66,5.23-5.66,2.73,0,4.69,1.66,5.05,4.57h-2.42c-.28-1.78-1.25-2.71-2.63-2.71-1.62,0-2.69,1.31-2.69,3.78s1.07,3.78,2.69,3.78c1.43,0,2.42-.99,2.65-2.87h2.4c-.3,3.01-2.24,4.73-5.05,4.73-3.13,0-5.23-2.08-5.23-5.62Z"/>
      <path d="M1305.59,538.01h2.54v1.7c.69-1.21,1.8-1.88,3.23-1.88h.26v2.32c-.26-.04-.51-.06-.77-.06-1.13,0-2.18.46-2.71,1.33v7.35h-2.54v-10.75Z"/>
      <path d="M1313.91,550.48h1.41c.73,0,1.13-.28,1.45-.95l.12-.34-4.4-11.19h2.71l2.93,7.7,2.75-7.7h2.57l-4.63,12.28c-.59,1.46-1.58,2.1-3.05,2.1h-1.86v-1.9Z"/>
      <path d="M1324.43,538.01h2.52v1.7c.77-1.25,1.98-1.92,3.47-1.92,2.79,0,4.63,2.12,4.63,5.59s-1.88,5.6-4.63,5.6c-1.49,0-2.69-.67-3.47-1.92l.02,5.33h-2.54v-14.38ZM1332.53,543.39c0-2.48-1.07-3.78-2.77-3.78s-2.79,1.33-2.79,3.78,1.09,3.76,2.79,3.76,2.77-1.31,2.77-3.76Z"/>
      <path d="M1338.09,546.3v-6.44h-2.54v-1.86h2.54v-2.14h2.5v2.14h3.15v1.86h-3.15v5.98c0,.71.38,1.03,1.25,1.03h1.9v1.88h-3.07c-1.74,0-2.57-.87-2.57-2.46Z"/>
      <path d="M1344.43,543.39c0-3.49,2.14-5.66,5.21-5.66,2.91,0,5.09,2.06,5.09,5.7v.2h-7.8c.08,2.32,1.11,3.57,2.71,3.57,1.31,0,2.22-.83,2.58-2.46h2.4c-.48,2.69-2.3,4.28-4.99,4.28-3.09,0-5.19-2.12-5.19-5.62ZM1347.03,542.12h5.17c-.34-1.68-1.27-2.58-2.57-2.58s-2.28.91-2.59,2.58Z"/>
      <path d="M1356,543.39c0-3.43,1.88-5.61,4.65-5.61,1.47,0,2.67.69,3.45,1.94v-4.83h2.54v13.86h-2.54v-1.7c-.77,1.25-1.98,1.92-3.45,1.92-2.79,0-4.65-2.12-4.65-5.58ZM1364.1,543.39c0-2.48-1.11-3.78-2.81-3.78s-2.75,1.31-2.75,3.76,1.07,3.78,2.75,3.78,2.81-1.31,2.81-3.76Z"/>
      <path d="M1271.45,558.66h6.5c2.97,0,4.79,1.6,4.79,4.24s-1.8,4.22-4.75,4.22h-3.9v5.41h-2.63v-13.86ZM1274.09,560.74v4.34h3.68c1.49,0,2.36-.73,2.36-2.16s-.87-2.18-2.36-2.18h-3.68Z"/>
      <path d="M1284.13,558.66h2.63v13.86h-2.63v-13.86Z"/>
      <path d="M1288.48,558.66h2.63v13.86h-2.63v-13.86Z"/>
      <path d="M1292.5,568.7h2.36c.28,1.54,1.23,2.32,2.67,2.32s2.12-.55,2.12-1.33c0-.97-1.13-1.33-2.48-1.64-2.02-.49-4.52-.95-4.52-3.35,0-1.82,1.62-3.19,4.32-3.19s4.61,1.41,5.01,3.82h-2.32c-.34-1.43-1.27-2.06-2.67-2.06-1.25,0-1.92.54-1.92,1.19,0,.97,1.27,1.27,2.73,1.62,1.98.48,4.28,1.01,4.28,3.35,0,1.88-1.7,3.35-4.5,3.35s-4.71-1.35-5.09-4.08Z"/>
    </g>
    <g>
      <rect x="254.43" y="529.13" width="156.4" height="2"/>
      <polygon points="409.08 524.15 419.44 530.13 409.08 536.11 409.08 524.15"/>
    </g>
    <g>
      <rect x="580.94" y="498.53" width="427.68" height="2"/>
      <polygon points="1006.87 493.54 1017.23 499.53 1006.87 505.51 1006.87 493.54"/>
    </g>
    <g>
      <rect x="580.94" y="559.2" width="427.68" height="2"/>
      <polygon points="1006.87 554.22 1017.23 560.2 1006.87 566.19 1006.87 554.22"/>
    </g>
    <g>
      <rect class="cls-7" x="768.88" y="465.68" width="60.15" height="189.04" transform="translate(1359.15 -238.75) rotate(90)"/>
      <path class="cls-2" d="M894.47,591.28h-191.04v-62.15h191.04v62.15ZM705.43,589.28h187.04v-58.15h-187.04v58.15Z"/>
    </g>
    <g>
      <g>
        <path d="M775.99,553.03h2.61l-.06,6.99,5.94-6.99h3.05l-4.67,5.51,4.79,8.36h-3.03l-3.51-6.32-2.55,2.89.04,3.43h-2.61v-13.86Z"/>
        <path d="M788.73,553.03h2.54v13.86h-2.54v-13.86Z"/>
        <path d="M792.63,564.16c0-2.12,2.22-2.83,4.5-3.53,1.68-.51,2.5-.91,2.5-1.7s-.67-1.25-1.9-1.25c-1.39,0-2.3.79-2.54,2.12h-2.34c.32-2.32,2.22-3.9,4.93-3.9s4.34,1.29,4.34,3.68v7.31h-2.5v-1.21c-.81.89-2.02,1.39-3.39,1.39-2.22,0-3.6-1.15-3.6-2.91ZM796.89,565.37c1.03,0,2.1-.42,2.73-1.13v-2.97c-.46.38-1.17.61-1.98.89-1.45.48-2.54.85-2.54,1.92,0,.83.69,1.29,1.78,1.29Z"/>
        <path d="M802.47,556.14h2.67l1.43,4.14,1.41,4.12,1.43-4.12,1.45-4.14h2.56l-4.04,10.75h-2.85l-4.04-10.75Z"/>
        <path d="M813.54,561.53c0-3.49,2.14-5.66,5.21-5.66,2.91,0,5.09,2.06,5.09,5.7v.2h-7.8c.08,2.32,1.11,3.57,2.71,3.57,1.31,0,2.22-.83,2.57-2.46h2.4c-.48,2.69-2.3,4.28-4.99,4.28-3.09,0-5.19-2.12-5.19-5.62ZM816.14,560.26h5.17c-.34-1.68-1.27-2.58-2.57-2.58s-2.28.91-2.59,2.58Z"/>
        <path d="M829.84,553.03h5.01c4.08,0,6.81,2.52,6.81,6.95s-2.77,6.91-6.87,6.91h-4.95v-13.86ZM832.48,555.15v9.67h2.26c2.65,0,4.24-1.6,4.24-4.81s-1.58-4.85-4.24-4.85h-2.26Z"/>
        <path d="M843.13,553.03h6.64c2.77,0,4.44,1.41,4.44,3.66,0,1.35-.69,2.46-1.96,3.05,1.45.55,2.28,1.7,2.28,3.31,0,2.34-1.68,3.84-4.56,3.84h-6.83v-13.86ZM845.76,555.11v3.68h3.84c1.23,0,2-.63,2-1.84s-.77-1.84-2-1.84h-3.84ZM845.76,560.84v4h4c1.35,0,2.14-.71,2.14-1.98s-.79-2.02-2.14-2.02h-4Z"/>
      </g>
      <g>
        <path d="M742.39,574.71h-8.64c-.37,0-.66-.3-.66-.66v-6.17c0-.18.07-.36.21-.48l12.23-11.63c-.03-.31-.05-.62-.05-.94,0-5.27,4.29-9.56,9.56-9.56s9.56,4.29,9.56,9.56-4.29,9.56-9.56,9.56c-.32,0-.63-.02-.95-.05l-2.4,2.39c-.13.13-.3.19-.47.19h-3.09v1.88c0,.37-.3.66-.66.66h-1.88v1.88c0,.37-.3.66-.66.66h-1.88v2.03c0,.37-.3.66-.66.66h.01ZM734.42,573.38h7.31v-2.03c0-.37.3-.66.66-.66h1.88v-1.88c0-.37.3-.66.66-.66h1.88v-1.88c0-.37.3-.66.66-.66h3.49l2.43-2.43c.14-.14.35-.22.56-.19.36.05.73.07,1.1.07,4.54,0,8.23-3.7,8.23-8.23s-3.7-8.23-8.23-8.23-8.23,3.7-8.23,8.23c0,.37.02.74.07,1.11.03.21-.05.42-.2.57l-12.27,11.67v5.22h0Z"/>
        <path d="M755.14,556.76c-.82,0-1.64-.31-2.26-.94-1.25-1.25-1.25-3.29,0-4.54,1.25-1.25,3.29-1.25,4.54,0,.6.6.94,1.41.94,2.26s-.33,1.66-.94,2.26c-.62.63-1.44.94-2.26.94h0ZM755.14,551.68c-.5,0-.97.19-1.33.55-.73.73-.73,1.93,0,2.66.71.71,1.94.71,2.66,0,.36-.36.55-.83.55-1.33s-.19-.97-.55-1.33-.83-.55-1.33-.55Z"/>
        <g>
          <line x1="743.22" y1="564.74" x2="748.31" y2="559.66"/>
          <rect x="742.17" y="561.53" width="7.19" height="1.33" transform="translate(-179.1 692) rotate(-45)"/>
        </g>
      </g>
    </g>
  </g>
  <g>
    <path d="M1093.57,541.26h-14.33c-2.12,0-3.85-1.73-3.85-3.85v-8.66c0-2.12,1.73-3.85,3.85-3.85h14.33c2.12,0,3.85,1.73,3.85,3.85v8.66c0,2.12-1.73,3.85-3.85,3.85ZM1079.23,526.91c-1.02,0-1.85.83-1.85,1.85v8.66c0,1.02.83,1.85,1.85,1.85h14.33c1.02,0,1.85-.83,1.85-1.85v-8.66c0-1.02-.83-1.85-1.85-1.85h-14.33Z"/>
    <path d="M1093.07,525.91h-2v-5.27c0-2.57-2.09-4.67-4.67-4.67s-4.67,2.09-4.67,4.67v5.27h-2v-5.27c0-3.68,2.99-6.67,6.67-6.67s6.67,2.99,6.67,6.67v5.27Z"/>
    <rect x="1085.4" y="532.27" width="2" height="2.69"/>
  </g>
</svg>