<svg version="1.1" xmlns="http://www.w3.org/2000/svg" viewBox="0 0 434.1072100908266 255.63029628423402" width="434.1072100908266" height="255.63029628423402">
  <!-- svg-source:excalidraw -->
  
  <defs>
    <style class="style-fonts">
      @font-face {
        font-family: "Virgil";
        src: url("https://excalidraw.com/Virgil.woff2");
      }
      @font-face {
        font-family: "Cascadia";
        src: url("https://excalidraw.com/Cascadia.woff2");
      }
    </style>
    
  </defs>
  <g stroke-linecap="round" transform="translate(209.75814531859191 76.63060185625261) rotate(0 102.93784941656418 52.10733067887679)"><path d="M26.05 0 M26.05 0 C73.32 2.23, 122.64 3.01, 179.82 0 M26.05 0 C78.42 -0.49, 130.68 -0.63, 179.82 0 M179.82 0 C195.25 1.34, 207.4 10.63, 205.88 26.05 M179.82 0 C199.13 2.11, 207.54 8.71, 205.88 26.05 M205.88 26.05 C203.99 43.67, 205.76 66.31, 205.88 78.16 M205.88 26.05 C205.79 41.67, 205.89 57.56, 205.88 78.16 M205.88 78.16 C206.46 94.51, 196.99 102.59, 179.82 104.21 M205.88 78.16 C207.93 93.5, 198.88 103.32, 179.82 104.21 M179.82 104.21 C142.56 101.19, 104.9 102.5, 26.05 104.21 M179.82 104.21 C141.88 102.46, 104.08 102.59, 26.05 104.21 M26.05 104.21 C6.79 104.36, -0.86 93.76, 0 78.16 M26.05 104.21 C7.08 103.75, 0.57 93.78, 0 78.16 M0 78.16 C0.41 66.28, -0.03 52.33, 0 26.05 M0 78.16 C0.67 67.28, -0.9 54.28, 0 26.05 M0 26.05 C0.12 7.66, 7.65 0.1, 26.05 0 M0 26.05 C-0.95 6.71, 9.73 -0.87, 26.05 0" stroke="#1971c2" stroke-width="1" fill="none"></path></g><g stroke-linecap="round" transform="translate(217.2561669931165 112.03846146804595) rotate(0 94.9510253545186 8.543980210168883)"><path d="M4.27 0 M4.27 0 C69.06 -0.1, 132.12 -2.22, 185.63 0 M4.27 0 C48.37 1.86, 95.17 2.16, 185.63 0 M185.63 0 C190.17 1.84, 191.35 1.44, 189.9 4.27 M185.63 0 C190.24 -1.55, 187.63 -0.33, 189.9 4.27 M189.9 4.27 C189.98 5.45, 189.62 7.9, 189.9 12.82 M189.9 4.27 C190.06 6.27, 189.89 8.35, 189.9 12.82 M189.9 12.82 C191.69 13.9, 189.94 16.31, 185.63 17.09 M189.9 12.82 C188.48 16.72, 186.39 16.32, 185.63 17.09 M185.63 17.09 C144.84 18.53, 105.18 15.74, 4.27 17.09 M185.63 17.09 C146.29 15.79, 108.41 14.82, 4.27 17.09 M4.27 17.09 C0.02 16.68, 0.49 14.14, 0 12.82 M4.27 17.09 C0.3 19.21, 0.19 16.69, 0 12.82 M0 12.82 C-0.69 9.83, -0.34 7.28, 0 4.27 M0 12.82 C0.1 9.49, -0.15 6.62, 0 4.27 M0 4.27 C-0.82 -0.29, 2.33 -0.76, 4.27 0 M0 4.27 C1.96 2.9, 1.5 0.82, 4.27 0" stroke="#1971c2" stroke-width="1" fill="none"></path></g><g stroke-linecap="round" transform="translate(217.57858134066987 85.2780706211019) rotate(0 94.9510253545186 8.543980210168883)"><path d="M4.27 0 M4.27 0 C75.26 -1.98, 145.3 -2.74, 185.63 0 M4.27 0 C47.57 -0.24, 90.18 -0.29, 185.63 0 M185.63 0 C189.93 0.02, 191.43 0.07, 189.9 4.27 M185.63 0 C186.21 -1.76, 187.61 1.69, 189.9 4.27 M189.9 4.27 C189.62 7.48, 189.56 10.57, 189.9 12.82 M189.9 4.27 C189.88 6.03, 190.31 8.11, 189.9 12.82 M189.9 12.82 C191.37 14.88, 187.24 18.01, 185.63 17.09 M189.9 12.82 C187.81 14.9, 186.61 15.12, 185.63 17.09 M185.63 17.09 C132.95 17.59, 80.76 16.79, 4.27 17.09 M185.63 17.09 C144.56 16.34, 103.64 17.02, 4.27 17.09 M4.27 17.09 C1.92 15.56, -0.98 17.51, 0 12.82 M4.27 17.09 C1.61 18.12, 1.39 16.18, 0 12.82 M0 12.82 C-0.26 10.73, 0.61 6.67, 0 4.27 M0 12.82 C-0.23 10.99, -0.18 8.75, 0 4.27 M0 4.27 C0.91 0.67, 3.13 1.28, 4.27 0 M0 4.27 C0.07 2.24, 2.56 -0.8, 4.27 0" stroke="#1971c2" stroke-width="1" fill="none"></path></g><g stroke-linecap="round" transform="translate(217.2561669931165 140.08850970520427) rotate(0 94.9510253545186 8.543980210168883)"><path d="M4.27 0 M4.27 0 C71.82 -0.82, 140.13 -1.43, 185.63 0 M4.27 0 C71.63 -0.85, 138.03 -1.76, 185.63 0 M185.63 0 C190.01 -1.35, 187.93 -0.11, 189.9 4.27 M185.63 0 C186.18 0.27, 191.09 1.6, 189.9 4.27 M189.9 4.27 C189.52 6.59, 189.42 8.59, 189.9 12.82 M189.9 4.27 C190.28 6.02, 190.21 8.36, 189.9 12.82 M189.9 12.82 C188.66 16.59, 186.66 16.42, 185.63 17.09 M189.9 12.82 C188.03 13.69, 188.12 15.78, 185.63 17.09 M185.63 17.09 C113.8 14.26, 43.98 14.23, 4.27 17.09 M185.63 17.09 C129.17 15.28, 74.36 14.72, 4.27 17.09 M4.27 17.09 C0.45 18.94, 0.16 16.56, 0 12.82 M4.27 17.09 C2.82 17.61, 0.4 13.85, 0 12.82 M0 12.82 C0.58 9.44, -0.68 7.56, 0 4.27 M0 12.82 C-0.13 10.32, 0.24 8.41, 0 4.27 M0 4.27 C1.71 2.7, 1.49 0.71, 4.27 0 M0 4.27 C1.14 0.63, 0.93 2, 4.27 0" stroke="#1971c2" stroke-width="1" fill="none"></path></g><g stroke-linecap="round" transform="translate(309.14425604587655 85.60048496865545) rotate(0 49.16818800191538 8.543980210168883)"><path d="M4.27 0 M4.27 0 C39.89 0.69, 71.85 0.77, 94.06 0 M4.27 0 C24.16 0.8, 46.55 0.76, 94.06 0 M94.06 0 C95.67 -0.68, 98.81 0.61, 98.34 4.27 M94.06 0 C97.68 -1.23, 99.01 0.25, 98.34 4.27 M98.34 4.27 C97.51 7.38, 97.93 8.7, 98.34 12.82 M98.34 4.27 C97.91 6.86, 98.19 9.94, 98.34 12.82 M98.34 12.82 C100.06 14.53, 95.85 15.32, 94.06 17.09 M98.34 12.82 C96.19 13.92, 94.74 17.26, 94.06 17.09 M94.06 17.09 C70.58 16.95, 46.38 15.48, 4.27 17.09 M94.06 17.09 C59.44 17.72, 23.77 16.7, 4.27 17.09 M4.27 17.09 C1.64 16.33, 1.46 16.95, 0 12.82 M4.27 17.09 C-0.53 15.16, 0.13 14.48, 0 12.82 M0 12.82 C-0.74 11.08, -0.33 9.3, 0 4.27 M0 12.82 C0.21 9.56, -0.1 6.97, 0 4.27 M0 4.27 C-1.47 0.42, 1.21 1.84, 4.27 0 M0 4.27 C-2.25 1.71, 1.78 0.95, 4.27 0" stroke="#1971c2" stroke-width="1" fill="none"></path></g><g transform="translate(222.57600372775005 87.69617822775336) rotate(0 5.782379150390625 5.993849459698666)"><text x="0" y="0" font-family="Helvetica, Segoe UI Emoji" font-size="10.424086016867259px" fill="#1971c2" text-anchor="start" style="white-space: pre;" direction="ltr" dominant-baseline="text-before-edge">....</text></g><g transform="translate(221.60876068508924 114.77898342225106) rotate(0 5.782379150390625 5.993849459698673)"><text x="0" y="0" font-family="Helvetica, Segoe UI Emoji" font-size="10.424086016867259px" fill="#1971c2" text-anchor="start" style="white-space: pre;" direction="ltr" dominant-baseline="text-before-edge">....</text></g><g transform="translate(221.2863463375354 141.8617886167487) rotate(0 5.782379150390625 5.993849459698673)"><text x="0" y="0" font-family="Helvetica, Segoe UI Emoji" font-size="10.424086016867259px" fill="#1971c2" text-anchor="start" style="white-space: pre;" direction="ltr" dominant-baseline="text-before-edge">....</text></g><g transform="translate(270.3309043343479 164.44239787504182) rotate(0 11.56475830078125 5.993849459698673)"><text x="0" y="0" font-family="Helvetica, Segoe UI Emoji" font-size="10.424086016867257px" fill="#1971c2" text-anchor="start" style="white-space: pre;" direction="ltr" dominant-baseline="text-before-edge">    ....</text></g><g stroke-linecap="round" transform="translate(308.49942735076934 111.39363277293886) rotate(0 49.16818800191538 8.543980210168883)"><path d="M4.27 0 M4.27 0 C33.19 -0.46, 62.51 1.53, 94.06 0 M4.27 0 C22.68 0.81, 41.41 0.02, 94.06 0 M94.06 0 C95.29 -1.71, 98.02 0.29, 98.34 4.27 M94.06 0 C98.9 -1.3, 97.11 -0.61, 98.34 4.27 M98.34 4.27 C98.34 5.67, 97.51 7.21, 98.34 12.82 M98.34 4.27 C98.15 7.06, 98.39 9.25, 98.34 12.82 M98.34 12.82 C99.55 16.12, 97.26 15.51, 94.06 17.09 M98.34 12.82 C98.58 14.79, 98.59 18.56, 94.06 17.09 M94.06 17.09 C73.72 16.11, 55.53 16.32, 4.27 17.09 M94.06 17.09 C75.68 17.39, 55.63 17.1, 4.27 17.09 M4.27 17.09 C2.41 16.39, -0.43 17.4, 0 12.82 M4.27 17.09 C-0.27 15.93, -0.24 17.78, 0 12.82 M0 12.82 C0.34 10.87, -0.75 10.18, 0 4.27 M0 12.82 C0.1 9.93, 0.17 7.4, 0 4.27 M0 4.27 C1.78 0.72, 1.48 0.02, 4.27 0 M0 4.27 C1.95 0.77, 0.25 0.7, 4.27 0" stroke="#1971c2" stroke-width="1" fill="none"></path></g><g stroke-linecap="round" transform="translate(308.8218416983227 139.76609535765076) rotate(0 49.16818800191538 8.543980210168883)"><path d="M4.27 0 M4.27 0 C32.2 1.88, 61.62 1.56, 94.06 0 M4.27 0 C26.8 -0.75, 50.33 -1.27, 94.06 0 M94.06 0 C96.6 -1.13, 100.06 0.29, 98.34 4.27 M94.06 0 C95.69 -2.03, 96.19 -0.32, 98.34 4.27 M98.34 4.27 C97.58 5.43, 98.17 7.99, 98.34 12.82 M98.34 4.27 C98.33 6.38, 98.55 8.19, 98.34 12.82 M98.34 12.82 C98.69 14.09, 97.13 16.33, 94.06 17.09 M98.34 12.82 C100.01 17.14, 94.96 15.16, 94.06 17.09 M94.06 17.09 C66.7 15.8, 37.43 17.53, 4.27 17.09 M94.06 17.09 C70.55 18.02, 47.48 17.32, 4.27 17.09 M4.27 17.09 C0.99 18.82, -1.47 14.66, 0 12.82 M4.27 17.09 C1.18 19.21, -2.25 15.95, 0 12.82 M0 12.82 C-0.77 10.95, 0.3 7.86, 0 4.27 M0 12.82 C0.19 9.98, 0.35 6.24, 0 4.27 M0 4.27 C0.05 1.44, 3.12 -0.57, 4.27 0 M0 4.27 C-1.17 2.13, -0.75 -0.39, 4.27 0" stroke="#1971c2" stroke-width="1" fill="none"></path></g><g transform="translate(325.74859494488396 87.0513495326463) rotate(0 5.782379150390625 5.99384945969868)"><text x="0" y="0" font-family="Helvetica, Segoe UI Emoji" font-size="10.424086016867259px" fill="#1971c2" text-anchor="start" style="white-space: pre;" direction="ltr" dominant-baseline="text-before-edge">....</text></g><g transform="translate(323.81410885956257 115.10139776980463) rotate(0 5.782379150390625 5.993849459698673)"><text x="0" y="0" font-family="Helvetica, Segoe UI Emoji" font-size="10.424086016867259px" fill="#1971c2" text-anchor="start" style="white-space: pre;" direction="ltr" dominant-baseline="text-before-edge">....</text></g><g transform="translate(320.55192781868027 143.13474504310796) rotate(0 5.782379150390625 5.993849459698673)"><text x="0" y="0" font-family="Helvetica, Segoe UI Emoji" font-size="10.424086016867259px" fill="#1971c2" text-anchor="start" style="white-space: pre;" direction="ltr" dominant-baseline="text-before-edge">....</text></g><g transform="translate(248.61223630127643 54.684197151706826) rotate(0 50.93035125732422 9.094927781162696)"><text x="0" y="0" font-family="Helvetica, Segoe UI Emoji" font-size="15.817265706369897px" fill="#1971c2" text-anchor="start" style="white-space: pre;" direction="ltr" dominant-baseline="text-before-edge">LevelDB Table</text></g><g stroke-linecap="round" transform="translate(17.82477089017334 72.47814610798588) rotate(0 76.78548334811364 54.734720816640916)"><path d="M27.37 0 M27.37 0 C51.12 -0.88, 76.92 1.71, 126.2 0 M27.37 0 C63.97 0.03, 99.16 -0.06, 126.2 0 M126.2 0 C145.02 0.28, 152.57 9.79, 153.57 27.37 M126.2 0 C146.69 1.91, 152.49 8.32, 153.57 27.37 M153.57 27.37 C151.59 39.46, 153.56 54.37, 153.57 82.1 M153.57 27.37 C154.83 46.12, 154.32 66.51, 153.57 82.1 M153.57 82.1 C155.05 100.66, 145.73 111.43, 126.2 109.47 M153.57 82.1 C155.6 100.35, 143.75 108.9, 126.2 109.47 M126.2 109.47 C99.5 106.78, 76.26 107.65, 27.37 109.47 M126.2 109.47 C100.9 108.98, 78.29 109.9, 27.37 109.47 M27.37 109.47 C10.51 108.95, -1.62 98.7, 0 82.1 M27.37 109.47 C10.16 111.77, -2.1 102.16, 0 82.1 M0 82.1 C0.32 64.71, 0.47 49.7, 0 27.37 M0 82.1 C-0.57 67.18, -0.68 53.55, 0 27.37 M0 27.37 C-0.17 10.34, 11.09 0.23, 27.37 0 M0 27.37 C-1.75 7.6, 8.3 0.97, 27.37 0" stroke="#1971c2" stroke-width="1" fill="none"></path></g><g stroke-linecap="round" transform="translate(96.88967564007464 80.8841740865592) rotate(0 19.891505030811913 10)"><path d="M5 0 M5 0 C14.21 -0.19, 20.52 -1.49, 34.78 0 M5 0 C15.8 -0.8, 28.36 0.68, 34.78 0 M34.78 0 C38.78 0.99, 40.54 -0.1, 39.78 5 M34.78 0 C38.34 1.85, 40.45 -0.44, 39.78 5 M39.78 5 C39.75 6.96, 40.24 10.43, 39.78 15 M39.78 5 C39.68 7.93, 39.58 10.21, 39.78 15 M39.78 15 C38.67 16.66, 36.69 18.71, 34.78 20 M39.78 15 C41.12 19.77, 36.11 22.14, 34.78 20 M34.78 20 C25.24 20.61, 12.54 19.04, 5 20 M34.78 20 C24.39 19.9, 14.28 19.48, 5 20 M5 20 C3.06 18.44, -0.81 18.74, 0 15 M5 20 C3.05 21.28, 1.13 18.74, 0 15 M0 15 C0.29 11.75, 0.23 7.67, 0 5 M0 15 C-0.24 10.9, -0.3 7.43, 0 5 M0 5 C-1.98 0.5, -0.04 1.12, 5 0 M0 5 C-0.97 0.43, -0.59 1.18, 5 0" stroke="#1971c2" stroke-width="1" fill="none"></path></g><g transform="translate(113.636023810535 86.53490912517921) rotate(0 3.1451568603515625 4.349264961379973)"><text x="3.1451568603515625" y="0" font-family="Helvetica, Segoe UI Emoji" font-size="7.563939063269526px" fill="#1971c2" text-anchor="middle" style="white-space: pre;" direction="ltr" dominant-baseline="text-before-edge">...</text></g><g stroke-linecap="round" transform="translate(91.80777651326889 150.8852466213649) rotate(0 19.891505030811913 10)"><path d="M5 0 M5 0 C16.62 0.66, 24.49 0.1, 34.78 0 M5 0 C16.23 -0.1, 27.36 0.28, 34.78 0 M34.78 0 C36.25 0.99, 39.07 1.35, 39.78 5 M34.78 0 C38.31 0.12, 39.29 2.05, 39.78 5 M39.78 5 C38.85 6.86, 39.04 10.72, 39.78 15 M39.78 5 C40.09 9.1, 39.77 12.68, 39.78 15 M39.78 15 C40.36 18.62, 37.12 20.67, 34.78 20 M39.78 15 C42.02 20.24, 37.04 19.2, 34.78 20 M34.78 20 C26.2 19.4, 21.15 21.41, 5 20 M34.78 20 C25.18 19.34, 14.08 20.27, 5 20 M5 20 C3.15 20.31, 1.28 20.3, 0 15 M5 20 C3.7 20, -0.69 17.77, 0 15 M0 15 C-0.66 11.56, 0.48 9.41, 0 5 M0 15 C-0.38 12.04, 0.49 10.03, 0 5 M0 5 C1.39 1.14, 0.05 -1.65, 5 0 M0 5 C1.04 3.97, -0.44 1.81, 5 0" stroke="#1971c2" stroke-width="1" fill="none"></path></g><g transform="translate(107.50573906361205 156.53598165998494) rotate(0 4.19354248046875 4.34926496137998)"><text x="4.19354248046875" y="0" font-family="Helvetica, Segoe UI Emoji" font-size="7.563939063269526px" fill="#1971c2" text-anchor="middle" style="white-space: pre;" direction="ltr" dominant-baseline="text-before-edge">....</text></g><g stroke-linecap="round" transform="translate(28.343584402459214 150.3402738807947) rotate(0 19.891505030811913 10)"><path d="M5 0 M5 0 C16.67 0.55, 23.29 -0.24, 34.78 0 M5 0 C11.89 0.49, 20.29 -0.16, 34.78 0 M34.78 0 C38.29 0.11, 39.35 2, 39.78 5 M34.78 0 C37.13 -2.18, 38.51 -0.25, 39.78 5 M39.78 5 C40.34 6.42, 40.65 10.35, 39.78 15 M39.78 5 C39.94 9.02, 39.55 13.06, 39.78 15 M39.78 15 C41.73 19.99, 37.18 19.3, 34.78 20 M39.78 15 C38.3 16.58, 39.72 18.2, 34.78 20 M34.78 20 C28.16 21.16, 19.67 22.16, 5 20 M34.78 20 C28.7 20.22, 21.79 21.05, 5 20 M5 20 C3.43 20, -0.6 17.84, 0 15 M5 20 C0.71 21.8, -2.28 16.99, 0 15 M0 15 C-0.59 11.87, 0.46 9.75, 0 5 M0 15 C0.27 12.87, -0.48 10.59, 0 5 M0 5 C0.9 3.67, -0.16 1.57, 5 0 M0 5 C-0.29 3.32, 2.78 0.82, 5 0" stroke="#1971c2" stroke-width="1" fill="none"></path></g><g transform="translate(45.089932572919565 155.99100891941475) rotate(0 3.1451568603515625 4.34926496137998)"><text x="3.1451568603515625" y="0" font-family="Helvetica, Segoe UI Emoji" font-size="7.563939063269526px" fill="#1971c2" text-anchor="middle" style="white-space: pre;" direction="ltr" dominant-baseline="text-before-edge">...</text></g><g stroke-linecap="round" transform="translate(66.96404494893761 116.01816107625825) rotate(0 19.891505030811913 10)"><path d="M5 0 M5 0 C14.05 -0.57, 24.61 -1.84, 34.78 0 M5 0 C15.49 0.1, 25.6 0.22, 34.78 0 M34.78 0 C37.26 -1.9, 38.67 0, 39.78 5 M34.78 0 C36.48 -1.49, 41.12 3.1, 39.78 5 M39.78 5 C40.82 7.27, 40.74 9.54, 39.78 15 M39.78 5 C40.22 8.56, 39.5 11.11, 39.78 15 M39.78 15 C38.5 16.81, 39.51 18.44, 34.78 20 M39.78 15 C38.86 18.8, 39.5 21.28, 34.78 20 M34.78 20 C22.96 21.25, 14.41 21.77, 5 20 M34.78 20 C26.27 20.29, 15.68 20.05, 5 20 M5 20 C0.83 21.56, -1.98 17.17, 0 15 M5 20 C-0.3 21.29, -0.97 17.1, 0 15 M0 15 C-1.05 13.77, -0.13 11.65, 0 5 M0 15 C0.31 12.76, -0.38 9.92, 0 5 M0 5 C-0.25 3.1, 2.64 0.72, 5 0 M0 5 C-1.9 2.66, 0.6 -0.89, 5 0" stroke="#1971c2" stroke-width="1" fill="none"></path></g><g transform="translate(83.71039311939796 121.66889611487828) rotate(0 3.1451568603515625 4.34926496137998)"><text x="3.1451568603515625" y="0" font-family="Helvetica, Segoe UI Emoji" font-size="7.563939063269526px" fill="#1971c2" text-anchor="middle" style="white-space: pre;" direction="ltr" dominant-baseline="text-before-edge">...</text></g><g stroke-linecap="round"><g transform="translate(115.67046864746794 96.74496532314822) rotate(0 -14.984804262183957 10.263860471973715)"><path d="M-1.12 0.59 C-5.94 3.8, -24.68 16.08, -29.29 19.23 M0.49 -0.14 C-4.49 3.25, -25.47 17.17, -30.46 20.67" stroke="#1971c2" stroke-width="1" fill="none"></path></g></g><mask></mask><g stroke-linecap="round"><g transform="translate(83.57689366225793 132.34456110506193) rotate(0 -17.423490578930227 9.454698643606271)"><path d="M-0.43 -0.19 C-6.16 2.82, -29.59 15.51, -35.5 18.67 M1.54 -1.33 C-4.24 1.84, -30.01 16.65, -36.39 20.24" stroke="#1971c2" stroke-width="1" fill="none"></path></g></g><mask></mask><g stroke-linecap="round"><g transform="translate(92.7464865151752 132.61425501250065) rotate(0 10.007165606281148 9.200875495012006)"><path d="M0.1 0.06 C3.73 3.32, 17.82 16.36, 21.32 19.35 M-1.3 -0.95 C2.18 1.94, 16.68 14.05, 20.23 17.33" stroke="#1971c2" stroke-width="1" fill="none"></path></g></g><mask></mask><g stroke-linecap="round" transform="translate(122.8832013142495 116.88544203281677) rotate(0 19.891505030811913 10)"><path d="M5 0 M5 0 C10.99 1.37, 20.82 -1.53, 34.78 0 M5 0 C16.84 0.58, 28.69 -0.14, 34.78 0 M34.78 0 C37.12 0.67, 41.73 3.32, 39.78 5 M34.78 0 C37.04 -0.8, 38.3 -0.09, 39.78 5 M39.78 5 C39.91 9.3, 40.26 12.89, 39.78 15 M39.78 5 C40.12 8.28, 40.25 11.43, 39.78 15 M39.78 15 C41.07 20.3, 39.88 20, 34.78 20 M39.78 15 C39.09 17.77, 37.16 21.8, 34.78 20 M34.78 20 C29.92 18.9, 21.74 17.79, 5 20 M34.78 20 C25.12 19.62, 14.56 19.44, 5 20 M5 20 C0.05 18.35, 0.9 20.33, 0 15 M5 20 C-0.44 21.81, -0.29 19.98, 0 15 M0 15 C0.4 11.05, -0.42 8.23, 0 5 M0 15 C-0.24 11.74, 0 8.71, 0 5 M0 5 C1.97 1.9, 0.14 -1.33, 5 0 M0 5 C-0.82 2.64, 2.19 -0.63, 5 0" stroke="#1971c2" stroke-width="1" fill="none"></path></g><g transform="translate(139.62954948470986 122.5361770714368) rotate(0 3.1451568603515625 4.34926496137998)"><text x="3.1451568603515625" y="0" font-family="Helvetica, Segoe UI Emoji" font-size="7.563939063269526px" fill="#1971c2" text-anchor="middle" style="white-space: pre;" direction="ltr" dominant-baseline="text-before-edge">...</text></g><g stroke-linecap="round"><g transform="translate(116.88409123094232 97.55404704546442) rotate(0 15.048787549247777 11.144298216186925)"><path d="M-1.05 1.12 C4.03 4.6, 25.91 18.23, 31.14 21.63 M0.61 0.66 C5.54 3.76, 25.84 16.93, 30.69 20.11" stroke="#1971c2" stroke-width="1" fill="none"></path></g></g><mask></mask><g transform="translate(67.14351805595481 53.94349779640601) rotate(0 23.55078125 9.200000000000003)"><text x="0" y="0" font-family="Helvetica, Segoe UI Emoji" font-size="16px" fill="#1971c2" text-anchor="start" style="white-space: pre;" direction="ltr" dominant-baseline="text-before-edge">MMPT</text></g><g stroke-linecap="round" transform="translate(10 30.19541406359872) rotate(0 207.0536050454133 91.46722875214053)"><path d="M32 0 M32 0 C140.04 1.8, 250.81 0.42, 382.11 0 M32 0 C105.36 1.53, 179.59 1.55, 382.11 0 M382.11 0 C402.02 -1.74, 413.09 9.86, 414.11 32 M382.11 0 C401.14 2.17, 413.73 9.92, 414.11 32 M414.11 32 C413.13 76.94, 414.06 121.52, 414.11 150.93 M414.11 32 C412.23 79.14, 413.32 126.2, 414.11 150.93 M414.11 150.93 C415.41 171.59, 403.05 184.12, 382.11 182.93 M414.11 150.93 C415.62 174.19, 403.12 180.83, 382.11 182.93 M382.11 182.93 C260.39 181.35, 141.2 183.25, 32 182.93 M382.11 182.93 C270.1 180.93, 158.74 181.51, 32 182.93 M32 182.93 C8.7 181.78, -1.13 173.37, 0 150.93 M32 182.93 C9.78 181.46, -1.45 173.87, 0 150.93 M0 150.93 C1.38 122.45, -1.15 91.72, 0 32 M0 150.93 C0.83 123.48, 0.95 95.93, 0 32 M0 32 C-1.24 12.48, 10.63 1.13, 32 0 M0 32 C2.09 12.66, 12.26 -0.48, 32 0" stroke="#1971c2" stroke-width="1" fill="none"></path></g><g transform="translate(174.922497864908 10) rotate(0 28.015624999999943 9.200000000000003)"><text x="0" y="0" font-family="Helvetica, Segoe UI Emoji" font-size="16px" fill="#1971c2" text-anchor="start" style="white-space: pre;" direction="ltr" dominant-baseline="text-before-edge">    Table</text></g><g stroke-linecap="round"><g transform="translate(330.59913039289745 228.36222428446098) rotate(0 -11.8891921022622 -22.255577057985413)"><path d="M-0.94 -0.54 C-4.99 -4.01, -22.11 -12.79, -23.2 -20.42 C-24.3 -28.05, -10.15 -42.19, -7.52 -46.3 M0.76 1.79 C-3.58 -1.58, -23.03 -11.45, -24.45 -19.3 C-25.87 -27.16, -10.12 -40.65, -7.76 -45.32" stroke="#1971c2" stroke-width="1" fill="none"></path></g><g transform="translate(330.59913039289745 228.36222428446098) rotate(0 -11.8891921022622 -22.255577057985413)"><path d="M-13.1 -31.97 C-11.66 -35.44, -9.64 -40.82, -7.02 -43.92 M-13.02 -30.64 C-10.87 -35.3, -9.76 -38.36, -7.35 -44.91" stroke="#1971c2" stroke-width="1" fill="none"></path></g><g transform="translate(330.59913039289745 228.36222428446098) rotate(0 -11.8891921022622 -22.255577057985413)"><path d="M-21.04 -38.27 C-16.49 -39.23, -11.39 -42.16, -7.02 -43.92 M-20.96 -36.93 C-16.9 -40.1, -13.86 -41.62, -7.35 -44.91" stroke="#1971c2" stroke-width="1" fill="none"></path></g></g><mask></mask><g stroke-linecap="round"><g transform="translate(101.29858034466508 227.76935411864181) rotate(0 2.778290700598518 -21.945291001134912)"><path d="M-0.88 -0.38 C1.2 -3.13, 14.25 -10.32, 13.15 -17.51 C12.05 -24.7, -3.65 -39.18, -7.46 -43.51 M0.85 -1.62 C2.76 -4.18, 13.9 -9.85, 12.48 -16.59 C11.06 -23.33, -3.9 -37.78, -7.66 -42.05" stroke="#1971c2" stroke-width="1" fill="none"></path></g><g transform="translate(101.29858034466508 227.76935411864181) rotate(0 2.778290700598518 -21.945291001134912)"><path d="M7.26 -33.47 C0.69 -35.58, -2.72 -41.61, -7.25 -42.76 M8.51 -34.31 C3.79 -36.89, -0.95 -38.52, -7.86 -41.49" stroke="#1971c2" stroke-width="1" fill="none"></path></g><g transform="translate(101.29858034466508 227.76935411864181) rotate(0 2.778290700598518 -21.945291001134912)"><path d="M-1.38 -25.36 C-4.81 -30.28, -5.15 -39.19, -7.25 -42.76 M-0.12 -26.2 C-2.56 -30.82, -5.05 -34.57, -7.86 -41.49" stroke="#1971c2" stroke-width="1" fill="none"></path></g></g><mask></mask><g transform="translate(30.779573266205716 225.7460410509336) rotate(0 50.69140625 9.2)"><text x="0" y="0" font-family="Helvetica, Segoe UI Emoji" font-size="16px" fill="#1971c2" text-anchor="start" style="white-space: pre;" direction="ltr" dominant-baseline="text-before-edge">Integrity Layer</text></g><g transform="translate(247.85190113639737 227.23029628423402) rotate(0 64.03125 9.2)"><text x="0" y="0" font-family="Helvetica, Segoe UI Emoji" font-size="16px" fill="#1971c2" text-anchor="start" style="white-space: pre;" direction="ltr" dominant-baseline="text-before-edge">Persistence Layer</text></g><g stroke-linecap="round"><g transform="translate(172.15488423807403 125.55881280315288) rotate(0 18.404593675330602 -5.32663613275664)"><path d="M0.94 -0.35 C4.05 -1.94, 11.81 -10.17, 17.8 -10.3 C23.78 -10.42, 33.94 -2.68, 36.84 -1.1 M-0.03 -1.59 C3.54 -2.98, 14.05 -9.02, 20.11 -9.3 C26.17 -9.57, 33.87 -4.29, 36.32 -3.24" stroke="#1971c2" stroke-width="1" fill="none"></path></g><g transform="translate(172.15488423807403 125.55881280315288) rotate(0 18.404593675330602 -5.32663613275664)"><path d="M6.12 -9 C4.28 -6.13, 4.17 -5.66, 1.49 0.52 M6.4 -7.96 C5.19 -6.17, 3.22 -3.7, 1 -0.58" stroke="#1971c2" stroke-width="1" fill="none"></path></g><g transform="translate(172.15488423807403 125.55881280315288) rotate(0 18.404593675330602 -5.32663613275664)"><path d="M10.01 -3.61 C7.32 -1.94, 6.33 -2.69, 1.49 0.52 M10.29 -2.56 C8.03 -2.19, 5.03 -1.16, 1 -0.58" stroke="#1971c2" stroke-width="1" fill="none"></path></g><g transform="translate(172.15488423807403 125.55881280315288) rotate(0 18.404593675330602 -5.32663613275664)"><path d="M26.4 -5.2 C28.05 -3.97, 31.38 -5.02, 36.87 -2.37 M26.68 -4.15 C29.49 -4.23, 31.55 -3.55, 36.38 -3.47" stroke="#1971c2" stroke-width="1" fill="none"></path></g><g transform="translate(172.15488423807403 125.55881280315288) rotate(0 18.404593675330602 -5.32663613275664)"><path d="M29.52 -11.07 C30.41 -8.49, 33.03 -8.2, 36.87 -2.37 M29.8 -10.03 C31.78 -8.52, 33.01 -6.27, 36.38 -3.47" stroke="#1971c2" stroke-width="1" fill="none"></path></g></g><mask></mask></svg>