<?xml version="1.0" encoding="UTF-8"?>
<svg id="Layer_1" data-name="Layer 1" xmlns="http://www.w3.org/2000/svg" xmlns:xlink="http://www.w3.org/1999/xlink" viewBox="0 0 605.47 590.23">
  <defs>
    <style>
      .cls-1 {
        fill: url(#New_Gradient_Swatch_2);
      }

      .cls-1, .cls-2, .cls-3, .cls-4, .cls-5, .cls-6, .cls-7, .cls-8, .cls-9, .cls-10, .cls-11, .cls-12 {
        stroke-width: 2px;
      }

      .cls-1, .cls-2, .cls-3, .cls-5, .cls-7, .cls-8, .cls-9, .cls-10, .cls-11, .cls-12 {
        stroke-miterlimit: 10;
      }

      .cls-1, .cls-2, .cls-3, .cls-5, .cls-7, .cls-11, .cls-12 {
        stroke: #0b1117;
      }

      .cls-1, .cls-11 {
        stroke-linecap: square;
      }

      .cls-2, .cls-4, .cls-6, .cls-8 {
        fill: none;
      }

      .cls-13 {
        fill: #0b1117;
      }

      .cls-3 {
        fill: #fda971;
      }

      .cls-4, .cls-6 {
        stroke-linejoin: round;
      }

      .cls-4, .cls-9, .cls-10 {
        stroke: #000;
      }

      .cls-5, .cls-14 {
        fill: #fff;
      }

      .cls-6 {
        stroke: #fff;
        stroke-linecap: round;
      }

      .cls-7 {
        fill: #66dbff;
      }

      .cls-8 {
        stroke: #081c29;
      }

      .cls-9 {
        fill: #e9effb;
      }

      .cls-10 {
        fill: #57bef9;
      }

      .cls-15 {
        fill: #171719;
      }

      .cls-11 {
        fill: url(#New_Gradient_Swatch_2-2);
      }

      .cls-16 {
        fill: #656b6d;
      }

      .cls-12 {
        fill: #6fb;
      }

      .cls-17 {
        fill: #283741;
      }
    </style>
    <linearGradient id="New_Gradient_Swatch_2" data-name="New Gradient Swatch 2" x1="264.2" y1="191.05" x2="425.71" y2="191.05" gradientUnits="userSpaceOnUse">
      <stop offset="0" stop-color="#00ffcf"/>
      <stop offset="1" stop-color="#00bdff"/>
    </linearGradient>
    <linearGradient id="New_Gradient_Swatch_2-2" data-name="New Gradient Swatch 2" x1="319.71" y1="442.26" x2="370.21" y2="442.26" xlink:href="#New_Gradient_Swatch_2"/>
  </defs>
  <g>
    <g>
      <g>
        <path d="M586.66,443.99v-3h7.36s0,3,0,3v-1.5,1.5s-7.36,0-7.36,0ZM579.34,443.99h-7.32v-3h7.32v3ZM564.7,443.99h-7.32v-3h7.32v3ZM550.07,443.99h-7.32v-3h7.32v3ZM535.43,443.99h-7.32v-3h7.32v3ZM520.8,443.99h-7.32v-3h7.32v3ZM506.16,443.99h-7.32v-3h7.32v3ZM491.53,443.99h-7.32v-3h7.32v3ZM476.89,443.99h-7.32v-3h7.32v3ZM462.26,443.99h-7.32v-3h7.32v3ZM447.62,443.99h-7.32v-3h7.32v3ZM432.99,443.99h-7.32v-3h7.32v3ZM418.35,443.99h-7.32v-3h7.32v3ZM403.72,443.99h-7.32v-3h7.32v3ZM389.08,443.99h-7.32v-3h7.32v3ZM374.45,443.99h-7.32v-3h7.32v3ZM359.81,443.99h-7.32v-3h7.32v3ZM345.18,443.99h-7.32v-3h7.32v3ZM330.54,443.99h-7.32v-3h7.32v3ZM315.91,443.99h-7.32v-3h7.32v3ZM301.27,443.99h-7.32v-3h7.32v3ZM286.64,443.99h-7.32v-3h7.32v3ZM272,443.99h-7.32v-3h7.32v3ZM257.37,443.99h-7.32v-3h7.32v3ZM242.73,443.99h-7.32v-3h7.32v3ZM228.1,443.99h-7.32v-3h7.32v3ZM213.46,443.99h-7.32v-3h7.32v3ZM198.83,443.99h-7.32v-3h7.32v3ZM184.19,443.99h-7.32v-3h7.32v3ZM169.56,443.99h-7.32v-3h7.32v3ZM154.92,443.99h-7.32v-3h7.32v3ZM140.29,443.99h-7.32v-3h7.32v3ZM125.65,443.99h-7.32v-3h7.32v3ZM111.02,443.99h-7.32v-3h7.32v3ZM96.38,443.99h-.44c-2.66,0-5.25-.93-7.3-2.61l1.91-2.32c1.51,1.24,3.43,1.93,5.39,1.93h.44v3ZM601.69,441.02l-2.01-2.22c1.56-1.41,2.54-3.34,2.75-5.42l2.98.31c-.29,2.82-1.61,5.43-3.72,7.34ZM84.57,434.23c-.09-.57-.13-1.16-.13-1.74v-5.8h3v5.8c0,.43.03.86.1,1.29l-2.97.45ZM605.47,426.21h-3v-7.32h3v7.32ZM87.44,419.38h-3v-7.32h3v7.32ZM605.47,411.57h-3v-7.32h3v7.32ZM87.44,404.74h-3v-7.32h3v7.32ZM605.47,396.94h-3v-7.32h3v7.32ZM87.44,390.11h-3v-7.32h3v7.32ZM605.47,382.3h-3v-7.32h3v7.32ZM87.44,375.47h-3v-7.32h3v7.32ZM605.47,367.67h-3v-7.32h3v7.32ZM87.44,360.84h-3v-7.32h3v7.32ZM605.47,353.03h-3v-7.32h3v7.32ZM87.44,346.2h-3v-7.32h3v7.32ZM605.47,338.4h-3v-7.32h3v7.32ZM87.44,331.56h-3v-7.32h3v7.32ZM605.47,323.76h-3v-7.32h3v7.32ZM87.44,316.93h-3v-7.32h3v7.32ZM605.47,309.13h-3v-7.32h3v7.32ZM87.44,302.3h-3v-7.32h3v7.32ZM605.47,294.49h-3v-7.32h3v7.32ZM87.44,287.66h-3v-7.32h3v7.32ZM605.47,279.86h-3v-7.32h3v7.32ZM87.44,273.02h-3v-7.32h3v7.32ZM605.47,265.22h-3v-7.32h3v7.32ZM87.44,258.39h-3v-7.32h3v7.32ZM605.47,250.59h-3v-7.32h3v7.32ZM87.44,243.76h-3v-7.32h3v7.32ZM605.47,235.95h-3v-7.32h3v7.32ZM87.44,229.12h-3v-7.32h3v7.32ZM605.47,221.32h-3v-7.32h3v7.32ZM87.44,214.48h-3v-7.32h3v7.32ZM605.47,206.68h-3v-5.78c0-.44-.03-.88-.1-1.31l2.96-.46c.09.58.13,1.17.13,1.76v5.78ZM87.49,200.01l-2.98-.31c.3-2.82,1.62-5.42,3.74-7.33l2.01,2.23c-1.56,1.41-2.54,3.33-2.76,5.42ZM599.35,194.33c-1.51-1.24-3.42-1.92-5.38-1.92h-.46v-3h.46c2.65,0,5.23.92,7.28,2.6l-1.9,2.32ZM586.19,192.41h-7.32v-3h7.32v3ZM571.56,192.41h-7.32v-3h7.32v3ZM556.92,192.41h-7.32v-3h7.32v3ZM542.29,192.41h-7.32v-3h7.32v3ZM527.65,192.41h-7.32v-3h7.32v3ZM513.02,192.41h-7.32v-3h7.32v3ZM498.38,192.41h-7.32v-3h7.32v3ZM483.75,192.41h-7.32v-3h7.32v3ZM469.11,192.41h-7.32v-3h7.32v3ZM454.48,192.41h-7.32v-3h7.32v3ZM439.84,192.41h-7.32v-3h7.32v3ZM425.21,192.41h-7.32v-3h7.32v3ZM410.57,192.41h-7.32v-3h7.32v3ZM395.94,192.41h-7.32v-3h7.32v3ZM381.3,192.41h-7.32v-3h7.32v3ZM366.67,192.41h-7.32v-3h7.32v3ZM352.03,192.41h-7.32v-3h7.32v3ZM337.4,192.41h-7.32v-3h7.32v3ZM322.76,192.41h-7.32v-3h7.32v3ZM308.13,192.41h-7.32v-3h7.32v3ZM293.49,192.41h-7.32v-3h7.32v3ZM278.86,192.41h-7.32v-3h7.32v3ZM264.22,192.41h-7.32v-3h7.32v3ZM249.59,192.41h-7.32v-3h7.32v3ZM234.95,192.41h-7.32v-3h7.32v3ZM220.32,192.41h-7.32v-3h7.32v3ZM205.68,192.41h-7.32v-3h7.32v3ZM191.05,192.41h-7.32v-3h7.32v3ZM176.41,192.41h-7.32v-3h7.32v3ZM161.78,192.41h-7.32v-3h7.32v3ZM147.14,192.41h-7.32v-3h7.32v3ZM132.51,192.41h-7.32v-3h7.32v3ZM117.87,192.41h-7.32v-3h7.32v3ZM103.24,192.41h-7.3l-.02-3h7.32v3Z"/>
        <g>
          <rect class="cls-1" x="264.2" y="169.4" width="161.51" height="43.3" rx="21.65" ry="21.65"/>
          <g>
            <g>
              <path d="M309.85,186.19c2.52,0,4.55,2.04,4.55,4.55h4.55c0-5.03-4.08-9.11-9.11-9.11s-9.11,4.08-9.11,9.11h4.55c0-2.52,2.04-4.55,4.55-4.55Z"/>
              <path d="M305.3,190.74c0,2.52-2.04,4.55-4.55,4.55v4.55c5.03,0,9.11-4.08,9.11-9.11h-4.55Z"/>
              <path d="M318.96,195.3c-2.52,0-4.55-2.04-4.55-4.55h-4.55c0,5.03,4.08,9.11,9.11,9.11v-4.55Z"/>
            </g>
            <g>
              <path d="M326.92,181.63h3.28l-.05,10.8,5.85-6.71h3.72l-4.86,5.52,5.15,8.61h-3.8l-3.54-6.11-2.52,2.86.05,3.25h-3.28v-18.21Z"/>
              <path d="M341.18,181.63h3.33v18.21h-3.33v-18.21Z"/>
              <path d="M346.3,196.25c0-2.78,2.91-3.72,5.91-4.63,2.21-.68,3.28-1.2,3.28-2.24s-.88-1.64-2.5-1.64c-1.82,0-3.02,1.04-3.33,2.78h-3.07c.42-3.04,2.91-5.13,6.48-5.13s5.7,1.69,5.7,4.84v9.6h-3.28v-1.59c-1.07,1.17-2.65,1.82-4.45,1.82-2.91,0-4.74-1.51-4.74-3.83ZM351.9,197.84c1.35,0,2.76-.55,3.59-1.48v-3.9c-.6.49-1.53.81-2.6,1.17-1.9.62-3.33,1.12-3.33,2.52,0,1.09.91,1.69,2.34,1.69Z"/>
              <path d="M359.24,185.72h3.51l1.87,5.44,1.85,5.41,1.87-5.41,1.9-5.44h3.36l-5.31,14.13h-3.75l-5.31-14.13Z"/>
              <path d="M373.78,192.79c0-4.58,2.81-7.44,6.84-7.44s6.69,2.71,6.69,7.49v.26h-10.25c.1,3.04,1.46,4.68,3.56,4.68,1.72,0,2.91-1.09,3.38-3.23h3.15c-.62,3.54-3.02,5.62-6.56,5.62-4.06,0-6.82-2.78-6.82-7.39ZM377.19,191.13h6.79c-.44-2.21-1.67-3.38-3.38-3.38s-2.99,1.2-3.41,3.38Z"/>
            </g>
          </g>
        </g>
      </g>
      <g>
        <circle class="cls-11" cx="344.96" cy="442.26" r="25.25"/>
        <g>
          <rect class="cls-8" x="334.95" y="440.56" width="20.02" height="14.35" rx="2.85" ry="2.85"/>
          <path class="cls-8" d="M339.29,440.56v-5.27c0-3.13,2.54-5.67,5.67-5.67h0c3.13,0,5.67,2.54,5.67,5.67v5.27"/>
          <line class="cls-8" x1="344.96" y1="446.92" x2="344.96" y2="449.61"/>
        </g>
      </g>
    </g>
    <g>
      <rect class="cls-9" x="139.57" y="469.14" width="66.46" height="173.72" rx="5" ry="5" transform="translate(728.8 383.2) rotate(90)"/>
      <rect class="cls-5" x="311.73" y="487.95" width="66.46" height="136.09" rx="5" ry="5" transform="translate(900.96 211.04) rotate(90)"/>
      <rect class="cls-5" x="483.89" y="469.14" width="66.46" height="173.72" rx="5" ry="5" transform="translate(1073.11 38.88) rotate(90)"/>
      <g>
        <path class="cls-15" d="M170.23,538.81h5.91c2.7,0,4.36,1.46,4.36,3.85s-1.64,3.84-4.32,3.84h-3.55v4.92h-2.4v-12.6ZM172.63,540.7v3.94h3.35c1.35,0,2.14-.67,2.14-1.96s-.79-1.98-2.14-1.98h-3.35Z"/>
        <path class="cls-15" d="M181.72,541.64h2.3v1.55c.63-1.1,1.64-1.71,2.93-1.71h.23v2.11c-.23-.04-.47-.05-.7-.05-1.03,0-1.98.41-2.47,1.21v6.68h-2.3v-9.78Z"/>
        <path class="cls-15" d="M188.41,538.86h2.3v1.96h-2.3v-1.96ZM188.41,541.64h2.3v9.78h-2.3v-9.78Z"/>
        <path class="cls-15" d="M191.6,541.64h2.43l1.3,3.76,1.28,3.75,1.3-3.75,1.31-3.76h2.32l-3.67,9.78h-2.59l-3.67-9.78Z"/>
        <path class="cls-15" d="M201.45,548.93c0-1.93,2.02-2.58,4.09-3.21,1.53-.47,2.27-.83,2.27-1.55s-.61-1.13-1.73-1.13c-1.26,0-2.09.72-2.3,1.93h-2.12c.29-2.11,2.02-3.55,4.48-3.55s3.94,1.17,3.94,3.35v6.64h-2.27v-1.1c-.74.81-1.84,1.26-3.08,1.26-2.02,0-3.28-1.04-3.28-2.65ZM205.32,550.03c.94,0,1.91-.38,2.49-1.03v-2.7c-.41.34-1.06.56-1.8.81-1.31.43-2.3.77-2.3,1.75,0,.76.63,1.17,1.62,1.17Z"/>
        <path class="cls-15" d="M213.2,549.18v-5.85h-2.3v-1.69h2.3v-1.94h2.27v1.94h2.86v1.69h-2.86v5.44c0,.65.34.94,1.13.94h1.73v1.71h-2.79c-1.58,0-2.34-.79-2.34-2.23Z"/>
        <path class="cls-15" d="M218.96,546.53c0-3.17,1.94-5.15,4.74-5.15,2.65,0,4.63,1.87,4.63,5.19v.18h-7.09c.07,2.11,1.01,3.24,2.47,3.24,1.19,0,2.02-.76,2.34-2.23h2.18c-.43,2.45-2.09,3.89-4.54,3.89-2.81,0-4.72-1.93-4.72-5.11ZM221.32,545.38h4.7c-.31-1.53-1.15-2.34-2.34-2.34s-2.07.83-2.36,2.34Z"/>
        <path class="cls-15" d="M170.23,560.41h6.14c2.56,0,4.12,1.3,4.12,3.46,0,1.4-.67,2.48-1.87,3.02,1.12.36,1.48,1.24,1.51,2.5.04,1.48.11,2.67.52,3.62h-2.47c-.36-.68-.4-1.64-.43-3.66-.02-1.1-.49-1.55-1.55-1.55h-3.58v5.2h-2.4v-12.6ZM172.63,562.3v3.65h3.56c1.19,0,1.94-.65,1.94-1.84s-.76-1.82-1.94-1.82h-3.56Z"/>
        <path class="cls-15" d="M185.97,560.41h2.86l4.66,12.6h-2.63l-1.01-2.9h-5.08l-1.01,2.9h-2.47l4.66-12.6ZM185.39,568.31h3.85l-.16-.47-1.76-5.2-1.76,5.2-.16.47Z"/>
        <path class="cls-15" d="M202.69,571c-.85,1.44-2.2,2.21-3.94,2.21-3.2,0-5.38-2.3-5.38-6.5s2.32-6.54,5.8-6.54c3.04,0,5.19,1.76,5.67,4.9h-2.41c-.36-1.94-1.64-2.99-3.26-2.99-2.05,0-3.35,1.58-3.35,4.63s1.31,4.61,3.35,4.61c1.73,0,3.01-1.13,3.38-3.28h-3.28v-1.85h5.6v6.82h-2.18v-2.02Z"/>
      </g>
      <g>
        <path d="M142.39,547.44l-.04-.03-1.61.67.55.23c.68.29,1.09.87,1.09,1.57s-.41,1.28-1.09,1.57l-15.24,6.35-15.24-6.35c-.68-.29-1.09-.87-1.09-1.57s.41-1.28,1.09-1.57l.55-.23-1.61-.67-.04.03c-.82.57-1.29,1.46-1.29,2.43,0,1.22.73,2.28,1.9,2.77l15.71,6.55.04.02,15.75-6.56c1.17-.49,1.9-1.55,1.9-2.77,0-.98-.47-1.87-1.29-2.43Z"/>
        <path d="M110.3,544.15l15.71,6.55.04.02,15.75-6.56c1.17-.49,1.9-1.55,1.9-2.77s-.73-2.28-1.9-2.77l-15.71-6.55-.04-.02-15.75,6.56c-1.17.49-1.9,1.55-1.9,2.77s.73,2.28,1.9,2.77ZM110.8,539.81h0l15.24-6.35,15.24,6.35c.68.29,1.09.87,1.09,1.57s-.41,1.28-1.09,1.57l-15.24,6.35-15.24-6.35c-.68-.29-1.09-.87-1.09-1.57s.41-1.28,1.09-1.57Z"/>
        <path d="M131.28,570.18h-.65v-2.64l-1.19.47v2.16h-7.1v-4.05c0-1.93,1.53-3.38,3.55-3.38.85,0,1.61.26,2.21.7l1.22-.49c-.86-.86-2.07-1.4-3.43-1.4-2.66,0-4.74,2.01-4.74,4.57v4.05h-.42c-1.47,0-2.67,1.2-2.67,2.67v6.33c0,1.47,1.2,2.67,2.67,2.67h10.54c1.47,0,2.67-1.2,2.67-2.67v-6.33c0-1.47-1.2-2.67-2.67-2.67ZM120.81,580.68c-.82,0-1.49-.67-1.49-1.49v-6.33c0-.82.67-1.49,1.49-1.49h10.42c.82,0,1.49.67,1.49,1.49v6.33c0,.82-.67,1.49-1.49,1.49h-10.42Z"/>
        <rect x="125.3" y="574.06" width="1.19" height="3.93"/>
        <path d="M119.86,563.71l-9.05-3.77c-.68-.29-1.09-.87-1.09-1.57s.41-1.28,1.09-1.57l1.04-.43-1.68-.7-.04.02c-1.07.53-1.71,1.53-1.71,2.68,0,1.22.73,2.28,1.9,2.77l9.19,3.83c.08-.44.2-.86.37-1.26Z"/>
        <path d="M141.97,555.69l-.04-.02-1.68.7,1.04.43c.68.29,1.09.87,1.09,1.57s-.41,1.28-1.09,1.57l-15.24,6.35-1.8-.75c-.07.18-.12.37-.12.59v.77l1.88.78.04.02,15.75-6.56c1.17-.49,1.9-1.55,1.9-2.77,0-1.15-.64-2.15-1.71-2.68Z"/>
      </g>
      <g>
        <path class="cls-15" d="M484.28,538.72h2.39v12.6h-2.39v-12.6Z"/>
        <path class="cls-15" d="M488.2,541.54h2.3v1.13c.68-.83,1.69-1.33,2.92-1.33,2.09,0,3.46,1.31,3.46,3.31v6.66h-2.29v-6.3c0-1.28-.79-1.96-1.98-1.96-.88,0-1.66.41-2.11,1.04v7.22h-2.3v-9.78Z"/>
        <path class="cls-15" d="M500.01,549.09v-5.85h-2.3v-1.69h2.3v-1.94h2.27v1.94h2.86v1.69h-2.86v5.44c0,.65.34.94,1.13.94h1.73v1.71h-2.79c-1.58,0-2.34-.79-2.34-2.23Z"/>
        <path class="cls-15" d="M505.77,546.44c0-3.17,1.94-5.15,4.74-5.15,2.65,0,4.63,1.87,4.63,5.19v.18h-7.09c.07,2.11,1.01,3.24,2.47,3.24,1.19,0,2.02-.76,2.34-2.23h2.18c-.43,2.45-2.09,3.89-4.54,3.89-2.81,0-4.72-1.93-4.72-5.11ZM508.13,545.29h4.7c-.31-1.53-1.15-2.34-2.34-2.34s-2.07.83-2.36,2.34Z"/>
        <path class="cls-15" d="M516.41,541.54h2.3v1.55c.63-1.1,1.64-1.71,2.94-1.71h.23v2.11c-.23-.04-.47-.05-.7-.05-1.03,0-1.98.41-2.47,1.21v6.68h-2.3v-9.78Z"/>
        <path class="cls-15" d="M523.1,541.54h2.3v1.13c.68-.83,1.69-1.33,2.92-1.33,2.09,0,3.46,1.31,3.46,3.31v6.66h-2.29v-6.3c0-1.28-.79-1.96-1.98-1.96-.88,0-1.66.41-2.11,1.04v7.22h-2.3v-9.78Z"/>
        <path class="cls-15" d="M533.04,546.44c0-3.17,1.94-5.15,4.74-5.15,2.65,0,4.63,1.87,4.63,5.19v.18h-7.09c.07,2.11,1.01,3.24,2.47,3.24,1.19,0,2.02-.76,2.34-2.23h2.18c-.43,2.45-2.09,3.89-4.54,3.89-2.81,0-4.72-1.93-4.72-5.11ZM535.4,545.29h4.7c-.31-1.53-1.15-2.34-2.34-2.34s-2.07.83-2.36,2.34Z"/>
        <path class="cls-15" d="M545.15,549.09v-5.85h-2.3v-1.69h2.3v-1.94h2.27v1.94h2.86v1.69h-2.86v5.44c0,.65.34.94,1.13.94h1.73v1.71h-2.79c-1.58,0-2.34-.79-2.34-2.23Z"/>
        <path class="cls-15" d="M459.6,560.32h2.38l.92,4.95.9,4.9,1.17-4.9,1.15-4.95h2.29l1.15,4.95,1.17,4.97.9-4.97.92-4.95h2.27l-2.68,12.6h-2.7l-1.13-4.81-1.08-4.83-1.08,4.83-1.13,4.81h-2.72l-2.68-12.6Z"/>
        <path class="cls-15" d="M474.9,568.04c0-3.17,1.94-5.15,4.74-5.15,2.65,0,4.63,1.87,4.63,5.19v.18h-7.09c.07,2.11,1.01,3.24,2.47,3.24,1.19,0,2.02-.76,2.34-2.23h2.18c-.43,2.45-2.09,3.89-4.54,3.89-2.81,0-4.72-1.93-4.72-5.11ZM477.26,566.89h4.7c-.31-1.53-1.15-2.34-2.34-2.34s-2.07.83-2.36,2.34Z"/>
        <path class="cls-15" d="M485.54,560.32h2.3l-.02,4.38c.7-1.13,1.8-1.75,3.15-1.75,2.54,0,4.21,1.93,4.21,5.08s-1.71,5.1-4.21,5.1c-1.35,0-2.45-.61-3.15-1.75v1.55h-2.29v-12.6ZM492.9,568.04c0-2.25-.97-3.44-2.52-3.44s-2.54,1.21-2.54,3.44.99,3.42,2.54,3.42,2.52-1.19,2.52-3.42Z"/>
        <path class="cls-15" d="M496.41,571.21c1.96-1.73,3.37-2.97,4.39-3.92,2.2-2.02,2.54-2.68,2.54-3.62s-.79-1.73-2.07-1.73c-1.46,0-2.43.9-2.81,2.7h-2.27c.45-2.94,2.25-4.54,5.19-4.56,2.47,0,4.34,1.44,4.34,3.42,0,1.21-.38,2.36-3.06,4.65-.9.77-1.94,1.71-3.35,2.97l6.48-.07v1.87h-9.38v-1.71Z"/>
        <path class="cls-15" d="M511.06,569.86c0-1.44.81-2.38,2.72-3.55-1.04-1.06-1.5-2.07-1.5-3.02,0-1.78,1.4-3.19,3.78-3.19,2.12,0,3.66,1.12,3.66,2.77,0,1.46-.88,2.43-2.84,3.58l2.39,2.39c.52-.88.95-2,1.31-3.31h2.3c-.63,2-1.33,3.56-2.18,4.75l2.63,2.63h-3.04l-1.04-1.04c-1.1.86-2.38,1.28-3.91,1.28-2.45,0-4.29-1.28-4.29-3.29ZM515.58,571.46c.86,0,1.66-.32,2.36-.94l-2.95-2.99c-1.15.72-1.6,1.37-1.6,2.2,0,1.04.88,1.73,2.2,1.73ZM515.63,565.23c1.37-.77,1.94-1.39,1.94-2.21,0-.74-.58-1.3-1.55-1.3-.92,0-1.55.59-1.55,1.51,0,.49.25,1.1.94,1.78l.22.22Z"/>
        <path class="cls-15" d="M527.58,560.32h2.38l.92,4.95.9,4.9,1.17-4.9,1.15-4.95h2.29l1.15,4.95,1.17,4.97.9-4.97.92-4.95h2.27l-2.68,12.6h-2.7l-1.13-4.81-1.08-4.83-1.08,4.83-1.13,4.81h-2.72l-2.68-12.6Z"/>
        <path class="cls-15" d="M542.88,568.04c0-3.17,1.94-5.15,4.74-5.15,2.65,0,4.63,1.87,4.63,5.19v.18h-7.09c.07,2.11,1.01,3.24,2.47,3.24,1.19,0,2.02-.76,2.34-2.23h2.18c-.43,2.45-2.09,3.89-4.54,3.89-2.81,0-4.72-1.93-4.72-5.11ZM545.24,566.89h4.7c-.31-1.53-1.15-2.34-2.34-2.34s-2.07.83-2.36,2.34Z"/>
        <path class="cls-15" d="M553.52,560.32h2.3l-.02,4.38c.7-1.13,1.8-1.75,3.15-1.75,2.54,0,4.21,1.93,4.21,5.08s-1.71,5.1-4.21,5.1c-1.35,0-2.45-.61-3.15-1.75v1.55h-2.29v-12.6ZM560.89,568.04c0-2.25-.97-3.44-2.52-3.44s-2.54,1.21-2.54,3.44.99,3.42,2.54,3.42,2.52-1.19,2.52-3.42Z"/>
        <path class="cls-15" d="M564.23,568.45h2.27c.34,2.02,1.37,2.92,3.12,2.92,1.51,0,2.48-.77,2.48-2.09s-.77-2.02-2.12-2.02h-2.09v-1.78h2.03c1.17,0,1.87-.7,1.87-1.8s-.88-1.82-2.29-1.82c-1.6,0-2.57.77-2.92,2.36h-2.27c.36-2.49,2.27-4.14,5.26-4.14,2.72,0,4.54,1.33,4.54,3.44,0,1.26-.72,2.3-1.98,2.77,1.57.45,2.32,1.58,2.32,3.06,0,2.32-1.98,3.8-4.77,3.8-3.19,0-5.13-1.64-5.46-4.7Z"/>
      </g>
      <g>
        <path class="cls-15" d="M312.56,543.95c-.27-2.29-1.55-3.47-3.26-3.47-1.98,0-3.29,1.57-3.29,4.61s1.31,4.61,3.29,4.61c1.75,0,3.02-1.24,3.26-3.6h2.36c-.32,3.55-2.57,5.53-5.65,5.53-3.4,0-5.71-2.32-5.71-6.54s2.32-6.54,5.73-6.54c3.03,0,5.31,1.91,5.64,5.4h-2.36Z"/>
        <path class="cls-15" d="M316.03,546.51c0-3.24,1.94-5.15,4.81-5.15s4.83,1.91,4.83,5.15-1.93,5.11-4.83,5.11-4.81-1.91-4.81-5.11ZM323.36,546.49c0-2.25-.99-3.44-2.52-3.44s-2.5,1.19-2.5,3.44.99,3.44,2.5,3.44,2.52-1.17,2.52-3.44Z"/>
        <path class="cls-15" d="M326.94,541.61h2.3v1.55c.63-1.1,1.64-1.71,2.94-1.71h.23v2.11c-.23-.04-.47-.05-.7-.05-1.03,0-1.98.41-2.47,1.21v6.68h-2.3v-9.78Z"/>
        <path class="cls-15" d="M333.64,541.61h2.29v1.55c.7-1.13,1.8-1.75,3.15-1.75,2.54,0,4.21,1.93,4.21,5.08s-1.71,5.1-4.21,5.1c-1.35,0-2.45-.61-3.15-1.75l.02,4.84h-2.3v-13.07ZM341,546.51c0-2.25-.97-3.44-2.52-3.44s-2.54,1.21-2.54,3.44.99,3.42,2.54,3.42,2.52-1.19,2.52-3.42Z"/>
        <path class="cls-15" d="M344.45,546.51c0-3.24,1.94-5.15,4.81-5.15s4.83,1.91,4.83,5.15-1.93,5.11-4.83,5.11-4.81-1.91-4.81-5.11ZM351.78,546.49c0-2.25-.99-3.44-2.52-3.44s-2.5,1.19-2.5,3.44.99,3.44,2.5,3.44,2.52-1.17,2.52-3.44Z"/>
        <path class="cls-15" d="M355.36,541.61h2.3v1.55c.63-1.1,1.64-1.71,2.94-1.71h.23v2.11c-.23-.04-.47-.05-.7-.05-1.03,0-1.98.41-2.47,1.21v6.68h-2.3v-9.78Z"/>
        <path class="cls-15" d="M361.36,548.9c0-1.93,2.02-2.58,4.09-3.21,1.53-.47,2.27-.83,2.27-1.55s-.61-1.13-1.73-1.13c-1.26,0-2.09.72-2.3,1.93h-2.12c.29-2.11,2.02-3.55,4.48-3.55s3.94,1.17,3.94,3.35v6.64h-2.27v-1.1c-.74.81-1.84,1.26-3.08,1.26-2.02,0-3.28-1.04-3.28-2.65ZM365.23,550c.94,0,1.91-.38,2.48-1.03v-2.7c-.41.34-1.06.56-1.8.81-1.31.43-2.3.77-2.3,1.75,0,.76.63,1.17,1.62,1.17Z"/>
        <path class="cls-15" d="M373.11,549.15v-5.85h-2.3v-1.69h2.3v-1.94h2.27v1.94h2.86v1.69h-2.86v5.44c0,.65.34.94,1.13.94h1.73v1.71h-2.79c-1.58,0-2.34-.79-2.34-2.23Z"/>
        <path class="cls-15" d="M378.87,546.51c0-3.17,1.94-5.15,4.74-5.15,2.65,0,4.63,1.87,4.63,5.19v.18h-7.09c.07,2.11,1.01,3.24,2.47,3.24,1.19,0,2.02-.76,2.34-2.23h2.18c-.43,2.45-2.09,3.89-4.54,3.89-2.81,0-4.72-1.93-4.72-5.11ZM381.23,545.35h4.7c-.31-1.53-1.15-2.34-2.34-2.34s-2.07.83-2.36,2.34Z"/>
        <path class="cls-15" d="M331.86,560.38h2.86l4.66,12.6h-2.63l-1.01-2.9h-5.08l-1.01,2.9h-2.47l4.66-12.6ZM331.28,568.29h3.85l-.16-.47-1.76-5.2-1.76,5.2-.16.47Z"/>
        <path class="cls-15" d="M340.3,560.38h5.91c2.7,0,4.36,1.46,4.36,3.85s-1.64,3.84-4.32,3.84h-3.55v4.92h-2.39v-12.6ZM342.69,562.27v3.94h3.35c1.35,0,2.14-.67,2.14-1.96s-.79-1.98-2.14-1.98h-3.35Z"/>
        <path class="cls-15" d="M351.82,560.38h2.39v12.6h-2.39v-12.6Z"/>
        <path class="cls-15" d="M355.47,569.51h2.14c.25,1.4,1.12,2.11,2.43,2.11s1.93-.5,1.93-1.21c0-.88-1.03-1.21-2.25-1.49-1.84-.45-4.11-.86-4.11-3.04,0-1.66,1.48-2.9,3.93-2.9s4.2,1.28,4.55,3.47h-2.11c-.31-1.3-1.15-1.87-2.43-1.87-1.13,0-1.75.49-1.75,1.08,0,.88,1.15,1.15,2.48,1.48,1.8.43,3.89.92,3.89,3.04,0,1.71-1.55,3.04-4.09,3.04s-4.29-1.22-4.63-3.71Z"/>
      </g>
    </g>
    <g>
      <g>
        <rect class="cls-12" x="298.82" y="239.87" width="50.26" height="92.77" rx="5" ry="5" transform="translate(610.21 -37.7) rotate(90)"/>
        <rect class="cls-12" x="402.18" y="239.87" width="50.26" height="92.77" rx="5" ry="5" transform="translate(713.57 -141.06) rotate(90)"/>
        <rect class="cls-12" x="505.54" y="239.87" width="50.26" height="92.77" rx="5" ry="5" transform="translate(816.93 -244.42) rotate(90)"/>
        <rect class="cls-7" x="350.5" y="249.08" width="50.26" height="196.13" rx="5" ry="5" transform="translate(722.78 -28.49) rotate(90)"/>
        <rect class="cls-3" x="505.54" y="300.76" width="50.26" height="92.77" rx="5" ry="5" transform="translate(877.82 -183.54) rotate(90)"/>
      </g>
      <g>
        <g>
          <path d="M123.61,307.16c2.97,0,5.38,2.41,5.38,5.38h5.38c0-5.94-4.82-10.76-10.76-10.76s-10.76,4.82-10.76,10.76h5.38c0-2.97,2.41-5.38,5.38-5.38Z"/>
          <path d="M118.24,312.54c0,2.97-2.41,5.38-5.38,5.38v5.38c5.94,0,10.76-4.82,10.76-10.76h-5.38Z"/>
          <path d="M134.37,317.92c-2.97,0-5.38-2.41-5.38-5.38h-5.38c0,5.94,4.82,10.76,10.76,10.76v-5.38Z"/>
        </g>
        <g>
          <path d="M143.77,301.78h3.87l-.06,12.75,6.91-7.93h4.39l-5.75,6.51,6.08,10.17h-4.49l-4.18-7.22-2.98,3.38.06,3.84h-3.87v-21.51Z"/>
          <path d="M160.61,301.78h3.93v21.51h-3.93v-21.51Z"/>
          <path d="M166.66,319.05c0-3.29,3.44-4.39,6.97-5.47,2.61-.8,3.87-1.41,3.87-2.64s-1.04-1.94-2.95-1.94c-2.15,0-3.56,1.23-3.93,3.29h-3.63c.49-3.59,3.44-6.05,7.65-6.05s6.73,2,6.73,5.72v11.34h-3.87v-1.87c-1.26,1.38-3.13,2.15-5.25,2.15-3.44,0-5.59-1.78-5.59-4.52ZM173.27,320.93c1.6,0,3.26-.65,4.24-1.75v-4.61c-.71.58-1.81.95-3.07,1.38-2.24.74-3.93,1.32-3.93,2.98,0,1.29,1.08,2,2.77,2Z"/>
          <path d="M181.93,306.61h4.15l2.21,6.42,2.18,6.39,2.21-6.39,2.24-6.42h3.96l-6.27,16.68h-4.42l-6.27-16.68Z"/>
          <path d="M199.11,314.97c0-5.41,3.32-8.79,8.08-8.79s7.9,3.2,7.9,8.85v.31h-12.11c.12,3.6,1.72,5.53,4.21,5.53,2.03,0,3.44-1.29,3.99-3.81h3.72c-.74,4.18-3.56,6.64-7.74,6.64-4.79,0-8.05-3.29-8.05-8.73ZM203.14,313h8.02c-.52-2.61-1.97-3.99-3.99-3.99s-3.53,1.41-4.03,3.99Z"/>
          <path d="M231.25,301.78h4.89l7.96,21.51h-4.49l-1.72-4.95h-8.66l-1.72,4.95h-4.21l7.96-21.51ZM230.27,315.27h6.57l-.28-.8-3.01-8.88-3.01,8.88-.28.8Z"/>
          <path d="M245.66,301.78h4.09v21.51h-4.09v-21.51Z"/>
        </g>
      </g>
      <g>
        <path class="cls-15" d="M324.51,279.84h2.4v10.71h6.72v1.89h-9.11v-12.6Z"/>
        <path class="cls-15" d="M334.9,279.84h2.4v10.71h6.72v1.89h-9.11v-12.6Z"/>
        <path class="cls-15" d="M345.28,279.84h3.47l1.42,4.72,1.39,4.7,1.39-4.7,1.4-4.72h3.48v12.6h-2.23l.02-6.21.05-4.07-1.19,4.07-1.84,6.21h-2.25l-1.84-6.21-1.19-4.07.05,4.07.02,6.21h-2.16v-12.6Z"/>
      </g>
      <g>
        <path class="cls-15" d="M426,288.08h2.38c.25,1.85,1.26,2.72,3.1,2.72s2.63-.68,2.63-1.62c0-1.33-1.67-1.75-3.49-2.23-2.14-.58-4.48-1.28-4.48-3.76,0-2.12,1.82-3.57,4.72-3.57,3.15,0,5.17,1.58,5.49,4.43h-2.27c-.27-1.67-1.39-2.57-3.15-2.57-1.62,0-2.39.65-2.39,1.51,0,1.22,1.53,1.64,3.26,2.12,2.2.59,4.7,1.3,4.7,3.87,0,2.2-1.85,3.67-4.92,3.67-3.29,0-5.24-1.62-5.56-4.57Z"/>
        <path class="cls-15" d="M437.79,279.84h2.39v10.71h6.72v1.89h-9.11v-12.6Z"/>
        <path class="cls-15" d="M448.18,279.84h3.48l1.42,4.72,1.39,4.7,1.39-4.7,1.4-4.72h3.47v12.6h-2.23l.02-6.21.05-4.07-1.19,4.07-1.84,6.21h-2.25l-1.84-6.21-1.19-4.07.05,4.07.02,6.21h-2.16v-12.6Z"/>
      </g>
      <g>
        <path class="cls-15" d="M324.51,340.65h6.03c2.52,0,4.03,1.28,4.03,3.33,0,1.22-.63,2.23-1.78,2.77,1.31.5,2.07,1.55,2.07,3.01,0,2.12-1.53,3.49-4.14,3.49h-6.21v-12.6ZM326.91,342.54v3.35h3.49c1.12,0,1.82-.58,1.82-1.67s-.7-1.67-1.82-1.67h-3.49ZM326.91,347.74v3.64h3.64c1.22,0,1.95-.65,1.95-1.8s-.72-1.84-1.95-1.84h-3.64Z"/>
        <path class="cls-15" d="M336.05,350.13v-6.66h2.3v6.3c0,1.28.79,1.98,1.98,1.98.88,0,1.66-.43,2.11-1.06v-7.22h2.3v9.78h-2.3v-1.15c-.68.83-1.71,1.35-2.92,1.35-2.11,0-3.47-1.31-3.47-3.31Z"/>
        <path class="cls-15" d="M345.95,349.77h2.14c.25,1.4,1.12,2.11,2.43,2.11s1.93-.5,1.93-1.21c0-.88-1.03-1.21-2.25-1.49-1.84-.45-4.11-.86-4.11-3.04,0-1.66,1.48-2.9,3.92-2.9s4.2,1.28,4.56,3.47h-2.11c-.31-1.3-1.15-1.87-2.43-1.87-1.13,0-1.75.49-1.75,1.08,0,.88,1.15,1.15,2.49,1.48,1.8.43,3.89.92,3.89,3.04,0,1.71-1.55,3.04-4.09,3.04s-4.29-1.22-4.63-3.71Z"/>
        <path class="cls-15" d="M355.94,340.7h2.3v1.96h-2.3v-1.96ZM355.94,343.47h2.3v9.78h-2.3v-9.78Z"/>
        <path class="cls-15" d="M359.74,343.47h2.3v1.13c.68-.83,1.69-1.33,2.92-1.33,2.09,0,3.46,1.31,3.46,3.31v6.66h-2.29v-6.3c0-1.28-.79-1.96-1.98-1.96-.88,0-1.66.41-2.11,1.04v7.22h-2.3v-9.78Z"/>
        <path class="cls-15" d="M369.67,348.37c0-3.17,1.94-5.15,4.74-5.15,2.65,0,4.63,1.87,4.63,5.19v.18h-7.09c.07,2.11,1.01,3.24,2.47,3.24,1.19,0,2.02-.76,2.34-2.23h2.18c-.43,2.45-2.09,3.89-4.54,3.89-2.81,0-4.72-1.93-4.72-5.11ZM372.03,347.22h4.7c-.31-1.53-1.15-2.34-2.34-2.34s-2.07.83-2.36,2.34Z"/>
        <path class="cls-15" d="M380.04,349.77h2.14c.25,1.4,1.12,2.11,2.43,2.11s1.93-.5,1.93-1.21c0-.88-1.03-1.21-2.25-1.49-1.84-.45-4.11-.86-4.11-3.04,0-1.66,1.48-2.9,3.93-2.9s4.2,1.28,4.55,3.47h-2.11c-.31-1.3-1.15-1.87-2.43-1.87-1.13,0-1.75.49-1.75,1.08,0,.88,1.15,1.15,2.48,1.48,1.8.43,3.89.92,3.89,3.04,0,1.71-1.55,3.04-4.09,3.04s-4.29-1.22-4.63-3.71Z"/>
        <path class="cls-15" d="M389.76,349.77h2.14c.25,1.4,1.12,2.11,2.43,2.11s1.93-.5,1.93-1.21c0-.88-1.03-1.21-2.25-1.49-1.84-.45-4.11-.86-4.11-3.04,0-1.66,1.48-2.9,3.93-2.9s4.2,1.28,4.55,3.47h-2.11c-.31-1.3-1.15-1.87-2.43-1.87-1.13,0-1.75.49-1.75,1.08,0,.88,1.15,1.15,2.48,1.48,1.8.43,3.89.92,3.89,3.04,0,1.71-1.55,3.04-4.09,3.04s-4.29-1.22-4.63-3.71Z"/>
        <path class="cls-15" d="M403.93,340.65h2.39v10.71h6.72v1.89h-9.11v-12.6Z"/>
        <path class="cls-15" d="M413.61,348.37c0-3.24,1.94-5.15,4.81-5.15s4.83,1.91,4.83,5.15-1.93,5.11-4.83,5.11-4.81-1.91-4.81-5.11ZM420.94,348.35c0-2.25-.99-3.44-2.52-3.44s-2.5,1.19-2.5,3.44.99,3.44,2.5,3.44,2.52-1.17,2.52-3.44Z"/>
        <path class="cls-15" d="M424.39,348.3c0-3.08,1.71-5.02,4.23-5.02,1.33,0,2.43.61,3.13,1.73v-1.53h2.3v9.31c0,2.63-1.84,3.96-4.75,3.96-2.52,0-4.23-1.03-4.65-2.92h2.27c.29.97,1.06,1.44,2.4,1.44,1.49,0,2.43-.72,2.43-2.16v-1.51c-.7,1.12-1.8,1.73-3.13,1.73-2.54,0-4.23-1.91-4.23-5.02ZM431.76,348.3c0-2.21-1.01-3.37-2.56-3.37s-2.5,1.15-2.5,3.37.97,3.37,2.5,3.37,2.56-1.17,2.56-3.37Z"/>
        <path class="cls-15" d="M435.55,340.7h2.3v1.96h-2.3v-1.96ZM435.55,343.47h2.3v9.78h-2.3v-9.78Z"/>
        <path class="cls-15" d="M439.13,348.37c0-3.24,1.93-5.15,4.75-5.15,2.49,0,4.27,1.51,4.59,4.16h-2.2c-.25-1.62-1.13-2.47-2.39-2.47-1.48,0-2.45,1.19-2.45,3.44s.97,3.44,2.45,3.44c1.3,0,2.2-.9,2.41-2.61h2.18c-.27,2.74-2.04,4.3-4.59,4.3-2.84,0-4.75-1.89-4.75-5.11Z"/>
      </g>
      <g>
        <path class="cls-15" d="M538.11,292.44h-2.86l-4.66-12.6h2.61l3.57,10.23,1.76-5.11,1.78-5.11h2.47l-4.66,12.6Z"/>
        <path class="cls-15" d="M543.69,279.84h2.39v10.71h6.72v1.89h-9.11v-12.6Z"/>
        <path class="cls-15" d="M554.08,279.84h3.47l1.42,4.72,1.39,4.7,1.39-4.7,1.4-4.72h3.48v12.6h-2.23l.02-6.21.05-4.07-1.19,4.07-1.84,6.21h-2.25l-1.84-6.21-1.19-4.07.05,4.07.02,6.21h-2.16v-12.6Z"/>
      </g>
      <g>
        <path class="cls-15" d="M531.24,340.65h3.48l1.42,4.72,1.39,4.7,1.39-4.7,1.4-4.72h3.47v12.6h-2.23l.02-6.21.05-4.07-1.19,4.07-1.84,6.21h-2.25l-1.84-6.21-1.19-4.07.05,4.07.02,6.21h-2.16v-12.6Z"/>
        <path class="cls-15" d="M554.12,345.81c-.27-2.29-1.55-3.47-3.26-3.47-1.98,0-3.29,1.57-3.29,4.61s1.31,4.61,3.29,4.61c1.75,0,3.02-1.24,3.26-3.6h2.36c-.32,3.55-2.57,5.53-5.65,5.53-3.4,0-5.71-2.32-5.71-6.54s2.32-6.54,5.73-6.54c3.03,0,5.31,1.91,5.64,5.4h-2.36Z"/>
        <path class="cls-15" d="M557.75,340.65h5.91c2.7,0,4.36,1.46,4.36,3.85s-1.64,3.84-4.32,3.84h-3.55v4.92h-2.39v-12.6ZM560.14,342.54v3.94h3.35c1.35,0,2.14-.67,2.14-1.96s-.79-1.98-2.14-1.98h-3.35Z"/>
      </g>
      <g>
        <path class="cls-4" d="M517.52,338.66c-2.17-2.17-5.17-3.51-8.49-3.51-6.63,0-12,5.37-12,12"/>
        <line class="cls-4" x1="519.16" y1="340.29" x2="517.52" y2="338.66"/>
        <path class="cls-4" d="M500.55,355.63c2.17,2.17,5.17,3.51,8.49,3.51,6.63,0,12-5.37,12-12"/>
        <line class="cls-4" x1="498.91" y1="353.99" x2="500.55" y2="355.63"/>
        <polyline class="cls-4" points="519.16 335.93 519.16 340.29 514.79 340.29"/>
        <polyline class="cls-4" points="498.91 358.35 498.91 353.98 503.28 353.98"/>
      </g>
    </g>
    <g>
      <line class="cls-2" x1="344.96" y1="160.79" x2="344.96" y2="114.96"/>
      <polygon class="cls-13" points="350.94 159.04 344.96 169.4 338.98 159.04 350.94 159.04"/>
    </g>
    <g>
      <line class="cls-2" x1="174.02" y1="514.16" x2="174.02" y2="442.49"/>
      <polygon class="cls-13" points="180 512.41 174.02 522.77 168.04 512.41 180 512.41"/>
    </g>
    <g>
      <line class="cls-2" x1="517.12" y1="514.16" x2="517.12" y2="442.49"/>
      <polygon class="cls-13" points="523.1 512.41 517.12 522.77 511.13 512.41 523.1 512.41"/>
    </g>
    <g>
      <line class="cls-2" x1="344.96" y1="514.16" x2="344.96" y2="467.51"/>
      <polygon class="cls-13" points="350.94 512.41 344.96 522.77 338.98 512.41 350.94 512.41"/>
    </g>
  </g>
  <g>
    <g>
      <rect class="cls-5" x="14.84" y="247.12" width="155" height="28" rx="14" ry="14"/>
      <g>
        <path class="cls-17" d="M50.72,266.42h-6.57v-.98l2.63-2.65c.8-.81,1.33-1.39,1.59-1.74.26-.35.45-.68.57-1.01.13-.33.19-.68.19-1.06,0-.53-.16-.96-.49-1.27-.32-.31-.77-.47-1.35-.47-.41,0-.81.07-1.18.21-.37.14-.79.38-1.24.75l-.6-.77c.92-.77,1.92-1.15,3.01-1.15.94,0,1.67.24,2.21.72.53.48.8,1.13.8,1.94,0,.63-.18,1.26-.53,1.88s-1.02,1.4-2,2.35l-2.19,2.14v.05h5.14v1.05Z"/>
        <path class="cls-17" d="M53.42,266.42l4.14-8.95h-5.45v-1.05h6.65v.91l-4.09,9.08h-1.26Z"/>
        <path class="cls-17" d="M66.78,261.41c0,1.73-.27,3.02-.82,3.87-.54.85-1.38,1.28-2.5,1.28s-1.89-.44-2.45-1.31c-.56-.87-.84-2.15-.84-3.84s.27-3.03.81-3.88c.54-.84,1.37-1.26,2.48-1.26s1.91.44,2.47,1.32c.56.88.84,2.15.84,3.82ZM61.32,261.41c0,1.45.17,2.51.51,3.17.34.66.89,1,1.63,1s1.3-.34,1.64-1.01c.34-.67.51-1.73.51-3.16s-.17-2.49-.51-3.16c-.34-.67-.89-1-1.64-1s-1.29.33-1.63.99c-.34.66-.51,1.71-.51,3.17Z"/>
        <path class="cls-17" d="M71.47,256.28c.91,0,1.63.21,2.17.64s.8,1.01.8,1.76c0,.49-.15.94-.46,1.35-.3.41-.79.77-1.46,1.11.81.39,1.39.79,1.73,1.22.34.43.51.92.51,1.48,0,.83-.29,1.49-.87,1.99-.58.5-1.37.74-2.38.74-1.07,0-1.89-.23-2.46-.7-.57-.47-.86-1.13-.86-1.99,0-1.14.7-2.04,2.09-2.67-.63-.36-1.08-.74-1.35-1.15-.27-.41-.41-.87-.41-1.38,0-.72.27-1.3.8-1.73.54-.43,1.25-.65,2.15-.65ZM69.31,263.89c0,.55.19.97.57,1.28.38.31.92.46,1.6.46s1.21-.16,1.59-.48c.38-.32.57-.76.57-1.31,0-.44-.18-.83-.53-1.18-.36-.34-.97-.68-1.86-1-.68.29-1.17.61-1.48.97-.3.35-.46.78-.46,1.27ZM71.46,257.2c-.57,0-1.02.14-1.34.41-.32.27-.49.64-.49,1.09,0,.42.13.78.4,1.08.27.3.77.6,1.49.9.65-.27,1.11-.57,1.38-.88.27-.31.41-.68.41-1.1,0-.46-.17-.83-.5-1.1-.33-.27-.79-.41-1.36-.41Z"/>
        <path class="cls-17" d="M81.79,265.41h-.06c-.52.76-1.31,1.14-2.35,1.14-.98,0-1.74-.33-2.29-1-.54-.67-.82-1.62-.82-2.86s.27-2.19.82-2.88,1.31-1.03,2.28-1.03,1.8.37,2.34,1.11h.09l-.05-.54-.03-.53v-3.05h1.13v10.64h-.92l-.15-1ZM79.52,265.6c.78,0,1.34-.21,1.69-.63.35-.42.52-1.1.52-2.04v-.24c0-1.06-.18-1.82-.53-2.27-.35-.45-.92-.68-1.69-.68-.67,0-1.17.26-1.53.78-.35.52-.53,1.25-.53,2.19s.18,1.68.53,2.17c.35.49.87.73,1.54.73Z"/>
        <path class="cls-17" d="M85.1,265.69c0-.31.07-.54.21-.69.14-.16.34-.24.6-.24s.47.08.62.24c.15.16.22.39.22.69s-.08.52-.23.68-.36.24-.62.24c-.23,0-.42-.07-.58-.22-.15-.14-.23-.38-.23-.71Z"/>
        <path class="cls-17" d="M88.83,265.69c0-.31.07-.54.21-.69.14-.16.34-.24.6-.24s.47.08.62.24c.15.16.22.39.22.69s-.08.52-.23.68-.36.24-.62.24c-.23,0-.42-.07-.58-.22-.15-.14-.23-.38-.23-.71Z"/>
        <path class="cls-17" d="M92.55,265.69c0-.31.07-.54.21-.69.14-.16.34-.24.6-.24s.47.08.62.24c.15.16.22.39.22.69s-.08.52-.23.68-.36.24-.62.24c-.23,0-.42-.07-.58-.22-.15-.14-.23-.38-.23-.71Z"/>
        <path class="cls-17" d="M102.12,258.77c0,.64-.18,1.16-.54,1.57-.36.41-.87.68-1.52.81v.05c.8.1,1.4.36,1.78.77.39.41.58.95.58,1.61,0,.95-.33,1.69-.99,2.2-.66.51-1.6.77-2.82.77-.53,0-1.01-.04-1.45-.12-.44-.08-.87-.22-1.28-.42v-1.08c.43.21.89.38,1.38.49.49.11.95.17,1.39.17,1.73,0,2.59-.68,2.59-2.03,0-1.21-.95-1.82-2.86-1.82h-.98v-.98h1c.78,0,1.4-.17,1.85-.52.46-.34.68-.82.68-1.43,0-.49-.17-.87-.5-1.15s-.79-.42-1.36-.42c-.44,0-.85.06-1.24.18-.39.12-.83.34-1.33.66l-.57-.77c.41-.32.88-.58,1.42-.76.54-.18,1.1-.28,1.69-.28.97,0,1.73.22,2.26.67.54.44.81,1.05.81,1.83Z"/>
        <path class="cls-17" d="M110.12,258.77c0,.64-.18,1.16-.54,1.57-.36.41-.87.68-1.52.81v.05c.8.1,1.4.36,1.78.77.39.41.58.95.58,1.61,0,.95-.33,1.69-.99,2.2-.66.51-1.6.77-2.82.77-.53,0-1.01-.04-1.45-.12-.44-.08-.87-.22-1.28-.42v-1.08c.43.21.89.38,1.38.49.49.11.95.17,1.39.17,1.73,0,2.59-.68,2.59-2.03,0-1.21-.95-1.82-2.86-1.82h-.98v-.98h1c.78,0,1.4-.17,1.85-.52.46-.34.68-.82.68-1.43,0-.49-.17-.87-.5-1.15s-.79-.42-1.36-.42c-.44,0-.85.06-1.24.18-.39.12-.83.34-1.33.66l-.57-.77c.41-.32.88-.58,1.42-.76.54-.18,1.1-.28,1.69-.28.97,0,1.73.22,2.26.67.54.44.81,1.05.81,1.83Z"/>
        <path class="cls-17" d="M117.55,265.41h-.06c-.52.76-1.31,1.14-2.35,1.14-.98,0-1.74-.33-2.29-1-.54-.67-.82-1.62-.82-2.86s.27-2.19.82-2.88,1.31-1.03,2.28-1.03,1.8.37,2.34,1.11h.09l-.05-.54-.03-.53v-3.05h1.13v10.64h-.92l-.15-1ZM115.28,265.6c.78,0,1.34-.21,1.69-.63.35-.42.52-1.1.52-2.04v-.24c0-1.06-.18-1.82-.53-2.27-.35-.45-.92-.68-1.69-.68-.67,0-1.17.26-1.53.78-.35.52-.53,1.25-.53,2.19s.18,1.68.53,2.17c.35.49.87.73,1.54.73Z"/>
        <path class="cls-17" d="M127.15,266.42l-1.37-4.4c-.09-.27-.25-.88-.49-1.83h-.05c-.18.8-.34,1.41-.48,1.85l-1.42,4.38h-1.31l-2.04-7.49h1.19c.48,1.88.85,3.32,1.1,4.3s.4,1.65.43,1.99h.05c.05-.26.13-.6.24-1.01.11-.41.21-.74.29-.98l1.37-4.3h1.23l1.34,4.3c.26.78.43,1.44.52,1.98h.05c.02-.16.07-.42.15-.76.08-.34.55-2.18,1.42-5.52h1.18l-2.07,7.49h-1.35Z"/>
        <path class="cls-17" d="M137.97,260.69c0,3.91-1.51,5.87-4.54,5.87-.53,0-.95-.05-1.26-.14v-.98c.37.12.78.18,1.24.18,1.09,0,1.92-.34,2.48-1.01.56-.68.86-1.71.91-3.11h-.08c-.25.38-.58.67-1,.86-.41.2-.88.3-1.4.3-.88,0-1.59-.26-2.11-.79s-.78-1.27-.78-2.21c0-1.04.29-1.86.87-2.46s1.35-.9,2.29-.9c.68,0,1.27.17,1.78.52.51.35.9.86,1.17,1.53.27.67.41,1.45.41,2.36ZM134.61,257.25c-.65,0-1.16.21-1.51.63s-.53,1-.53,1.75c0,.66.16,1.17.49,1.55.33.38.83.56,1.5.56.42,0,.8-.08,1.15-.25s.62-.4.82-.69c.2-.29.3-.6.3-.92,0-.48-.09-.92-.28-1.33-.19-.41-.45-.72-.78-.96s-.72-.35-1.15-.35Z"/>
        <path class="cls-17" d="M146.03,261.41c0,1.73-.27,3.02-.82,3.87-.54.85-1.38,1.28-2.5,1.28s-1.89-.44-2.45-1.31c-.56-.87-.84-2.15-.84-3.84s.27-3.03.81-3.88c.54-.84,1.37-1.26,2.48-1.26s1.91.44,2.47,1.32c.56.88.84,2.15.84,3.82ZM140.57,261.41c0,1.45.17,2.51.51,3.17.34.66.89,1,1.63,1s1.3-.34,1.64-1.01c.34-.67.51-1.73.51-3.16s-.17-2.49-.51-3.16c-.34-.67-.89-1-1.64-1s-1.29.33-1.63.99c-.34.66-.51,1.71-.51,3.17Z"/>
        <path class="cls-17" d="M153.03,265.41h-.06c-.52.76-1.31,1.14-2.35,1.14-.98,0-1.74-.33-2.29-1-.54-.67-.82-1.62-.82-2.86s.27-2.19.82-2.88,1.31-1.03,2.28-1.03,1.8.37,2.34,1.11h.09l-.05-.54-.03-.53v-3.05h1.13v10.64h-.92l-.15-1ZM150.76,265.6c.78,0,1.34-.21,1.69-.63.35-.42.52-1.1.52-2.04v-.24c0-1.06-.18-1.82-.53-2.27-.35-.45-.92-.68-1.69-.68-.67,0-1.17.26-1.53.78-.35.52-.53,1.25-.53,2.19s.18,1.68.53,2.17c.35.49.87.73,1.54.73Z"/>
      </g>
    </g>
    <g>
      <path class="cls-16" d="M33.77,261.12c0,1.71-2.35,3.02-2.85,4.56-.52,1.6.6,4.04-.37,5.37-.98,1.34-3.65,1.03-4.99,2.01-1.33.97-1.85,3.61-3.45,4.13-1.54.5-3.51-1.31-5.22-1.31s-3.68,1.81-5.22,1.31c-1.6-.52-2.12-3.16-3.45-4.13-1.34-.98-4.02-.67-4.99-2.01-.97-1.33.15-3.77-.37-5.37-.5-1.54-2.85-2.85-2.85-4.56s2.35-3.02,2.85-4.56c.52-1.6-.6-4.04.37-5.37.98-1.34,3.65-1.03,4.99-2.01,1.33-.97,1.85-3.61,3.45-4.13,1.54-.5,3.51,1.31,5.22,1.31s3.68-1.81,5.22-1.31c1.6.52,2.12,3.16,3.45,4.13,1.34.98,4.02.67,4.99,2.01.97,1.33-.15,3.77.37,5.37.5,1.54,2.85,2.85,2.85,4.56Z"/>
      <polyline class="cls-6" points="11.59 262.26 14.72 266.11 22.18 256.55"/>
    </g>
  </g>
  <g>
    <circle class="cls-4" cx="302.19" cy="347.7" r="3.28"/>
    <path class="cls-4" d="M302.19,335.68h-2.19l-.43,3.68c-1.24.39-2.37,1.05-3.3,1.91,0,0-3.4-1.47-3.4-1.47l-2.19,3.78,2.97,2.21c-.14.61-.21,1.25-.21,1.91s.07,1.29.21,1.91c0,0-2.97,2.21-2.97,2.21l2.19,3.78s3.4-1.47,3.4-1.47c.94.86,2.06,1.52,3.3,1.91l.43,3.68h2.19"/>
    <path class="cls-4" d="M302.19,359.72h2.19l.43-3.68c1.24-.39,2.37-1.05,3.3-1.91,0,0,3.4,1.47,3.4,1.47l2.19-3.78-2.97-2.21c.14-.61.21-1.25.21-1.91s-.07-1.29-.21-1.91c0,0,2.97-2.21,2.97-2.21l-2.19-3.78s-3.4,1.47-3.4,1.47c-.94-.86-2.06-1.52-3.3-1.91l-.43-3.68h-2.19"/>
  </g>
  <polygon class="cls-4" points="299.83 299.26 299.83 287.44 292.74 287.44 304.56 273.26 304.56 285.07 311.65 285.07 299.83 299.26"/>
  <polygon class="cls-4" points="401.94 299.26 401.94 287.44 394.85 287.44 406.67 273.26 406.67 285.07 413.76 285.07 401.94 299.26"/>
  <polygon class="cls-4" points="506.82 299.26 506.82 287.44 499.73 287.44 511.55 273.26 511.55 285.07 518.64 285.07 506.82 299.26"/>
  <g>
    <rect class="cls-10" x="277.53" y="1" width="135.47" height="135.47" rx="5" ry="5" transform="translate(414 -276.53) rotate(90)"/>
    <g>
      <path class="cls-14" d="M344.96,31.41c-12.13,0-22,9.87-22,22s9.87,22,22,22,22-9.87,22-22-9.86-22-22-22Z"/>
      <g>
        <path d="M326.58,97.13v-7.98h2.41v8.08c0,1.78,1.19,2.77,2.83,2.77s2.88-.99,2.88-2.75v-8.1h2.32v7.99c0,3.06-2.09,4.83-5.24,4.83s-5.2-1.78-5.2-4.84Z"/>
        <path d="M338.31,98.28h2.14c.25,1.4,1.12,2.11,2.43,2.11s1.93-.5,1.93-1.21c0-.88-1.03-1.21-2.25-1.49-1.84-.45-4.11-.86-4.11-3.04,0-1.66,1.48-2.9,3.93-2.9s4.2,1.28,4.56,3.47h-2.11c-.31-1.3-1.15-1.87-2.43-1.87-1.13,0-1.75.49-1.75,1.08,0,.88,1.15,1.15,2.48,1.48,1.8.43,3.89.92,3.89,3.04,0,1.71-1.55,3.04-4.09,3.04s-4.29-1.22-4.63-3.71Z"/>
        <path d="M348.08,96.88c0-3.17,1.94-5.15,4.74-5.15,2.65,0,4.63,1.87,4.63,5.19v.18h-7.09c.07,2.11,1.01,3.24,2.47,3.24,1.19,0,2.02-.76,2.34-2.23h2.18c-.43,2.45-2.09,3.89-4.54,3.89-2.81,0-4.72-1.93-4.72-5.11ZM350.44,95.73h4.7c-.31-1.53-1.15-2.34-2.34-2.34s-2.07.83-2.36,2.34Z"/>
        <path d="M358.72,91.98h2.3v1.55c.63-1.1,1.64-1.71,2.94-1.71h.23v2.11c-.23-.04-.47-.05-.7-.05-1.03,0-1.98.41-2.47,1.21v6.68h-2.3v-9.78Z"/>
      </g>
      <path d="M344.96,76.12c-12.52,0-22.7-10.19-22.7-22.71s10.18-22.7,22.7-22.7,22.7,10.18,22.7,22.7-10.18,22.7-22.7,22.7h0ZM344.96,32.91c-11.3,0-20.5,9.2-20.5,20.5s9.2,20.5,20.5,20.5,20.5-9.2,20.5-20.5-9.19-20.5-20.5-20.5Z"/>
      <path d="M344.96,56.48c-4.94,0-8.96-4.02-8.96-8.96s4.02-8.96,8.96-8.96,8.96,4.02,8.96,8.96-4.02,8.96-8.96,8.96ZM344.96,40.77c-3.72,0-6.76,3.03-6.76,6.76s3.03,6.76,6.76,6.76,6.76-3.03,6.76-6.76-3.03-6.76-6.76-6.76Z"/>
      <path d="M357.59,70.13c-.44-12.33-8.98-13.66-12.63-13.66s-12.19,1.33-12.63,13.66l-2.2-.08c.35-9.73,6.03-15.78,14.83-15.78s14.48,6.04,14.83,15.78c0,0-2.2.08-2.2.08Z"/>
    </g>
  </g>
</svg>