<svg version="1.1" xmlns="http://www.w3.org/2000/svg" viewBox="0 0 336 317.1208209415869" width="336" height="317.1208209415869">
  <!-- svg-source:excalidraw -->
  
  <defs>
    <style class="style-fonts">
      @font-face {
        font-family: "Virgil";
        src: url("https://excalidraw.com/Virgil.woff2");
      }
      @font-face {
        font-family: "Cascadia";
        src: url("https://excalidraw.com/Cascadia.woff2");
      }
    </style>
    
  </defs>
  <g stroke-linecap="round" transform="translate(10 31.120820941586942) rotate(0 158 137.99999999999997)"><path d="M32 0 M32 0 C87.13 -1.12, 142.17 -3.17, 284 0 M32 0 C107.32 -0.22, 182.42 -1.12, 284 0 M284 0 C305.53 -1.72, 314.51 11.9, 316 32 M284 0 C304.51 2.26, 314.32 12.48, 316 32 M316 32 C317.44 81.29, 316.73 132.63, 316 244 M316 32 C314.76 85.46, 314.44 138.74, 316 244 M316 244 C316.03 266.05, 306.82 275.39, 284 276 M316 244 C313.73 264.84, 305.95 274.97, 284 276 M284 276 C187.8 275.47, 93.61 273.52, 32 276 M284 276 C212.55 276.14, 141.65 276.05, 32 276 M32 276 C8.71 275.69, -1.27 267, 0 244 M32 276 C11.01 277, 1.88 265.17, 0 244 M0 244 C1.96 174.83, 0.38 107.77, 0 32 M0 244 C2.53 162.3, 1.65 81.95, 0 32 M0 32 C1.22 11.06, 9.68 -0.16, 32 0 M0 32 C-1.81 12.46, 12.2 -1.47, 32 0" stroke="#1971c2" stroke-width="1" fill="none"></path></g><g stroke-linecap="round" transform="translate(21.50876408716033 85.46858369718927) rotate(0 145.7409698283425 13.114212904757437)"><path d="M6.56 0 M6.56 0 C68.53 0.08, 128.12 -0.41, 284.92 0 M6.56 0 C84.78 -1.65, 164.66 -1.69, 284.92 0 M284.92 0 C288.43 1.49, 292.94 3.03, 291.48 6.56 M284.92 0 C289.34 1.17, 293 0.91, 291.48 6.56 M291.48 6.56 C291.05 10.14, 290.3 16.96, 291.48 19.67 M291.48 6.56 C291.18 11.41, 291.16 14.96, 291.48 19.67 M291.48 19.67 C289.81 24.16, 289.62 25.49, 284.92 26.23 M291.48 19.67 C289.95 25.13, 290.3 27.19, 284.92 26.23 M284.92 26.23 C177.32 25.89, 70.61 24.09, 6.56 26.23 M284.92 26.23 C192.44 27.5, 99.4 27.82, 6.56 26.23 M6.56 26.23 C3.38 27.55, 1.66 25.9, 0 19.67 M6.56 26.23 C2.18 24.51, -1.47 22.63, 0 19.67 M0 19.67 C1.24 15.62, 0.2 12.46, 0 6.56 M0 19.67 C0.59 17.31, 0.53 13.78, 0 6.56 M0 6.56 C1.26 3.6, 1.55 -0.35, 6.56 0 M0 6.56 C1.87 3.46, 3.92 0.2, 6.56 0" stroke="#2f9e44" stroke-width="1" fill="none"></path></g><g stroke-linecap="round" transform="translate(22.003640045830394 44.393879127571665) rotate(0 145.7409698283425 13.114212904757437)"><path d="M6.56 0 M6.56 0 C98.99 1.45, 195.2 3.08, 284.92 0 M6.56 0 C64.54 -1.03, 122.66 -0.13, 284.92 0 M284.92 0 C290.14 0.04, 292.5 3.5, 291.48 6.56 M284.92 0 C288.02 1.38, 293.11 0.44, 291.48 6.56 M291.48 6.56 C292.32 10.31, 291.46 14.37, 291.48 19.67 M291.48 6.56 C291.45 9.31, 291.64 13.28, 291.48 19.67 M291.48 19.67 C290.74 22.71, 290.24 27.1, 284.92 26.23 M291.48 19.67 C292.44 26.02, 289.13 24.71, 284.92 26.23 M284.92 26.23 C204.24 27.43, 126.47 27.99, 6.56 26.23 M284.92 26.23 C193.13 26.4, 101.62 26.58, 6.56 26.23 M6.56 26.23 C4.04 26.22, -1.49 22.77, 0 19.67 M6.56 26.23 C0.77 25.59, 0.69 24.35, 0 19.67 M0 19.67 C-0.02 13.48, -0.97 9.11, 0 6.56 M0 19.67 C-0.1 15.17, 0.34 9.64, 0 6.56 M0 6.56 C-0.35 3.81, 3.29 1.51, 6.56 0 M0 6.56 C0.2 3.74, 3.21 -0.17, 6.56 0" stroke="#2f9e44" stroke-width="1" fill="none"></path></g><g stroke-linecap="round" transform="translate(21.508764087160415 128.52279210148743) rotate(0 145.7409698283425 13.114212904757437)"><path d="M6.56 0 M6.56 0 C63.89 -2.43, 119 -0.51, 284.92 0 M6.56 0 C98.6 -1.27, 189.54 -1.2, 284.92 0 M284.92 0 C290.62 -1.11, 292.69 3.61, 291.48 6.56 M284.92 0 C287.55 -0.91, 289.49 -0.05, 291.48 6.56 M291.48 6.56 C292.5 10.82, 292.68 15.67, 291.48 19.67 M291.48 6.56 C291.48 9.96, 290.94 14.16, 291.48 19.67 M291.48 19.67 C292.36 24.88, 291.01 26.08, 284.92 26.23 M291.48 19.67 C289.96 23.75, 290.9 26.98, 284.92 26.23 M284.92 26.23 C215.59 28.73, 143.74 28.06, 6.56 26.23 M284.92 26.23 C198.03 28.35, 109.86 27.07, 6.56 26.23 M6.56 26.23 C0.91 25, -0.56 24.64, 0 19.67 M6.56 26.23 C2.49 28.47, -0.85 24.45, 0 19.67 M0 19.67 C-0.05 16.79, 1.28 12.8, 0 6.56 M0 19.67 C-0.29 15.58, 0.45 12.08, 0 6.56 M0 6.56 C1.51 2.36, 3.54 0.89, 6.56 0 M0 6.56 C-0.17 2.76, 3.85 -1.16, 6.56 0" stroke="#2f9e44" stroke-width="1" fill="none"></path></g><g stroke-linecap="round" transform="translate(23.488267921840787 168.1128687950951) rotate(0 145.7409698283425 13.114212904757437)"><path d="M6.56 0 M6.56 0 C115.37 -0.29, 222.51 0.42, 284.92 0 M6.56 0 C110.7 0.47, 213.63 0.43, 284.92 0 M284.92 0 C290.72 -1.52, 290.69 0.45, 291.48 6.56 M284.92 0 C287.06 1.67, 292.08 2.34, 291.48 6.56 M291.48 6.56 C290.76 11.19, 290.32 16.47, 291.48 19.67 M291.48 6.56 C291.74 10.99, 291.71 15.41, 291.48 19.67 M291.48 19.67 C291.33 22.72, 289.04 27.62, 284.92 26.23 M291.48 19.67 C292.23 22.96, 290.06 28.42, 284.92 26.23 M284.92 26.23 C182.03 25.9, 80.46 26.69, 6.56 26.23 M284.92 26.23 C177.77 25.73, 71.28 26.01, 6.56 26.23 M6.56 26.23 C2.78 26.49, 1.95 23.3, 0 19.67 M6.56 26.23 C2.6 26.1, -1.71 22.26, 0 19.67 M0 19.67 C0.75 15.93, 0.73 13.02, 0 6.56 M0 19.67 C0.38 16.65, 0.08 13.08, 0 6.56 M0 6.56 C0.89 2.03, 2.68 1.45, 6.56 0 M0 6.56 C-1.16 1.95, 0.7 -0.91, 6.56 0" stroke="#2f9e44" stroke-width="1" fill="none"></path></g><g stroke-linecap="round" transform="translate(22.003640045830366 243.33401451294924) rotate(0 145.7409698283425 17.5)"><path d="M8.75 0 M8.75 0 C100.96 2.05, 191.52 0.95, 282.73 0 M8.75 0 C105.38 1.73, 200.48 0.87, 282.73 0 M282.73 0 C286.83 -1.95, 292.93 3.44, 291.48 8.75 M282.73 0 C288.72 1.72, 290.38 4.95, 291.48 8.75 M291.48 8.75 C291.55 13.4, 290.8 16.33, 291.48 26.25 M291.48 8.75 C292.31 14.77, 290.98 20.8, 291.48 26.25 M291.48 26.25 C292.87 32.73, 287.62 35.66, 282.73 35 M291.48 26.25 C293.67 33.67, 289.26 34.4, 282.73 35 M282.73 35 C205.21 37.56, 127.08 36.27, 8.75 35 M282.73 35 C220.77 33.92, 159.34 34.45, 8.75 35 M8.75 35 C2.17 35.36, -0.11 30.59, 0 26.25 M8.75 35 C1.13 34.75, 1.72 34.16, 0 26.25 M0 26.25 C1.23 19.31, -0.31 14.91, 0 8.75 M0 26.25 C0.46 20.42, -0.2 14.03, 0 8.75 M0 8.75 C1.45 1.91, 2.72 -1.29, 8.75 0 M0 8.75 C-0.91 5.05, 0.67 -2.18, 8.75 0" stroke="#2f9e44" stroke-width="1" fill="none"></path></g><g stroke-linecap="round" transform="translate(162.54841230813707 44.88875508624176) rotate(0 75.46858369718916 13.114212904757437)"><path d="M6.56 0 M6.56 0 C47.04 0.29, 91.15 -2.43, 144.38 0 M6.56 0 C43.16 1.6, 78.38 2.09, 144.38 0 M144.38 0 C147.79 1.77, 149.93 1.75, 150.94 6.56 M144.38 0 C146.83 0.14, 151.31 1.34, 150.94 6.56 M150.94 6.56 C151.55 10.75, 150.9 11.82, 150.94 19.67 M150.94 6.56 C150.72 10.54, 151.65 14.54, 150.94 19.67 M150.94 19.67 C151.54 23.52, 148.49 26.52, 144.38 26.23 M150.94 19.67 C152.31 25.56, 150.66 28.36, 144.38 26.23 M144.38 26.23 C101.84 24.79, 62.36 25.61, 6.56 26.23 M144.38 26.23 C89.57 25.73, 34.09 26.36, 6.56 26.23 M6.56 26.23 C3.68 28.04, 1.29 24.11, 0 19.67 M6.56 26.23 C3.63 27.85, -0.73 23.64, 0 19.67 M0 19.67 C0.04 15.56, 0.51 9.57, 0 6.56 M0 19.67 C-0.16 14.99, -0.35 11.76, 0 6.56 M0 6.56 C-1.95 0.29, 0.41 -1.87, 6.56 0 M0 6.56 C0.66 3.57, 0.28 0.82, 6.56 0" stroke="#f08c00" stroke-width="1" fill="none"></path></g><g stroke-linecap="round" transform="translate(22.498516004500487 206.71319357136224) rotate(0 145.7409698283425 13.114212904757437)"><path d="M6.56 0 M6.56 0 C73.45 -2.13, 141.35 -3.02, 284.92 0 M6.56 0 C110.87 -0.51, 214.7 -0.53, 284.92 0 M284.92 0 C288.86 -1.67, 291.6 2.51, 291.48 6.56 M284.92 0 C288.45 -1.53, 292.57 3.19, 291.48 6.56 M291.48 6.56 C290.73 10.87, 292.51 15.95, 291.48 19.67 M291.48 6.56 C291.98 10.07, 291.36 13.1, 291.48 19.67 M291.48 19.67 C291.77 25.24, 290.62 27.89, 284.92 26.23 M291.48 19.67 C293.62 24.04, 287.58 24.76, 284.92 26.23 M284.92 26.23 C218.72 28.36, 151.54 27.14, 6.56 26.23 M284.92 26.23 C202.88 25.14, 121.71 25.06, 6.56 26.23 M6.56 26.23 C2.25 27.48, 1.41 23.41, 0 19.67 M6.56 26.23 C1.78 28.1, 1.27 25.78, 0 19.67 M0 19.67 C-0.19 15.95, 0.86 10.92, 0 6.56 M0 19.67 C0.69 15.23, -0.54 11.48, 0 6.56 M0 6.56 C-1.87 2.76, 3.39 -1.65, 6.56 0 M0 6.56 C0.82 2.9, 1.9 1.99, 6.56 0" stroke="#2f9e44" stroke-width="1" fill="none"></path></g><g transform="translate(29.674217405216837 48.10544881759722) rotate(0 17.200035095214844 10)"><text x="0" y="0" font-family="Virgil, Segoe UI Emoji" font-size="16px" fill="#2f9e44" text-anchor="start" style="white-space: pre;" direction="ltr" dominant-baseline="text-before-edge">ff76</text></g><g transform="translate(28.189589529206557 89.67502934588504) rotate(0 20.56804656982422 10)"><text x="0" y="0" font-family="Virgil, Segoe UI Emoji" font-size="16px" fill="#2f9e44" text-anchor="start" style="white-space: pre;" direction="ltr" dominant-baseline="text-before-edge">2374</text></g><g transform="translate(27.694713570536464 131.24460987417285) rotate(0 22.200042724609375 10)"><text x="0" y="0" font-family="Virgil, Segoe UI Emoji" font-size="16px" fill="#2f9e44" text-anchor="start" style="white-space: pre;" direction="ltr" dominant-baseline="text-before-edge">BB34</text></g><g transform="translate(29.179341446546744 170.33981060911026) rotate(0 18.640037536621094 10)"><text x="0" y="0" font-family="Virgil, Segoe UI Emoji" font-size="16px" fill="#2f9e44" text-anchor="start" style="white-space: pre;" direction="ltr" dominant-baseline="text-before-edge">01CB</text></g><g transform="translate(31.65372123989721 210.919639220058) rotate(0 18.856040954589844 10)"><text x="0" y="0" font-family="Virgil, Segoe UI Emoji" font-size="16px" fill="#2f9e44" text-anchor="start" style="white-space: pre;" direction="ltr" dominant-baseline="text-before-edge">1384</text></g><g transform="translate(32.643473157237395 250.0148399549954) rotate(0 20.512046813964844 10)"><text x="0" y="0" font-family="Virgil, Segoe UI Emoji" font-size="16px" fill="#2f9e44" text-anchor="start" style="white-space: pre;" direction="ltr" dominant-baseline="text-before-edge">247E</text></g><g transform="translate(116.2775101724832 284.1612811032318) rotate(0 24.768035888671875 10)"><text x="0" y="0" font-family="Virgil, Segoe UI Emoji" font-size="16px" fill="#1971c2" text-anchor="start" style="white-space: pre;" direction="ltr" dominant-baseline="text-before-edge">    ....</text></g><g stroke-linecap="round" transform="translate(161.55866039079683 84.47883177984909) rotate(0 75.46858369718916 13.114212904757437)"><path d="M6.56 0 M6.56 0 C46.08 0.63, 83.03 -1.11, 144.38 0 M6.56 0 C36.58 0.59, 64.82 1.22, 144.38 0 M144.38 0 C149.33 -1.75, 149.79 3.88, 150.94 6.56 M144.38 0 C150.43 1.62, 151.63 1.02, 150.94 6.56 M150.94 6.56 C152.28 10.67, 150.18 15.1, 150.94 19.67 M150.94 6.56 C150.98 11.79, 150.87 16.11, 150.94 19.67 M150.94 19.67 C150.48 23.55, 149.28 25.05, 144.38 26.23 M150.94 19.67 C148.65 24.19, 149.87 28.41, 144.38 26.23 M144.38 26.23 C93.34 26.35, 38.85 23.65, 6.56 26.23 M144.38 26.23 C104.86 26.59, 64.98 27.78, 6.56 26.23 M6.56 26.23 C3.49 27.57, -0.59 24.98, 0 19.67 M6.56 26.23 C2.23 28.1, 2.28 22.54, 0 19.67 M0 19.67 C-0.71 14.09, 0.76 12.3, 0 6.56 M0 19.67 C0.1 16.34, 0.32 13.36, 0 6.56 M0 6.56 C1.11 3.92, 1.66 -0.26, 6.56 0 M0 6.56 C2.18 2.9, 2.26 -1.81, 6.56 0" stroke="#f08c00" stroke-width="1" fill="none"></path></g><g stroke-linecap="round" transform="translate(162.05353634946698 128.0279161428174) rotate(0 75.46858369718916 13.114212904757437)"><path d="M6.56 0 M6.56 0 C46.87 -0.85, 91.73 -0.47, 144.38 0 M6.56 0 C42.63 -1.6, 77.4 -0.28, 144.38 0 M144.38 0 C149.26 -0.8, 152.1 1.63, 150.94 6.56 M144.38 0 C150.03 1.99, 150.34 1.89, 150.94 6.56 M150.94 6.56 C149.94 12.62, 151.97 17.1, 150.94 19.67 M150.94 6.56 C151.19 9.62, 150.76 11.87, 150.94 19.67 M150.94 19.67 C150.15 25.44, 146.88 25.81, 144.38 26.23 M150.94 19.67 C151.78 23.63, 148.43 26.61, 144.38 26.23 M144.38 26.23 C104.73 28.53, 69.68 25.65, 6.56 26.23 M144.38 26.23 C95.35 26.23, 44.56 25.24, 6.56 26.23 M6.56 26.23 C0.38 24.59, -1.05 22.56, 0 19.67 M6.56 26.23 C2.83 28.33, 0.45 21.79, 0 19.67 M0 19.67 C0.74 17.56, -0.86 12.85, 0 6.56 M0 19.67 C-0.25 15.72, 0.05 12.16, 0 6.56 M0 6.56 C1.02 3.54, 0.39 -0.09, 6.56 0 M0 6.56 C2.17 1.79, 1.19 1.47, 6.56 0" stroke="#f08c00" stroke-width="1" fill="none"></path></g><g stroke-linecap="round" transform="translate(163.0432882668071 167.61799283642483) rotate(0 75.46858369718916 13.114212904757437)"><path d="M6.56 0 M6.56 0 C61.76 -2.55, 115.27 -0.72, 144.38 0 M6.56 0 C41.01 -1.21, 76.29 -1.65, 144.38 0 M144.38 0 C147.7 -1.48, 151.5 4.01, 150.94 6.56 M144.38 0 C149.2 -2.25, 149.42 2.22, 150.94 6.56 M150.94 6.56 C150.15 8.59, 150.62 10.7, 150.94 19.67 M150.94 6.56 C150.79 9.3, 151.2 13.33, 150.94 19.67 M150.94 19.67 C149.14 23.96, 150.63 25.88, 144.38 26.23 M150.94 19.67 C149.94 25.52, 150.01 24.39, 144.38 26.23 M144.38 26.23 C99.79 24.6, 52.29 27.12, 6.56 26.23 M144.38 26.23 C91.92 25.72, 40.52 25.36, 6.56 26.23 M6.56 26.23 C1.13 24.65, -0.99 23.97, 0 19.67 M6.56 26.23 C3.58 26.56, 0.76 26.13, 0 19.67 M0 19.67 C-0.27 15.78, -0.67 11.98, 0 6.56 M0 19.67 C-0.35 16.31, 0.16 12.97, 0 6.56 M0 6.56 C0.91 0.66, 3.69 1.66, 6.56 0 M0 6.56 C-0.34 -0.11, 4.08 0.48, 6.56 0" stroke="#f08c00" stroke-width="1" fill="none"></path></g><g stroke-linecap="round" transform="translate(162.54841230813702 205.72344165402205) rotate(0 75.46858369718916 13.114212904757437)"><path d="M6.56 0 M6.56 0 C35.81 2.71, 61.77 -0.95, 144.38 0 M6.56 0 C59.13 -0.17, 111.11 0.8, 144.38 0 M144.38 0 C150.12 0.86, 148.97 0.92, 150.94 6.56 M144.38 0 C150.47 -2.15, 153.19 2.32, 150.94 6.56 M150.94 6.56 C149.75 8.65, 151.92 11.35, 150.94 19.67 M150.94 6.56 C151 10.19, 150.85 12.73, 150.94 19.67 M150.94 19.67 C150.99 26, 148.36 24.96, 144.38 26.23 M150.94 19.67 C150.33 22.5, 150.24 27.58, 144.38 26.23 M144.38 26.23 C95.16 28.59, 46.08 26.34, 6.56 26.23 M144.38 26.23 C105.14 24.25, 65.38 25.09, 6.56 26.23 M6.56 26.23 C2.23 26.07, -0.41 23.3, 0 19.67 M6.56 26.23 C2.78 25.27, 2.15 22.27, 0 19.67 M0 19.67 C-0.71 14.25, 0.59 11.8, 0 6.56 M0 19.67 C0.09 15.21, 0.07 10.9, 0 6.56 M0 6.56 C1.14 1.58, 3.73 -1.49, 6.56 0 M0 6.56 C-0.84 3.17, 0.7 -0.16, 6.56 0" stroke="#f08c00" stroke-width="1" fill="none"></path></g><g stroke-linecap="round" transform="translate(162.05353634946698 244.81864238895957) rotate(0 75.46858369718916 15.836030677442977)"><path d="M7.92 0 M7.92 0 C40.08 -0.78, 70.28 -0.83, 143.02 0 M7.92 0 C50.88 -0.99, 93.48 -1.43, 143.02 0 M143.02 0 C147.57 0.86, 149.64 2.5, 150.94 7.92 M143.02 0 C148.55 1.68, 150.53 2.28, 150.94 7.92 M150.94 7.92 C152.27 13.86, 149.45 19.06, 150.94 23.75 M150.94 7.92 C151.15 13.37, 151.28 19.99, 150.94 23.75 M150.94 23.75 C149.87 30.45, 150.13 29.99, 143.02 31.67 M150.94 23.75 C152.42 26.75, 146.01 29.93, 143.02 31.67 M143.02 31.67 C94.35 31.16, 41.07 31.76, 7.92 31.67 M143.02 31.67 C90.92 32.23, 40.33 32.13, 7.92 31.67 M7.92 31.67 C2.67 30.88, -0.92 27.05, 0 23.75 M7.92 31.67 C0.93 30.2, -0.13 27.11, 0 23.75 M0 23.75 C-0.05 19.05, -1.37 16.76, 0 7.92 M0 23.75 C0.49 18.04, -0.13 11.57, 0 7.92 M0 7.92 C-0.69 2.07, 3.51 -1.45, 7.92 0 M0 7.92 C1.56 4.08, 3.85 0.73, 7.92 0" stroke="#f08c00" stroke-width="1" fill="none"></path></g><g transform="translate(188.03452417964672 47.115696900257035) rotate(0 53.45610809326172 10)"><text x="0" y="0" font-family="Virgil, Segoe UI Emoji" font-size="16px" fill="#f08c00" text-anchor="start" style="white-space: pre;" direction="ltr" dominant-baseline="text-before-edge">2374 || BB34</text></g><g transform="translate(185.06526842762617 90.16990530455519) rotate(0 48.18409729003906 10)"><text x="0" y="0" font-family="Virgil, Segoe UI Emoji" font-size="16px" fill="#f08c00" text-anchor="start" style="white-space: pre;" direction="ltr" dominant-baseline="text-before-edge">01CB || 1384</text></g><g transform="translate(223.66559320389348 127.28560220481211) rotate(0 8.76800537109375 10)"><text x="0" y="0" font-family="Virgil, Segoe UI Emoji" font-size="16px" fill="#f08c00" text-anchor="start" style="white-space: pre;" direction="ltr" dominant-baseline="text-before-edge">....</text></g><g transform="translate(181.6011367169355 171.8244384851206) rotate(0 52.22410583496094 10)"><text x="0" y="0" font-family="Virgil, Segoe UI Emoji" font-size="16px" fill="#f08c00" text-anchor="start" style="white-space: pre;" direction="ltr" dominant-baseline="text-before-edge">247E || 3C87</text></g><g transform="translate(227.62460087325422 244.0763284509544) rotate(0 8.76800537109375 10)"><text x="0" y="0" font-family="Virgil, Segoe UI Emoji" font-size="16px" fill="#f08c00" text-anchor="start" style="white-space: pre;" direction="ltr" dominant-baseline="text-before-edge">....</text></g><g transform="translate(222.34799180788292 205.86839880675893) rotate(0 8.76800537109375 10)"><text x="0" y="0" font-family="Virgil, Segoe UI Emoji" font-size="16px" fill="#f08c00" text-anchor="start" style="white-space: pre;" direction="ltr" dominant-baseline="text-before-edge">....</text></g><g transform="translate(41.55124041329907 10) rotate(0 58.200111389160156 10)"><text x="0" y="0" font-family="Virgil, Segoe UI Emoji" font-size="16px" fill="#1971c2" text-anchor="start" style="white-space: pre;" direction="ltr" dominant-baseline="text-before-edge">LevelDB Table</text></g></svg>