<svg version="1.1" xmlns="http://www.w3.org/2000/svg" viewBox="0 0 852.8073895829499 623.1123773591885" width="852.8073895829499" height="623.1123773591885">
  <!-- svg-source:excalidraw -->
  
  <defs>
    <style class="style-fonts">
      @font-face {
        font-family: "Virgil";
        src: url("https://excalidraw.com/Virgil.woff2");
      }
      @font-face {
        font-family: "Cascadia";
        src: url("https://excalidraw.com/Cascadia.woff2");
      }
    </style>
    
  </defs>
  <g stroke-linecap="round" transform="translate(324.1376899014682 49.94606942473774) rotate(0 73 28.5)"><path d="M14.25 0 M14.25 0 C55.04 0.31, 101.03 -0.25, 131.75 0 M14.25 0 C57.49 1.77, 101.3 1.91, 131.75 0 M131.75 0 C139.94 -0.58, 145.33 5.71, 146 14.25 M131.75 0 C140.9 0.09, 144.17 2.73, 146 14.25 M146 14.25 C147.05 20.62, 144.67 25.21, 146 42.75 M146 14.25 C146.79 20.88, 145.61 26.14, 146 42.75 M146 42.75 C145.27 50.71, 140.9 56.48, 131.75 57 M146 42.75 C145.1 53.02, 142.6 55.57, 131.75 57 M131.75 57 C107.48 56.06, 77.91 58.3, 14.25 57 M131.75 57 C94.37 58.26, 55.13 57.31, 14.25 57 M14.25 57 C4.82 55.45, 0.76 53.76, 0 42.75 M14.25 57 C4.82 57.76, -0.38 53.39, 0 42.75 M0 42.75 C-1.14 35.39, -1.52 27.37, 0 14.25 M0 42.75 C-0.78 32.55, 0.67 24.78, 0 14.25 M0 14.25 C-0.13 5.44, 6.09 -0.45, 14.25 0 M0 14.25 C0.12 6.44, 5.08 -1.25, 14.25 0" stroke="#fab005" stroke-width="1" fill="none"></path></g><g transform="translate(346.2197211514682 69.2460694247377) rotate(0 50.91796875 9.200000000000045)"><text x="50.91796875" y="0" font-family="Helvetica, Segoe UI Emoji" font-size="16px" fill="#fab005" text-anchor="middle" style="white-space: pre;" direction="ltr" dominant-baseline="text-before-edge">Hash(h0 + h1)</text></g><g stroke-linecap="round" transform="translate(310.31129200856356 10) rotate(0 86.06127358205447 56.69696716669273)"><path d="M28.35 0 M28.35 0 C61.74 -1.32, 90.74 -0.15, 143.77 0 M28.35 0 C72.21 -1.45, 117.04 -0.67, 143.77 0 M143.77 0 C162.37 0.08, 170.53 7.69, 172.12 28.35 M143.77 0 C160.39 0.55, 170.4 10.57, 172.12 28.35 M172.12 28.35 C170.24 47.06, 171.39 67.64, 172.12 85.05 M172.12 28.35 C171.55 45.75, 171.73 64.43, 172.12 85.05 M172.12 85.05 C171.34 104.61, 163.85 112.15, 143.77 113.39 M172.12 85.05 C170.36 105.39, 164.11 115.67, 143.77 113.39 M143.77 113.39 C119.27 112.09, 95.41 114.81, 28.35 113.39 M143.77 113.39 C105.15 111.93, 66.84 113.45, 28.35 113.39 M28.35 113.39 C9.51 114.06, -0.33 104.94, 0 85.05 M28.35 113.39 C8.13 112.84, -0.11 102.55, 0 85.05 M0 85.05 C1.1 69.84, 2.41 52.11, 0 28.35 M0 85.05 C-0.49 72.47, 0.24 58.98, 0 28.35 M0 28.35 C0.1 10.92, 9.74 -1.08, 28.35 0 M0 28.35 C1.63 8.89, 11.58 1.81, 28.35 0" stroke="#2f9e44" stroke-width="1" fill="none"></path></g><g transform="translate(353.5256041830272 20.063268286754464) rotate(0 37.796875 9.200000000000045)"><text x="0" y="0" font-family="Helvetica, Segoe UI Emoji" font-size="16px" fill="#2f9e44" text-anchor="start" style="white-space: pre;" direction="ltr" dominant-baseline="text-before-edge">Root Hash</text></g><g stroke-linecap="round" transform="translate(135.15198512155678 216.01692896105692) rotate(0 73 28.5)"><path d="M14.25 0 M14.25 0 C46.39 -1.94, 78.5 -0.96, 131.75 0 M14.25 0 C47.46 -0.07, 82.79 0.65, 131.75 0 M131.75 0 C141.76 1.12, 145.06 5.3, 146 14.25 M131.75 0 C141.34 1.53, 144.34 3.97, 146 14.25 M146 14.25 C147.71 23.59, 143.89 33.32, 146 42.75 M146 14.25 C145.75 22.33, 146.23 30.81, 146 42.75 M146 42.75 C146.42 52.72, 142.02 57.5, 131.75 57 M146 42.75 C146.59 52.86, 140.16 56.62, 131.75 57 M131.75 57 C85.72 57.81, 38.02 57.53, 14.25 57 M131.75 57 C96.82 56.05, 62.25 57.61, 14.25 57 M14.25 57 C5.92 56.22, 1.49 53.32, 0 42.75 M14.25 57 C4.59 58.22, 1.3 53.99, 0 42.75 M0 42.75 C0.91 32.14, 0.21 20.76, 0 14.25 M0 42.75 C0.3 31.33, -0.96 19.98, 0 14.25 M0 14.25 C0.43 5.85, 2.99 -0.92, 14.25 0 M0 14.25 C0.16 2.64, 4.18 2.07, 14.25 0" stroke="#fab005" stroke-width="1" fill="none"></path></g><g transform="translate(148.33557887155678 235.31692896105687) rotate(0 59.81640625 9.200000000000045)"><text x="59.81640625" y="0" font-family="Helvetica, Segoe UI Emoji" font-size="16px" fill="#fab005" text-anchor="middle" style="white-space: pre;" direction="ltr" dominant-baseline="text-before-edge">Hash(h00 + h01)</text></g><g stroke-linecap="round" transform="translate(121.32558722865235 176.07085953631872) rotate(0 86.06127358205447 56.69696716669273)"><path d="M28.35 0 M28.35 0 C52.62 1.8, 77.69 -1.26, 143.77 0 M28.35 0 C65.17 -0.46, 101.02 -0.74, 143.77 0 M143.77 0 C162.75 1.33, 170.68 8.77, 172.12 28.35 M143.77 0 C163.16 -1.83, 172.27 11.67, 172.12 28.35 M172.12 28.35 C171.1 45.14, 172.03 63.16, 172.12 85.05 M172.12 28.35 C172.52 46.89, 172.69 65.22, 172.12 85.05 M172.12 85.05 C172.64 104.47, 161.73 113.06, 143.77 113.39 M172.12 85.05 C174.3 104.95, 162.98 113.8, 143.77 113.39 M143.77 113.39 C105.35 114.73, 66.79 114.15, 28.35 113.39 M143.77 113.39 C119.64 113.81, 95.08 114.74, 28.35 113.39 M28.35 113.39 C9.31 114.46, 1.13 105.46, 0 85.05 M28.35 113.39 C11.14 111.52, 2.22 104.72, 0 85.05 M0 85.05 C1.79 68.77, -1.01 51.72, 0 28.35 M0 85.05 C0.7 70.5, -0.4 54.39, 0 28.35 M0 28.35 C0.14 7.62, 8.96 1.8, 28.35 0 M0 28.35 C0.27 8.16, 9.76 1.37, 28.35 0" stroke="#2f9e44" stroke-width="1" fill="none"></path></g><g transform="translate(176.7695507346442 186.1341278230732) rotate(0 17.7890625 9.200000000000045)"><text x="0" y="0" font-family="Helvetica, Segoe UI Emoji" font-size="16px" fill="#2f9e44" text-anchor="start" style="white-space: pre;" direction="ltr" dominant-baseline="text-before-edge">    h0</text></g><g stroke-linecap="round" transform="translate(541.4329941828242 216.0169289610567) rotate(0 73 28.5)"><path d="M14.25 0 M14.25 0 C55.59 -1.24, 95.23 -0.22, 131.75 0 M14.25 0 C57.51 -0.4, 100.42 1.36, 131.75 0 M131.75 0 C141.44 -1.89, 146.77 4.26, 146 14.25 M131.75 0 C140.38 0.51, 145.68 5.28, 146 14.25 M146 14.25 C146.72 24.52, 146.75 33.77, 146 42.75 M146 14.25 C146.81 23.99, 146 33.03, 146 42.75 M146 42.75 C146.66 51.29, 141.62 56.99, 131.75 57 M146 42.75 C147.28 52.08, 141.87 55.03, 131.75 57 M131.75 57 C85.09 59.18, 41.06 57.55, 14.25 57 M131.75 57 C90.98 57.08, 49.7 58.23, 14.25 57 M14.25 57 C4.78 56.98, -0.71 54.03, 0 42.75 M14.25 57 C5.68 55.83, 0.97 51.47, 0 42.75 M0 42.75 C1.27 34.84, -0.75 30.6, 0 14.25 M0 42.75 C0.19 36.25, 0.21 31.47, 0 14.25 M0 14.25 C1.23 3.6, 4.64 1.77, 14.25 0 M0 14.25 C2.12 3.61, 5.85 0.38, 14.25 0" stroke="#fab005" stroke-width="1" fill="none"></path></g><g transform="translate(555.2103379328242 235.31692896105665) rotate(0 59.22265625 9.200000000000045)"><text x="59.22265625" y="0" font-family="Helvetica, Segoe UI Emoji" font-size="16px" fill="#fab005" text-anchor="middle" style="white-space: pre;" direction="ltr" dominant-baseline="text-before-edge">Hash(h10 + h11)</text></g><g stroke-linecap="round" transform="translate(527.6065962899198 176.0708595363185) rotate(0 86.06127358205447 56.69696716669273)"><path d="M28.35 0 M28.35 0 C58.85 -1.49, 86.02 0.38, 143.77 0 M28.35 0 C53.91 -2.06, 79.67 -1.36, 143.77 0 M143.77 0 C161.92 0.45, 171.85 9.91, 172.12 28.35 M143.77 0 C163.44 1.97, 172.6 9.99, 172.12 28.35 M172.12 28.35 C172.79 46.58, 171.93 68.6, 172.12 85.05 M172.12 28.35 C172.53 47.35, 172.39 67.3, 172.12 85.05 M172.12 85.05 C173.24 103.8, 163.21 111.68, 143.77 113.39 M172.12 85.05 C174.2 105.56, 164.01 112.49, 143.77 113.39 M143.77 113.39 C101.61 114.45, 58.83 114.78, 28.35 113.39 M143.77 113.39 C118.55 113.77, 92.93 114.67, 28.35 113.39 M28.35 113.39 C10.26 112.38, 0.84 103.27, 0 85.05 M28.35 113.39 C7.51 112.01, 0.5 105.21, 0 85.05 M0 85.05 C-1.57 72.55, 2.06 61.27, 0 28.35 M0 85.05 C0.54 70.65, -0.13 58.28, 0 28.35 M0 28.35 C1.84 8.46, 10.41 0.33, 28.35 0 M0 28.35 C1.17 8.92, 8.6 -0.03, 28.35 0" stroke="#2f9e44" stroke-width="1" fill="none"></path></g><g transform="translate(588.7577304172916 186.94943791184164) rotate(0 17.7890625 9.200000000000045)"><text x="0" y="0" font-family="Helvetica, Segoe UI Emoji" font-size="16px" fill="#2f9e44" text-anchor="start" style="white-space: pre;" direction="ltr" dominant-baseline="text-before-edge">    h1</text></g><g stroke-linecap="round"><g transform="translate(359.64659866982595 124.88529887318327) rotate(0 -79.34841237405459 25.49397947485147)"><path d="M-0.19 0.28 C-26.81 8.91, -132.27 43.35, -158.5 51.61 M-1.75 -0.62 C-28.1 7.72, -130.15 41.49, -156.26 50.06" stroke="#2f9e44" stroke-width="1" fill="none"></path></g></g><mask></mask><g stroke-linecap="round"><g transform="translate(444.57539717415864 121.8248016297839) rotate(0 90.47266697088503 27.692619576103084)"><path d="M1.09 1.14 C30.8 10.15, 148.61 46.09, 178.38 54.7 M0.21 0.69 C30.29 9.33, 150.9 44.33, 180.74 53.17" stroke="#2f9e44" stroke-width="1" fill="none"></path></g></g><mask></mask><g stroke-linecap="round" transform="translate(23.826397892904424 383.0839911732212) rotate(0 73 28.5)"><path d="M14.25 0 M14.25 0 C57.07 0.77, 102.31 -2.96, 131.75 0 M14.25 0 C50.29 1.07, 84.49 -0.36, 131.75 0 M131.75 0 C142.4 1.72, 147.44 5.66, 146 14.25 M131.75 0 C141.47 1.36, 144.46 3.98, 146 14.25 M146 14.25 C147.24 25.4, 145.73 36.05, 146 42.75 M146 14.25 C145.24 21.51, 145.34 28.2, 146 42.75 M146 42.75 C145.61 51.91, 139.97 58.26, 131.75 57 M146 42.75 C144.55 52.52, 139.72 55.23, 131.75 57 M131.75 57 C92.19 57.87, 50.97 55.73, 14.25 57 M131.75 57 C89.73 57.77, 45.07 57.47, 14.25 57 M14.25 57 C4.01 56.11, 1.68 50.26, 0 42.75 M14.25 57 C2.98 59.12, -1.97 52.98, 0 42.75 M0 42.75 C1.48 34.48, -0.96 28.81, 0 14.25 M0 42.75 C0.85 35.56, -0.16 26.74, 0 14.25 M0 14.25 C0.27 6.16, 2.84 -1, 14.25 0 M0 14.25 C0.01 4.8, 2.87 -0.24, 14.25 0" stroke="#fab005" stroke-width="1" fill="none"></path></g><g transform="translate(64.37327289290442 402.38399117322115) rotate(0 32.453125 9.200000000000045)"><text x="32.453125" y="0" font-family="Helvetica, Segoe UI Emoji" font-size="16px" fill="#fab005" text-anchor="middle" style="white-space: pre;" direction="ltr" dominant-baseline="text-before-edge">Hash(v0)</text></g><g stroke-linecap="round" transform="translate(10 343.137921748483) rotate(0 86.06127358205447 56.69696716669273)"><path d="M28.35 0 M28.35 0 C74.12 0.16, 119.11 2.96, 143.77 0 M28.35 0 C70.1 1.85, 111.41 1.45, 143.77 0 M143.77 0 C162.86 1.18, 170.78 8.78, 172.12 28.35 M143.77 0 C164.53 1.34, 173.03 10.68, 172.12 28.35 M172.12 28.35 C170.86 47.58, 172.46 62.15, 172.12 85.05 M172.12 28.35 C171.44 47.08, 171 66.78, 172.12 85.05 M172.12 85.05 C170.86 104.18, 161.34 111.85, 143.77 113.39 M172.12 85.05 C173.11 103.96, 163.14 114.25, 143.77 113.39 M143.77 113.39 C106.79 112.52, 68.9 114.25, 28.35 113.39 M143.77 113.39 C111.39 112.34, 80.58 111.79, 28.35 113.39 M28.35 113.39 C7.91 115.24, -1.71 104.58, 0 85.05 M28.35 113.39 C8.32 115.48, -1.08 105.94, 0 85.05 M0 85.05 C-0.35 71.51, -1 59.19, 0 28.35 M0 85.05 C0.21 65.48, -0.89 44, 0 28.35 M0 28.35 C0.01 9.49, 7.82 -0.21, 28.35 0 M0 28.35 C-1.78 9.52, 9.4 -1.37, 28.35 0" stroke="#2f9e44" stroke-width="1" fill="none"></path></g><g transform="translate(66.25927359476054 354.01650012400614) rotate(0 22.23828125 9.200000000000045)"><text x="0" y="0" font-family="Helvetica, Segoe UI Emoji" font-size="16px" fill="#2f9e44" text-anchor="start" style="white-space: pre;" direction="ltr" dominant-baseline="text-before-edge">    h00</text></g><g stroke-linecap="round" transform="translate(257.1893127021069 383.0839911732212) rotate(0 73 28.5)"><path d="M14.25 0 M14.25 0 C45.5 -0.97, 72.77 0.02, 131.75 0 M14.25 0 C59.72 0.06, 104.33 -0.87, 131.75 0 M131.75 0 C142.87 1.17, 146.79 5.82, 146 14.25 M131.75 0 C141.59 -0.51, 146.1 3.44, 146 14.25 M146 14.25 C146.73 23.05, 146.25 34.89, 146 42.75 M146 14.25 C145.19 22.43, 145.15 29.61, 146 42.75 M146 42.75 C146.86 52.26, 141.66 57.74, 131.75 57 M146 42.75 C146.73 52.04, 139.51 58.49, 131.75 57 M131.75 57 C96.04 56.2, 60.17 57.28, 14.25 57 M131.75 57 C100.94 56.76, 70.81 56.15, 14.25 57 M14.25 57 C3.76 58.81, -0.94 53.99, 0 42.75 M14.25 57 C3.46 56.19, 0.4 51.62, 0 42.75 M0 42.75 C1.32 33.55, -0.77 25.12, 0 14.25 M0 42.75 C0.28 32.21, -0.54 21.51, 0 14.25 M0 14.25 C-1.54 4.81, 4.71 -1.19, 14.25 0 M0 14.25 C0.43 6.71, 5.32 -0.39, 14.25 0" stroke="#fab005" stroke-width="1" fill="none"></path></g><g transform="translate(297.7361877021069 402.38399117322115) rotate(0 32.453125 9.200000000000045)"><text x="32.453125" y="0" font-family="Helvetica, Segoe UI Emoji" font-size="16px" fill="#fab005" text-anchor="middle" style="white-space: pre;" direction="ltr" dominant-baseline="text-before-edge">Hash(v1)</text></g><g stroke-linecap="round" transform="translate(243.3629148092025 343.137921748483) rotate(0 86.06127358205453 56.69696716669273)"><path d="M28.35 0 M28.35 0 C65.61 0.77, 100.33 -0.48, 143.77 0 M28.35 0 C70.6 0.97, 111.62 0.92, 143.77 0 M143.77 0 C162.97 -0.44, 172.21 8.31, 172.12 28.35 M143.77 0 C164.26 0.53, 169.93 10.22, 172.12 28.35 M172.12 28.35 C171.83 39.21, 173.44 51.37, 172.12 85.05 M172.12 28.35 C172.18 46.04, 171.95 64.08, 172.12 85.05 M172.12 85.05 C172.76 103.76, 161.16 114.69, 143.77 113.39 M172.12 85.05 C172.12 105.9, 164.66 112.87, 143.77 113.39 M143.77 113.39 C118.74 114.65, 93.5 111.43, 28.35 113.39 M143.77 113.39 C98 114.67, 52.74 114.63, 28.35 113.39 M28.35 113.39 C8.32 112.69, 0.35 103.4, 0 85.05 M28.35 113.39 C9.77 112.02, 2.05 105.27, 0 85.05 M0 85.05 C1.68 66.83, -0.73 52.45, 0 28.35 M0 85.05 C-0.31 67.94, 0.44 50.18, 0 28.35 M0 28.35 C0.38 11.15, 9.95 -0.34, 28.35 0 M0 28.35 C-0.22 9.94, 11.66 -2.13, 28.35 0" stroke="#2f9e44" stroke-width="1" fill="none"></path></g><g transform="translate(301.25280858149995 353.9663143460873) rotate(0 22.23828125 9.200000000000045)"><text x="0" y="0" font-family="Helvetica, Segoe UI Emoji" font-size="16px" fill="#2f9e44" text-anchor="start" style="white-space: pre;" direction="ltr" dominant-baseline="text-before-edge">    h01</text></g><g stroke-linecap="round"><g transform="translate(161.09684000429115 292.7174853961976) rotate(0 -30.18623926046081 25.346401889507092)"><path d="M0.11 0.71 C-10.11 8.84, -50.68 41.04, -60.49 49.33 M-1.29 0.03 C-11.21 8.29, -48.58 42.59, -58.2 50.66" stroke="#2f9e44" stroke-width="1" fill="none"></path></g></g><mask></mask><g stroke-linecap="round"><g transform="translate(246.02563850862384 292.7174853961976) rotate(0 36.04293225275052 24.77006417195844)"><path d="M-0.81 -0.4 C11.32 8.01, 60.69 42.61, 72.89 51.2 M0.97 -1.66 C13.02 6.35, 60.63 40.98, 72.45 49.44" stroke="#2f9e44" stroke-width="1" fill="none"></path></g></g><mask></mask><g stroke-linecap="round" transform="translate(439.2888986843701 382.3188668623718) rotate(0 73 28.5)"><path d="M14.25 0 M14.25 0 C58.09 -2.71, 105.6 -0.67, 131.75 0 M14.25 0 C45.15 -1.11, 74.1 -1.56, 131.75 0 M131.75 0 C139.37 1.42, 146.67 6.61, 146 14.25 M131.75 0 C140.88 0.52, 145.93 3.01, 146 14.25 M146 14.25 C143.98 19.49, 144.39 28.07, 146 42.75 M146 14.25 C145.45 24.72, 146.72 33.97, 146 42.75 M146 42.75 C145.33 51.76, 142.7 57.05, 131.75 57 M146 42.75 C145.48 50.55, 140.5 55.82, 131.75 57 M131.75 57 C106.14 57.38, 80.59 59.29, 14.25 57 M131.75 57 C102.23 57.04, 71.29 57.18, 14.25 57 M14.25 57 C3.53 56.68, -1.16 50.83, 0 42.75 M14.25 57 C6.64 58.39, -1.31 50.29, 0 42.75 M0 42.75 C-1.18 37.14, 0.3 29.61, 0 14.25 M0 42.75 C-0.08 32.98, -0.45 22.88, 0 14.25 M0 14.25 C-1.12 3.43, 3.84 -1.19, 14.25 0 M0 14.25 C1.95 4.47, 4.06 1.03, 14.25 0" stroke="#fab005" stroke-width="1" fill="none"></path></g><g transform="translate(479.8357736843701 401.61886686237176) rotate(0 32.453125 9.200000000000045)"><text x="32.453125" y="0" font-family="Helvetica, Segoe UI Emoji" font-size="16px" fill="#fab005" text-anchor="middle" style="white-space: pre;" direction="ltr" dominant-baseline="text-before-edge">Hash(v2)</text></g><g stroke-linecap="round" transform="translate(425.4625007914657 342.3727974376336) rotate(0 86.06127358205447 56.69696716669273)"><path d="M28.35 0 M28.35 0 C53.05 -1.27, 81.31 1.72, 143.77 0 M28.35 0 C60.96 1.33, 95.79 1.55, 143.77 0 M143.77 0 C162.35 0.45, 172.06 7.93, 172.12 28.35 M143.77 0 C161.2 -0.28, 171.31 7.17, 172.12 28.35 M172.12 28.35 C172.64 40.72, 173.55 53, 172.12 85.05 M172.12 28.35 C172.23 48.24, 173.29 68.65, 172.12 85.05 M172.12 85.05 C171.67 102.47, 162.02 112.37, 143.77 113.39 M172.12 85.05 C170.05 103.69, 163.41 112.31, 143.77 113.39 M143.77 113.39 C108.24 116.39, 74.42 115.44, 28.35 113.39 M143.77 113.39 C107.44 113.5, 71.75 112.95, 28.35 113.39 M28.35 113.39 C11.09 114.6, -1.14 102.24, 0 85.05 M28.35 113.39 C8.29 114.22, 1.06 102.71, 0 85.05 M0 85.05 C0.95 62.85, -1.36 42.07, 0 28.35 M0 85.05 C-0.23 65.68, -0.13 47.03, 0 28.35 M0 28.35 C1.69 9.21, 8.85 0.9, 28.35 0 M0 28.35 C1.06 11.22, 7.77 -1.82, 28.35 0" stroke="#2f9e44" stroke-width="1" fill="none"></path></g><g transform="translate(481.72177438622623 352.4360657243881) rotate(0 22.23828125 9.200000000000045)"><text x="0" y="0" font-family="Helvetica, Segoe UI Emoji" font-size="16px" fill="#2f9e44" text-anchor="start" style="white-space: pre;" direction="ltr" dominant-baseline="text-before-edge">    h10</text></g><g stroke-linecap="round" transform="translate(672.6518134935726 382.31886686237135) rotate(0 73 28.5)"><path d="M14.25 0 M14.25 0 C43.47 -1.08, 71.99 -3.06, 131.75 0 M14.25 0 C57.67 -0.87, 101.39 -1.85, 131.75 0 M131.75 0 C139.97 -0.25, 145.29 2.77, 146 14.25 M131.75 0 C139.55 -1.81, 146.43 5.86, 146 14.25 M146 14.25 C147.37 23.74, 146.02 29.44, 146 42.75 M146 14.25 C145.98 21.36, 145.88 29.44, 146 42.75 M146 42.75 C144.2 52.03, 141.89 56.06, 131.75 57 M146 42.75 C146 50.15, 143.45 55.97, 131.75 57 M131.75 57 C85.54 56.61, 39.41 56.33, 14.25 57 M131.75 57 C99.22 56.77, 64.48 55.31, 14.25 57 M14.25 57 C3.74 57.72, 0.93 51.18, 0 42.75 M14.25 57 C6.48 57.46, 1.24 53.48, 0 42.75 M0 42.75 C0.78 34.34, 0.71 27.15, 0 14.25 M0 42.75 C0.98 35.96, -0.17 29.85, 0 14.25 M0 14.25 C0.92 6.29, 3.29 -1.59, 14.25 0 M0 14.25 C1.94 5.96, 5.32 1.45, 14.25 0" stroke="#fab005" stroke-width="1" fill="none"></path></g><g transform="translate(713.1986884935726 401.6188668623713) rotate(0 32.453125 9.200000000000045)"><text x="32.453125" y="0" font-family="Helvetica, Segoe UI Emoji" font-size="16px" fill="#fab005" text-anchor="middle" style="white-space: pre;" direction="ltr" dominant-baseline="text-before-edge">Hash(v3)</text></g><g stroke-linecap="round" transform="translate(658.8254156006682 342.37279743763315) rotate(0 86.06127358205447 56.69696716669273)"><path d="M28.35 0 M28.35 0 C64.93 1.76, 100.54 0.76, 143.77 0 M28.35 0 C64.96 0.75, 102.5 -0.12, 143.77 0 M143.77 0 C161.19 -1.57, 172.5 10.41, 172.12 28.35 M143.77 0 C162.17 2.15, 171.01 10.72, 172.12 28.35 M172.12 28.35 C171.56 51.24, 172.1 70.79, 172.12 85.05 M172.12 28.35 C171.04 41.06, 172.26 53.52, 172.12 85.05 M172.12 85.05 C172.12 102.12, 164.58 112.5, 143.77 113.39 M172.12 85.05 C174.31 103.85, 163.76 113.61, 143.77 113.39 M143.77 113.39 C114.3 111.53, 84.06 114.33, 28.35 113.39 M143.77 113.39 C101.66 112.77, 61.02 111.87, 28.35 113.39 M28.35 113.39 C10.95 113.79, 1.08 105.01, 0 85.05 M28.35 113.39 C8.39 111.96, -0.49 104.63, 0 85.05 M0 85.05 C-1.47 70.44, -1.35 59.35, 0 28.35 M0 85.05 C0.63 69.5, -0.56 51.62, 0 28.35 M0 28.35 C1.69 10.5, 9.95 1.26, 28.35 0 M0 28.35 C-0.74 10.09, 10 -0.46, 28.35 0" stroke="#2f9e44" stroke-width="1" fill="none"></path></g><g transform="translate(715.0345034175099 354.066685901925) rotate(0 21.64453125 9.200000000000045)"><text x="0" y="0" font-family="Helvetica, Segoe UI Emoji" font-size="16px" fill="#2f9e44" text-anchor="start" style="white-space: pre;" direction="ltr" dominant-baseline="text-before-edge">    h11</text></g><g stroke-linecap="round"><g transform="translate(576.5593407957568 291.9523610853478) rotate(0 -30.44089902216342 24.627443068340767)"><path d="M-0.2 0.27 C-10.22 8.22, -49.68 40.61, -59.72 48.82 M-1.76 -0.63 C-11.97 7.96, -51.32 41.31, -60.69 49.88" stroke="#2f9e44" stroke-width="1" fill="none"></path></g></g><mask></mask><g stroke-linecap="round"><g transform="translate(661.4881393000895 291.9523610853478) rotate(0 35.971180699948945 25.450468289503533)"><path d="M-0.04 -0.91 C11.85 7.44, 59.23 41.98, 71.15 50.35 M-1.52 1.23 C10.78 9.74, 61.46 43.68, 73.46 51.81" stroke="#2f9e44" stroke-width="1" fill="none"></path></g></g><mask></mask><g stroke-linecap="round" transform="translate(26.50433298087887 535.8388908962918) rotate(0 73 28.5)"><path d="M14.25 0 M14.25 0 C47.1 -2.07, 75.37 -1.1, 131.75 0 M14.25 0 C48.64 0.39, 82.99 -0.05, 131.75 0 M131.75 0 C140.37 -0.54, 144.43 3.09, 146 14.25 M131.75 0 C143.17 -1.66, 147.53 7.01, 146 14.25 M146 14.25 C147.3 24.18, 145.12 36.3, 146 42.75 M146 14.25 C146.58 23.37, 146.34 33.22, 146 42.75 M146 42.75 C144.23 52.53, 143.06 58.07, 131.75 57 M146 42.75 C145.42 54.27, 141.65 55, 131.75 57 M131.75 57 C108.7 55.8, 81.81 57.3, 14.25 57 M131.75 57 C106.38 55.83, 81.08 56.08, 14.25 57 M14.25 57 C5.42 55.14, 0.69 54.04, 0 42.75 M14.25 57 C3.33 57.38, -0.44 54.19, 0 42.75 M0 42.75 C0.4 33.95, -0.26 27.82, 0 14.25 M0 42.75 C0.28 35.95, -0.01 28.58, 0 14.25 M0 14.25 C-0.48 4.04, 2.91 0.13, 14.25 0 M0 14.25 C0.33 3.16, 3.96 -1.6, 14.25 0" stroke="#fab005" stroke-width="1" fill="none"></path></g><g transform="translate(68.52386423087887 555.1388908962917) rotate(0 30.98046875 9.200000000000045)"><text x="30.98046875" y="0" font-family="Helvetica, Segoe UI Emoji" font-size="16px" fill="#fab005" text-anchor="middle" style="white-space: pre;" direction="ltr" dominant-baseline="text-before-edge">Value: ...</text></g><g stroke-linecap="round" transform="translate(11.147686466274536 496.65794578240434) rotate(0 86.06127358205447 56.69696716669273)"><path d="M28.35 0 M28.35 0 C54.15 -1.62, 81.38 0.96, 143.77 0 M28.35 0 C73.94 -0.9, 119.62 -1.46, 143.77 0 M143.77 0 C164.35 -1.44, 173.45 11.42, 172.12 28.35 M143.77 0 C164.24 -1.3, 173.08 11.13, 172.12 28.35 M172.12 28.35 C172.52 43.14, 171.86 60.53, 172.12 85.05 M172.12 28.35 C171.48 43.88, 173.27 59.67, 172.12 85.05 M172.12 85.05 C171.62 105.7, 163.02 111.66, 143.77 113.39 M172.12 85.05 C169.96 104.82, 163.63 114.73, 143.77 113.39 M143.77 113.39 C117.19 114.8, 92.3 113.38, 28.35 113.39 M143.77 113.39 C111.72 112.53, 79.34 114.35, 28.35 113.39 M28.35 113.39 C8.22 113.73, -0.39 105.63, 0 85.05 M28.35 113.39 C9.25 113.24, -0.65 104.39, 0 85.05 M0 85.05 C-1.18 71.13, -1.78 54.89, 0 28.35 M0 85.05 C-0.37 67.96, -1.05 51.66, 0 28.35 M0 28.35 C0.29 8.07, 8.76 -1.39, 28.35 0 M0 28.35 C1.99 9.3, 10.22 1.71, 28.35 0" stroke="#2f9e44" stroke-width="1" fill="none"></path></g><g transform="translate(68.22227014980376 508.35183424669594) rotate(0 17.33984375 9.200000000000045)"><text x="0" y="0" font-family="Helvetica, Segoe UI Emoji" font-size="16px" fill="#2f9e44" text-anchor="start" style="white-space: pre;" direction="ltr" dominant-baseline="text-before-edge">    v0</text></g><g stroke-linecap="round" transform="translate(269.0487395202798 538.8993881396905) rotate(0 73 28.5)"><path d="M14.25 0 M14.25 0 C55.32 -1.35, 95.58 -1.21, 131.75 0 M14.25 0 C51.85 0.69, 91.11 1.4, 131.75 0 M131.75 0 C143.2 0.4, 146.39 3.34, 146 14.25 M131.75 0 C140.93 1.73, 146.06 3.46, 146 14.25 M146 14.25 C146.76 27, 146.43 38.27, 146 42.75 M146 14.25 C145.53 25.47, 146.24 35.86, 146 42.75 M146 42.75 C146.69 50.77, 141.15 55.93, 131.75 57 M146 42.75 C145.2 50.03, 142.49 56.36, 131.75 57 M131.75 57 C88.58 55.45, 43.15 57.3, 14.25 57 M131.75 57 C88.75 57.82, 44.22 56.91, 14.25 57 M14.25 57 C5.85 57.4, -1.74 52.97, 0 42.75 M14.25 57 C4.03 55.42, -1.61 52.79, 0 42.75 M0 42.75 C0.11 34.48, 0.12 26.25, 0 14.25 M0 42.75 C-0.38 32.42, -0.99 20.5, 0 14.25 M0 14.25 C0.16 3.13, 6.62 -1.98, 14.25 0 M0 14.25 C-1.12 5.48, 6.75 -1.78, 14.25 0" stroke="#fab005" stroke-width="1" fill="none"></path></g><g transform="translate(311.0682707702798 558.1993881396904) rotate(0 30.98046875 9.200000000000045)"><text x="30.98046875" y="0" font-family="Helvetica, Segoe UI Emoji" font-size="16px" fill="#fab005" text-anchor="middle" style="white-space: pre;" direction="ltr" dominant-baseline="text-before-edge">Value: ...</text></g><g stroke-linecap="round" transform="translate(253.69209300567547 499.718443025803) rotate(0 86.06127358205447 56.69696716669273)"><path d="M28.35 0 M28.35 0 C54.49 0.46, 77.88 -0.18, 143.77 0 M28.35 0 C59.81 -0.21, 89.52 -1.12, 143.77 0 M143.77 0 C162.39 1.51, 172.17 8.32, 172.12 28.35 M143.77 0 C164.89 -0.57, 171.9 10.4, 172.12 28.35 M172.12 28.35 C174.19 49.92, 174.1 69.53, 172.12 85.05 M172.12 28.35 C172.57 44.19, 172.17 60.98, 172.12 85.05 M172.12 85.05 C171.42 102.01, 163.75 112.84, 143.77 113.39 M172.12 85.05 C174.03 104.9, 161.73 115.48, 143.77 113.39 M143.77 113.39 C116.76 114.43, 87.32 115.55, 28.35 113.39 M143.77 113.39 C103.71 113.14, 61.67 113.3, 28.35 113.39 M28.35 113.39 C8.82 112.02, -1.4 104.41, 0 85.05 M28.35 113.39 C9.69 113.43, -0.05 104.08, 0 85.05 M0 85.05 C1.52 67.13, -0.39 47.18, 0 28.35 M0 85.05 C0.58 64.76, 1.43 45.11, 0 28.35 M0 28.35 C-0.98 10.08, 11.19 -1.55, 28.35 0 M0 28.35 C0.03 7.57, 8.56 1.67, 28.35 0" stroke="#2f9e44" stroke-width="1" fill="none"></path></g><g transform="translate(306.69012624536174 508.9664012237888) rotate(0 17.33984375 9.200000000000045)"><text x="0" y="0" font-family="Helvetica, Segoe UI Emoji" font-size="16px" fill="#2f9e44" text-anchor="start" style="white-space: pre;" direction="ltr" dominant-baseline="text-before-edge">    v1</text></g><g stroke-linecap="round" transform="translate(448.85295256999336 537.3691395179908) rotate(0 73 28.5)"><path d="M14.25 0 M14.25 0 C41.73 0.34, 70.29 1.93, 131.75 0 M14.25 0 C55.7 -1.83, 98.38 -0.81, 131.75 0 M131.75 0 C140.46 -1.06, 147.94 2.84, 146 14.25 M131.75 0 C139.5 1.04, 145.42 5.57, 146 14.25 M146 14.25 C145.48 18.59, 146.95 26.6, 146 42.75 M146 14.25 C144.94 25.73, 145.84 36.07, 146 42.75 M146 42.75 C145.62 51.89, 140.08 58.45, 131.75 57 M146 42.75 C147.83 51.35, 139.76 55.85, 131.75 57 M131.75 57 C99.64 56.95, 66.47 57.98, 14.25 57 M131.75 57 C100.35 55.21, 67.81 56.32, 14.25 57 M14.25 57 C5.59 56.29, -0.05 50.39, 0 42.75 M14.25 57 C6.46 57.46, 0.36 52.13, 0 42.75 M0 42.75 C-1.11 34.53, -0.58 28.06, 0 14.25 M0 42.75 C-0.64 32.69, -0.96 24.4, 0 14.25 M0 14.25 C0.19 3.64, 6.33 -1.7, 14.25 0 M0 14.25 C-1.48 4.07, 5.26 1.01, 14.25 0" stroke="#fab005" stroke-width="1" fill="none"></path></g><g transform="translate(490.87248381999336 556.6691395179907) rotate(0 30.98046875 9.200000000000045)"><text x="30.98046875" y="0" font-family="Helvetica, Segoe UI Emoji" font-size="16px" fill="#fab005" text-anchor="middle" style="white-space: pre;" direction="ltr" dominant-baseline="text-before-edge">Value: ...</text></g><g stroke-linecap="round" transform="translate(433.49630605538925 498.18819440410334) rotate(0 86.06127358205447 56.69696716669273)"><path d="M28.35 0 M28.35 0 C62.95 -1.95, 97.07 -1.61, 143.77 0 M28.35 0 C53.48 -0.8, 80.37 -1.23, 143.77 0 M143.77 0 C161.15 0.9, 171.62 10.17, 172.12 28.35 M143.77 0 C160.71 -1.44, 170.09 9.06, 172.12 28.35 M172.12 28.35 C173.87 38.49, 173.39 50.72, 172.12 85.05 M172.12 28.35 C171.99 50.21, 171.6 73.15, 172.12 85.05 M172.12 85.05 C173.71 103.16, 161.38 112.39, 143.77 113.39 M172.12 85.05 C171.44 103.82, 163.64 113.02, 143.77 113.39 M143.77 113.39 C111.74 115.06, 79.03 114.89, 28.35 113.39 M143.77 113.39 C118.12 113.47, 91.59 112.89, 28.35 113.39 M28.35 113.39 C10.94 113.8, 0.31 103.84, 0 85.05 M28.35 113.39 C8.92 111.89, -2.29 102.46, 0 85.05 M0 85.05 C0.73 69.8, 1.52 51.79, 0 28.35 M0 85.05 C0.57 71.87, 1.27 58.95, 0 28.35 M0 28.35 C-1.29 8.86, 9.89 0.87, 28.35 0 M0 28.35 C-0.33 8.08, 8.28 0.37, 28.35 0" stroke="#2f9e44" stroke-width="1" fill="none"></path></g><g transform="translate(489.7555796501498 508.2514626908578) rotate(0 17.33984375 9.200000000000045)"><text x="0" y="0" font-family="Helvetica, Segoe UI Emoji" font-size="16px" fill="#2f9e44" text-anchor="start" style="white-space: pre;" direction="ltr" dominant-baseline="text-before-edge">    v2</text></g><g stroke-linecap="round" transform="translate(686.0414889334451 533.5435179637414) rotate(0 73 28.5)"><path d="M14.25 0 M14.25 0 C58.17 1.25, 104.94 -0.67, 131.75 0 M14.25 0 C41.62 -0.46, 67.58 0.29, 131.75 0 M131.75 0 C141 -0.57, 146.58 6.43, 146 14.25 M131.75 0 C142.45 1.05, 147.11 3.83, 146 14.25 M146 14.25 C145.61 23.16, 145.3 33.94, 146 42.75 M146 14.25 C145.82 19.69, 145.79 25.24, 146 42.75 M146 42.75 C144.27 52.18, 140.33 56.59, 131.75 57 M146 42.75 C145.88 52.1, 141.53 58.12, 131.75 57 M131.75 57 C102.75 56.79, 77.29 56.81, 14.25 57 M131.75 57 C86.92 57.16, 43.2 56.44, 14.25 57 M14.25 57 C5.71 55.06, 0.13 51.47, 0 42.75 M14.25 57 C2.45 58.82, -0.32 52.91, 0 42.75 M0 42.75 C-1.39 30.63, -0.33 21.33, 0 14.25 M0 42.75 C0.08 37.07, -0.85 29.04, 0 14.25 M0 14.25 C1.03 3.89, 3.71 0.94, 14.25 0 M0 14.25 C-0.09 3.82, 3.16 -0.46, 14.25 0" stroke="#fab005" stroke-width="1" fill="none"></path></g><g transform="translate(728.0610201834451 552.8435179637413) rotate(0 30.98046875 9.200000000000045)"><text x="30.98046875" y="0" font-family="Helvetica, Segoe UI Emoji" font-size="16px" fill="#fab005" text-anchor="middle" style="white-space: pre;" direction="ltr" dominant-baseline="text-before-edge">Value: ...</text></g><g stroke-linecap="round" transform="translate(670.684842418841 494.3625728498539) rotate(0 86.06127358205447 56.69696716669273)"><path d="M28.35 0 M28.35 0 C62.95 -0.47, 100.67 2.67, 143.77 0 M28.35 0 C58.61 -0.71, 89.42 0.41, 143.77 0 M143.77 0 C163.72 0.91, 173.09 8.65, 172.12 28.35 M143.77 0 C164.39 -1.37, 170.44 9.2, 172.12 28.35 M172.12 28.35 C170.1 40.07, 170.41 52.07, 172.12 85.05 M172.12 28.35 C171.16 42.85, 171.57 57.21, 172.12 85.05 M172.12 85.05 C172.02 103.81, 162.92 114.37, 143.77 113.39 M172.12 85.05 C170.72 102.24, 163.51 112.31, 143.77 113.39 M143.77 113.39 C114.33 111.42, 81.22 111.35, 28.35 113.39 M143.77 113.39 C103.12 112.24, 61.57 112.82, 28.35 113.39 M28.35 113.39 C7.45 114.97, -0.27 104.52, 0 85.05 M28.35 113.39 C11.06 113.64, -0.54 102.38, 0 85.05 M0 85.05 C-1.41 74.1, 1.08 60.57, 0 28.35 M0 85.05 C0.87 63.36, -0.16 43.01, 0 28.35 M0 28.35 C-0.08 8.64, 8.07 -0.4, 28.35 0 M0 28.35 C-1.67 9.03, 8.74 0.1, 28.35 0" stroke="#2f9e44" stroke-width="1" fill="none"></path></g><g transform="translate(726.1288059248328 506.05646131414574) rotate(0 17.33984375 9.200000000000045)"><text x="0" y="0" font-family="Helvetica, Segoe UI Emoji" font-size="16px" fill="#2f9e44" text-anchor="start" style="white-space: pre;" direction="ltr" dominant-baseline="text-before-edge">    v3</text></g><g stroke-linecap="round"><g transform="translate(92.61821418323007 456.94924978201584) rotate(0 -0.8398720881323811 20.123588888016684)"><path d="M0.14 0.69 C0.07 7.55, -0.89 33.87, -1.36 40.24 M-1.24 0.01 C-1.3 6.59, -1.41 31.73, -1.82 38.35" stroke="#2f9e44" stroke-width="1" fill="none"></path></g></g><mask></mask><g stroke-linecap="round"><g transform="translate(329.806750546682 455.41900116031616) rotate(0 0.3475466536078784 21.25762750299873)"><path d="M-0.6 -0.51 C-0.54 6.73, 0.18 35.51, 0.25 42.82 M1.29 -1.82 C1.28 5.68, 0.16 37.16, -0.17 44.34" stroke="#2f9e44" stroke-width="1" fill="none"></path></g></g><mask></mask><g stroke-linecap="round"><g transform="translate(510.3760879072453 455.41900116031616) rotate(0 -0.7239712829873497 22.13333367149437)"><path d="M-0.24 0.19 C-0.27 7.6, 0.24 37.73, 0.4 45.02 M-1.83 -0.76 C-2.02 6.25, -0.69 35.6, -0.34 43.24" stroke="#2f9e44" stroke-width="1" fill="none"></path></g></g><mask></mask><g stroke-linecap="round"><g transform="translate(749.0948728923969 453.12362822776663) rotate(0 -0.6719867749603736 20.11435431991174)"><path d="M0.08 -0.67 C-0.05 6.03, 0.12 33.88, 0.07 40.9 M-1.33 1.59 C-1.7 7.86, -0.88 32.63, -0.84 38.96" stroke="#2f9e44" stroke-width="1" fill="none"></path></g></g><mask></mask></svg>