<svg xmlns="http://www.w3.org/2000/svg" width="670.02" height="298.12" version="1.1" viewBox="0 0 670.02 298.12"><defs><style class="style-fonts">@font-face{font-family:&quot;Virgil&quot;;src:url(https://excalidraw.com/Virgil.woff2)}@font-face{font-family:&quot;Cascadia&quot;;src:url(https://excalidraw.com/Cascadia.woff2)}</style></defs><g stroke-linecap="round"><path fill="none" stroke="#1971c2" stroke-width="1" d="M7.75 0 M7.75 0 C22.18 0.61, 35.12 -0.31, 65.25 0 M7.75 0 C28.06 0.73, 49.04 0.59, 65.25 0 M65.25 0 C68.7 0.63, 74.84 1.61, 73 7.75 M65.25 0 C71.4 1.08, 74.07 0.32, 73 7.75 M73 7.75 C72.03 11.54, 72.89 19.29, 73 23.25 M73 7.75 C72.67 12.12, 72.82 15.66, 73 23.25 M73 23.25 C73.55 29.56, 70.8 30.27, 65.25 31 M73 23.25 C75.06 27.27, 71.77 31.55, 65.25 31 M65.25 31 C52.46 29.78, 41.3 28.9, 7.75 31 M65.25 31 C44.08 30.86, 22.64 30.38, 7.75 31 M7.75 31 C0.66 32.36, -0.04 27.62, 0 23.25 M7.75 31 C3.81 29.06, -0.08 29.55, 0 23.25 M0 23.25 C1.09 19.4, -1.39 15.94, 0 7.75 M0 23.25 C-0.76 17.47, -0.79 12.88, 0 7.75 M0 7.75 C-1.19 0.61, 2.05 -0.32, 7.75 0 M0 7.75 C-1.2 3.05, 1.69 0.38, 7.75 0" transform="translate(211.5939379388758 42.755669897500866) rotate(0 36.5 15.5)"/></g><g><text x="18.684" y="0" fill="#1971c2" direction="ltr" dominant-baseline="text-before-edge" font-family="Helvetica, Segoe UI Emoji" font-size="16" text-anchor="middle" style="white-space:pre" transform="translate(229.4103441888758 49.05566989750088) rotate(0 18.68359375 9.200000000000003)">37A3</text></g><g stroke-linecap="round"><path fill="none" stroke="#1971c2" stroke-width="1" d="M7.75 0 M7.75 0 C24.06 -1.26, 39.76 0.43, 65.25 0 M7.75 0 C26.46 1.13, 44.52 -0.1, 65.25 0 M65.25 0 C72.25 1.98, 74.89 4.09, 73 7.75 M65.25 0 C70.28 1.66, 71.71 0.69, 73 7.75 M73 7.75 C74.51 13.16, 71.8 18.13, 73 23.25 M73 7.75 C73.56 12.72, 73.02 17.43, 73 23.25 M73 23.25 C72.07 29.14, 70.96 31.46, 65.25 31 M73 23.25 C72.12 27.61, 69.19 28.98, 65.25 31 M65.25 31 C51.35 30, 38.03 30.34, 7.75 31 M65.25 31 C45.24 31.39, 26.39 29.67, 7.75 31 M7.75 31 C1.73 29.44, 1.44 28.32, 0 23.25 M7.75 31 C1.02 30.76, -2.13 26.92, 0 23.25 M0 23.25 C-1.46 18.42, -1.15 15.75, 0 7.75 M0 23.25 C0.09 17.57, -0.42 11.76, 0 7.75 M0 7.75 C-1.57 1.77, 4.16 -1.08, 7.75 0 M0 7.75 C-0.74 1.93, 4.48 0.05, 7.75 0" transform="translate(136.22789364052062 241.30691031079994) rotate(0 36.5 15.5)"/></g><g><text x="19.125" y="0" fill="#1971c2" direction="ltr" dominant-baseline="text-before-edge" font-family="Helvetica, Segoe UI Emoji" font-size="16" text-anchor="middle" style="white-space:pre" transform="translate(153.60289364052062 247.60691031079995) rotate(0 19.125 9.199999999999989)">3C87</text></g><g stroke-linecap="round"><path fill="none" stroke="#1971c2" stroke-width="1" d="M7.75 0 M7.75 0 C24.96 1.54, 46.28 1.6, 65.25 0 M7.75 0 C23.2 0.18, 36.71 0.15, 65.25 0 M65.25 0 C69.3 -1.65, 73.65 4.24, 73 7.75 M65.25 0 C69.89 2.05, 73.37 0.61, 73 7.75 M73 7.75 C73.73 13.88, 73.71 17.53, 73 23.25 M73 7.75 C73.14 13.49, 72.63 18.6, 73 23.25 M73 23.25 C71.94 26.66, 69.2 31.55, 65.25 31 M73 23.25 C71.96 28.25, 69.57 31.34, 65.25 31 M65.25 31 C47.48 28.83, 34.83 29.19, 7.75 31 M65.25 31 C53.6 30.51, 39.82 30.45, 7.75 31 M7.75 31 C0.73 29.7, -0.67 29.26, 0 23.25 M7.75 31 C1.85 28.93, -1.03 26.8, 0 23.25 M0 23.25 C-0.18 17.83, 0.69 11.4, 0 7.75 M0 23.25 C0.73 16.78, -0.13 10.94, 0 7.75 M0 7.75 C1.65 2.63, 1.52 1.04, 7.75 0 M0 7.75 C0.13 2.41, 0.75 -0.99, 7.75 0" transform="translate(26.784258095149482 240.83253051744947) rotate(0 36.5 15.5)"/></g><g><text x="18.684" y="0" fill="#1971c2" direction="ltr" dominant-baseline="text-before-edge" font-family="Helvetica, Segoe UI Emoji" font-size="16" text-anchor="middle" style="white-space:pre" transform="translate(44.60066434514948 247.13253051744948) rotate(0 18.68359375 9.199999999999989)">247E</text></g><g stroke-linecap="round"><path fill="none" stroke="#1971c2" stroke-width="1" d="M7.75 0 M7.75 0 C31.09 1.37, 51.98 -0.64, 65.25 0 M7.75 0 C29.48 1.3, 50.33 1.37, 65.25 0 M65.25 0 C70.74 -1.71, 73.09 2.53, 73 7.75 M65.25 0 C68.28 1.08, 75.09 3.64, 73 7.75 M73 7.75 C73.65 13.15, 73.45 17.11, 73 23.25 M73 7.75 C72.45 12.07, 72.57 15.91, 73 23.25 M73 23.25 C72.26 28.72, 70.01 31.62, 65.25 31 M73 23.25 C72.14 26.48, 68.17 33.02, 65.25 31 M65.25 31 C51.03 32.2, 39.84 29.39, 7.75 31 M65.25 31 C48.27 31.05, 31.63 29.73, 7.75 31 M7.75 31 C1.69 29.6, 0.99 30.28, 0 23.25 M7.75 31 C1.31 30.95, 0 29.66, 0 23.25 M0 23.25 C-0.77 20.83, -0.98 15.47, 0 7.75 M0 23.25 C-0.54 19.44, -0.08 14.77, 0 7.75 M0 7.75 C-1.6 1.73, 3.8 -1.05, 7.75 0 M0 7.75 C0.03 3.52, 2.88 -0.12, 7.75 0" transform="translate(202.26888597115976 171.2044294842018) rotate(0 36.5 15.5)"/></g><g><text x="17.797" y="0" fill="#1971c2" direction="ltr" dominant-baseline="text-before-edge" font-family="Helvetica, Segoe UI Emoji" font-size="16" text-anchor="middle" style="white-space:pre" transform="translate(220.97201097115976 177.5044294842018) rotate(0 17.796875 9.199999999999989)">1384</text></g><g stroke-linecap="round"><path fill="none" stroke="#1971c2" stroke-width="1" d="M7.75 0 M7.75 0 C23.02 0.97, 43.24 -0.14, 65.25 0 M7.75 0 C30.18 0.47, 51.59 0.96, 65.25 0 M65.25 0 C72.24 0.92, 73.43 3.76, 73 7.75 M65.25 0 C69.34 0.83, 73.63 3.12, 73 7.75 M73 7.75 C71.58 10.86, 73.37 15.16, 73 23.25 M73 7.75 C72.79 12.53, 72.65 16.18, 73 23.25 M73 23.25 C71.05 30.17, 68.82 29.3, 65.25 31 M73 23.25 C72.02 26.63, 72.08 30.89, 65.25 31 M65.25 31 C50.61 29.8, 39.42 29.83, 7.75 31 M65.25 31 C53.67 31.53, 40.55 30.58, 7.75 31 M7.75 31 C2.59 32.08, -1.3 30.22, 0 23.25 M7.75 31 C0.77 30.06, 1.81 27.17, 0 23.25 M0 23.25 C0.08 18.28, 0.85 15.04, 0 7.75 M0 23.25 C0.59 18.31, 0.13 14.5, 0 7.75 M0 7.75 C0.26 2.48, 1.73 1.08, 7.75 0 M0 7.75 C-0.43 1.62, 2.79 -1.27, 7.75 0" transform="translate(85.81500234312892 170.2044294842018) rotate(0 36.5 15.5)"/></g><g><text x="20.012" y="0" fill="#1971c2" direction="ltr" dominant-baseline="text-before-edge" font-family="Helvetica, Segoe UI Emoji" font-size="16" text-anchor="middle" style="white-space:pre" transform="translate(102.30328359312892 176.5044294842018) rotate(0 20.01171875 9.199999999999989)">01CB</text></g><g stroke-linecap="round"><path fill="none" stroke="#1971c2" stroke-width="1" d="M7.75 0 M7.75 0 C21.96 0, 39.56 -1.95, 65.25 0 M7.75 0 C27.92 0.32, 47.2 0.1, 65.25 0 M65.25 0 C70.96 0.46, 72.23 1.88, 73 7.75 M65.25 0 C69.19 -2.02, 71.6 3.21, 73 7.75 M73 7.75 C73.22 11.39, 73.47 15.07, 73 23.25 M73 7.75 C72.23 10.44, 72.52 13.84, 73 23.25 M73 23.25 C74.44 28.32, 69.06 30.79, 65.25 31 M73 23.25 C70.87 26.92, 69.65 31.97, 65.25 31 M65.25 31 C48.42 31.74, 36.27 29.64, 7.75 31 M65.25 31 C47.46 32.21, 30.19 30.9, 7.75 31 M7.75 31 C4.16 29.92, -0.65 27.85, 0 23.25 M7.75 31 C4.48 31.05, -1.22 29.61, 0 23.25 M0 23.25 C-0.65 19.45, -0.8 13.79, 0 7.75 M0 23.25 C-0.35 18.39, -0.17 12.36, 0 7.75 M0 7.75 C0.18 1.48, 3.33 -0.82, 7.75 0 M0 7.75 C0.67 3.9, 2.73 0.35, 7.75 0" transform="translate(156.6817772685514 107.22492564952137) rotate(0 36.5 15.5)"/></g><g><text x="17.797" y="0" fill="#1971c2" direction="ltr" dominant-baseline="text-before-edge" font-family="Helvetica, Segoe UI Emoji" font-size="16" text-anchor="middle" style="white-space:pre" transform="translate(175.3849022685514 113.52492564952138) rotate(0 17.796875 9.199999999999989)">2374</text></g><g stroke-linecap="round"><g><path fill="none" stroke="#1971c2" stroke-width="1" d="M0.97 -0.76 C-7.78 5.29, -43.34 29.05, -52.18 35.2 M0.02 1.45 C-8.85 7.78, -43.98 31.08, -52.72 36.5" transform="translate(246.05583228563455 71.8594948337616) rotate(0 -25.87553141580929 17.869513561117728)"/></g></g><g stroke-linecap="round"><g><path fill="none" stroke="#1971c2" stroke-width="1" d="M-0.24 0.84 C-11.34 6.54, -54.89 28.23, -65.75 33.78 M-1.83 0.24 C-13.2 6.15, -56.19 29.25, -66.92 35.13" transform="translate(187.16559320389342 137.18312137821397) rotate(0 -33.58113454149341 17.684281829947622)"/></g></g><g stroke-linecap="round"><g><path fill="none" stroke="#1971c2" stroke-width="1" d="M-0.89 0.32 C6.02 6.28, 33.49 30.03, 40.42 35.97 M0.85 -0.55 C7.76 5.06, 33.29 28.52, 39.91 34.28" transform="translate(203.9913757986767 137.677997336884) rotate(0 19.76775441826038 17.70791810193026)"/></g></g><g stroke-linecap="round"><g><path fill="none" stroke="#1971c2" stroke-width="1" d="M-0.1 -0.35 C-7.48 6.55, -37.28 33.61, -44.82 40.32 M-1.61 -1.59 C-9.13 5.07, -39.04 31.42, -45.91 38.58" transform="translate(113.4290753620495 201.02212004665603) rotate(0 -23.003874500964628 19.36626306514438)"/></g></g><g stroke-linecap="round"><g><path fill="none" stroke="#1971c2" stroke-width="1" d="M-0.96 -0.12 C6.1 6.44, 35.17 32.3, 42.45 38.89 M0.74 -1.23 C7.67 5.47, 34.78 32.87, 41.7 39.8" transform="translate(132.23436179151304 201.51699600532606) rotate(0 20.74565745828434 19.28436948045632)"/></g></g><g stroke-linecap="round"><path fill="none" stroke="#2f9e44" stroke-width="1" d="M32 0 M32 0 C110.38 0.64, 189 -0.21, 259.48 0 M32 0 C107.53 1.15, 183.67 0.85, 259.48 0 M259.48 0 C281.81 0.63, 290.49 12.25, 291.48 32 M259.48 0 C282.53 -0.29, 293.47 8.56, 291.48 32 M291.48 32 C291.11 111.55, 293.37 188.24, 291.48 245.13 M291.48 32 C292.45 114.38, 292.08 195.17, 291.48 245.13 M291.48 245.13 C290.42 268.05, 280.3 275.47, 259.48 277.13 M291.48 245.13 C293.03 265.29, 281.3 276.14, 259.48 277.13 M259.48 277.13 C175.39 278.37, 89.2 276.41, 32 277.13 M259.48 277.13 C169.4 275.13, 78.9 276.13, 32 277.13 M32 277.13 C10.2 278.51, -1.64 264.73, 0 245.13 M32 277.13 C8.82 276.84, 1.15 267.8, 0 245.13 M0 245.13 C-0.64 169.9, -2.56 92.34, 0 32 M0 245.13 C1.21 187.35, 0.62 131.09, 0 32 M0 32 C1.4 9.49, 12.45 -1.64, 32 0 M0 32 C2.2 10.2, 10.11 0.81, 32 0" transform="translate(10 10.98975191734013) rotate(0 145.7409698283425 138.56526842762614)"/></g><g stroke-linecap="round"><path fill="none" stroke="#f08c00" stroke-width="1" d="M7.75 0 M7.75 0 C31.45 -0.63, 52.43 1.11, 65.25 0 M7.75 0 C19.74 0.1, 33.88 -1.02, 65.25 0 M65.25 0 C68.54 -1.39, 74.51 2.08, 73 7.75 M65.25 0 C70.51 -2.02, 72.97 1.28, 73 7.75 M73 7.75 C74.09 13.17, 73.72 20.11, 73 23.25 M73 7.75 C73.54 13.39, 72.57 18.17, 73 23.25 M73 23.25 C71.51 27.12, 68.9 30.55, 65.25 31 M73 23.25 C74.54 29.77, 71.35 30.81, 65.25 31 M65.25 31 C53.15 29.82, 39.6 31.26, 7.75 31 M65.25 31 C46.77 30.86, 28.76 31.42, 7.75 31 M7.75 31 C0.63 30.35, -0.73 28.51, 0 23.25 M7.75 31 C0.43 32.69, -1.11 27.04, 0 23.25 M0 23.25 C0.45 17.56, -0.31 15.85, 0 7.75 M0 23.25 C0.51 19.42, 0.03 15.26, 0 7.75 M0 7.75 C-1.69 2.99, 1.23 1.15, 7.75 0 M0 7.75 C0.87 1.29, 1.31 -1.25, 7.75 0" transform="translate(522.6234779630296 41.76591798016068) rotate(0 36.5 15.5)"/></g><g><text x="18.672" y="0" fill="#f08c00" direction="ltr" dominant-baseline="text-before-edge" font-family="Helvetica, Segoe UI Emoji" font-size="16" text-anchor="middle" style="white-space:pre" transform="translate(540.4516029630296 48.06591798016069) rotate(0 18.671875 9.200000000000003)">FF76</text></g><g stroke-linecap="round"><path fill="none" stroke="#1971c2" stroke-width="1" d="M7.75 0 M7.75 0 C21.75 0.36, 40.6 -1.53, 65.25 0 M7.75 0 C27.31 -0.38, 49.5 0.06, 65.25 0 M65.25 0 C70.5 -1.76, 72.97 1.45, 73 7.75 M65.25 0 C72.22 -1.67, 72.58 4.36, 73 7.75 M73 7.75 C73.96 10.71, 71.88 17.47, 73 23.25 M73 7.75 C72.36 12.11, 72.35 17.31, 73 23.25 M73 23.25 C74.34 29.6, 71.23 30.83, 65.25 31 M73 23.25 C70.98 30.21, 68.94 31.1, 65.25 31 M65.25 31 C50.58 31.3, 36.09 30.15, 7.75 31 M65.25 31 C48.99 30.8, 34.33 31.18, 7.75 31 M7.75 31 C0.71 32.47, -0.96 27.22, 0 23.25 M7.75 31 C1.92 33.15, 2.12 29.3, 0 23.25 M0 23.25 C-0.54 18.67, 1.22 17.67, 0 7.75 M0 23.25 C-0.63 18.22, -0.5 13.31, 0 7.75 M0 7.75 C0.76 1.46, 1.47 -1.09, 7.75 0 M0 7.75 C1.93 4.47, 2.88 0.45, 7.75 0" transform="translate(447.2574336646745 240.31715839345975) rotate(0 36.5 15.5)"/></g><g><text x="19.125" y="0" fill="#1971c2" direction="ltr" dominant-baseline="text-before-edge" font-family="Helvetica, Segoe UI Emoji" font-size="16" text-anchor="middle" style="white-space:pre" transform="translate(464.6324336646745 246.61715839345976) rotate(0 19.125 9.199999999999989)">3C87</text></g><g stroke-linecap="round"><path fill="none" stroke="#1971c2" stroke-width="1" d="M7.75 0 M7.75 0 C28.13 2.24, 45.15 -1.53, 65.25 0 M7.75 0 C21.03 -0.73, 34.22 -0.42, 65.25 0 M65.25 0 C71.99 -1.45, 72.64 4.13, 73 7.75 M65.25 0 C69.75 1.23, 73.92 3.89, 73 7.75 M73 7.75 C73.1 10.54, 71.6 13.41, 73 23.25 M73 7.75 C73.4 11.85, 73.2 14.97, 73 23.25 M73 23.25 C71.24 29.97, 69.13 31.09, 65.25 31 M73 23.25 C72.07 26.96, 71.14 31.29, 65.25 31 M65.25 31 C46.98 29.58, 30.53 28.75, 7.75 31 M65.25 31 C48.94 31.76, 34.03 30.43, 7.75 31 M7.75 31 C2.01 32.87, 1.84 29.19, 0 23.25 M7.75 31 C0.38 30.76, 1.5 27.6, 0 23.25 M0 23.25 C0.42 19.79, 0.29 15.47, 0 7.75 M0 23.25 C0.4 17.85, -0.33 12.9, 0 7.75 M0 7.75 C1.68 4.22, 2.84 0.39, 7.75 0 M0 7.75 C0.42 1.77, 0.87 -0.93, 7.75 0" transform="translate(337.8137981193032 239.84277860010934) rotate(0 36.5 15.5)"/></g><g><text x="18.684" y="0" fill="#1971c2" direction="ltr" dominant-baseline="text-before-edge" font-family="Helvetica, Segoe UI Emoji" font-size="16" text-anchor="middle" style="white-space:pre" transform="translate(355.6302043693032 246.14277860010935) rotate(0 18.68359375 9.199999999999989)">247E</text></g><g stroke-linecap="round"><path fill="none" stroke="#1971c2" stroke-width="1" d="M7.75 0 M7.75 0 C29.05 2.05, 52.63 0.62, 65.25 0 M7.75 0 C20.74 -0.4, 31.98 1.1, 65.25 0 M65.25 0 C69.84 1.07, 73.8 3.72, 73 7.75 M65.25 0 C68.57 -1.79, 74.96 2.91, 73 7.75 M73 7.75 C71.87 10.61, 72.52 16.86, 73 23.25 M73 7.75 C72.38 13.92, 72.56 18.91, 73 23.25 M73 23.25 C72.19 27.15, 71.05 31.25, 65.25 31 M73 23.25 C73.13 29.21, 69.23 30.21, 65.25 31 M65.25 31 C50.57 29.71, 37.3 28.57, 7.75 31 M65.25 31 C43.49 31.59, 23.23 31.04, 7.75 31 M7.75 31 C0.66 30.79, 1.3 27.7, 0 23.25 M7.75 31 C0.48 32.79, 1.11 29.22, 0 23.25 M0 23.25 C0.27 17.78, 0.85 14.99, 0 7.75 M0 23.25 C0.74 20.11, 0.19 15.84, 0 7.75 M0 7.75 C0.37 1.88, 1.1 -0.81, 7.75 0 M0 7.75 C-2.23 2, 4.16 0.02, 7.75 0" transform="translate(513.2984259953136 170.2146775668616) rotate(0 36.5 15.5)"/></g><g><text x="17.797" y="0" fill="#1971c2" direction="ltr" dominant-baseline="text-before-edge" font-family="Helvetica, Segoe UI Emoji" font-size="16" text-anchor="middle" style="white-space:pre" transform="translate(532.0015509953136 176.51467756686162) rotate(0 17.796875 9.199999999999989)">1384</text></g><g stroke-linecap="round"><path fill="none" stroke="#1971c2" stroke-width="1" d="M7.75 0 M7.75 0 C27.59 -0.05, 49.81 1.55, 65.25 0 M7.75 0 C20.53 0.09, 34.3 0.12, 65.25 0 M65.25 0 C68.81 -1.55, 74.7 2.86, 73 7.75 M65.25 0 C69.5 -1.89, 71.29 1.09, 73 7.75 M73 7.75 C73.88 11.86, 72.84 13.34, 73 23.25 M73 7.75 C72.59 13.12, 73.15 19.56, 73 23.25 M73 23.25 C73.12 29.11, 69.38 30.31, 65.25 31 M73 23.25 C71.71 28.93, 68.17 30.25, 65.25 31 M65.25 31 C51.56 29.5, 33.73 29.89, 7.75 31 M65.25 31 C41.67 31.12, 20.67 30.86, 7.75 31 M7.75 31 C0.75 32.55, 0.96 29.11, 0 23.25 M7.75 31 C2.25 31.6, -1.95 28.88, 0 23.25 M0 23.25 C-0.96 18.79, -0.93 17.34, 0 7.75 M0 23.25 C0.12 17.05, -0.6 11.09, 0 7.75 M0 7.75 C-1.94 2.07, 3.95 0.02, 7.75 0 M0 7.75 C2.21 1.37, 3.11 -1.59, 7.75 0" transform="translate(397.65985245605134 169.2146775668616) rotate(0 36.5 15.5)"/></g><g><text x="20.012" y="0" fill="#1971c2" direction="ltr" dominant-baseline="text-before-edge" font-family="Helvetica, Segoe UI Emoji" font-size="16" text-anchor="middle" style="white-space:pre" transform="translate(414.14813370605134 175.51467756686162) rotate(0 20.01171875 9.199999999999989)">01CB</text></g><g stroke-linecap="round"><path fill="none" stroke="#1971c2" stroke-width="1" d="M7.75 0 M7.75 0 C23.47 -0.82, 43.64 -1.03, 65.25 0 M7.75 0 C27.28 -1.1, 49.27 -0.19, 65.25 0 M65.25 0 C69.62 -1.65, 71.51 1.28, 73 7.75 M65.25 0 C68.67 -0.52, 74.54 3.94, 73 7.75 M73 7.75 C74.19 12.03, 73.06 17.68, 73 23.25 M73 7.75 C73.09 11.69, 72.65 14.83, 73 23.25 M73 23.25 C71.88 28.86, 68.46 30.35, 65.25 31 M73 23.25 C72.16 28.53, 68.26 32.69, 65.25 31 M65.25 31 C52.63 32.68, 37.05 28.92, 7.75 31 M65.25 31 C47.69 31.57, 32.43 31.14, 7.75 31 M7.75 31 C2.29 31.52, -1.69 28.82, 0 23.25 M7.75 31 C1.03 32.32, 0.87 27.12, 0 23.25 M0 23.25 C1.36 19.66, 0.38 15.95, 0 7.75 M0 23.25 C-0.64 18.95, 0.65 15.05, 0 7.75 M0 7.75 C1.92 1.53, 3.04 -1.38, 7.75 0 M0 7.75 C1.24 1.94, 1.86 2.06, 7.75 0" transform="translate(467.7113172927053 106.23517373218124) rotate(0 36.5 15.5)"/></g><g><text x="17.797" y="0" fill="#1971c2" direction="ltr" dominant-baseline="text-before-edge" font-family="Helvetica, Segoe UI Emoji" font-size="16" text-anchor="middle" style="white-space:pre" transform="translate(486.4144422927053 112.53517373218125) rotate(0 17.796875 9.199999999999989)">2374</text></g><g stroke-linecap="round"><g><path fill="none" stroke="#1971c2" stroke-width="1" d="M-0.35 0.64 C-9.06 6.54, -43.54 30.64, -52.47 36.31 M1.67 -0.06 C-7.13 5.41, -44.3 28.62, -53.17 34.55" transform="translate(557.0853723097883 70.86974291642144) rotate(0 -25.74745447235682 18.124101395278515)"/></g></g><g stroke-linecap="round"><g><path fill="none" stroke="#1971c2" stroke-width="1" d="M0.48 0.68 C-10.51 6.11, -55.49 27.61, -66.28 33.21 M-0.73 -0.01 C-11.32 5.49, -53.44 28.31, -64.08 34.26" transform="translate(498.1951332280472 136.19336946087378) rotate(0 -32.90200977667007 17.127795560712002)"/></g></g><g stroke-linecap="round"><g><path fill="none" stroke="#1971c2" stroke-width="1" d="M-0.96 -0.93 C5.73 4.84, 33.93 29.46, 40.61 35.3 M0.73 1.19 C7.31 7.12, 33.97 31.3, 40.2 36.93" transform="translate(515.0209158228305 136.68824541954382) rotate(0 19.825234903997682 17.998984523182003)"/></g></g><g stroke-linecap="round"><g><path fill="none" stroke="#1971c2" stroke-width="1" d="M1.02 0.17 C-6.32 6.76, -37.27 32.16, -45.02 38.6 M0.1 -0.79 C-7.36 6, -39.03 32.87, -46.21 39.62" transform="translate(424.4586153862034 200.03236812931584) rotate(0 -22.596407430146712 19.416382200174922)"/></g></g><g stroke-linecap="round"><g><path fill="none" stroke="#1971c2" stroke-width="1" d="M-0.48 -0.99 C6.21 5.54, 34.23 32.51, 41.17 39.31 M1.47 1.11 C8.45 7.75, 36.4 33.79, 43.42 40.43" transform="translate(443.2639018156668 200.52724408798588) rotate(0 21.469469256952834 19.72343772144066)"/></g></g><g stroke-linecap="round"><path fill="none" stroke="#2f9e44" stroke-width="1" d="M32 0 M32 0 C102.56 0.41, 174.77 2.63, 306.99 0 M32 0 C130.03 0.78, 228.91 0.21, 306.99 0 M306.99 0 C327.51 -1.26, 339.62 10.92, 338.99 32 M306.99 0 C328.46 0.79, 337.8 9.88, 338.99 32 M338.99 32 C338.83 83.34, 339.49 134.32, 338.99 245.13 M338.99 32 C337.84 112.41, 338.9 191.51, 338.99 245.13 M338.99 245.13 C337.07 266.25, 329.63 276.42, 306.99 277.13 M338.99 245.13 C336.88 268.25, 329.43 277.93, 306.99 277.13 M306.99 277.13 C228.82 274.28, 150.91 275.91, 32 277.13 M306.99 277.13 C240.61 276.61, 173.03 276.12, 32 277.13 M32 277.13 C11.04 276.42, -1.49 265.66, 0 245.13 M32 277.13 C8.43 276.54, 1.57 266.49, 0 245.13 M0 245.13 C-0.23 161.63, 0.5 75.69, 0 32 M0 245.13 C2.06 161.87, 1.07 79.12, 0 32 M0 32 C-1.36 11.1, 9.07 0.92, 32 0 M0 32 C2.12 11.63, 11.29 0.73, 32 0" transform="translate(321.0295400241538 10) rotate(0 169.49501584450678 138.56526842762614)"/></g><g stroke-linecap="round"><path fill="none" stroke="#f08c00" stroke-width="1" d="M7.75 0 M7.75 0 C22.5 -0.85, 37.43 0.91, 65.25 0 M7.75 0 C21.82 0.46, 35.6 0.89, 65.25 0 M65.25 0 C72.19 -0.04, 72.19 4.26, 73 7.75 M65.25 0 C70.77 -1.86, 73.4 1.16, 73 7.75 M73 7.75 C73.2 11.69, 74.54 16.82, 73 23.25 M73 7.75 C72.47 13.11, 73.64 18.36, 73 23.25 M73 23.25 C74.83 28.64, 71.85 30.15, 65.25 31 M73 23.25 C70.79 28.96, 68.36 29.62, 65.25 31 M65.25 31 C49.47 32.11, 36.05 31.13, 7.75 31 M65.25 31 C44.08 30.56, 21.66 31.22, 7.75 31 M7.75 31 C0.97 31.73, -0.39 29.04, 0 23.25 M7.75 31 C3.85 30.36, -0.66 29.44, 0 23.25 M0 23.25 C-0.67 19.54, 0.42 16.11, 0 7.75 M0 23.25 C-0.16 16.84, 0.24 11.28, 0 7.75 M0 7.75 C0.46 4.19, 4.44 -1.24, 7.75 0 M0 7.75 C0.33 1.3, 4.08 2.2, 7.75 0" transform="translate(570.3204061561327 107.82659453545136) rotate(0 36.5 15.5)"/></g><g><text x="19.57" y="0" fill="#f08c00" direction="ltr" dominant-baseline="text-before-edge" font-family="Helvetica, Segoe UI Emoji" font-size="16" text-anchor="middle" style="white-space:pre" transform="translate(587.2500936561327 114.12659453545137) rotate(0 19.5703125 9.199999999999989)">BB34</text></g><g stroke-linecap="round"><g><path fill="none" stroke="#f08c00" stroke-width="1" d="M0.18 -0.97 C9.54 5.01, 46.36 30.35, 55.64 36.87 M-1.18 1.14 C8.08 7.77, 45.38 32.2, 54.8 38.02" transform="translate(559.3123141238036 72.3543707924317) rotate(0 27.229203263130785 18.52269431671094)"/></g></g><g><text x="0" y="0" fill="#f08c00" direction="ltr" dominant-baseline="text-before-edge" font-family="Helvetica, Segoe UI Emoji" font-size="20" text-anchor="start" style="white-space:pre" transform="translate(407.385394812085 45.63106902424667) rotate(0 46.6845703125 11.5)">New Root:</text></g><g><text x="0" y="0" fill="#2f9e44" direction="ltr" dominant-baseline="text-before-edge" font-family="Helvetica, Segoe UI Emoji" font-size="20" text-anchor="start" style="white-space:pre" transform="translate(103.05502034496635 47.48247182567937) rotate(0 42.2412109375 11.5)">Old Root:</text></g></svg>