<svg version="1.1" xmlns="http://www.w3.org/2000/svg" viewBox="0 0 877.5499992370605 643" width="877.5499992370605" height="643">
  <!-- svg-source:excalidraw -->
  
  <defs>
    <style class="style-fonts">
      @font-face {
        font-family: "Virgil";
        src: url("https://excalidraw.com/Virgil.woff2");
      }
      @font-face {
        font-family: "Cascadia";
        src: url("https://excalidraw.com/Cascadia.woff2");
      }
    </style>
  </defs>
  <g stroke-linecap="round" transform="translate(488.16666412353516 10) rotate(0 96 52)"><path d="M26 0 M26 0 C71.78 0.11, 120.74 1.62, 166 0 M26 0 C58.62 0.36, 89.99 2.16, 166 0 M166 0 C184.99 1.81, 192.7 8.67, 192 26 M166 0 C183.15 1.91, 193.51 7.38, 192 26 M192 26 C192.12 35.65, 193.22 49.56, 192 78 M192 26 C191.16 45.36, 191.84 66.08, 192 78 M192 78 C193.84 94.62, 182.21 103.77, 166 104 M192 78 C194.27 94.67, 181.67 102.1, 166 104 M166 104 C123.5 103.48, 80.65 101.51, 26 104 M166 104 C116.34 104.54, 68.11 104.14, 26 104 M26 104 C6.95 105.48, 0.93 94.15, 0 78 M26 104 C10.26 105.86, -2.29 94.51, 0 78 M0 78 C1.91 60.78, 0.05 45.82, 0 26 M0 78 C-0.33 59.81, -0.73 40.64, 0 26 M0 26 C1.28 8.01, 8.66 -1.28, 26 0 M0 26 C-1.53 9.66, 6.64 -0.2, 26 0" stroke="#1971c2" stroke-width="1" fill="none"></path></g><g transform="translate(495.5833282470703 52) rotate(0 88.58333587646484 10)"><text x="88.58333587646484" y="0" font-family="Virgil, Segoe UI Emoji" font-size="16px" fill="#1971c2" text-anchor="middle" style="white-space: pre;" direction="ltr" dominant-baseline="text-before-edge">Offline Key Generation</text></g><g stroke-linecap="round" transform="translate(67.16666412353516 20) rotate(0 96 52)"><path d="M26 0 M26 0 C59.53 1.16, 91.56 0.25, 166 0 M26 0 C75.21 0.47, 125.1 0.33, 166 0 M166 0 C181.61 0.63, 193.84 7.7, 192 26 M166 0 C184.32 1.08, 193.07 6.4, 192 26 M192 26 C190.53 41.82, 191.64 62.75, 192 78 M192 26 C191.82 40.21, 192.01 53.34, 192 78 M192 78 C192.55 96.48, 183.71 103.27, 166 104 M192 78 C194.06 94.19, 184.69 104.55, 166 104 M166 104 C136.35 102.36, 108.35 101.48, 26 104 M166 104 C114.21 104.35, 62.13 103.86, 26 104 M26 104 C6.75 105.36, -0.04 94.54, 0 78 M26 104 C9.9 102.06, -0.08 96.47, 0 78 M0 78 C1.69 66.42, -1.52 55.34, 0 26 M0 78 C-1.17 59.05, -1.2 41.65, 0 26 M0 26 C-1.19 6.69, 8.13 -0.32, 26 0 M0 26 C-1.2 9.13, 7.78 0.38, 26 0" stroke="#1971c2" stroke-width="1" fill="none"></path></g><g transform="translate(108.19999694824219 52) rotate(0 54.96666717529297 20)"><text x="54.96666717529297" y="0" font-family="Virgil, Segoe UI Emoji" font-size="16px" fill="#1971c2" text-anchor="middle" style="white-space: pre;" direction="ltr" dominant-baseline="text-before-edge">High Volume </text><text x="54.96666717529297" y="20" font-family="Virgil, Segoe UI Emoji" font-size="16px" fill="#1971c2" text-anchor="middle" style="white-space: pre;" direction="ltr" dominant-baseline="text-before-edge">Manufacturing</text></g><g stroke-linecap="round" transform="translate(65.16666412353516 213) rotate(0 96 210)"><path d="M32 0 M32 0 C56.65 -0.63, 86.41 1.7, 160 0 M160 0 C182.06 -1.74, 191.43 8.87, 192 32 M192 32 C190.3 173.24, 189.97 315.15, 192 388 M192 388 C191.23 409.66, 180.59 421.42, 160 420 M160 420 C130.3 421.04, 99.91 421.38, 32 420 M32 420 C10.41 418.6, -0.29 409.61, 0 388 M0 388 C0.46 249.48, 0.91 110.67, 0 32 M0 32 C1.77 10.61, 9.88 -1.63, 32 0" stroke="#1971c2" stroke-width="1.5" fill="none" stroke-dasharray="8 9"></path></g><g transform="translate(127.11666488647461 218) rotate(0 34.04999923706055 10)"><text x="34.04999923706055" y="0" font-family="Virgil, Segoe UI Emoji" font-size="16px" fill="#1971c2" text-anchor="middle" style="white-space: pre;" direction="ltr" dominant-baseline="text-before-edge">Platform</text></g><g stroke-linecap="round" transform="translate(65.16666412353516 414) rotate(0 96 15)"><path d="M7.5 0 M7.5 0 C77.23 -0.43, 143.29 0.5, 184.5 0 M7.5 0 C75.44 -0.8, 143.1 -0.43, 184.5 0 M184.5 0 C189.52 0.97, 191.88 2.01, 192 7.5 M184.5 0 C190.61 -0.16, 191.82 3.95, 192 7.5 M192 7.5 C191.03 13.12, 193.06 16.5, 192 22.5 M192 7.5 C191.89 11.86, 192.11 16.27, 192 22.5 M192 22.5 C191.29 29.19, 188.83 30.84, 184.5 30 M192 22.5 C191.2 28.9, 189.51 28.94, 184.5 30 M184.5 30 C139.14 32.58, 93.08 29.13, 7.5 30 M184.5 30 C132.61 30.34, 82.63 29.35, 7.5 30 M7.5 30 C3.09 28.17, 1.99 27.91, 0 22.5 M7.5 30 C3.5 31.01, -0.08 25.38, 0 22.5 M0 22.5 C1 15.54, 1.36 11.87, 0 7.5 M0 22.5 C0.56 16.8, 0.33 10.99, 0 7.5 M0 7.5 C-1.26 3.87, 3.05 0.78, 7.5 0 M0 7.5 C0.9 4.17, 2.17 -0.47, 7.5 0" stroke="#2f9e44" stroke-width="1" fill="none"></path></g><g transform="translate(85.18333435058594 419) rotate(0 75.98332977294922 10)"><text x="75.98332977294922" y="0" font-family="Virgil, Segoe UI Emoji" font-size="16px" fill="#2f9e44" text-anchor="middle" style="white-space: pre;" direction="ltr" dominant-baseline="text-before-edge">Provisioning Enclave</text></g><g stroke-linecap="round" transform="translate(65.16666412353516 564) rotate(0 96 16)"><path d="M8 0 M8 0 C63.27 0.65, 122.94 0.66, 184 0 M8 0 C64.35 -0.89, 120.55 -2, 184 0 M184 0 C190.7 0.55, 192.78 3.45, 192 8 M184 0 C191 -0.33, 191.53 1.19, 192 8 M192 8 C192.9 14.49, 193.01 20.47, 192 24 M192 8 C191.95 12.07, 191.16 17.46, 192 24 M192 24 C192 30.59, 190.42 33.89, 184 32 M192 24 C190.78 28.61, 190.12 33.64, 184 32 M184 32 C122.72 31.63, 60.82 31.62, 8 32 M184 32 C118.64 30.43, 53.78 30.43, 8 32 M8 32 C4.17 33.98, 0.03 28.17, 0 24 M8 32 C2.32 33.05, 2.19 29.27, 0 24 M0 24 C-0.63 18.12, 1.19 15.56, 0 8 M0 24 C0.28 18, 0.45 12.78, 0 8 M0 8 C-0.99 2.91, 3.44 0.17, 8 0 M0 8 C-0.7 3.14, 2.48 0.52, 8 0" stroke="#2f9e44" stroke-width="1" fill="none"></path></g><g transform="translate(99.39999771118164 570) rotate(0 61.766666412353516 10)"><text x="61.766666412353516" y="0" font-family="Virgil, Segoe UI Emoji" font-size="16px" fill="#2f9e44" text-anchor="middle" style="white-space: pre;" direction="ltr" dominant-baseline="text-before-edge">Quoting Enclave</text></g><g stroke-linecap="round" transform="translate(66.16666412353516 253) rotate(0 51.5 15)"><path d="M7.5 0 M7.5 0 C42.46 1.78, 73.54 -0.79, 95.5 0 M7.5 0 C37.07 0.68, 66.1 0.41, 95.5 0 M95.5 0 C99.25 0.8, 101.21 2.33, 103 7.5 M95.5 0 C101.09 -0.17, 103.84 4.32, 103 7.5 M103 7.5 C103.49 13.69, 102.05 17.61, 103 22.5 M103 7.5 C103.35 12.45, 103.54 18.88, 103 22.5 M103 22.5 C104.06 28.44, 101.07 30.91, 95.5 30 M103 22.5 C102.13 25.63, 102.28 30.97, 95.5 30 M95.5 30 C74.08 27.66, 57.29 27.71, 7.5 30 M95.5 30 C73.13 30.7, 50.9 30.48, 7.5 30 M7.5 30 C1.96 28.38, 1.01 26.72, 0 22.5 M7.5 30 C2.39 31.79, 1.99 26.4, 0 22.5 M0 22.5 C-0.6 17.88, 1.35 12.82, 0 7.5 M0 22.5 C0.12 17.85, 0.7 12.55, 0 7.5 M0 7.5 C-0.19 2.96, 1.41 1, 7.5 0 M0 7.5 C-2.29 3.67, 4.17 1.84, 7.5 0" stroke="#2f9e44" stroke-width="1" fill="none"></path></g><g transform="translate(95.43333053588867 258) rotate(0 22.233333587646484 10)"><text x="22.233333587646484" y="0" font-family="Virgil, Segoe UI Emoji" font-size="16px" fill="#2f9e44" text-anchor="middle" style="white-space: pre;" direction="ltr" dominant-baseline="text-before-edge">Fuses</text></g><g stroke-linecap="round" transform="translate(479.16666412353516 208) rotate(0 109 79)"><path d="M32 0 M32 0 C89.65 0.18, 146.28 -0.84, 186 0 M32 0 C78.31 -1.07, 122.23 0.07, 186 0 M186 0 C207.83 -0.53, 218.57 8.95, 218 32 M186 0 C206.25 -1.93, 219.45 10.9, 218 32 M218 32 C219 54.51, 218.66 76.16, 218 126 M218 32 C219.43 58.61, 217.86 85.18, 218 126 M218 126 C217.22 148.08, 207.49 159.12, 186 158 M218 126 C220.05 148.34, 206.5 156.89, 186 158 M186 158 C155.69 156.29, 120.59 158.53, 32 158 M186 158 C151.85 159.3, 118.16 157.93, 32 158 M32 158 C12.25 159.08, 1.32 147.6, 0 126 M32 158 C9.77 160.17, 1.92 146.23, 0 126 M0 126 C-1.21 101.81, -0.97 75.6, 0 32 M0 126 C0.24 102.84, -0.65 80.64, 0 32 M0 32 C1.86 10.07, 10.47 1.22, 32 0 M0 32 C1.2 10.61, 8.89 0.55, 32 0" stroke="#1971c2" stroke-width="1" fill="none"></path></g><g transform="translate(491.21666717529297 277) rotate(0 96.94999694824219 10)"><text x="96.94999694824219" y="0" font-family="Virgil, Segoe UI Emoji" font-size="16px" fill="#1971c2" text-anchor="middle" style="white-space: pre;" direction="ltr" dominant-baseline="text-before-edge">Intel Provisioning Service</text></g><g stroke-linecap="round" transform="translate(472.16666412353516 440) rotate(0 111.5 79)"><path d="M32 0 M32 0 C77.53 0.43, 118.99 1.91, 191 0 M32 0 C87.87 0.73, 145.36 -0.69, 191 0 M191 0 C211.6 -0.57, 221.7 9.19, 223 32 M191 0 C212.97 -1.43, 221.93 9.2, 223 32 M223 32 C221.24 59.06, 221.24 90.52, 223 126 M223 32 C223.43 57.38, 222.14 83.05, 223 126 M223 126 C224.09 148.68, 212.35 159.94, 191 158 M223 126 C223.13 146.93, 214.51 159.27, 191 158 M191 158 C133.75 156.67, 73.93 158.38, 32 158 M191 158 C130.13 156.33, 70.58 156.4, 32 158 M32 158 C10.76 156.07, -1.57 146.19, 0 126 M32 158 C10.7 157.43, 1.12 145.44, 0 126 M0 126 C-2.1 102.06, -0.1 79.78, 0 32 M0 126 C-0.55 103.96, -1.09 82.88, 0 32 M0 32 C-0.63 10.18, 10.56 -1.63, 32 0 M0 32 C1.78 11.98, 9.86 -0.48, 32 0" stroke="#1971c2" stroke-width="1" fill="none"></path></g><g transform="translate(482.25 509) rotate(0 101.41666412353516 10)"><text x="101.41666412353516" y="0" font-family="Virgil, Segoe UI Emoji" font-size="16px" fill="#1971c2" text-anchor="middle" style="white-space: pre;" direction="ltr" dominant-baseline="text-before-edge">Intel Attestation Service</text></g><g mask="url(#mask-bnU7d6bDZdLLQ_eY4xnGi)" stroke-linecap="round"><g transform="translate(484.66666412353516 69.6882501466954) rotate(0 -114.3052441722183 -0.2886164870422192)"><path d="M-0.59 0.34 C-70.18 -2.33, -141.43 -1.54, -228.41 0.76 M0.53 -0.81 C-64.23 -1.76, -130.67 -0.33, -229.14 0.3" stroke="#1971c2" stroke-width="1" fill="none"></path></g><g transform="translate(484.66666412353516 69.6882501466954) rotate(0 -114.3052441722183 -0.2886164870422192)"><path d="M-201.73 -9.8 C-209.28 -7.92, -218.68 -3.69, -228.45 1.42 M-200.42 -11.15 C-208.07 -8.27, -217.8 -3.55, -229.31 0.87" stroke="#1971c2" stroke-width="1" fill="none"></path></g><g transform="translate(484.66666412353516 69.6882501466954) rotate(0 -114.3052441722183 -0.2886164870422192)"><path d="M-201.55 10.72 C-208.99 6.27, -218.45 4.17, -228.45 1.42 M-200.24 9.37 C-208.14 6.43, -217.93 5.34, -229.31 0.87" stroke="#1971c2" stroke-width="1" fill="none"></path></g></g><mask id="mask-bnU7d6bDZdLLQ_eY4xnGi"><rect x="0" y="0" fill="#fff" width="813.6666641235352" height="169.8765002933908"></rect><rect x="327.3333320617676" y="39.5941250733477" fill="#000" width="85.66666412353516" height="60" opacity="1"></rect></mask><g transform="translate(327.3333320617676 39.5941250733477) rotate(0 43.02808788954928 29.80550858630548)"><text x="42.83333206176758" y="0" font-family="Virgil, Segoe UI Emoji" font-size="16px" fill="#1971c2" text-anchor="middle" style="white-space: pre;" direction="ltr" dominant-baseline="text-before-edge">Root</text><text x="42.83333206176758" y="20" font-family="Virgil, Segoe UI Emoji" font-size="16px" fill="#1971c2" text-anchor="middle" style="white-space: pre;" direction="ltr" dominant-baseline="text-before-edge">Provisioning</text><text x="42.83333206176758" y="40" font-family="Virgil, Segoe UI Emoji" font-size="16px" fill="#1971c2" text-anchor="middle" style="white-space: pre;" direction="ltr" dominant-baseline="text-before-edge">Keys</text></g><g mask="url(#mask-N5i4a3fvgvh5TCFtTqX0L)" stroke-linecap="round"><g transform="translate(92.66666412353516 123.5) rotate(0 0.40306200867382813 65.15086864726618)"><path d="M0.46 -0.8 C0.52 25.76, 1.83 52.89, 1.48 130.05 M0.65 0.53 C0.98 46.11, 1.27 91.15, -0.73 131.1" stroke="#1971c2" stroke-width="1" fill="none"></path></g><g transform="translate(92.66666412353516 123.5) rotate(0 0.40306200867382813 65.15086864726618)"><path d="M-9.59 101.78 C-7.55 107.24, -4.31 113.2, 0.75 130.15 M-9.39 103.11 C-6.29 112.99, -2.76 122.4, -1.47 131.2" stroke="#1971c2" stroke-width="1" fill="none"></path></g><g transform="translate(92.66666412353516 123.5) rotate(0 0.40306200867382813 65.15086864726618)"><path d="M10.92 102.47 C8.73 107.62, 7.72 113.44, 0.75 130.15 M11.12 103.8 C7.09 113.6, 3.48 122.76, -1.47 131.2" stroke="#1971c2" stroke-width="1" fill="none"></path></g></g><mask id="mask-N5i4a3fvgvh5TCFtTqX0L"><rect x="0" y="0" fill="#fff" width="192.66666412353516" height="354.5"></rect><rect x="10" y="169" fill="#000" width="165.3333282470703" height="40" opacity="1"></rect></mask><g transform="translate(10 169) rotate(0 83.06972613220898 19.65086864726618)"><text x="82.66666412353516" y="0" font-family="Virgil, Segoe UI Emoji" font-size="16px" fill="#1971c2" text-anchor="middle" style="white-space: pre;" direction="ltr" dominant-baseline="text-before-edge">Root Seal Key,</text><text x="82.66666412353516" y="20" font-family="Virgil, Segoe UI Emoji" font-size="16px" fill="#1971c2" text-anchor="middle" style="white-space: pre;" direction="ltr" dominant-baseline="text-before-edge">Root Provisioning Key</text></g><g mask="url(#mask-TP3EL7YwEUR9-K9wTmU7d)" stroke-linecap="round"><g transform="translate(144.54597524961525 284) rotate(0 -0.032502323772121144 63.90318321995437)"><path d="M-0.14 -1.58 C-1.07 37.36, -1.43 73.81, 0.05 129.38 M0.88 0.07 C0.32 48.38, 0.06 96.78, -0.18 128.85" stroke="#2f9e44" stroke-width="1" fill="none"></path></g><g transform="translate(144.54597524961525 284) rotate(0 -0.032502323772121144 63.90318321995437)"><path d="M-10.39 99.02 C-7.98 109.78, -5.48 118.06, -0.1 130.24 M-9.36 100.66 C-6.61 111.26, -3.06 122.01, -0.33 129.71" stroke="#2f9e44" stroke-width="1" fill="none"></path></g><g transform="translate(144.54597524961525 284) rotate(0 -0.032502323772121144 63.90318321995437)"><path d="M10.13 99.16 C6.75 109.9, 3.45 118.15, -0.1 130.24 M11.16 100.8 C6.16 111.46, 1.96 122.16, -0.33 129.71" stroke="#2f9e44" stroke-width="1" fill="none"></path></g></g><mask id="mask-TP3EL7YwEUR9-K9wTmU7d"><rect x="0" y="0" fill="#fff" width="244.57521466686103" height="512"></rect><rect x="84.6646906545177" y="328" fill="#000" width="119.73332977294922" height="40" opacity="1"></rect></mask><g transform="translate(84.6646906545177 328) rotate(0 59.84878227132543 19.90318321995437)"><text x="59.86666488647461" y="0" font-family="Virgil, Segoe UI Emoji" font-size="16px" fill="#2f9e44" text-anchor="middle" style="white-space: pre;" direction="ltr" dominant-baseline="text-before-edge">Derived</text><text x="59.86666488647461" y="20" font-family="Virgil, Segoe UI Emoji" font-size="16px" fill="#2f9e44" text-anchor="middle" style="white-space: pre;" direction="ltr" dominant-baseline="text-before-edge">Provisioning Key</text></g><g mask="url(#mask-_z9KEzgnz9Be5_Em0_JX1)" stroke-linecap="round"><g transform="translate(190.5719132723924 447.5) rotate(0 0.4351196880452335 57.03307750122622)"><path d="M1.74 1.84 C0.52 31.22, 1.29 58.53, 1.03 114.58 M-0.87 -0.51 C0.7 30.29, 0.42 60.77, 0.92 113.33" stroke="#2f9e44" stroke-width="1" fill="none"></path></g><g transform="translate(190.5719132723924 447.5) rotate(0 0.4351196880452335 57.03307750122622)"><path d="M-7.81 87.06 C-5.74 93.68, -2.51 98.19, 0.8 113.91 M-10.43 84.71 C-6.63 92.8, -4.45 100.56, 0.68 112.67" stroke="#2f9e44" stroke-width="1" fill="none"></path></g><g transform="translate(190.5719132723924 447.5) rotate(0 0.4351196880452335 57.03307750122622)"><path d="M12.71 86.9 C9.33 93.51, 7.12 98.07, 0.8 113.91 M10.1 84.56 C8.47 92.64, 5.21 100.44, 0.68 112.67" stroke="#2f9e44" stroke-width="1" fill="none"></path></g></g><mask id="mask-_z9KEzgnz9Be5_Em0_JX1"><rect x="0" y="0" fill="#fff" width="291.72275465205155" height="661.5"></rect><rect x="143.84733472516143" y="484.5" fill="#000" width="94.5999984741211" height="40" opacity="1"></rect></mask><g transform="translate(143.84733472516143 484.5) rotate(0 47.15969823527621 20.033077501226217)"><text x="47.29999923706055" y="0" font-family="Virgil, Segoe UI Emoji" font-size="16px" fill="#2f9e44" text-anchor="middle" style="white-space: pre;" direction="ltr" dominant-baseline="text-before-edge">Attestation</text><text x="47.29999923706055" y="20" font-family="Virgil, Segoe UI Emoji" font-size="16px" fill="#2f9e44" text-anchor="middle" style="white-space: pre;" direction="ltr" dominant-baseline="text-before-edge">Key</text></g><g mask="url(#mask-D8J9MjVjosBfF81qx7biA)" stroke-linecap="round"><g transform="translate(259.66666412353516 432.5) rotate(0 107.61648814287037 -67.64968576070885)"><path d="M1.63 -1.39 C34.82 -50.06, 68.83 -103.1, 82.22 -132.01 M-0.16 0.2 C29.26 -43.81, 55.13 -85.21, 84.94 -130.62 M84.99 -131.19 C126.63 -129.51, 168.26 -132.06, 213.55 -134.47 M83.81 -131.02 C128.42 -132.28, 171.2 -133.38, 215.39 -135.5" stroke="#1971c2" stroke-width="1" fill="none"></path></g><g transform="translate(259.66666412353516 432.5) rotate(0 107.61648814287037 -67.64968576070885)"><path d="M189.29 -125.45 C199.34 -127.82, 211.39 -134.2, 213.61 -136.51 M187.5 -123.86 C197.8 -128.62, 205.23 -130.82, 216.34 -135.12" stroke="#1971c2" stroke-width="1" fill="none"></path></g><g transform="translate(259.66666412353516 432.5) rotate(0 107.61648814287037 -67.64968576070885)"><path d="M188.43 -145.95 C198.6 -140.31, 211 -138.7, 213.61 -136.51 M186.63 -144.36 C197.11 -142.4, 204.81 -137.88, 216.34 -135.12" stroke="#1971c2" stroke-width="1" fill="none"></path></g></g><mask id="mask-D8J9MjVjosBfF81qx7biA"><rect x="0" y="0" fill="#fff" width="574.6666641235352" height="667.7976605123474"></rect><rect x="300.8333320617676" y="281.5" fill="#000" width="85.66666412353516" height="40" opacity="1"></rect></mask><g transform="translate(300.8333320617676 281.5) rotate(0 66.44982020463794 83.35031423929115)"><text x="42.83333206176758" y="0" font-family="Virgil, Segoe UI Emoji" font-size="16px" fill="#1971c2" text-anchor="middle" style="white-space: pre;" direction="ltr" dominant-baseline="text-before-edge">Platform</text><text x="42.83333206176758" y="20" font-family="Virgil, Segoe UI Emoji" font-size="16px" fill="#1971c2" text-anchor="middle" style="white-space: pre;" direction="ltr" dominant-baseline="text-before-edge">Provisioning</text></g><g mask="url(#mask-xK__0dr1ST_WYZARpHcEX)" stroke-linecap="round"><g transform="translate(258.66666412353516 578.5) rotate(0 107.33787319987545 -1.0235184211070418)"><path d="M-0.31 -0.78 C45.46 0.23, 89.61 1.21, 215.13 -2.22 M-0.47 -0.52 C57.68 -0.06, 114.8 -0.28, 215.14 -1.36" stroke="#1971c2" stroke-width="1" fill="none"></path></g><g transform="translate(258.66666412353516 578.5) rotate(0 107.33787319987545 -1.0235184211070418)"><path d="M186.69 8.26 C192.75 7.52, 196.98 6.67, 214.15 -2.75 M186.51 8.57 C194.94 5.74, 202.16 2.99, 214.16 -1.78" stroke="#1971c2" stroke-width="1" fill="none"></path></g><g transform="translate(258.66666412353516 578.5) rotate(0 107.33787319987545 -1.0235184211070418)"><path d="M186.5 -12.26 C192.64 -8.66, 196.91 -5.18, 214.15 -2.75 M186.32 -11.95 C194.78 -9.34, 202.06 -6.64, 214.16 -1.78" stroke="#1971c2" stroke-width="1" fill="none"></path></g></g><mask id="mask-xK__0dr1ST_WYZARpHcEX"><rect x="0" y="0" fill="#fff" width="574.6666641235352" height="679.5"></rect><rect x="343.14999771118164" y="568" fill="#000" width="47.03333282470703" height="20" opacity="1"></rect></mask><g transform="translate(343.14999771118164 568) rotate(0 22.85453961222896 9.476481578892958)"><text x="23.516666412353516" y="0" font-family="Virgil, Segoe UI Emoji" font-size="16px" fill="#1971c2" text-anchor="middle" style="white-space: pre;" direction="ltr" dominant-baseline="text-before-edge">Quote</text></g><g mask="url(#mask-i545hNQuFs-H67XdjWzlb)" stroke-linecap="round"><g transform="translate(605.6666641235352 119.5) rotate(0 0.45387970382398635 42.97838982893154)"><path d="M0.47 -1.62 C0.44 25.13, 0.25 46.93, 0.31 85.86 M0.61 -0.08 C0.14 27.06, 0.39 53.86, 0.53 87.58" stroke="#1971c2" stroke-width="1" fill="none"></path></g><g transform="translate(605.6666641235352 119.5) rotate(0 0.45387970382398635 42.97838982893154)"><path d="M-9.39 57.81 C-6.98 68.91, -4.38 74.96, 0.84 86.43 M-9.25 59.36 C-6.65 68.49, -3.22 77.29, 1.07 88.15" stroke="#1971c2" stroke-width="1" fill="none"></path></g><g transform="translate(605.6666641235352 119.5) rotate(0 0.45387970382398635 42.97838982893154)"><path d="M11.13 57.72 C8.05 68.65, 5.15 74.73, 0.84 86.43 M11.27 59.26 C7.59 68.4, 4.74 77.22, 1.07 88.15" stroke="#1971c2" stroke-width="1" fill="none"></path></g></g><mask id="mask-i545hNQuFs-H67XdjWzlb"><rect x="0" y="0" fill="#fff" width="705.6666641235352" height="306.5"></rect><rect x="556.1333312988281" y="143" fill="#000" width="99.06666564941406" height="40" opacity="1"></rect></mask><g transform="translate(556.1333312988281 143) rotate(0 49.98721252853102 19.47838982893154)"><text x="49.53333282470703" y="0" font-family="Virgil, Segoe UI Emoji" font-size="16px" fill="#1971c2" text-anchor="middle" style="white-space: pre;" direction="ltr" dominant-baseline="text-before-edge">TCB &amp;</text><text x="49.53333282470703" y="20" font-family="Virgil, Segoe UI Emoji" font-size="16px" fill="#1971c2" text-anchor="middle" style="white-space: pre;" direction="ltr" dominant-baseline="text-before-edge">Master Keys</text></g><g mask="url(#mask-kx0a0JylxfkH32xAq7uFu)" stroke-linecap="round"><g transform="translate(680.6666641235352 76.5) rotate(0 73.93902234533823 218.9144710998045)"><path d="M0.43 -0.62 C39.43 57.58, 76.82 114.35, 147.15 218.78 M-0.58 -0.07 C38.97 57.1, 78.64 115.31, 148.46 219.24 M147.92 217.53 C111.45 282.45, 70.44 347.57, 17.36 436.44 M148.21 219.2 C108.36 282.61, 70.75 344.92, 15.27 438.45" stroke="#1971c2" stroke-width="1" fill="none"></path></g><g transform="translate(680.6666641235352 76.5) rotate(0 73.93902234533823 218.9144710998045)"><path d="M21.42 408.2 C21.16 416.4, 17.74 423.1, 14.2 438.17 M20.15 408.9 C18.99 416.77, 18.5 425.34, 15.84 438.75" stroke="#1971c2" stroke-width="1" fill="none"></path></g><g transform="translate(680.6666641235352 76.5) rotate(0 73.93902234533823 218.9144710998045)"><path d="M39.05 418.7 C34.22 424.1, 26.16 428.04, 14.2 438.17 M37.78 419.4 C31.96 424.59, 26.83 430.39, 15.84 438.75" stroke="#1971c2" stroke-width="1" fill="none"></path></g></g><mask id="mask-kx0a0JylxfkH32xAq7uFu"><rect x="0" y="0" fill="#fff" width="928.6666641235352" height="614.5"></rect><rect x="789.7833290100098" y="285.5" fill="#000" width="77.76667022705078" height="20" opacity="1"></rect></mask><g transform="translate(789.7833290100098 285.5) rotate(0 -35.17764254113638 9.914471099804501)"><text x="38.88333511352539" y="0" font-family="Virgil, Segoe UI Emoji" font-size="16px" fill="#1971c2" text-anchor="middle" style="white-space: pre;" direction="ltr" dominant-baseline="text-before-edge">Collateral</text></g></svg>