<svg version="1.1" xmlns="http://www.w3.org/2000/svg" viewBox="0 0 794 398" width="794" height="398">
  <!-- svg-source:excalidraw -->
  
  <defs>
    <style class="style-fonts">
      @font-face {
        font-family: "Virgil";
        src: url("https://excalidraw.com/Virgil.woff2");
      }
      @font-face {
        font-family: "Cascadia";
        src: url("https://excalidraw.com/Cascadia.woff2");
      }
    </style>
  </defs>
  <g stroke-linecap="round" transform="translate(10 10) rotate(0 226.5 189)"><path d="M32 0 M32 0 C136.36 -0.42, 240.31 -0.71, 421 0 M32 0 C170.61 -1.49, 308.17 -1.87, 421 0 M421 0 C442.17 -1.82, 451.34 11.71, 453 32 M421 0 C441.59 2.06, 452.85 10.03, 453 32 M453 32 C453.88 116.14, 453.07 202.71, 453 346 M453 32 C453.65 113.19, 454.5 194.22, 453 346 M453 346 C451.38 365.77, 441.71 376.97, 421 378 M453 346 C451.36 367.2, 440.1 376.1, 421 378 M421 378 C315.14 380.65, 208.16 380.06, 32 378 M421 378 C340.86 376.43, 261.77 376.31, 32 378 M32 378 C9.02 379.61, 1.85 365.47, 0 346 M32 378 C10.32 377.46, 0.87 365.47, 0 346 M0 346 C-0.56 243.85, 0.78 140.74, 0 32 M0 346 C-0.95 228.84, 0.41 113.17, 0 32 M0 32 C-0.98 12.41, 11.45 0.34, 32 0 M0 32 C-2.25 9.15, 8.52 0.12, 32 0" stroke="#1971c2" stroke-width="1" fill="none"></path></g><g transform="translate(193.9000015258789 15) rotate(0 42.599998474121094 12.5)"><text x="42.599998474121094" y="0" font-family="Virgil, Segoe UI Emoji" font-size="20px" fill="#1971c2" text-anchor="middle" style="white-space: pre;" direction="ltr" dominant-baseline="text-before-edge">Platform</text></g><g stroke-linecap="round" transform="translate(254 82) rotate(0 75.5 44)"><path d="M22 0 M22 0 C52.98 -0.54, 86.3 2.55, 129 0 M22 0 C63.63 -1.41, 106.33 -0.96, 129 0 M129 0 C144.63 1.81, 151.56 5.69, 151 22 M129 0 C145.52 2.13, 148.85 6.99, 151 22 M151 22 C151.7 34.44, 151.54 45.97, 151 66 M151 22 C152.05 36.76, 150.86 50.34, 151 66 M151 66 C149.24 82.63, 144.34 87.02, 129 88 M151 66 C153.01 81.56, 144.06 85.75, 129 88 M129 88 C104.04 88.95, 78.75 88.14, 22 88 M129 88 C89.35 86.94, 50.14 87.92, 22 88 M22 88 C7.03 88.28, -0.13 82.31, 0 66 M22 88 C7.41 89.54, 1.57 82.12, 0 66 M0 66 C-1.7 55.4, -1.93 49.2, 0 22 M0 66 C-0.14 54.31, 0.47 40.74, 0 22 M0 22 C1.26 7.88, 5.88 1.54, 22 0 M0 22 C2.18 8.43, 9.5 1.67, 22 0" stroke="#1971c2" stroke-width="1" fill="none"></path></g><g transform="translate(278.53333282470703 113.5) rotate(0 50.96666717529297 12.5)"><text x="50.96666717529297" y="0" font-family="Virgil, Segoe UI Emoji" font-size="20px" fill="#1971c2" text-anchor="middle" style="white-space: pre;" direction="ltr" dominant-baseline="text-before-edge">Application</text></g><g stroke-linecap="round" transform="translate(76 274) rotate(0 62.5 39.5)"><path d="M19.75 0 M19.75 0 C50.43 -1.94, 83.55 0.23, 105.25 0 M19.75 0 C38.91 1.75, 56.45 0.55, 105.25 0 M105.25 0 C118.69 -0.22, 126.6 6.74, 125 19.75 M105.25 0 C118.49 1.73, 125.75 8.33, 125 19.75 M125 19.75 C126.71 32.82, 124.45 48.56, 125 59.25 M125 19.75 C124.14 31.86, 124.57 41.57, 125 59.25 M125 59.25 C126.71 73.65, 118.79 78.19, 105.25 79 M125 59.25 C125.4 70.85, 118.39 79.2, 105.25 79 M105.25 79 C84.56 81.03, 69.23 78.29, 19.75 79 M105.25 79 C71.91 79.02, 37.91 77.33, 19.75 79 M19.75 79 C8.06 77.24, 0.71 72.91, 0 59.25 M19.75 79 C5.57 78, 2.01 73.97, 0 59.25 M0 59.25 C-0.79 46.14, 0.12 35.7, 0 19.75 M0 59.25 C-0.33 48.34, 0.17 35.67, 0 19.75 M0 19.75 C1.6 6.79, 8.19 0.51, 19.75 0 M0 19.75 C0.93 7.78, 4.57 1.47, 19.75 0" stroke="#2f9e44" stroke-width="1" fill="none"></path></g><g transform="translate(82.53333282470703 288.5) rotate(0 55.96666717529297 25)"><text x="55.96666717529297" y="0" font-family="Virgil, Segoe UI Emoji" font-size="20px" fill="#2f9e44" text-anchor="middle" style="white-space: pre;" direction="ltr" dominant-baseline="text-before-edge">Application </text><text x="55.96666717529297" y="25" font-family="Virgil, Segoe UI Emoji" font-size="20px" fill="#2f9e44" text-anchor="middle" style="white-space: pre;" direction="ltr" dominant-baseline="text-before-edge">Enclave</text></g><g stroke-linecap="round" transform="translate(263.5 271.5) rotate(0 62.5 39.5)"><path d="M19.75 0 M19.75 0 C55.09 2.19, 89.11 -1.19, 105.25 0 M19.75 0 C51.97 -0.74, 83.27 0.57, 105.25 0 M105.25 0 C119.76 0.38, 123.42 7.97, 125 19.75 M105.25 0 C117.15 -0.58, 124.78 8.48, 125 19.75 M125 19.75 C124.8 32.28, 125.8 41.3, 125 59.25 M125 19.75 C125.29 35.16, 125.56 48.9, 125 59.25 M125 59.25 C126.28 72.08, 118.26 78.28, 105.25 79 M125 59.25 C126.94 72.02, 117.6 80.7, 105.25 79 M105.25 79 C79.97 79.65, 55.73 77.18, 19.75 79 M105.25 79 C74.46 78.96, 45.97 80.33, 19.75 79 M19.75 79 C7.79 80.01, 1.84 73.88, 0 59.25 M19.75 79 C6.8 79.19, 2.19 73.4, 0 59.25 M0 59.25 C-1.39 49.9, -0.34 40.05, 0 19.75 M0 59.25 C-0.33 45.6, 0.57 33.82, 0 19.75 M0 19.75 C-0.59 4.88, 8.38 0.16, 19.75 0 M0 19.75 C-0.59 6.62, 5.39 0.04, 19.75 0" stroke="#2f9e44" stroke-width="1" fill="none"></path></g><g transform="translate(285.21666717529297 286) rotate(0 40.78333282470703 25)"><text x="40.78333282470703" y="0" font-family="Virgil, Segoe UI Emoji" font-size="20px" fill="#2f9e44" text-anchor="middle" style="white-space: pre;" direction="ltr" dominant-baseline="text-before-edge">Quoting </text><text x="40.78333282470703" y="25" font-family="Virgil, Segoe UI Emoji" font-size="20px" fill="#2f9e44" text-anchor="middle" style="white-space: pre;" direction="ltr" dominant-baseline="text-before-edge">Enclave</text></g><g stroke-linecap="round" transform="translate(611 78) rotate(0 85 45)"><path d="M22.5 0 M22.5 0 C56.3 2.07, 87.81 0.85, 147.5 0 M22.5 0 C48.98 -1.05, 76.95 -0.11, 147.5 0 M147.5 0 C161.99 0.03, 168.96 7.53, 170 22.5 M147.5 0 C164.26 -2.18, 170.62 9.61, 170 22.5 M170 22.5 C171.64 36.11, 171.27 51.06, 170 67.5 M170 22.5 C170.76 35.28, 170.32 45.88, 170 67.5 M170 67.5 C168.14 84.43, 161.93 91.73, 147.5 90 M170 67.5 C169.1 84.09, 164.22 87.74, 147.5 90 M147.5 90 C106.29 88.51, 66.83 90.01, 22.5 90 M147.5 90 C98.24 89.56, 49.41 89.53, 22.5 90 M22.5 90 C7.76 91.15, 0.05 80.58, 0 67.5 M22.5 90 C9.06 88.19, -1.69 82.74, 0 67.5 M0 67.5 C-1.64 51, 0.79 35.27, 0 22.5 M0 67.5 C-0.18 58.28, -0.34 48.56, 0 22.5 M0 22.5 C1.59 7.98, 8.83 -0.43, 22.5 0 M0 22.5 C-0.19 9.62, 6.87 -0.57, 22.5 0" stroke="#1971c2" stroke-width="1" fill="none"></path></g><g transform="translate(647.783332824707 110.5) rotate(0 48.21666717529297 12.5)"><text x="48.21666717529297" y="0" font-family="Virgil, Segoe UI Emoji" font-size="20px" fill="#1971c2" text-anchor="middle" style="white-space: pre;" direction="ltr" dominant-baseline="text-before-edge">Challenger</text></g><g stroke-linecap="round" transform="translate(614 263) rotate(0 85 45)"><path d="M22.5 0 M22.5 0 C60.99 -1.94, 99.89 0.48, 147.5 0 M22.5 0 C61.78 -0.3, 102.29 -0.46, 147.5 0 M147.5 0 C162.3 1.59, 170.48 8.83, 170 22.5 M147.5 0 C162.01 -0.19, 172.12 6.87, 170 22.5 M170 22.5 C168.93 34.77, 172.06 45.82, 170 67.5 M170 22.5 C169.18 39.9, 168.93 55.13, 170 67.5 M170 67.5 C169.71 84.04, 161.71 91.69, 147.5 90 M170 67.5 C172.28 83.18, 162.88 90.36, 147.5 90 M147.5 90 C111.22 91.66, 71.14 88.45, 22.5 90 M147.5 90 C101.18 90.06, 56.11 90.24, 22.5 90 M22.5 90 C8.19 91.29, 0.05 83.96, 0 67.5 M22.5 90 C6.69 91.95, 1.85 84.19, 0 67.5 M0 67.5 C1.69 54.8, 0.22 42.6, 0 22.5 M0 67.5 C-1.21 56.88, -0.84 45.41, 0 22.5 M0 22.5 C0.12 7.28, 5.54 0.96, 22.5 0 M0 22.5 C-1.52 9.1, 9.11 1.9, 22.5 0" stroke="#1971c2" stroke-width="1" fill="none"></path></g><g transform="translate(634.8833312988281 270.5) rotate(0 64.11666870117188 37.5)"><text x="64.11666870117188" y="0" font-family="Virgil, Segoe UI Emoji" font-size="20px" fill="#1971c2" text-anchor="middle" style="white-space: pre;" direction="ltr" dominant-baseline="text-before-edge">Attestation </text><text x="64.11666870117188" y="25" font-family="Virgil, Segoe UI Emoji" font-size="20px" fill="#1971c2" text-anchor="middle" style="white-space: pre;" direction="ltr" dominant-baseline="text-before-edge">Verification </text><text x="64.11666870117188" y="50" font-family="Virgil, Segoe UI Emoji" font-size="20px" fill="#1971c2" text-anchor="middle" style="white-space: pre;" direction="ltr" dominant-baseline="text-before-edge">Service</text></g><g mask="url(#mask-s_-qWSRj_xIOLy9_Q4NzT)" stroke-linecap="round"><g transform="translate(610 105) rotate(0 -102.1749262795039 0.2535620695538796)"><path d="M-1.01 0.22 C-34.97 0.05, -170.23 0.16, -204.04 0.14 M0.66 -0.72 C-33.43 -0.25, -170.8 0.94, -205.01 1.22" stroke="#1971c2" stroke-width="1" fill="none"></path></g><g transform="translate(610 105) rotate(0 -102.1749262795039 0.2535620695538796)"><path d="M-176.55 -9.35 C-186 -6.43, -193.8 -3.72, -204.02 0.37 M-175.97 -8.48 C-186.42 -6.47, -196.11 -1.65, -205.22 1.11" stroke="#1971c2" stroke-width="1" fill="none"></path></g><g transform="translate(610 105) rotate(0 -102.1749262795039 0.2535620695538796)"><path d="M-176.38 11.17 C-186.08 8.42, -193.92 5.47, -204.02 0.37 M-175.79 12.04 C-186.32 7.18, -196.06 5.13, -205.22 1.11" stroke="#1971c2" stroke-width="1" fill="none"></path></g></g><mask id="mask-s_-qWSRj_xIOLy9_Q4NzT"><rect x="0" y="0" fill="#fff" width="914" height="206"></rect><rect x="505.2833333015442" y="93" fill="#000" width="5.433333396911621" height="25" opacity="1"></rect></mask><g transform="translate(505.2833333015442 93) rotate(0 2.5417404189519175 12.25356206955388)"><text x="2.7166666984558105" y="0" font-family="Virgil, Segoe UI Emoji" font-size="20px" fill="#1971c2" text-anchor="middle" style="white-space: pre;" direction="ltr" dominant-baseline="text-before-edge">1</text></g><g mask="url(#mask-13axPAKkZRRTwQAYjGZKH)" stroke-linecap="round"><g transform="translate(250 121) rotate(0 -69.08333087542712 74.85596451442689)"><path d="M-1.3 1.1 C-37.08 0.33, -70.3 0.56, -135.25 0.71 M-0.77 -0.32 C-53.23 0.42, -108.85 1.97, -136.79 1.58 M-137.08 0.16 C-133.34 38.37, -133.57 74.82, -134.88 149.88 M-136.98 2.33 C-137.67 39.78, -137.52 79.1, -136.31 150.03" stroke="#1971c2" stroke-width="1" fill="none"></path></g><g transform="translate(250 121) rotate(0 -69.08333087542712 74.85596451442689)"><path d="M-148.28 123.1 C-145.48 129.05, -140.08 136.13, -135.56 148.74 M-147.75 121.67 C-142.12 132.56, -139.46 144.46, -137.1 149.62" stroke="#1971c2" stroke-width="1" fill="none"></path></g><g transform="translate(250 121) rotate(0 -69.08333087542712 74.85596451442689)"><path d="M-127.76 122.8 C-130.36 128.85, -130.37 136.01, -135.56 148.74 M-127.23 121.38 C-129.76 132.41, -135.26 144.43, -137.1 149.62" stroke="#1971c2" stroke-width="1" fill="none"></path></g></g><mask id="mask-13axPAKkZRRTwQAYjGZKH"><rect x="0" y="0" fill="#fff" width="486" height="372"></rect><rect x="106.88333320617676" y="110.5" fill="#000" width="14.233333587646484" height="25" opacity="1"></rect></mask><g transform="translate(106.88333320617676 110.5) rotate(0 74.03333591839612 85.35596451442689)"><text x="7.116666793823242" y="0" font-family="Virgil, Segoe UI Emoji" font-size="20px" fill="#1971c2" text-anchor="middle" style="white-space: pre;" direction="ltr" dominant-baseline="text-before-edge">2</text></g><g mask="url(#mask-Slmi4PNl33Yhl07Ij1Cov)" stroke-linecap="round"><g transform="translate(166 271) rotate(0 41.563451000954956 -61.15673290332779)"><path d="M-1.93 1.37 C-0.56 -29.73, 0.95 -61.56, 2.12 -123.5 M-0.45 -0.32 C0.1 -37.18, 1.41 -73.23, 0.62 -121.76 M2.07 -121.69 C30.26 -122.62, 58.51 -123.36, 84.88 -122.64 M1.07 -121.93 C31.9 -121.93, 63.69 -122.34, 85.06 -123.68" stroke="#1971c2" stroke-width="1" fill="none"></path></g><g transform="translate(166 271) rotate(0 41.563451000954956 -61.15673290332779)"><path d="M55.42 -110.81 C63.24 -113.97, 71.48 -117.96, 86.18 -125.18 M56.9 -112.5 C64.95 -116.41, 74.27 -119.31, 84.68 -123.45" stroke="#1971c2" stroke-width="1" fill="none"></path></g><g transform="translate(166 271) rotate(0 41.563451000954956 -61.15673290332779)"><path d="M54.51 -131.31 C62.51 -129.3, 70.98 -128.12, 86.18 -125.18 M55.99 -133 C64.21 -130.77, 73.81 -127.51, 84.68 -123.45" stroke="#1971c2" stroke-width="1" fill="none"></path></g></g><mask id="mask-Slmi4PNl33Yhl07Ij1Cov"><rect x="0" y="0" fill="#fff" width="352" height="494"></rect><rect x="160.18333339691162" y="136.5" fill="#000" width="13.633333206176758" height="25" opacity="1"></rect></mask><g transform="translate(160.18333339691162 136.5) rotate(0 47.380117604043335 73.34326709667221)"><text x="6.816666603088379" y="0" font-family="Virgil, Segoe UI Emoji" font-size="20px" fill="#1971c2" text-anchor="middle" style="white-space: pre;" direction="ltr" dominant-baseline="text-before-edge">3</text></g><g mask="url(#mask-pfyCKV8ybi3Lw_WKvnOev)" stroke-linecap="round"><g transform="translate(286 167) rotate(0 1.3796344331033197 54.32933987537399)"><path d="M0.21 0.34 C1.8 22.44, 1.27 46.01, 0.37 107.97 M0.78 0.57 C1.77 30.98, 2.71 59.89, 2.53 108.32" stroke="#1971c2" stroke-width="1" fill="none"></path></g><g transform="translate(286 167) rotate(0 1.3796344331033197 54.32933987537399)"><path d="M-7.61 80.5 C-4.1 86.14, -2.91 93.21, 0.9 108.29 M-7.03 80.73 C-4.4 88.78, -1.12 95.29, 3.07 108.64" stroke="#1971c2" stroke-width="1" fill="none"></path></g><g transform="translate(286 167) rotate(0 1.3796344331033197 54.32933987537399)"><path d="M12.92 80.44 C12.18 85.98, 9.13 93.06, 0.9 108.29 M13.49 80.67 C10.36 88.65, 7.88 95.17, 3.07 108.64" stroke="#1971c2" stroke-width="1" fill="none"></path></g></g><mask id="mask-pfyCKV8ybi3Lw_WKvnOev"><rect x="0" y="0" fill="#fff" width="388" height="375"></rect><rect x="280.59999990463257" y="208.5" fill="#000" width="12.800000190734863" height="25" opacity="1"></rect></mask><g transform="translate(280.59999990463257 208.5) rotate(0 6.779634528470751 12.82933987537399)"><text x="6.400000095367432" y="0" font-family="Virgil, Segoe UI Emoji" font-size="20px" fill="#1971c2" text-anchor="middle" style="white-space: pre;" direction="ltr" dominant-baseline="text-before-edge">4</text></g><g mask="url(#mask-C1EwmW3JY6xRYfeVr_q1l)" stroke-linecap="round"><g transform="translate(354 270) rotate(0 0.25635668030008674 -48.406685234513134)"><path d="M-0.89 1.55 C1.64 -29.05, 2.14 -57.87, -0.43 -97.93 M0.59 0.33 C0.8 -33.06, 0.69 -66.17, 1.4 -98.37" stroke="#1971c2" stroke-width="1" fill="none"></path></g><g transform="translate(354 270) rotate(0 0.25635668030008674 -48.406685234513134)"><path d="M10.34 -68.47 C9.49 -77.88, 6.76 -85.59, -0.04 -97.3 M11.81 -69.7 C8.08 -79.61, 4.36 -89.26, 1.8 -97.73" stroke="#1971c2" stroke-width="1" fill="none"></path></g><g transform="translate(354 270) rotate(0 0.25635668030008674 -48.406685234513134)"><path d="M-10.18 -68.78 C-4.9 -78.28, -1.5 -85.9, -0.04 -97.3 M-8.71 -70.01 C-5.63 -79.85, -2.53 -89.39, 1.8 -97.73" stroke="#1971c2" stroke-width="1" fill="none"></path></g></g><mask id="mask-C1EwmW3JY6xRYfeVr_q1l"><rect x="0" y="0" fill="#fff" width="455" height="469"></rect><rect x="348.3166666030884" y="208" fill="#000" width="12.366666793823242" height="25" opacity="1"></rect></mask><g transform="translate(348.3166666030884 208) rotate(0 5.939690077211708 13.593314765486866)"><text x="6.183333396911621" y="0" font-family="Virgil, Segoe UI Emoji" font-size="20px" fill="#1971c2" text-anchor="middle" style="white-space: pre;" direction="ltr" dominant-baseline="text-before-edge">5</text></g><g mask="url(#mask-o4RYjf6LaDpUyvUoJbqWM)" stroke-linecap="round"><g transform="translate(404 147) rotate(0 102.84412228982984 -0.7713848980610294)"><path d="M0.45 -0.56 C41.61 -0.16, 82.1 -3.44, 206.14 -1.84 M-0.45 0.74 C65.57 -1.58, 132.59 -2.18, 205.09 -1.02" stroke="#1971c2" stroke-width="1" fill="none"></path></g><g transform="translate(404 147) rotate(0 102.84412228982984 -0.7713848980610294)"><path d="M177.31 8.36 C182.63 8.67, 187.14 3.19, 206.36 -1.96 M176.3 9.82 C185.26 5.47, 195.39 1.93, 205.18 -1.05" stroke="#1971c2" stroke-width="1" fill="none"></path></g><g transform="translate(404 147) rotate(0 102.84412228982984 -0.7713848980610294)"><path d="M177.49 -12.16 C182.69 -7.69, 187.17 -9.01, 206.36 -1.96 M176.48 -10.7 C185.45 -8.43, 195.52 -5.35, 205.18 -1.05" stroke="#1971c2" stroke-width="1" fill="none"></path></g></g><mask id="mask-o4RYjf6LaDpUyvUoJbqWM"><rect x="0" y="0" fill="#fff" width="709" height="248"></rect><rect x="500.09999990463257" y="134" fill="#000" width="12.800000190734863" height="25" opacity="1"></rect></mask><g transform="translate(500.09999990463257 134) rotate(0 6.744122385197272 12.22861510193897)"><text x="6.400000095367432" y="0" font-family="Virgil, Segoe UI Emoji" font-size="20px" fill="#1971c2" text-anchor="middle" style="white-space: pre;" direction="ltr" dominant-baseline="text-before-edge">6</text></g><g mask="url(#mask-O_71E6Xe3ayxbYNW2elJg)" stroke-linecap="round"><g transform="translate(655 167) rotate(0 1.543896569404751 46.77476975880563)"><path d="M-0.28 -0.74 C1.47 21.17, 3.45 45.74, 2.02 94.29 M0.78 0.61 C0.15 22.37, 1.72 46.33, 3.37 93.6" stroke="#1971c2" stroke-width="1" fill="none"></path></g><g transform="translate(655 167) rotate(0 1.543896569404751 46.77476975880563)"><path d="M-8.24 65.08 C-5.12 71.37, -1.13 80.28, 2.39 94.88 M-7.18 66.43 C-5.93 72.02, -2.29 79.79, 3.74 94.2" stroke="#1971c2" stroke-width="1" fill="none"></path></g><g transform="translate(655 167) rotate(0 1.543896569404751 46.77476975880563)"><path d="M12.26 64.3 C10.47 70.67, 9.54 79.77, 2.39 94.88 M13.33 65.65 C9.49 71.38, 8.04 79.34, 3.74 94.2" stroke="#1971c2" stroke-width="1" fill="none"></path></g></g><mask id="mask-O_71E6Xe3ayxbYNW2elJg"><rect x="0" y="0" fill="#fff" width="758" height="360"></rect><rect x="651.1166667938232" y="201" fill="#000" width="10.766666412353516" height="25" opacity="1"></rect></mask><g transform="translate(651.1166667938232 201) rotate(0 5.427229775581509 12.774769758805633)"><text x="5.383333206176758" y="0" font-family="Virgil, Segoe UI Emoji" font-size="20px" fill="#1971c2" text-anchor="middle" style="white-space: pre;" direction="ltr" dominant-baseline="text-before-edge">7</text></g><g mask="url(#mask-P4ngytsl-6gVzT47pkIKC)" stroke-linecap="round"><g transform="translate(734 263) rotate(0 -0.3090678215958178 -46.11463568825275)"><path d="M-0.07 0.3 C1.53 -32.05, 0.54 -67.5, -1.37 -90.37 M0.75 0.34 C-1.02 -34.54, -0.28 -69.86, -0.61 -92.57" stroke="#1971c2" stroke-width="1" fill="none"></path></g><g transform="translate(734 263) rotate(0 -0.3090678215958178 -46.11463568825275)"><path d="M9.71 -64.13 C7.01 -73.48, 2.27 -85.86, -1.98 -90.94 M10.54 -64.08 C5.03 -75.03, 1.89 -86.46, -1.21 -93.15" stroke="#1971c2" stroke-width="1" fill="none"></path></g><g transform="translate(734 263) rotate(0 -0.3090678215958178 -46.11463568825275)"><path d="M-10.81 -64.04 C-6.09 -73.27, -3.42 -85.68, -1.98 -90.94 M-9.99 -63.99 C-7.81 -75.05, -3.27 -86.5, -1.21 -93.15" stroke="#1971c2" stroke-width="1" fill="none"></path></g></g><mask id="mask-P4ngytsl-6gVzT47pkIKC"><rect x="0" y="0" fill="#fff" width="834" height="455"></rect><rect x="726.3499999046326" y="204.5" fill="#000" width="15.300000190734863" height="25" opacity="1"></rect></mask><g transform="translate(726.3499999046326 204.5) rotate(0 7.340932273771614 12.385364311747253)"><text x="7.650000095367432" y="0" font-family="Virgil, Segoe UI Emoji" font-size="20px" fill="#1971c2" text-anchor="middle" style="white-space: pre;" direction="ltr" dominant-baseline="text-before-edge">8</text></g></svg>