<svg version="1.1" xmlns="http://www.w3.org/2000/svg" viewBox="0 0 638.4197476789459 447.36515013400145" width="638.4197476789459" height="447.36515013400145">
  <!-- svg-source:excalidraw -->
  
  <defs>
    <style class="style-fonts">
      @font-face {
        font-family: "Virgil";
        src: url("https://excalidraw.com/Virgil.woff2");
      }
      @font-face {
        font-family: "Cascadia";
        src: url("https://excalidraw.com/Cascadia.woff2");
      }
    </style>
    
  </defs>
  <g stroke-linecap="round" transform="translate(146.558371516639 41.76591798016062) rotate(0 36.5 15.5)"><path d="M7.75 0 M7.75 0 C24.97 -1.2, 41.61 0.79, 65.25 0 M7.75 0 C23.6 0.86, 37.57 0.93, 65.25 0 M65.25 0 C70.12 0.88, 73.45 0.72, 73 7.75 M65.25 0 C71.96 -1.91, 73.25 2.54, 73 7.75 M73 7.75 C73.99 10.62, 72.81 14.78, 73 23.25 M73 7.75 C73.57 11.28, 72.15 14.66, 73 23.25 M73 23.25 C73.9 27.71, 70.24 29.5, 65.25 31 M73 23.25 C73.21 26.22, 70.89 29.38, 65.25 31 M65.25 31 C48.32 29.31, 32.46 30.76, 7.75 31 M65.25 31 C53.28 30.41, 40.7 31.28, 7.75 31 M7.75 31 C0.81 32.28, 1.86 27.42, 0 23.25 M7.75 31 C0.31 29.81, 0.89 30.41, 0 23.25 M0 23.25 C1.16 17.85, -1.6 14.01, 0 7.75 M0 23.25 C-0.5 17.64, 0.53 13.02, 0 7.75 M0 7.75 C-1.1 3.51, 2.39 -0.88, 7.75 0 M0 7.75 C2.06 3.96, 2.15 -0.42, 7.75 0" stroke="#1971c2" stroke-width="1" fill="none"></path></g><g transform="translate(163.495871516639 48.06591798016058) rotate(0 19.5625 9.199999999999989)"><text x="19.5625" y="0" font-family="Helvetica, Segoe UI Emoji" font-size="16px" fill="#1971c2" text-anchor="middle" style="white-space: pre;" direction="ltr" dominant-baseline="text-before-edge">2F9C</text></g><g stroke-linecap="round" transform="translate(208.149578860406 245.67302856940847) rotate(0 36.49999999999994 15.5)"><path d="M7.75 0 M7.75 0 C21.02 1.59, 34.46 1.23, 65.25 0 M7.75 0 C27.59 0.12, 47.95 -1.25, 65.25 0 M65.25 0 C71.76 -1.66, 73.22 2.55, 73 7.75 M65.25 0 C68.62 2.23, 73.5 3.83, 73 7.75 M73 7.75 C71.62 10.48, 73.24 17.32, 73 23.25 M73 7.75 C73.21 12.56, 72.79 17.34, 73 23.25 M73 23.25 C73.18 26.5, 70.83 29.59, 65.25 31 M73 23.25 C72.6 27.07, 69.58 30.2, 65.25 31 M65.25 31 C50.49 32.2, 40.43 31.28, 7.75 31 M65.25 31 C52.4 31.61, 42.25 30.47, 7.75 31 M7.75 31 C0.6 29.97, 0.78 30.15, 0 23.25 M7.75 31 C2.7 33.22, 1.62 30.37, 0 23.25 M0 23.25 C0.72 20.82, -0.76 14.62, 0 7.75 M0 23.25 C-0.56 19.73, -0.21 15.16, 0 7.75 M0 7.75 C1.79 3.78, 2.21 -0.36, 7.75 0 M0 7.75 C1.36 1.23, 3.7 -1.76, 7.75 0" stroke="#1971c2" stroke-width="1" fill="none"></path></g><g transform="translate(225.079266360406 251.97302856940843) rotate(0 19.5703125 9.199999999999989)"><text x="19.5703125" y="0" font-family="Helvetica, Segoe UI Emoji" font-size="16px" fill="#1971c2" text-anchor="middle" style="white-space: pre;" direction="ltr" dominant-baseline="text-before-edge">A8B5</text></g><g stroke-linecap="round" transform="translate(88.75932727398686 245.9637730869079) rotate(0 36.5 15.5)"><path d="M7.75 0 M7.75 0 C31.24 -1.22, 53.94 -0.73, 65.25 0 M7.75 0 C28.19 -0.29, 47.4 0.52, 65.25 0 M65.25 0 C68.86 1.94, 73.43 3.67, 73 7.75 M65.25 0 C69.56 -0.51, 73.22 0.59, 73 7.75 M73 7.75 C73.46 9.62, 73.61 15.06, 73 23.25 M73 7.75 C73.06 11.11, 73.15 15.42, 73 23.25 M73 23.25 C72.65 27.24, 69.69 30.31, 65.25 31 M73 23.25 C71.29 28.06, 70.38 28.95, 65.25 31 M65.25 31 C42.69 30.45, 23.71 29.31, 7.75 31 M65.25 31 C43.34 30.2, 23.8 31.58, 7.75 31 M7.75 31 C2.68 32.93, 1.41 30.11, 0 23.25 M7.75 31 C1.58 28.85, 0.32 29.26, 0 23.25 M0 23.25 C-0.68 18.44, 0.52 10.01, 0 7.75 M0 23.25 C0.71 18.35, -0.13 12.38, 0 7.75 M0 7.75 C1.18 1.41, 3.56 -1.53, 7.75 0 M0 7.75 C-0.35 1.5, 4.69 1.47, 7.75 0" stroke="#1971c2" stroke-width="1" fill="none"></path></g><g transform="translate(105.68901477398686 252.26377308690786) rotate(0 19.5703125 9.199999999999989)"><text x="19.5703125" y="0" font-family="Helvetica, Segoe UI Emoji" font-size="16px" fill="#1971c2" text-anchor="middle" style="white-space: pre;" direction="ltr" dominant-baseline="text-before-edge">E74B</text></g><g stroke-linecap="round" transform="translate(137.23331954892296 170.21467756686144) rotate(0 36.5 15.5)"><path d="M7.75 0 M7.75 0 C23.61 0.53, 35.85 1.43, 65.25 0 M7.75 0 C19.45 0.98, 32.92 0.55, 65.25 0 M65.25 0 C69.67 -0.44, 73.19 0.85, 73 7.75 M65.25 0 C68.42 0.4, 75.11 3.23, 73 7.75 M73 7.75 C72.51 10.82, 71.9 14.32, 73 23.25 M73 7.75 C72.9 10.46, 72.75 13.82, 73 23.25 M73 23.25 C71.51 28.11, 70.39 29.21, 65.25 31 M73 23.25 C74.39 29.72, 70.75 28.89, 65.25 31 M65.25 31 C51.09 32.36, 33.38 28.51, 7.75 31 M65.25 31 C51.01 32.46, 37.38 32.35, 7.75 31 M7.75 31 C1.71 29.13, 0.28 29.15, 0 23.25 M7.75 31 C4.87 29.65, -1.01 27.27, 0 23.25 M0 23.25 C0.67 17.08, -0.72 12.58, 0 7.75 M0 23.25 C0.49 17.21, 0.41 11.5, 0 7.75 M0 7.75 C-0.3 1.64, 4.41 1.28, 7.75 0 M0 7.75 C-0.96 1.97, 3.03 1.17, 7.75 0" stroke="#1971c2" stroke-width="1" fill="none"></path></g><g transform="translate(152.39347579892296 176.5146775668614) rotate(0 21.33984375 9.199999999999989)"><text x="21.33984375" y="0" font-family="Helvetica, Segoe UI Emoji" font-size="16px" fill="#1971c2" text-anchor="middle" style="white-space: pre;" direction="ltr" dominant-baseline="text-before-edge">D8CA</text></g><g stroke-linecap="round" transform="translate(20.01431161004234 169.21467756686144) rotate(0 36.5 15.5)"><path d="M7.75 0 M7.75 0 C24.62 -0.16, 44.78 -1.94, 65.25 0 M7.75 0 C30.21 -0.53, 53.51 -1.18, 65.25 0 M65.25 0 C68.68 0.35, 74.83 3.15, 73 7.75 M65.25 0 C68.28 0.87, 74.04 1.78, 73 7.75 M73 7.75 C71.4 12.58, 71.79 16.5, 73 23.25 M73 7.75 C72.37 11.37, 72.93 14.54, 73 23.25 M73 23.25 C74.21 29.55, 70.71 29.16, 65.25 31 M73 23.25 C72.27 28.3, 68.38 32.47, 65.25 31 M65.25 31 C41.61 31.21, 21.77 30.53, 7.75 31 M65.25 31 C42.01 30.55, 19.79 31.86, 7.75 31 M7.75 31 C4.57 29.83, -0.88 27.42, 0 23.25 M7.75 31 C4.63 31.64, -1.27 29.48, 0 23.25 M0 23.25 C1 18.46, -0.21 15.16, 0 7.75 M0 23.25 C-0.19 19.15, 0.63 16.27, 0 7.75 M0 7.75 C-0.84 2.05, 2.97 1.01, 7.75 0 M0 7.75 C-1.57 2.43, 3.79 -0.12, 7.75 0" stroke="#1971c2" stroke-width="1" fill="none"></path></g><g transform="translate(38.71743661004234 175.5146775668614) rotate(0 17.796875 9.199999999999989)"><text x="17.796875" y="0" font-family="Helvetica, Segoe UI Emoji" font-size="16px" fill="#1971c2" text-anchor="middle" style="white-space: pre;" direction="ltr" dominant-baseline="text-before-edge">1328</text></g><g stroke-linecap="round" transform="translate(91.64621084631449 106.23517373218107) rotate(0 36.5 15.5)"><path d="M7.75 0 M7.75 0 C27.58 0.88, 44.61 -0.29, 65.25 0 M7.75 0 C22.86 0.67, 40.62 0.78, 65.25 0 M65.25 0 C68.56 0.76, 73.9 1.88, 73 7.75 M65.25 0 C70.21 -1.72, 73.21 0.38, 73 7.75 M73 7.75 C71.98 12.16, 72.35 16.54, 73 23.25 M73 7.75 C73.47 12.6, 73.11 15.86, 73 23.25 M73 23.25 C72.37 28.31, 68.65 32.28, 65.25 31 M73 23.25 C75.14 27.27, 68.14 29.81, 65.25 31 M65.25 31 C47.7 32.44, 27.98 30.16, 7.75 31 M65.25 31 C54.36 30.63, 41.05 30.71, 7.75 31 M7.75 31 C4.36 31.55, -1.1 29.34, 0 23.25 M7.75 31 C2.37 29.99, 2.06 29.8, 0 23.25 M0 23.25 C-0.88 19.64, -1.16 14.3, 0 7.75 M0 23.25 C-0.47 19.12, 0.01 15.8, 0 7.75 M0 7.75 C-1.37 2.45, 3.64 -0.11, 7.75 0 M0 7.75 C0.43 3.01, 3.11 -0.67, 7.75 0" stroke="#1971c2" stroke-width="1" fill="none"></path></g><g transform="translate(110.34933584631449 112.53517373218102) rotate(0 17.796875 9.199999999999989)"><text x="17.796875" y="0" font-family="Helvetica, Segoe UI Emoji" font-size="16px" fill="#1971c2" text-anchor="middle" style="white-space: pre;" direction="ltr" dominant-baseline="text-before-edge">48a5</text></g><g stroke-linecap="round"><g transform="translate(181.02026586339775 70.8697429164211) rotate(0 -26.101622280064362 17.067405103521708)"><path d="M-0.45 -0.27 C-9.29 5.39, -43.91 28.58, -52.84 34.59 M1.52 -1.45 C-7.5 4.26, -44.86 29.13, -53.73 35.59" stroke="#1971c2" stroke-width="1" fill="none"></path></g></g><mask></mask><g stroke-linecap="round"><g transform="translate(122.13002678165662 136.1933694608736) rotate(0 -33.125951456341454 16.658935144923646)"><path d="M0.11 -1.04 C-10.87 4.73, -55.64 28.44, -66.37 34.36 M-1.28 1.03 C-11.87 6.44, -53.68 27.13, -64.2 32.34" stroke="#1971c2" stroke-width="1" fill="none"></path></g></g><mask></mask><g stroke-linecap="round"><g transform="translate(138.9558093764399 136.68824541954365) rotate(0 19.82308569573513 17.373879043715306)"><path d="M-1.04 0.21 C5.72 6.29, 34.1 29.58, 40.69 35.47 M0.61 -0.73 C7.3 5.07, 33.62 27.83, 40.32 33.53" stroke="#1971c2" stroke-width="1" fill="none"></path></g></g><mask></mask><g stroke-linecap="round"><g transform="translate(165.45752849983887 203.85798968356477) rotate(0 -22.27624633910864 19.756870070097023)"><path d="M1.1 0.34 C-6.34 6.98, -38.14 33.57, -45.65 40.04 M0.22 -0.53 C-6.77 5.72, -36.07 31.36, -43.52 38.16" stroke="#1971c2" stroke-width="1" fill="none"></path></g></g><mask></mask><g stroke-linecap="round"><g transform="translate(199.56530114629936 203.58774133138496) rotate(0 20.74738675554977 20.313604635861793)"><path d="M-1.11 0.45 C5.81 7.01, 35.43 33.21, 42.61 39.66 M0.5 -0.35 C7.22 6.34, 35.17 34.25, 41.94 40.98" stroke="#1971c2" stroke-width="1" fill="none"></path></g></g><mask></mask><g stroke-linecap="round" transform="translate(10 10) rotate(0 148.80146707174174 213.54745089091088)"><path d="M32 0 M32 0 C79.83 -1.04, 127.59 -0.74, 265.6 0 M32 0 C79.6 0.89, 127.19 1.1, 265.6 0 M265.6 0 C285.45 -0.31, 297.57 8.88, 297.6 32 M265.6 0 C288.32 1.31, 297.94 8.55, 297.6 32 M297.6 32 C298.29 130.63, 296.86 225.67, 297.6 395.09 M297.6 32 C298.52 122.82, 298.93 212.97, 297.6 395.09 M297.6 395.09 C296.73 414.56, 287.21 427.83, 265.6 427.09 M297.6 395.09 C299.89 415.08, 285.92 425.95, 265.6 427.09 M265.6 427.09 C175.54 425.85, 83.18 427.52, 32 427.09 M265.6 427.09 C182.02 426.24, 97.84 426.09, 32 427.09 M32 427.09 C10.36 426.15, 1.83 417.71, 0 395.09 M32 427.09 C9.7 426.48, 0.44 417.6, 0 395.09 M0 395.09 C0.09 311.25, 0.39 227.22, 0 32 M0 395.09 C0.6 296.28, 0.09 198.36, 0 32 M0 32 C-0.89 9.49, 10.88 1.91, 32 0 M0 32 C-1.5 10.8, 10.81 -0.45, 32 0" stroke="#2f9e44" stroke-width="1" fill="none"></path></g><g stroke-linecap="round" transform="translate(129.05018055026449 314.90716834789424) rotate(0 36.5 15.5)"><path d="M7.75 0 M7.75 0 C29.19 -1.56, 51.44 0.78, 65.25 0 M7.75 0 C19.43 0.34, 32.57 -0.39, 65.25 0 M65.25 0 C70.52 0.74, 73.22 2.41, 73 7.75 M65.25 0 C69.63 -2.1, 71.36 2.47, 73 7.75 M73 7.75 C73.72 12.95, 72.69 18.18, 73 23.25 M73 7.75 C72.76 13.11, 72.86 19.04, 73 23.25 M73 23.25 C72.23 30.27, 71.97 30.85, 65.25 31 M73 23.25 C73.8 28.03, 72.25 30.2, 65.25 31 M65.25 31 C45.79 30.96, 21.66 31.01, 7.75 31 M65.25 31 C42.03 31.72, 20.76 31.04, 7.75 31 M7.75 31 C4.43 31.35, 0.04 30.37, 0 23.25 M7.75 31 C2.25 31.36, -1.57 27.55, 0 23.25 M0 23.25 C0.88 20.04, -0.73 13.97, 0 7.75 M0 23.25 C-0.12 17.92, -0.76 13.91, 0 7.75 M0 7.75 C1.65 0.89, 3.62 -1.09, 7.75 0 M0 7.75 C-1.04 3.63, 4.32 -0.15, 7.75 0" stroke="#1971c2" stroke-width="1" fill="none"></path></g><g transform="translate(146.42518055026449 321.2071683478942) rotate(0 19.125 9.199999999999989)"><text x="19.125" y="0" font-family="Helvetica, Segoe UI Emoji" font-size="16px" fill="#1971c2" text-anchor="middle" style="white-space: pre;" direction="ltr" dominant-baseline="text-before-edge">12C5</text></g><g stroke-linecap="round" transform="translate(31.083409667641263 314.4327885545436) rotate(0 36.5 15.5)"><path d="M7.75 0 M7.75 0 C17.95 1.28, 31.45 -1.92, 65.25 0 M7.75 0 C27.09 0.59, 46.42 0.13, 65.25 0 M65.25 0 C69.73 -1.83, 71.58 2.48, 73 7.75 M65.25 0 C70.69 1.15, 74.35 3.54, 73 7.75 M73 7.75 C73.97 13.45, 73.11 17.17, 73 23.25 M73 7.75 C72.66 12.52, 73.56 15.8, 73 23.25 M73 23.25 C73.7 28.08, 72.01 30.3, 65.25 31 M73 23.25 C74.68 28.95, 71.93 33.28, 65.25 31 M65.25 31 C51.06 30.24, 33.7 29.58, 7.75 31 M65.25 31 C45.68 31.11, 24.27 31.91, 7.75 31 M7.75 31 C2.29 31.31, -1.36 27.67, 0 23.25 M7.75 31 C2.65 31.11, -2.06 29.73, 0 23.25 M0 23.25 C0.36 18.3, -0.81 10.99, 0 7.75 M0 23.25 C0.77 18.72, 0.53 15.09, 0 7.75 M0 7.75 C-0.9 3.49, 4.1 -0.13, 7.75 0 M0 7.75 C-1.61 3.38, 3.6 -1.1, 7.75 0" stroke="#1971c2" stroke-width="1" fill="none"></path></g><g transform="translate(48.45840966764126 320.73278855454356) rotate(0 19.125 9.199999999999989)"><text x="19.125" y="0" font-family="Helvetica, Segoe UI Emoji" font-size="16px" fill="#1971c2" text-anchor="middle" style="white-space: pre;" direction="ltr" dominant-baseline="text-before-edge">D187</text></g><g stroke-linecap="round"><g transform="translate(118.47960588607748 275.0810280700303) rotate(0 -20.700458466972293 19.7082635485055)"><path d="M-0.52 0.05 C-7.52 6.4, -35.77 32.6, -42.8 39.17 M1.4 -0.96 C-5.13 6.05, -32.94 33.45, -40.47 40.38" stroke="#1971c2" stroke-width="1" fill="none"></path></g></g><mask></mask><g stroke-linecap="round"><g transform="translate(129.9564705488251 275.0810280700303) rotate(0 16.288671099674332 19.723288511061696)"><path d="M0.26 0.05 C5.72 6.37, 28.14 32.53, 33.65 38.92 M-1.07 -0.96 C4.17 6.07, 27.12 33.68, 32.69 40.41" stroke="#1971c2" stroke-width="1" fill="none"></path></g></g><mask></mask><g stroke-linecap="round"><g transform="translate(238.60412268950301 277.3764010025798) rotate(0 -8.062872110284047 22.62796860786301)"><path d="M0.56 1.15 C-1.97 8.23, -13.05 36.05, -16.12 43.21 M-0.6 0.71 C-3.15 7.89, -14.22 37.65, -16.69 44.54" stroke="#1971c2" stroke-width="1" fill="none"></path></g></g><mask></mask><g stroke-linecap="round"><g transform="translate(247.78561441970123 278.14152531342967) rotate(0 6.153802643118297 22.69550968389109)"><path d="M0.26 0.72 C2.65 8.27, 11.13 38.1, 13.38 45.34 M-1.07 0.05 C1.22 7.28, 9.88 36.17, 12.22 43.73" stroke="#1971c2" stroke-width="1" fill="none"></path></g></g><mask></mask><g transform="translate(233.24825251355412 306.4511248148738) rotate(0 8.890625 9.199999999999989)"><text x="0" y="0" font-family="Helvetica, Segoe UI Emoji" font-size="16px" fill="#1971c2" text-anchor="start" style="white-space: pre;" direction="ltr" dominant-baseline="text-before-edge">....</text></g><g stroke-linecap="round"><g transform="translate(50.50817443265362 201.98447002987365) rotate(0 -8.96289169094075 21.812928817758007)"><path d="M-1.05 0.56 C-4.1 7.72, -14.82 35.52, -17.32 42.74 M0.6 -0.19 C-2.74 7.12, -15.68 36.23, -18.53 43.82" stroke="#1971c2" stroke-width="1" fill="none"></path></g></g><mask></mask><g stroke-linecap="round"><g transform="translate(59.68966616285172 202.7495943407235) rotate(0 7.010037776145964 21.881616061963996)"><path d="M-0.49 -0.87 C2.1 6.47, 12.21 36.98, 14.51 44.63 M1.45 1.29 C4.04 8.2, 12.14 35.69, 13.95 42.65" stroke="#1971c2" stroke-width="1" fill="none"></path></g></g><mask></mask><g transform="translate(45.152304256704724 231.05919384216764) rotate(0 8.890625 9.199999999999989)"><text x="0" y="0" font-family="Helvetica, Segoe UI Emoji" font-size="16px" fill="#1971c2" text-anchor="start" style="white-space: pre;" direction="ltr" dominant-baseline="text-before-edge">....</text></g><g stroke-linecap="round" transform="translate(212.8158630414007 105.16003881353043) rotate(0 36.5 15.5)"><path d="M7.75 0 M7.75 0 C29.46 1.84, 49.14 -0.87, 65.25 0 M7.75 0 C23.25 0.21, 36.84 0.27, 65.25 0 M65.25 0 C68.51 -1.04, 71.63 3.65, 73 7.75 M65.25 0 C71.55 2.24, 71.37 0.97, 73 7.75 M73 7.75 C72.44 14.28, 74.33 20.77, 73 23.25 M73 7.75 C73.16 13.55, 72.53 19.34, 73 23.25 M73 23.25 C74.12 28.85, 70.24 32.11, 65.25 31 M73 23.25 C72.15 26.6, 72.56 33.27, 65.25 31 M65.25 31 C52.94 31.19, 41.87 28.68, 7.75 31 M65.25 31 C43.5 30.94, 21.54 29.85, 7.75 31 M7.75 31 C3.66 29.24, 0.29 30.03, 0 23.25 M7.75 31 C2.28 28.81, -0.08 30.57, 0 23.25 M0 23.25 C0.16 19.54, -0.14 16.01, 0 7.75 M0 23.25 C-0.15 17.26, 0.75 11.98, 0 7.75 M0 7.75 C-0.46 2.5, 3.13 1.57, 7.75 0 M0 7.75 C-0.51 3.45, 0.58 -2.13, 7.75 0" stroke="#1971c2" stroke-width="1" fill="none"></path></g><g transform="translate(231.5189880414007 111.46003881353039) rotate(0 17.796875 9.199999999999989)"><text x="17.796875" y="0" font-family="Helvetica, Segoe UI Emoji" font-size="16px" fill="#1971c2" text-anchor="middle" style="white-space: pre;" direction="ltr" dominant-baseline="text-before-edge">1328</text></g><g stroke-linecap="round"><g transform="translate(242.54460155316224 137.92983127654264) rotate(0 -7.9332198426548075 21.970478214213244)"><path d="M-0.6 -0.52 C-3.51 6.84, -13.87 36.99, -16.42 44.46 M1.28 1.82 C-1.83 8.82, -14.23 36.03, -17.15 42.79" stroke="#1971c2" stroke-width="1" fill="none"></path></g></g><mask></mask><g stroke-linecap="round"><g transform="translate(251.72609328336034 138.69495558739249) rotate(0 6.9239660890380605 22.68520767624574)"><path d="M0.41 0.85 C2.96 8.46, 12.53 37.73, 14.68 45.12 M-0.83 0.25 C1.69 7.57, 12.02 36.21, 14.2 43.38" stroke="#1971c2" stroke-width="1" fill="none"></path></g></g><mask></mask><g transform="translate(237.51462502193942 168.67536490294975) rotate(0 8.890625 9.199999999999989)"><text x="0" y="0" font-family="Helvetica, Segoe UI Emoji" font-size="16px" fill="#1971c2" text-anchor="start" style="white-space: pre;" direction="ltr" dominant-baseline="text-before-edge">....</text></g><g stroke-linecap="round"><g transform="translate(191.93153972766254 73.08821000567121) rotate(0 28.9917904454 16.35199709651164)"><path d="M-0.82 -0.11 C8.45 5.69, 46.89 28.6, 56.53 33.92 M0.95 -1.22 C10.52 4.35, 49.61 26.7, 58.8 32.34" stroke="#1971c2" stroke-width="1" fill="none"></path></g></g><mask></mask><g stroke-linecap="round" transform="translate(98.04721641392405 383.00091780600525) rotate(0 73 15)"><path d="M7.5 0 M7.5 0 C61.54 0.05, 113.29 2.24, 138.5 0 M7.5 0 C52.33 0, 99.72 -0.13, 138.5 0 M138.5 0 C143.94 0.58, 147.99 2.06, 146 7.5 M138.5 0 C145.06 0.68, 146.91 1.43, 146 7.5 M146 7.5 C145.07 12.88, 145.74 18.18, 146 22.5 M146 7.5 C145.61 11.2, 145.32 14.09, 146 22.5 M146 22.5 C144.48 27.54, 142.8 29.25, 138.5 30 M146 22.5 C146.53 25.76, 145.49 31.51, 138.5 30 M138.5 30 C98.05 27.33, 52.57 30.54, 7.5 30 M138.5 30 C90.93 31.66, 43.85 30.77, 7.5 30 M7.5 30 C1.13 29.24, 0.26 28.34, 0 22.5 M7.5 30 C1.18 31.83, 0.86 28.78, 0 22.5 M0 22.5 C-0.22 20.12, -0.75 13.55, 0 7.5 M0 22.5 C-0.19 19.51, -0.54 15.94, 0 7.5 M0 7.5 C0.19 4.22, 2.14 -1.16, 7.5 0 M0 7.5 C0.47 3.29, 0.82 0.98, 7.5 0" stroke="#2f9e44" stroke-width="1" fill="none"></path></g><g transform="translate(117.01987266392405 388.8009178060052) rotate(0 54.02734375 9.199999999999989)"><text x="54.02734375" y="0" font-family="Helvetica, Segoe UI Emoji" font-size="16px" fill="#2f9e44" text-anchor="middle" style="white-space: pre;" direction="ltr" dominant-baseline="text-before-edge">Alice: +5 Euros</text></g><g stroke-linecap="round"><g transform="translate(166.68243746961764 347.0027132899157) rotate(0 0.10955335397568433 19.523358315720202)"><path d="M0.68 0.83 C0.73 7.13, 0.58 31.33, 0.72 37.36 M-0.43 0.22 C-0.56 6.75, -0.51 32.53, -0.25 38.82" stroke="#2f9e44" stroke-width="1" fill="none"></path></g></g><mask></mask><g stroke-linecap="round" transform="translate(467.37518505210164 42.0361663323402) rotate(0 36.5 15.5)"><path d="M7.75 0 M7.75 0 C28.21 2.38, 48.72 -1.55, 65.25 0 M7.75 0 C21.43 -0.38, 36.35 -0.6, 65.25 0 M65.25 0 C69.88 -2, 72.3 0.72, 73 7.75 M65.25 0 C70.01 -0.23, 71.32 3.52, 73 7.75 M73 7.75 C74.31 12.06, 72.14 15.9, 73 23.25 M73 7.75 C73.3 12.17, 72.82 15.11, 73 23.25 M73 23.25 C71.51 27.59, 71.33 29.55, 65.25 31 M73 23.25 C73.49 30.06, 72.16 29.68, 65.25 31 M65.25 31 C46.04 30.61, 25.56 30.61, 7.75 31 M65.25 31 C49.57 30.93, 34.33 30.8, 7.75 31 M7.75 31 C2.15 32.04, 1.26 27.74, 0 23.25 M7.75 31 C3.06 31.65, 1.07 29.58, 0 23.25 M0 23.25 C-1.46 19.33, 1.01 13.88, 0 7.75 M0 23.25 C-0.31 17.84, -0.41 10.83, 0 7.75 M0 7.75 C-1.5 2.73, 4.14 0.08, 7.75 0 M0 7.75 C-0.22 4.02, 2.22 -1.12, 7.75 0" stroke="#1971c2" stroke-width="1" fill="none"></path></g><g transform="translate(484.31268505210164 48.336166332340156) rotate(0 19.5625 9.199999999999989)"><text x="19.5625" y="0" font-family="Helvetica, Segoe UI Emoji" font-size="16px" fill="#1971c2" text-anchor="middle" style="white-space: pre;" direction="ltr" dominant-baseline="text-before-edge">2F9C</text></g><g stroke-linecap="round" transform="translate(528.9663923958683 245.94327692158828) rotate(0 36.5 15.5)"><path d="M7.75 0 M7.75 0 C29.74 0.55, 52.63 -0.94, 65.25 0 M7.75 0 C20.81 -0.48, 34.05 -0.42, 65.25 0 M65.25 0 C70.06 -0.2, 71.54 3.4, 73 7.75 M65.25 0 C69.23 1.13, 71.23 4.41, 73 7.75 M73 7.75 C72.2 13.52, 73.48 18.44, 73 23.25 M73 7.75 C72.37 13.03, 73.3 18.38, 73 23.25 M73 23.25 C73.43 29.84, 71.93 29.85, 65.25 31 M73 23.25 C73.86 28.1, 68.59 31.22, 65.25 31 M65.25 31 C47.3 30.21, 30.28 31.17, 7.75 31 M65.25 31 C47.97 31.42, 31.76 30.57, 7.75 31 M7.75 31 C3 31.56, 0.93 29.43, 0 23.25 M7.75 31 C2.63 31.64, 2.15 26.32, 0 23.25 M0 23.25 C1.09 18.63, -0.44 11.97, 0 7.75 M0 23.25 C-0.52 17.81, 0.67 12.28, 0 7.75 M0 7.75 C-0.19 3.83, 2.27 -0.97, 7.75 0 M0 7.75 C0.15 2.87, 2.78 0.74, 7.75 0" stroke="#1971c2" stroke-width="1" fill="none"></path></g><g transform="translate(545.8960798958683 252.24327692158823) rotate(0 19.5703125 9.199999999999989)"><text x="19.5703125" y="0" font-family="Helvetica, Segoe UI Emoji" font-size="16px" fill="#1971c2" text-anchor="middle" style="white-space: pre;" direction="ltr" dominant-baseline="text-before-edge">A8B5</text></g><g stroke-linecap="round" transform="translate(409.57614080944904 246.23402143908748) rotate(0 36.5 15.5)"><path d="M7.75 0 M7.75 0 C23.6 -0.09, 40.37 -0.1, 65.25 0 M7.75 0 C19.08 0.44, 30.04 0.94, 65.25 0 M65.25 0 C69.39 0.99, 71.46 4.17, 73 7.75 M65.25 0 C71.09 -1.39, 73.66 1.54, 73 7.75 M73 7.75 C74 12.57, 72 17.23, 73 23.25 M73 7.75 C73.24 12.31, 73.66 15.33, 73 23.25 M73 23.25 C73.75 28.14, 68.83 31.19, 65.25 31 M73 23.25 C73.07 27.39, 70.5 30.4, 65.25 31 M65.25 31 C50.25 32.22, 35.05 30.61, 7.75 31 M65.25 31 C45.22 31.09, 25.25 31.31, 7.75 31 M7.75 31 C2.62 31.56, 1.87 26.59, 0 23.25 M7.75 31 C3.72 32.56, -0.02 30.18, 0 23.25 M0 23.25 C0.89 17.14, -1.45 11.2, 0 7.75 M0 23.25 C-0.2 18.97, -0.24 13.34, 0 7.75 M0 7.75 C0.13 2.83, 2.75 0.65, 7.75 0 M0 7.75 C0.54 2.9, 1.3 1.11, 7.75 0" stroke="#e03131" stroke-width="1" fill="none"></path></g><g transform="translate(426.06442205944904 252.53402143908744) rotate(0 20.01171875 9.199999999999989)"><text x="20.01171875" y="0" font-family="Helvetica, Segoe UI Emoji" font-size="16px" fill="#e03131" text-anchor="middle" style="white-space: pre;" direction="ltr" dominant-baseline="text-before-edge">94BC</text></g><g stroke-linecap="round" transform="translate(458.0501330843854 170.48492591904102) rotate(0 36.5 15.5)"><path d="M7.75 0 M7.75 0 C21.5 -0.54, 37.37 -0.2, 65.25 0 M7.75 0 C23.92 0.26, 40.34 0.56, 65.25 0 M65.25 0 C71 -1.21, 73.58 1.67, 73 7.75 M65.25 0 C71.4 0.85, 73.71 3.99, 73 7.75 M73 7.75 C72.25 12.61, 71.77 16.4, 73 23.25 M73 7.75 C73.41 13.4, 72.5 19.33, 73 23.25 M73 23.25 C73.06 27.52, 70.49 30.48, 65.25 31 M73 23.25 C72.07 28.29, 70.59 30.92, 65.25 31 M65.25 31 C45.66 32.14, 23.31 31.29, 7.75 31 M65.25 31 C46.4 31.57, 28.45 30.38, 7.75 31 M7.75 31 C3.57 32.35, -0.02 29.95, 0 23.25 M7.75 31 C3.76 30.5, -0.68 29.68, 0 23.25 M0 23.25 C0.26 20.47, 0.21 15.13, 0 7.75 M0 23.25 C0.08 17.73, 0.09 12.26, 0 7.75 M0 7.75 C0.47 2.86, 1.47 0.96, 7.75 0 M0 7.75 C0.05 4.59, 1.32 0.32, 7.75 0" stroke="#1971c2" stroke-width="1" fill="none"></path></g><g transform="translate(473.2102893343854 176.78492591904097) rotate(0 21.33984375 9.199999999999989)"><text x="21.33984375" y="0" font-family="Helvetica, Segoe UI Emoji" font-size="16px" fill="#1971c2" text-anchor="middle" style="white-space: pre;" direction="ltr" dominant-baseline="text-before-edge">D8CA</text></g><g stroke-linecap="round" transform="translate(341.5962494563546 169.48492591904102) rotate(0 36.5 15.5)"><path d="M7.75 0 M7.75 0 C22.8 -1.36, 39.06 -0.93, 65.25 0 M7.75 0 C28.13 -1.06, 48.21 -0.91, 65.25 0 M65.25 0 C71.27 0.74, 73.61 3.8, 73 7.75 M65.25 0 C69.69 -1.57, 71.29 1.63, 73 7.75 M73 7.75 C73.99 14.28, 72 19.04, 73 23.25 M73 7.75 C72.9 11.84, 72.9 16.42, 73 23.25 M73 23.25 C72.19 28.31, 70.57 30.93, 65.25 31 M73 23.25 C74.35 28.03, 69.92 32.19, 65.25 31 M65.25 31 C44.93 32.05, 24.49 31.16, 7.75 31 M65.25 31 C46.89 31.15, 27.54 31.24, 7.75 31 M7.75 31 C3.61 30.56, -0.59 29.52, 0 23.25 M7.75 31 C1.6 28.79, -1.73 28.59, 0 23.25 M0 23.25 C0.96 17.15, -0.76 11.64, 0 7.75 M0 23.25 C0.17 18.51, -0.45 13.94, 0 7.75 M0 7.75 C0.05 4.32, 1.49 0.28, 7.75 0 M0 7.75 C-1.95 2.97, 3.2 1.35, 7.75 0" stroke="#1971c2" stroke-width="1" fill="none"></path></g><g transform="translate(360.2993744563546 175.78492591904097) rotate(0 17.796875 9.199999999999989)"><text x="17.796875" y="0" font-family="Helvetica, Segoe UI Emoji" font-size="16px" fill="#1971c2" text-anchor="middle" style="white-space: pre;" direction="ltr" dominant-baseline="text-before-edge">1328</text></g><g stroke-linecap="round" transform="translate(412.4630243817769 106.50542208436087) rotate(0 36.5 15.5)"><path d="M7.75 0 M7.75 0 C21.78 -1.24, 35.42 0.88, 65.25 0 M7.75 0 C21.96 0.63, 35.62 0.87, 65.25 0 M65.25 0 C69.78 -1.37, 71.51 1.76, 73 7.75 M65.25 0 C71.46 -1.67, 73.49 4.22, 73 7.75 M73 7.75 C72.7 12.34, 73.06 19.44, 73 23.25 M73 7.75 C72.69 11.66, 73.06 15.64, 73 23.25 M73 23.25 C74.18 28.08, 69.98 32.04, 65.25 31 M73 23.25 C74.45 27.64, 70.89 31.65, 65.25 31 M65.25 31 C45.88 32.88, 23.58 32, 7.75 31 M65.25 31 C44.62 31.22, 22.68 31.99, 7.75 31 M7.75 31 C1.73 29.08, -1.5 28.57, 0 23.25 M7.75 31 C4.37 31.1, -0.22 29.85, 0 23.25 M0 23.25 C0.27 18.98, 0.58 14.8, 0 7.75 M0 23.25 C0.1 19.06, -0.34 13.63, 0 7.75 M0 7.75 C-1.7 2.92, 3.12 1.17, 7.75 0 M0 7.75 C1.04 3.76, 1.77 -1.71, 7.75 0" stroke="#1971c2" stroke-width="1" fill="none"></path></g><g transform="translate(431.1661493817769 112.80542208436083) rotate(0 17.796875 9.199999999999989)"><text x="17.796875" y="0" font-family="Helvetica, Segoe UI Emoji" font-size="16px" fill="#1971c2" text-anchor="middle" style="white-space: pre;" direction="ltr" dominant-baseline="text-before-edge">48a5</text></g><g stroke-linecap="round"><g transform="translate(501.83707939886017 71.13999126860068) rotate(0 -26.509381020185856 17.80526069865772)"><path d="M0.35 -0.72 C-8.26 4.96, -43.81 28.95, -52.6 35.08 M-0.92 1.51 C-9.58 7.27, -44.7 30.93, -53.37 36.33" stroke="#1971c2" stroke-width="1" fill="none"></path></g></g><mask></mask><g stroke-linecap="round"><g transform="translate(442.94684031711904 136.4636178130532) rotate(0 -32.57023665381371 17.022565761588567)"><path d="M0.35 -0.55 C-10.51 5.34, -53.93 28.69, -64.81 34.59 M-0.93 1.78 C-11.93 7.36, -54.72 27.51, -65.49 32.7" stroke="#1971c2" stroke-width="1" fill="none"></path></g></g><mask></mask><g stroke-linecap="round"><g transform="translate(459.7726229119021 136.95849377172323) rotate(0 19.642044682667574 17.750935016380822)"><path d="M0.51 0.45 C7.12 6.51, 33.51 30.22, 39.96 35.87 M-0.67 -0.37 C5.77 5.41, 32.72 28.2, 39.2 34.13" stroke="#1971c2" stroke-width="1" fill="none"></path></g></g><mask></mask><g stroke-linecap="round"><g transform="translate(486.2743420353013 204.12823803574435) rotate(0 -22.849851111711814 19.97447095147055)"><path d="M0.37 0.73 C-7.2 7.12, -37.29 32.38, -44.92 38.77 M-0.9 0.07 C-8.71 6.55, -39.05 33.2, -46.07 39.88" stroke="#1971c2" stroke-width="1" fill="none"></path></g></g><mask></mask><g stroke-linecap="round"><g transform="translate(520.3821146817618 203.85798968356454) rotate(0 21.516432249683362 20.02405981784227)"><path d="M-0.38 -0.82 C6.42 5.66, 34.01 32.92, 41.17 39.59 M1.62 1.36 C8.76 7.94, 36.66 34.42, 43.41 40.87" stroke="#1971c2" stroke-width="1" fill="none"></path></g></g><mask></mask><g stroke-linecap="round" transform="translate(330.8168135354624 10.270248352179635) rotate(0 148.80146707174174 213.5474508909109)"><path d="M32 0 M32 0 C93.96 2.24, 156.09 1.83, 265.6 0 M32 0 C119.04 1.01, 204.78 1.21, 265.6 0 M265.6 0 C287 -0.89, 297.67 10.15, 297.6 32 M265.6 0 C286.01 -0.13, 297.78 10.59, 297.6 32 M297.6 32 C297.88 163.08, 296.8 292.82, 297.6 395.09 M297.6 32 C298.68 151.31, 299.25 269.7, 297.6 395.09 M297.6 395.09 C298.59 417.78, 286.92 428.63, 265.6 427.09 M297.6 395.09 C298.78 415.93, 286.26 428.36, 265.6 427.09 M265.6 427.09 C205.63 426.93, 145.47 425.45, 32 427.09 M265.6 427.09 C180.98 426.24, 96.32 426.41, 32 427.09 M32 427.09 C11.14 427.37, -1.12 417.39, 0 395.09 M32 427.09 C10.72 429.1, -1.26 416.75, 0 395.09 M0 395.09 C0.36 317.56, 0.26 238.44, 0 32 M0 395.09 C-1.99 313.67, -1.69 231.03, 0 32 M0 32 C-1.64 10.03, 9.3 -1.35, 32 0 M0 32 C-0.22 10.68, 12.48 1.25, 32 0" stroke="#e03131" stroke-width="1" fill="none"></path></g><g stroke-linecap="round" transform="translate(449.8669940857267 315.17741670007405) rotate(0 36.5 15.5)"><path d="M7.75 0 M7.75 0 C19.27 0.17, 35.11 1.25, 65.25 0 M7.75 0 C20.91 0.17, 35.69 -0.37, 65.25 0 M65.25 0 C70.49 -0.52, 72.19 2.47, 73 7.75 M65.25 0 C70.59 -0.08, 74.35 2.2, 73 7.75 M73 7.75 C72.55 12.39, 73.52 17.1, 73 23.25 M73 7.75 C73.73 12.48, 73.38 19.14, 73 23.25 M73 23.25 C72.98 29.95, 71.44 30.56, 65.25 31 M73 23.25 C72.32 29.68, 69.43 28.79, 65.25 31 M65.25 31 C52.41 31.26, 40.64 31.13, 7.75 31 M65.25 31 C50.88 31.4, 36.58 31.21, 7.75 31 M7.75 31 C1.47 31.96, 0.05 30.16, 0 23.25 M7.75 31 C1.32 31.32, -1.95 28.8, 0 23.25 M0 23.25 C0.7 17.64, -1.25 14.46, 0 7.75 M0 23.25 C0.34 18.16, -0.63 13.59, 0 7.75 M0 7.75 C-1.37 1.23, 2.39 0.01, 7.75 0 M0 7.75 C1.81 3.83, 3.34 -0.72, 7.75 0" stroke="#e03131" stroke-width="1" fill="none"></path></g><g transform="translate(467.2459003357267 321.477416700074) rotate(0 19.12109375 9.199999999999989)"><text x="19.12109375" y="0" font-family="Helvetica, Segoe UI Emoji" font-size="16px" fill="#e03131" text-anchor="middle" style="white-space: pre;" direction="ltr" dominant-baseline="text-before-edge">4A2F</text></g><g stroke-linecap="round" transform="translate(351.9002232031037 314.7030369067234) rotate(0 36.5 15.5)"><path d="M7.75 0 M7.75 0 C25.09 0.31, 44.44 -2.02, 65.25 0 M7.75 0 C25.58 0, 42.93 0.2, 65.25 0 M65.25 0 C70.57 -0.07, 74.18 2.25, 73 7.75 M65.25 0 C69.92 1.19, 74.45 1.8, 73 7.75 M73 7.75 C73.83 12.75, 73.47 19.14, 73 23.25 M73 7.75 C73.07 11.58, 73.47 14.05, 73 23.25 M73 23.25 C72.41 29.52, 69.56 29.08, 65.25 31 M73 23.25 C71.27 28.59, 72.21 31.1, 65.25 31 M65.25 31 C47.58 31.04, 32.1 31.08, 7.75 31 M65.25 31 C45.58 31.56, 27.05 31.95, 7.75 31 M7.75 31 C1.49 31.28, -1.7 28.75, 0 23.25 M7.75 31 C3.2 32.35, 1.04 29.6, 0 23.25 M0 23.25 C0.17 19.08, 1.22 15.72, 0 7.75 M0 23.25 C-0.4 18.84, 0.05 15.49, 0 7.75 M0 7.75 C1.57 3.67, 3.24 -0.63, 7.75 0 M0 7.75 C0.51 2.24, 0.87 -0.34, 7.75 0" stroke="#1971c2" stroke-width="1" fill="none"></path></g><g transform="translate(369.2752232031037 321.00303690672337) rotate(0 19.125 9.199999999999989)"><text x="19.125" y="0" font-family="Helvetica, Segoe UI Emoji" font-size="16px" fill="#1971c2" text-anchor="middle" style="white-space: pre;" direction="ltr" dominant-baseline="text-before-edge">D187</text></g><g stroke-linecap="round"><g transform="translate(439.29641942153967 275.3512764222101) rotate(0 -21.11166198374997 19.816862896704095)"><path d="M-0.95 0.11 C-8.03 6.68, -35.2 32.69, -42.04 39.25 M0.75 -0.87 C-6.53 5.87, -35.72 33.59, -42.97 40.51" stroke="#1971c2" stroke-width="1" fill="none"></path></g></g><mask></mask><g stroke-linecap="round"><g transform="translate(450.77328408428775 275.3512764222101) rotate(0 16.152323669624025 19.77337028290674)"><path d="M0.04 -0.54 C5.81 5.9, 28.18 32.13, 33.71 38.71 M-1.4 1.8 C4.3 8.4, 27.19 33.68, 32.78 40.08" stroke="#e03131" stroke-width="1" fill="none"></path></g></g><mask></mask><g stroke-linecap="round"><g transform="translate(559.4209362249653 277.64664935475963) rotate(0 -9.23864514765819 21.76306580813747)"><path d="M0.04 -0.31 C-2.85 7.03, -14.52 36.23, -17.32 43.55 M-1.4 -1.52 C-4.49 6.07, -15.84 37.32, -18.52 45.05" stroke="#1971c2" stroke-width="1" fill="none"></path></g></g><mask></mask><g stroke-linecap="round"><g transform="translate(568.6024279551634 278.4117736656095) rotate(0 6.690472275081902 22.35324717315001)"><path d="M-0.48 -0.07 C1.82 7.37, 11.37 36.96, 13.86 44.34 M1.46 -1.15 C3.61 6.52, 10.86 38.1, 12.96 45.85" stroke="#1971c2" stroke-width="1" fill="none"></path></g></g><mask></mask><g transform="translate(554.0650660490164 306.7213731670536) rotate(0 8.890625 9.199999999999989)"><text x="0" y="0" font-family="Helvetica, Segoe UI Emoji" font-size="16px" fill="#1971c2" text-anchor="start" style="white-space: pre;" direction="ltr" dominant-baseline="text-before-edge">....</text></g><g stroke-linecap="round"><g transform="translate(371.32498796811615 202.25471838205345) rotate(0 -8.736481278962628 21.44257568712493)"><path d="M0.71 -0.2 C-2.16 7.18, -14.3 37, -17.09 44.23 M-0.38 -1.35 C-3.44 5.68, -15.5 34.83, -18.18 42.44" stroke="#1971c2" stroke-width="1" fill="none"></path></g></g><mask></mask><g stroke-linecap="round"><g transform="translate(380.50647969831425 203.0198426929033) rotate(0 7.134767216507157 22.598951424379777)"><path d="M-0.26 0.62 C2.04 7.98, 12.15 36.62, 14.53 43.97 M1.8 -0.1 C3.95 7.45, 12.05 38.19, 13.98 45.29" stroke="#1971c2" stroke-width="1" fill="none"></path></g></g><mask></mask><g transform="translate(365.96911779216725 231.32944219434745) rotate(0 8.890625 9.199999999999989)"><text x="0" y="0" font-family="Helvetica, Segoe UI Emoji" font-size="16px" fill="#1971c2" text-anchor="start" style="white-space: pre;" direction="ltr" dominant-baseline="text-before-edge">....</text></g><g stroke-linecap="round" transform="translate(533.6326765768631 105.43028716571013) rotate(0 36.5 15.5)"><path d="M7.75 0 M7.75 0 C29.2 0.81, 50.53 -0.08, 65.25 0 M7.75 0 C27.09 1.2, 45.44 1.29, 65.25 0 M65.25 0 C71.44 -0.44, 72.41 3.68, 73 7.75 M65.25 0 C69.43 -2.21, 71.27 2.75, 73 7.75 M73 7.75 C73.97 13.36, 72.25 19.56, 73 23.25 M73 7.75 C73.19 12.7, 72.58 17.81, 73 23.25 M73 23.25 C73.05 30.16, 69.32 31.28, 65.25 31 M73 23.25 C71.05 28.8, 71.03 32.35, 65.25 31 M65.25 31 C43.92 32.51, 25.65 30.71, 7.75 31 M65.25 31 C43.06 30.4, 21.83 30.04, 7.75 31 M7.75 31 C2.39 31.01, 1.57 29.5, 0 23.25 M7.75 31 C3.34 30.28, 0.51 28.08, 0 23.25 M0 23.25 C0.93 18.37, -0.32 14.76, 0 7.75 M0 23.25 C0.41 19.7, -0.7 15.43, 0 7.75 M0 7.75 C1.92 0.98, 1.55 -0.01, 7.75 0 M0 7.75 C1.6 4.23, 3.42 -1.07, 7.75 0" stroke="#1971c2" stroke-width="1" fill="none"></path></g><g transform="translate(552.3358015768631 111.73028716571008) rotate(0 17.796875 9.199999999999989)"><text x="17.796875" y="0" font-family="Helvetica, Segoe UI Emoji" font-size="16px" fill="#1971c2" text-anchor="middle" style="white-space: pre;" direction="ltr" dominant-baseline="text-before-edge">1328</text></g><g stroke-linecap="round"><g transform="translate(563.3614150886247 138.20007962872234) rotate(0 -8.025153432465345 21.471260428746746)"><path d="M0.02 0.33 C-2.69 7.32, -13 35.17, -15.71 42.52 M-1.42 -0.54 C-4.24 6.5, -13.53 36.3, -16.07 43.48" stroke="#1971c2" stroke-width="1" fill="none"></path></g></g><mask></mask><g stroke-linecap="round"><g transform="translate(572.5429068188228 138.96520393957218) rotate(0 7.305613683013121 22.04658786881805)"><path d="M1.12 -1.1 C3.51 6.38, 12.26 37.46, 14.36 45.19 M0.25 0.94 C2.53 8.06, 11.6 36.41, 13.73 43.49" stroke="#1971c2" stroke-width="1" fill="none"></path></g></g><mask></mask><g transform="translate(558.3314385574017 168.94561325512956) rotate(0 8.890625 9.199999999999989)"><text x="0" y="0" font-family="Helvetica, Segoe UI Emoji" font-size="16px" fill="#1971c2" text-anchor="start" style="white-space: pre;" direction="ltr" dominant-baseline="text-before-edge">....</text></g><g stroke-linecap="round"><g transform="translate(512.748353263125 73.3584583578509) rotate(0 28.2620976186912 17.198824711470934)"><path d="M-0.01 0.92 C9.56 6.23, 48.49 27.2, 58 32.64 M-1.47 0.36 C7.94 5.77, 47.78 28.84, 57.37 34.04" stroke="#1971c2" stroke-width="1" fill="none"></path></g></g><mask></mask><g stroke-linecap="round" transform="translate(418.86402994938635 383.2711661581848) rotate(0 73 15)"><path d="M7.5 0 M7.5 0 C46.25 -1.26, 86.98 -1.53, 138.5 0 M7.5 0 C35.01 -0.06, 60.87 0.53, 138.5 0 M138.5 0 C143.18 -0.97, 146.13 2.75, 146 7.5 M138.5 0 C143.7 0.74, 146.54 2.82, 146 7.5 M146 7.5 C147.38 10.34, 146.28 13.55, 146 22.5 M146 7.5 C146.38 12.64, 145.77 16.44, 146 22.5 M146 22.5 C147.72 27.57, 143.41 31.43, 138.5 30 M146 22.5 C146.98 26.36, 141.62 29.27, 138.5 30 M138.5 30 C108.2 31.45, 78.95 30.53, 7.5 30 M138.5 30 C102.58 29.66, 68.26 30.39, 7.5 30 M7.5 30 C0.71 29.55, -1.93 26.9, 0 22.5 M7.5 30 C4.57 29.73, 1.64 29.39, 0 22.5 M0 22.5 C-1.31 18.31, -0.12 16.71, 0 7.5 M0 22.5 C0.66 17.61, -0.51 11.59, 0 7.5 M0 7.5 C-0.25 2.43, 1.77 -1.04, 7.5 0 M0 7.5 C-0.65 1.76, 4.28 -1.7, 7.5 0" stroke="#e03131" stroke-width="1" fill="none"></path></g><g transform="translate(435.39527994938635 389.0711661581848) rotate(0 56.46875 9.199999999999989)"><text x="56.46875" y="0" font-family="Helvetica, Segoe UI Emoji" font-size="16px" fill="#e03131" text-anchor="middle" style="white-space: pre;" direction="ltr" dominant-baseline="text-before-edge">Alice: -20 Euros</text></g><g stroke-linecap="round"><g transform="translate(487.49925100508017 347.27296164209525) rotate(0 0.7944701564399566 19.006662609090085)"><path d="M-0.51 -1.15 C-0.48 5, -0.51 31.13, -0.14 37.58 M1.42 0.86 C1.86 7.17, 2.1 32.83, 2.1 39.16" stroke="#e03131" stroke-width="1" fill="none"></path></g></g><mask></mask></svg>