<svg version="1.1" xmlns="http://www.w3.org/2000/svg" viewBox="0 0 835.0666656494141 447.5" width="835.0666656494141" height="447.5">
  <!-- svg-source:excalidraw -->
  
  <defs>
    <style class="style-fonts">
      @font-face {
        font-family: "Virgil";
        src: url("https://excalidraw.com/Virgil.woff2");
      }
      @font-face {
        font-family: "Cascadia";
        src: url("https://excalidraw.com/Cascadia.woff2");
      }
    </style>
  </defs>
  <g stroke-linecap="round" transform="translate(33.06666564941406 92.5) rotate(0 85 172.5)"><path d="M32 0 M32 0 C53.28 0, 74.55 0, 138 0 M32 0 C72.05 0, 112.11 0, 138 0 M138 0 C159.33 0, 170 10.67, 170 32 M138 0 C159.33 0, 170 10.67, 170 32 M170 32 C170 115.11, 170 198.22, 170 313 M170 32 C170 119.96, 170 207.92, 170 313 M170 313 C170 334.33, 159.33 345, 138 345 M170 313 C170 334.33, 159.33 345, 138 345 M138 345 C110.96 345, 83.91 345, 32 345 M138 345 C103.76 345, 69.52 345, 32 345 M32 345 C10.67 345, 0 334.33, 0 313 M32 345 C10.67 345, 0 334.33, 0 313 M0 313 C0 253.74, 0 194.49, 0 32 M0 313 C0 256.22, 0 199.45, 0 32 M0 32 C0 10.67, 10.67 0, 32 0 M0 32 C0 10.67, 10.67 0, 32 0" stroke="#f08c00" stroke-width="4" fill="none"></path></g><g transform="translate(56.93333053588867 97.5) rotate(0 61.13333511352539 10)"><text x="61.13333511352539" y="0" font-family="Virgil, Segoe UI Emoji" font-size="16px" fill="#f08c00" text-anchor="middle" style="white-space: pre;" direction="ltr" dominant-baseline="text-before-edge">Trust boundary</text></g><g stroke-linecap="round" transform="translate(51.06666564941406 375.5) rotate(0 69 25)"><path d="M12.5 0 M12.5 0 C42.84 0, 73.18 0, 125.5 0 M12.5 0 C41.47 0, 70.45 0, 125.5 0 M125.5 0 C133.83 0, 138 4.17, 138 12.5 M125.5 0 C133.83 0, 138 4.17, 138 12.5 M138 12.5 C138 22.2, 138 31.89, 138 37.5 M138 12.5 C138 18.91, 138 25.32, 138 37.5 M138 37.5 C138 45.83, 133.83 50, 125.5 50 M138 37.5 C138 45.83, 133.83 50, 125.5 50 M125.5 50 C82.97 50, 40.45 50, 12.5 50 M125.5 50 C82.91 50, 40.32 50, 12.5 50 M12.5 50 C4.17 50, 0 45.83, 0 37.5 M12.5 50 C4.17 50, 0 45.83, 0 37.5 M0 37.5 C0 31.54, 0 25.58, 0 12.5 M0 37.5 C0 30.51, 0 23.53, 0 12.5 M0 12.5 C0 4.17, 4.17 0, 12.5 0 M0 12.5 C0 4.17, 4.17 0, 12.5 0" stroke="#1971c2" stroke-width="1" fill="none"></path></g><g transform="translate(59.46666717529297 380.5) rotate(0 60.599998474121094 20)"><text x="60.599998474121094" y="0" font-family="Virgil, Segoe UI Emoji" font-size="16px" fill="#1971c2" text-anchor="middle" style="white-space: pre;" direction="ltr" dominant-baseline="text-before-edge">Cloud / On-site</text><text x="60.599998474121094" y="20" font-family="Virgil, Segoe UI Emoji" font-size="16px" fill="#1971c2" text-anchor="middle" style="white-space: pre;" direction="ltr" dominant-baseline="text-before-edge">Infrastructure</text></g><g stroke-linecap="round" transform="translate(53.06666564941406 302.5) rotate(0 69 25)"><path d="M12.5 0 M12.5 0 C35.96 0, 59.42 0, 125.5 0 M12.5 0 C51.88 0, 91.25 0, 125.5 0 M125.5 0 C133.83 0, 138 4.17, 138 12.5 M125.5 0 C133.83 0, 138 4.17, 138 12.5 M138 12.5 C138 21.14, 138 29.79, 138 37.5 M138 12.5 C138 18.14, 138 23.79, 138 37.5 M138 37.5 C138 45.83, 133.83 50, 125.5 50 M138 37.5 C138 45.83, 133.83 50, 125.5 50 M125.5 50 C91.99 50, 58.47 50, 12.5 50 M125.5 50 C81.39 50, 37.29 50, 12.5 50 M12.5 50 C4.17 50, 0 45.83, 0 37.5 M12.5 50 C4.17 50, 0 45.83, 0 37.5 M0 37.5 C0 29.7, 0 21.9, 0 12.5 M0 37.5 C0 28.83, 0 20.16, 0 12.5 M0 12.5 C0 4.17, 4.17 0, 12.5 0 M0 12.5 C0 4.17, 4.17 0, 12.5 0" stroke="#1971c2" stroke-width="1" fill="none"></path></g><g transform="translate(82.38333129882812 307.5) rotate(0 39.68333435058594 20)"><text x="39.68333435058594" y="0" font-family="Virgil, Segoe UI Emoji" font-size="16px" fill="#1971c2" text-anchor="middle" style="white-space: pre;" direction="ltr" dominant-baseline="text-before-edge">BIOS / </text><text x="39.68333435058594" y="20" font-family="Virgil, Segoe UI Emoji" font-size="16px" fill="#1971c2" text-anchor="middle" style="white-space: pre;" direction="ltr" dominant-baseline="text-before-edge">Firmware</text></g><g stroke-linecap="round" transform="translate(52.06666564941406 234) rotate(0 69 15)"><path d="M7.5 0 M7.5 0 C49.29 0, 91.08 0, 130.5 0 M7.5 0 C40.31 0, 73.11 0, 130.5 0 M130.5 0 C135.5 0, 138 2.5, 138 7.5 M130.5 0 C135.5 0, 138 2.5, 138 7.5 M138 7.5 C138 10.78, 138 14.06, 138 22.5 M138 7.5 C138 13.01, 138 18.52, 138 22.5 M138 22.5 C138 27.5, 135.5 30, 130.5 30 M138 22.5 C138 27.5, 135.5 30, 130.5 30 M130.5 30 C103.24 30, 75.99 30, 7.5 30 M130.5 30 C102.63 30, 74.77 30, 7.5 30 M7.5 30 C2.5 30, 0 27.5, 0 22.5 M7.5 30 C2.5 30, 0 27.5, 0 22.5 M0 22.5 C0 17.57, 0 12.64, 0 7.5 M0 22.5 C0 19.34, 0 16.18, 0 7.5 M0 7.5 C0 2.5, 2.5 0, 7.5 0 M0 7.5 C0 2.5, 2.5 0, 7.5 0" stroke="#1971c2" stroke-width="1" fill="none"></path></g><g transform="translate(83 239) rotate(0 38.06666564941406 10)"><text x="38.06666564941406" y="0" font-family="Virgil, Segoe UI Emoji" font-size="16px" fill="#1971c2" text-anchor="middle" style="white-space: pre;" direction="ltr" dominant-baseline="text-before-edge">Hypervisor</text></g><g stroke-linecap="round" transform="translate(52.06666564941406 268.5) rotate(0 69 15)"><path d="M7.5 0 M7.5 0 C32.8 0, 58.11 0, 130.5 0 M7.5 0 C42.88 0, 78.25 0, 130.5 0 M130.5 0 C135.5 0, 138 2.5, 138 7.5 M130.5 0 C135.5 0, 138 2.5, 138 7.5 M138 7.5 C138 12.38, 138 17.25, 138 22.5 M138 7.5 C138 13.44, 138 19.39, 138 22.5 M138 22.5 C138 27.5, 135.5 30, 130.5 30 M138 22.5 C138 27.5, 135.5 30, 130.5 30 M130.5 30 C94.8 30, 59.09 30, 7.5 30 M130.5 30 C94.18 30, 57.86 30, 7.5 30 M7.5 30 C2.5 30, 0 27.5, 0 22.5 M7.5 30 C2.5 30, 0 27.5, 0 22.5 M0 22.5 C0 18.12, 0 13.74, 0 7.5 M0 22.5 C0 19.02, 0 15.55, 0 7.5 M0 7.5 C0 2.5, 2.5 0, 7.5 0 M0 7.5 C0 2.5, 2.5 0, 7.5 0" stroke="#1971c2" stroke-width="1" fill="none"></path></g><g transform="translate(88.70000076293945 273.5) rotate(0 32.36666488647461 10)"><text x="32.36666488647461" y="0" font-family="Virgil, Segoe UI Emoji" font-size="16px" fill="#1971c2" text-anchor="middle" style="white-space: pre;" direction="ltr" dominant-baseline="text-before-edge">Host OS</text></g><g stroke-linecap="round" transform="translate(51.06666564941406 125) rotate(0 69 15)"><path d="M7.5 0 M7.5 0 C44.74 0, 81.98 0, 130.5 0 M7.5 0 C54 0, 100.51 0, 130.5 0 M130.5 0 C135.5 0, 138 2.5, 138 7.5 M130.5 0 C135.5 0, 138 2.5, 138 7.5 M138 7.5 C138 11.55, 138 15.6, 138 22.5 M138 7.5 C138 11.8, 138 16.1, 138 22.5 M138 22.5 C138 27.5, 135.5 30, 130.5 30 M138 22.5 C138 27.5, 135.5 30, 130.5 30 M130.5 30 C98.47 30, 66.45 30, 7.5 30 M130.5 30 C101.71 30, 72.92 30, 7.5 30 M7.5 30 C2.5 30, 0 27.5, 0 22.5 M7.5 30 C2.5 30, 0 27.5, 0 22.5 M0 22.5 C0 17.17, 0 11.84, 0 7.5 M0 22.5 C0 16.99, 0 11.48, 0 7.5 M0 7.5 C0 2.5, 2.5 0, 7.5 0 M0 7.5 C0 2.5, 2.5 0, 7.5 0" stroke="#1971c2" stroke-width="1" fill="none"></path></g><g transform="translate(93.49999809265137 130) rotate(0 26.566667556762695 10)"><text x="26.566667556762695" y="0" font-family="Virgil, Segoe UI Emoji" font-size="16px" fill="#1971c2" text-anchor="middle" style="white-space: pre;" direction="ltr" dominant-baseline="text-before-edge">Library</text></g><g stroke-linecap="round" transform="translate(51.06666564941406 198.5) rotate(0 69 15)"><path d="M7.5 0 M7.5 0 C35.11 0, 62.73 0, 130.5 0 M7.5 0 C52.98 0, 98.46 0, 130.5 0 M130.5 0 C135.5 0, 138 2.5, 138 7.5 M130.5 0 C135.5 0, 138 2.5, 138 7.5 M138 7.5 C138 13.37, 138 19.25, 138 22.5 M138 7.5 C138 11.05, 138 14.6, 138 22.5 M138 22.5 C138 27.5, 135.5 30, 130.5 30 M138 22.5 C138 27.5, 135.5 30, 130.5 30 M130.5 30 C84.69 30, 38.88 30, 7.5 30 M130.5 30 C99.42 30, 68.35 30, 7.5 30 M7.5 30 C2.5 30, 0 27.5, 0 22.5 M7.5 30 C2.5 30, 0 27.5, 0 22.5 M0 22.5 C0 17.42, 0 12.34, 0 7.5 M0 22.5 C0 17.54, 0 12.58, 0 7.5 M0 7.5 C0 2.5, 2.5 0, 7.5 0 M0 7.5 C0 2.5, 2.5 0, 7.5 0" stroke="#1971c2" stroke-width="1" fill="none"></path></g><g transform="translate(81.28333282470703 203.5) rotate(0 38.78333282470703 10)"><text x="38.78333282470703" y="0" font-family="Virgil, Segoe UI Emoji" font-size="16px" fill="#1971c2" text-anchor="middle" style="white-space: pre;" direction="ltr" dominant-baseline="text-before-edge">Guest OS</text></g><g stroke-linecap="round" transform="translate(52.06666564941406 161.5) rotate(0 69 15)"><path d="M7.5 0 M7.5 0 C49.16 0, 90.82 0, 130.5 0 M7.5 0 C37.39 0, 67.27 0, 130.5 0 M130.5 0 C135.5 0, 138 2.5, 138 7.5 M130.5 0 C135.5 0, 138 2.5, 138 7.5 M138 7.5 C138 12.26, 138 17.02, 138 22.5 M138 7.5 C138 11.37, 138 15.25, 138 22.5 M138 22.5 C138 27.5, 135.5 30, 130.5 30 M138 22.5 C138 27.5, 135.5 30, 130.5 30 M130.5 30 C105.79 30, 81.09 30, 7.5 30 M130.5 30 C103.58 30, 76.67 30, 7.5 30 M7.5 30 C2.5 30, 0 27.5, 0 22.5 M7.5 30 C2.5 30, 0 27.5, 0 22.5 M0 22.5 C0 18.61, 0 14.73, 0 7.5 M0 22.5 C0 17.58, 0 12.65, 0 7.5 M0 7.5 C0 2.5, 2.5 0, 7.5 0 M0 7.5 C0 2.5, 2.5 0, 7.5 0" stroke="#1971c2" stroke-width="1" fill="none"></path></g><g transform="translate(80.28333282470703 166.5) rotate(0 40.78333282470703 10)"><text x="40.78333282470703" y="0" font-family="Virgil, Segoe UI Emoji" font-size="16px" fill="#1971c2" text-anchor="middle" style="white-space: pre;" direction="ltr" dominant-baseline="text-before-edge">Application</text></g><g transform="translate(10 10) rotate(0 104.21666717529297 12.5)"><text x="104.21666717529297" y="0" font-family="Virgil, Segoe UI Emoji" font-size="20px" fill="#f08c00" text-anchor="middle" style="white-space: pre;" direction="ltr" dominant-baseline="text-before-edge">Traditional computing</text></g><g stroke-linecap="round" transform="translate(249.06666564941406 89.25) rotate(0 85 69)"><path d="M32 0 M32 0 C62.14 0, 92.28 0, 138 0 M32 0 C73.07 0, 114.13 0, 138 0 M138 0 C159.33 0, 170 10.67, 170 32 M138 0 C159.33 0, 170 10.67, 170 32 M170 32 C170 51.4, 170 70.8, 170 106 M170 32 C170 46.97, 170 61.94, 170 106 M170 106 C170 127.33, 159.33 138, 138 138 M170 106 C170 127.33, 159.33 138, 138 138 M138 138 C103.77 138, 69.53 138, 32 138 M138 138 C97.55 138, 57.1 138, 32 138 M32 138 C10.67 138, 0 127.33, 0 106 M32 138 C10.67 138, 0 127.33, 0 106 M0 106 C0 82.57, 0 59.13, 0 32 M0 106 C0 82.76, 0 59.52, 0 32 M0 32 C0 10.67, 10.67 0, 32 0 M0 32 C0 10.67, 10.67 0, 32 0" stroke="#2f9e44" stroke-width="4" fill="none"></path></g><g transform="translate(272.9333305358887 94.25) rotate(0 61.13333511352539 10)"><text x="61.13333511352539" y="0" font-family="Virgil, Segoe UI Emoji" font-size="16px" fill="#2f9e44" text-anchor="middle" style="white-space: pre;" direction="ltr" dominant-baseline="text-before-edge">Trust boundary</text></g><g stroke-linecap="round" transform="translate(267.06666564941406 369.25) rotate(0 69 25)"><path d="M12.5 0 M12.5 0 C54.7 0, 96.9 0, 125.5 0 M12.5 0 C43.63 0, 74.76 0, 125.5 0 M125.5 0 C133.83 0, 138 4.17, 138 12.5 M125.5 0 C133.83 0, 138 4.17, 138 12.5 M138 12.5 C138 20.6, 138 28.69, 138 37.5 M138 12.5 C138 20.32, 138 28.15, 138 37.5 M138 37.5 C138 45.83, 133.83 50, 125.5 50 M138 37.5 C138 45.83, 133.83 50, 125.5 50 M125.5 50 C84.04 50, 42.58 50, 12.5 50 M125.5 50 C97.15 50, 68.81 50, 12.5 50 M12.5 50 C4.17 50, 0 45.83, 0 37.5 M12.5 50 C4.17 50, 0 45.83, 0 37.5 M0 37.5 C0 31.38, 0 25.27, 0 12.5 M0 37.5 C0 28.4, 0 19.29, 0 12.5 M0 12.5 C0 4.17, 4.17 0, 12.5 0 M0 12.5 C0 4.17, 4.17 0, 12.5 0" stroke="#f08c00" stroke-width="1" fill="none"></path></g><g transform="translate(275.46666717529297 374.25) rotate(0 60.599998474121094 20)"><text x="60.599998474121094" y="0" font-family="Virgil, Segoe UI Emoji" font-size="16px" fill="#f08c00" text-anchor="middle" style="white-space: pre;" direction="ltr" dominant-baseline="text-before-edge">Cloud / On-site</text><text x="60.599998474121094" y="20" font-family="Virgil, Segoe UI Emoji" font-size="16px" fill="#f08c00" text-anchor="middle" style="white-space: pre;" direction="ltr" dominant-baseline="text-before-edge">Infrastructure</text></g><g stroke-linecap="round" transform="translate(268.06666564941406 297.25) rotate(0 69 25)"><path d="M12.5 0 M12.5 0 C48.51 0, 84.52 0, 125.5 0 M12.5 0 C50.7 0, 88.89 0, 125.5 0 M125.5 0 C133.83 0, 138 4.17, 138 12.5 M125.5 0 C133.83 0, 138 4.17, 138 12.5 M138 12.5 C138 18.35, 138 24.21, 138 37.5 M138 12.5 C138 22.24, 138 31.98, 138 37.5 M138 37.5 C138 45.83, 133.83 50, 125.5 50 M138 37.5 C138 45.83, 133.83 50, 125.5 50 M125.5 50 C84.69 50, 43.87 50, 12.5 50 M125.5 50 C94.8 50, 64.1 50, 12.5 50 M12.5 50 C4.17 50, 0 45.83, 0 37.5 M12.5 50 C4.17 50, 0 45.83, 0 37.5 M0 37.5 C0 29.94, 0 22.37, 0 12.5 M0 37.5 C0 30.59, 0 23.67, 0 12.5 M0 12.5 C0 4.17, 4.17 0, 12.5 0 M0 12.5 C0 4.17, 4.17 0, 12.5 0" stroke="#f08c00" stroke-width="1" fill="none"></path></g><g transform="translate(297.3833312988281 302.25) rotate(0 39.68333435058594 20)"><text x="39.68333435058594" y="0" font-family="Virgil, Segoe UI Emoji" font-size="16px" fill="#f08c00" text-anchor="middle" style="white-space: pre;" direction="ltr" dominant-baseline="text-before-edge">BIOS / </text><text x="39.68333435058594" y="20" font-family="Virgil, Segoe UI Emoji" font-size="16px" fill="#f08c00" text-anchor="middle" style="white-space: pre;" direction="ltr" dominant-baseline="text-before-edge">Firmware</text></g><g stroke-linecap="round" transform="translate(267.06666564941406 228.75) rotate(0 69 15)"><path d="M7.5 0 M7.5 0 C33.97 0, 60.44 0, 130.5 0 M7.5 0 C42.37 0, 77.23 0, 130.5 0 M130.5 0 C135.5 0, 138 2.5, 138 7.5 M130.5 0 C135.5 0, 138 2.5, 138 7.5 M138 7.5 C138 10.53, 138 13.56, 138 22.5 M138 7.5 C138 11.33, 138 15.15, 138 22.5 M138 22.5 C138 27.5, 135.5 30, 130.5 30 M138 22.5 C138 27.5, 135.5 30, 130.5 30 M130.5 30 C87.77 30, 45.04 30, 7.5 30 M130.5 30 C85.93 30, 41.37 30, 7.5 30 M7.5 30 C2.5 30, 0 27.5, 0 22.5 M7.5 30 C2.5 30, 0 27.5, 0 22.5 M0 22.5 C0 18.25, 0 14, 0 7.5 M0 22.5 C0 18.81, 0 15.11, 0 7.5 M0 7.5 C0 2.5, 2.5 0, 7.5 0 M0 7.5 C0 2.5, 2.5 0, 7.5 0" stroke="#f08c00" stroke-width="1" fill="none"></path></g><g transform="translate(298 233.75) rotate(0 38.06666564941406 10)"><text x="38.06666564941406" y="0" font-family="Virgil, Segoe UI Emoji" font-size="16px" fill="#f08c00" text-anchor="middle" style="white-space: pre;" direction="ltr" dominant-baseline="text-before-edge">Hypervisor</text></g><g stroke-linecap="round" transform="translate(267.06666564941406 263.25) rotate(0 69 15)"><path d="M7.5 0 M7.5 0 C52.3 0, 97.11 0, 130.5 0 M7.5 0 C52.68 0, 97.86 0, 130.5 0 M130.5 0 C135.5 0, 138 2.5, 138 7.5 M130.5 0 C135.5 0, 138 2.5, 138 7.5 M138 7.5 C138 12.17, 138 16.85, 138 22.5 M138 7.5 C138 12.15, 138 16.81, 138 22.5 M138 22.5 C138 27.5, 135.5 30, 130.5 30 M138 22.5 C138 27.5, 135.5 30, 130.5 30 M130.5 30 C92.27 30, 54.04 30, 7.5 30 M130.5 30 C99.69 30, 68.88 30, 7.5 30 M7.5 30 C2.5 30, 0 27.5, 0 22.5 M7.5 30 C2.5 30, 0 27.5, 0 22.5 M0 22.5 C0 16.61, 0 10.72, 0 7.5 M0 22.5 C0 17.87, 0 13.23, 0 7.5 M0 7.5 C0 2.5, 2.5 0, 7.5 0 M0 7.5 C0 2.5, 2.5 0, 7.5 0" stroke="#f08c00" stroke-width="1" fill="none"></path></g><g transform="translate(303.70000076293945 268.25) rotate(0 32.36666488647461 10)"><text x="32.36666488647461" y="0" font-family="Virgil, Segoe UI Emoji" font-size="16px" fill="#f08c00" text-anchor="middle" style="white-space: pre;" direction="ltr" dominant-baseline="text-before-edge">Host OS</text></g><g stroke-linecap="round" transform="translate(266.06666564941406 193.25) rotate(0 69 15)"><path d="M7.5 0 M7.5 0 C52.73 0, 97.96 0, 130.5 0 M7.5 0 C56.1 0, 104.7 0, 130.5 0 M130.5 0 C135.5 0, 138 2.5, 138 7.5 M130.5 0 C135.5 0, 138 2.5, 138 7.5 M138 7.5 C138 13.15, 138 18.81, 138 22.5 M138 7.5 C138 13.1, 138 18.69, 138 22.5 M138 22.5 C138 27.5, 135.5 30, 130.5 30 M138 22.5 C138 27.5, 135.5 30, 130.5 30 M130.5 30 C88.64 30, 46.78 30, 7.5 30 M130.5 30 C97.79 30, 65.08 30, 7.5 30 M7.5 30 C2.5 30, 0 27.5, 0 22.5 M7.5 30 C2.5 30, 0 27.5, 0 22.5 M0 22.5 C0 16.64, 0 10.77, 0 7.5 M0 22.5 C0 17.28, 0 12.06, 0 7.5 M0 7.5 C0 2.5, 2.5 0, 7.5 0 M0 7.5 C0 2.5, 2.5 0, 7.5 0" stroke="#1971c2" stroke-width="1" fill="none"></path></g><g transform="translate(296.28333282470703 198.25) rotate(0 38.78333282470703 10)"><text x="38.78333282470703" y="0" font-family="Virgil, Segoe UI Emoji" font-size="16px" fill="#1971c2" text-anchor="middle" style="white-space: pre;" direction="ltr" dominant-baseline="text-before-edge">Guest OS</text></g><g stroke-linecap="round" transform="translate(267.06666564941406 156.25) rotate(0 69 15)"><path d="M7.5 0 M7.5 0 C35 0, 62.51 0, 130.5 0 M7.5 0 C46.45 0, 85.4 0, 130.5 0 M130.5 0 C135.5 0, 138 2.5, 138 7.5 M130.5 0 C135.5 0, 138 2.5, 138 7.5 M138 7.5 C138 11.15, 138 14.8, 138 22.5 M138 7.5 C138 10.58, 138 13.67, 138 22.5 M138 22.5 C138 27.5, 135.5 30, 130.5 30 M138 22.5 C138 27.5, 135.5 30, 130.5 30 M130.5 30 C98.1 30, 65.71 30, 7.5 30 M130.5 30 C102.48 30, 74.46 30, 7.5 30 M7.5 30 C2.5 30, 0 27.5, 0 22.5 M7.5 30 C2.5 30, 0 27.5, 0 22.5 M0 22.5 C0 17.68, 0 12.86, 0 7.5 M0 22.5 C0 17.53, 0 12.56, 0 7.5 M0 7.5 C0 2.5, 2.5 0, 7.5 0 M0 7.5 C0 2.5, 2.5 0, 7.5 0" stroke="#1971c2" stroke-width="1" fill="none"></path></g><g transform="translate(295.28333282470703 161.25) rotate(0 40.78333282470703 10)"><text x="40.78333282470703" y="0" font-family="Virgil, Segoe UI Emoji" font-size="16px" fill="#1971c2" text-anchor="middle" style="white-space: pre;" direction="ltr" dominant-baseline="text-before-edge">Application</text></g><g stroke-linecap="round" transform="translate(266.06666564941406 119.25) rotate(0 69 15)"><path d="M7.5 0 M7.5 0 C53.32 0, 99.14 0, 130.5 0 M7.5 0 C43.7 0, 79.9 0, 130.5 0 M130.5 0 C135.5 0, 138 2.5, 138 7.5 M130.5 0 C135.5 0, 138 2.5, 138 7.5 M138 7.5 C138 12.15, 138 16.8, 138 22.5 M138 7.5 C138 11.1, 138 14.7, 138 22.5 M138 22.5 C138 27.5, 135.5 30, 130.5 30 M138 22.5 C138 27.5, 135.5 30, 130.5 30 M130.5 30 C91.74 30, 52.99 30, 7.5 30 M130.5 30 C103.56 30, 76.62 30, 7.5 30 M7.5 30 C2.5 30, 0 27.5, 0 22.5 M7.5 30 C2.5 30, 0 27.5, 0 22.5 M0 22.5 C0 18.01, 0 13.53, 0 7.5 M0 22.5 C0 16.74, 0 10.97, 0 7.5 M0 7.5 C0 2.5, 2.5 0, 7.5 0 M0 7.5 C0 2.5, 2.5 0, 7.5 0" stroke="#1971c2" stroke-width="1" fill="none"></path></g><g transform="translate(308.49999809265137 124.25) rotate(0 26.566667556762695 10)"><text x="26.566667556762695" y="0" font-family="Virgil, Segoe UI Emoji" font-size="16px" fill="#1971c2" text-anchor="middle" style="white-space: pre;" direction="ltr" dominant-baseline="text-before-edge">Library</text></g><g stroke-linecap="round" transform="translate(458.06666564941406 91.5) rotate(0 85 50.5)"><path d="M25.25 0 M25.25 0 C66.91 0, 108.58 0, 144.75 0 M25.25 0 C71.08 0, 116.9 0, 144.75 0 M144.75 0 C161.58 0, 170 8.42, 170 25.25 M144.75 0 C161.58 0, 170 8.42, 170 25.25 M170 25.25 C170 41.06, 170 56.87, 170 75.75 M170 25.25 C170 36.1, 170 46.96, 170 75.75 M170 75.75 C170 92.58, 161.58 101, 144.75 101 M170 75.75 C170 92.58, 161.58 101, 144.75 101 M144.75 101 C97.04 101, 49.34 101, 25.25 101 M144.75 101 C100.58 101, 56.41 101, 25.25 101 M25.25 101 C8.42 101, 0 92.58, 0 75.75 M25.25 101 C8.42 101, 0 92.58, 0 75.75 M0 75.75 C0 59.01, 0 42.28, 0 25.25 M0 75.75 C0 59.53, 0 43.31, 0 25.25 M0 25.25 C0 8.42, 8.42 0, 25.25 0 M0 25.25 C0 8.42, 8.42 0, 25.25 0" stroke="#2f9e44" stroke-width="4" fill="none"></path></g><g transform="translate(481.9333305358887 96.5) rotate(0 61.13333511352539 10)"><text x="61.13333511352539" y="0" font-family="Virgil, Segoe UI Emoji" font-size="16px" fill="#2f9e44" text-anchor="middle" style="white-space: pre;" direction="ltr" dominant-baseline="text-before-edge">Trust boundary</text></g><g stroke-linecap="round" transform="translate(476.06666564941406 371.5) rotate(0 69 25)"><path d="M12.5 0 M12.5 0 C54.94 0, 97.37 0, 125.5 0 M12.5 0 C45.05 0, 77.6 0, 125.5 0 M125.5 0 C133.83 0, 138 4.17, 138 12.5 M125.5 0 C133.83 0, 138 4.17, 138 12.5 M138 12.5 C138 21.31, 138 30.12, 138 37.5 M138 12.5 C138 19.27, 138 26.05, 138 37.5 M138 37.5 C138 45.83, 133.83 50, 125.5 50 M138 37.5 C138 45.83, 133.83 50, 125.5 50 M125.5 50 C100.19 50, 74.89 50, 12.5 50 M125.5 50 C93.4 50, 61.3 50, 12.5 50 M12.5 50 C4.17 50, 0 45.83, 0 37.5 M12.5 50 C4.17 50, 0 45.83, 0 37.5 M0 37.5 C0 30.92, 0 24.34, 0 12.5 M0 37.5 C0 29.23, 0 20.95, 0 12.5 M0 12.5 C0 4.17, 4.17 0, 12.5 0 M0 12.5 C0 4.17, 4.17 0, 12.5 0" stroke="#f08c00" stroke-width="1" fill="none"></path></g><g transform="translate(484.46666717529297 376.5) rotate(0 60.599998474121094 20)"><text x="60.599998474121094" y="0" font-family="Virgil, Segoe UI Emoji" font-size="16px" fill="#f08c00" text-anchor="middle" style="white-space: pre;" direction="ltr" dominant-baseline="text-before-edge">Cloud / On-site</text><text x="60.599998474121094" y="20" font-family="Virgil, Segoe UI Emoji" font-size="16px" fill="#f08c00" text-anchor="middle" style="white-space: pre;" direction="ltr" dominant-baseline="text-before-edge">Infrastructure</text></g><g stroke-linecap="round" transform="translate(477.06666564941406 299.5) rotate(0 69 25)"><path d="M12.5 0 M12.5 0 C40.01 0, 67.53 0, 125.5 0 M12.5 0 C48.17 0, 83.85 0, 125.5 0 M125.5 0 C133.83 0, 138 4.17, 138 12.5 M125.5 0 C133.83 0, 138 4.17, 138 12.5 M138 12.5 C138 21, 138 29.5, 138 37.5 M138 12.5 C138 18.4, 138 24.3, 138 37.5 M138 37.5 C138 45.83, 133.83 50, 125.5 50 M138 37.5 C138 45.83, 133.83 50, 125.5 50 M125.5 50 C89.31 50, 53.13 50, 12.5 50 M125.5 50 C93.73 50, 61.97 50, 12.5 50 M12.5 50 C4.17 50, 0 45.83, 0 37.5 M12.5 50 C4.17 50, 0 45.83, 0 37.5 M0 37.5 C0 28.16, 0 18.82, 0 12.5 M0 37.5 C0 29.6, 0 21.71, 0 12.5 M0 12.5 C0 4.17, 4.17 0, 12.5 0 M0 12.5 C0 4.17, 4.17 0, 12.5 0" stroke="#f08c00" stroke-width="1" fill="none"></path></g><g transform="translate(506.3833312988281 304.5) rotate(0 39.68333435058594 20)"><text x="39.68333435058594" y="0" font-family="Virgil, Segoe UI Emoji" font-size="16px" fill="#f08c00" text-anchor="middle" style="white-space: pre;" direction="ltr" dominant-baseline="text-before-edge">BIOS / </text><text x="39.68333435058594" y="20" font-family="Virgil, Segoe UI Emoji" font-size="16px" fill="#f08c00" text-anchor="middle" style="white-space: pre;" direction="ltr" dominant-baseline="text-before-edge">Firmware</text></g><g stroke-linecap="round" transform="translate(476.06666564941406 231) rotate(0 69 15)"><path d="M7.5 0 M7.5 0 C41.54 0, 75.58 0, 130.5 0 M7.5 0 C35.8 0, 64.1 0, 130.5 0 M130.5 0 C135.5 0, 138 2.5, 138 7.5 M130.5 0 C135.5 0, 138 2.5, 138 7.5 M138 7.5 C138 11.56, 138 15.63, 138 22.5 M138 7.5 C138 12.48, 138 17.45, 138 22.5 M138 22.5 C138 27.5, 135.5 30, 130.5 30 M138 22.5 C138 27.5, 135.5 30, 130.5 30 M130.5 30 C97.13 30, 63.76 30, 7.5 30 M130.5 30 C103.23 30, 75.96 30, 7.5 30 M7.5 30 C2.5 30, 0 27.5, 0 22.5 M7.5 30 C2.5 30, 0 27.5, 0 22.5 M0 22.5 C0 17.2, 0 11.89, 0 7.5 M0 22.5 C0 17.14, 0 11.78, 0 7.5 M0 7.5 C0 2.5, 2.5 0, 7.5 0 M0 7.5 C0 2.5, 2.5 0, 7.5 0" stroke="#f08c00" stroke-width="1" fill="none"></path></g><g transform="translate(507 236) rotate(0 38.06666564941406 10)"><text x="38.06666564941406" y="0" font-family="Virgil, Segoe UI Emoji" font-size="16px" fill="#f08c00" text-anchor="middle" style="white-space: pre;" direction="ltr" dominant-baseline="text-before-edge">Hypervisor</text></g><g stroke-linecap="round" transform="translate(476.06666564941406 265.5) rotate(0 69 15)"><path d="M7.5 0 M7.5 0 C33.56 0, 59.63 0, 130.5 0 M7.5 0 C36.5 0, 65.5 0, 130.5 0 M130.5 0 C135.5 0, 138 2.5, 138 7.5 M130.5 0 C135.5 0, 138 2.5, 138 7.5 M138 7.5 C138 10.8, 138 14.1, 138 22.5 M138 7.5 C138 11.28, 138 15.06, 138 22.5 M138 22.5 C138 27.5, 135.5 30, 130.5 30 M138 22.5 C138 27.5, 135.5 30, 130.5 30 M130.5 30 C104.64 30, 78.77 30, 7.5 30 M130.5 30 C97.27 30, 64.04 30, 7.5 30 M7.5 30 C2.5 30, 0 27.5, 0 22.5 M7.5 30 C2.5 30, 0 27.5, 0 22.5 M0 22.5 C0 17.81, 0 13.12, 0 7.5 M0 22.5 C0 18.43, 0 14.35, 0 7.5 M0 7.5 C0 2.5, 2.5 0, 7.5 0 M0 7.5 C0 2.5, 2.5 0, 7.5 0" stroke="#f08c00" stroke-width="1" fill="none"></path></g><g transform="translate(512.7000007629395 270.5) rotate(0 32.36666488647461 10)"><text x="32.36666488647461" y="0" font-family="Virgil, Segoe UI Emoji" font-size="16px" fill="#f08c00" text-anchor="middle" style="white-space: pre;" direction="ltr" dominant-baseline="text-before-edge">Host OS</text></g><g stroke-linecap="round" transform="translate(475.06666564941406 195.5) rotate(0 69 15)"><path d="M7.5 0 M7.5 0 C45.42 0, 83.34 0, 130.5 0 M7.5 0 C35.87 0, 64.25 0, 130.5 0 M130.5 0 C135.5 0, 138 2.5, 138 7.5 M130.5 0 C135.5 0, 138 2.5, 138 7.5 M138 7.5 C138 13.4, 138 19.3, 138 22.5 M138 7.5 C138 13.33, 138 19.16, 138 22.5 M138 22.5 C138 27.5, 135.5 30, 130.5 30 M138 22.5 C138 27.5, 135.5 30, 130.5 30 M130.5 30 C100.28 30, 70.06 30, 7.5 30 M130.5 30 C87.21 30, 43.93 30, 7.5 30 M7.5 30 C2.5 30, 0 27.5, 0 22.5 M7.5 30 C2.5 30, 0 27.5, 0 22.5 M0 22.5 C0 19.34, 0 16.18, 0 7.5 M0 22.5 C0 17.36, 0 12.23, 0 7.5 M0 7.5 C0 2.5, 2.5 0, 7.5 0 M0 7.5 C0 2.5, 2.5 0, 7.5 0" stroke="#f08c00" stroke-width="1" fill="none"></path></g><g transform="translate(505.28333282470703 200.5) rotate(0 38.78333282470703 10)"><text x="38.78333282470703" y="0" font-family="Virgil, Segoe UI Emoji" font-size="16px" fill="#f08c00" text-anchor="middle" style="white-space: pre;" direction="ltr" dominant-baseline="text-before-edge">Guest OS</text></g><g stroke-linecap="round" transform="translate(476.06666564941406 158.5) rotate(0 69 15)"><path d="M7.5 0 M7.5 0 C53.38 0, 99.26 0, 130.5 0 M7.5 0 C52.31 0, 97.12 0, 130.5 0 M130.5 0 C135.5 0, 138 2.5, 138 7.5 M130.5 0 C135.5 0, 138 2.5, 138 7.5 M138 7.5 C138 12.63, 138 17.77, 138 22.5 M138 7.5 C138 11.76, 138 16.03, 138 22.5 M138 22.5 C138 27.5, 135.5 30, 130.5 30 M138 22.5 C138 27.5, 135.5 30, 130.5 30 M130.5 30 C90.4 30, 50.3 30, 7.5 30 M130.5 30 C86.02 30, 41.54 30, 7.5 30 M7.5 30 C2.5 30, 0 27.5, 0 22.5 M7.5 30 C2.5 30, 0 27.5, 0 22.5 M0 22.5 C0 19.05, 0 15.6, 0 7.5 M0 22.5 C0 17.47, 0 12.44, 0 7.5 M0 7.5 C0 2.5, 2.5 0, 7.5 0 M0 7.5 C0 2.5, 2.5 0, 7.5 0" stroke="#1971c2" stroke-width="1" fill="none"></path></g><g transform="translate(504.28333282470703 163.5) rotate(0 40.78333282470703 10)"><text x="40.78333282470703" y="0" font-family="Virgil, Segoe UI Emoji" font-size="16px" fill="#1971c2" text-anchor="middle" style="white-space: pre;" direction="ltr" dominant-baseline="text-before-edge">Application</text></g><g stroke-linecap="round" transform="translate(475.06666564941406 120.5) rotate(0 69 15)"><path d="M7.5 0 M7.5 0 C54.74 0, 101.98 0, 130.5 0 M7.5 0 C37.08 0, 66.67 0, 130.5 0 M130.5 0 C135.5 0, 138 2.5, 138 7.5 M130.5 0 C135.5 0, 138 2.5, 138 7.5 M138 7.5 C138 13.46, 138 19.41, 138 22.5 M138 7.5 C138 12.38, 138 17.26, 138 22.5 M138 22.5 C138 27.5, 135.5 30, 130.5 30 M138 22.5 C138 27.5, 135.5 30, 130.5 30 M130.5 30 C81.35 30, 32.2 30, 7.5 30 M130.5 30 C81.97 30, 33.45 30, 7.5 30 M7.5 30 C2.5 30, 0 27.5, 0 22.5 M7.5 30 C2.5 30, 0 27.5, 0 22.5 M0 22.5 C0 19.1, 0 15.69, 0 7.5 M0 22.5 C0 18.96, 0 15.42, 0 7.5 M0 7.5 C0 2.5, 2.5 0, 7.5 0 M0 7.5 C0 2.5, 2.5 0, 7.5 0" stroke="#1971c2" stroke-width="1" fill="none"></path></g><g transform="translate(517.4999980926514 125.5) rotate(0 26.566667556762695 10)"><text x="26.566667556762695" y="0" font-family="Virgil, Segoe UI Emoji" font-size="16px" fill="#1971c2" text-anchor="middle" style="white-space: pre;" direction="ltr" dominant-baseline="text-before-edge">Library</text></g><g stroke-linecap="round" transform="translate(655.0666656494141 91) rotate(0 85 31.5)"><path d="M15.75 0 M15.75 0 C55.81 0, 95.87 0, 154.25 0 M15.75 0 C62.37 0, 109 0, 154.25 0 M154.25 0 C164.75 0, 170 5.25, 170 15.75 M154.25 0 C164.75 0, 170 5.25, 170 15.75 M170 15.75 C170 23.25, 170 30.74, 170 47.25 M170 15.75 C170 23.24, 170 30.74, 170 47.25 M170 47.25 C170 57.75, 164.75 63, 154.25 63 M170 47.25 C170 57.75, 164.75 63, 154.25 63 M154.25 63 C117.21 63, 80.17 63, 15.75 63 M154.25 63 C118.3 63, 82.34 63, 15.75 63 M15.75 63 C5.25 63, 0 57.75, 0 47.25 M15.75 63 C5.25 63, 0 57.75, 0 47.25 M0 47.25 C0 36.56, 0 25.87, 0 15.75 M0 47.25 C0 39.75, 0 32.25, 0 15.75 M0 15.75 C0 5.25, 5.25 0, 15.75 0 M0 15.75 C0 5.25, 5.25 0, 15.75 0" stroke="#2f9e44" stroke-width="4" fill="none"></path></g><g transform="translate(678.9333305358887 96) rotate(0 61.13333511352539 10)"><text x="61.13333511352539" y="0" font-family="Virgil, Segoe UI Emoji" font-size="16px" fill="#2f9e44" text-anchor="middle" style="white-space: pre;" direction="ltr" dominant-baseline="text-before-edge">Trust boundary</text></g><g stroke-linecap="round" transform="translate(673.0666656494141 371) rotate(0 69 25)"><path d="M12.5 0 M12.5 0 C36.2 0, 59.9 0, 125.5 0 M12.5 0 C55.25 0, 97.99 0, 125.5 0 M125.5 0 C133.83 0, 138 4.17, 138 12.5 M125.5 0 C133.83 0, 138 4.17, 138 12.5 M138 12.5 C138 21.6, 138 30.71, 138 37.5 M138 12.5 C138 18.6, 138 24.69, 138 37.5 M138 37.5 C138 45.83, 133.83 50, 125.5 50 M138 37.5 C138 45.83, 133.83 50, 125.5 50 M125.5 50 C90.47 50, 55.44 50, 12.5 50 M125.5 50 C80.37 50, 35.23 50, 12.5 50 M12.5 50 C4.17 50, 0 45.83, 0 37.5 M12.5 50 C4.17 50, 0 45.83, 0 37.5 M0 37.5 C0 28.57, 0 19.63, 0 12.5 M0 37.5 C0 32.23, 0 26.95, 0 12.5 M0 12.5 C0 4.17, 4.17 0, 12.5 0 M0 12.5 C0 4.17, 4.17 0, 12.5 0" stroke="#f08c00" stroke-width="1" fill="none"></path></g><g transform="translate(681.466667175293 376) rotate(0 60.599998474121094 20)"><text x="60.599998474121094" y="0" font-family="Virgil, Segoe UI Emoji" font-size="16px" fill="#f08c00" text-anchor="middle" style="white-space: pre;" direction="ltr" dominant-baseline="text-before-edge">Cloud / On-site</text><text x="60.599998474121094" y="20" font-family="Virgil, Segoe UI Emoji" font-size="16px" fill="#f08c00" text-anchor="middle" style="white-space: pre;" direction="ltr" dominant-baseline="text-before-edge">Infrastructure</text></g><g stroke-linecap="round" transform="translate(674.0666656494141 299) rotate(0 69 25)"><path d="M12.5 0 M12.5 0 C54.76 0, 97.03 0, 125.5 0 M12.5 0 C57.3 0, 102.11 0, 125.5 0 M125.5 0 C133.83 0, 138 4.17, 138 12.5 M125.5 0 C133.83 0, 138 4.17, 138 12.5 M138 12.5 C138 19.48, 138 26.46, 138 37.5 M138 12.5 C138 21.87, 138 31.24, 138 37.5 M138 37.5 C138 45.83, 133.83 50, 125.5 50 M138 37.5 C138 45.83, 133.83 50, 125.5 50 M125.5 50 C91.4 50, 57.29 50, 12.5 50 M125.5 50 C102.86 50, 80.23 50, 12.5 50 M12.5 50 C4.17 50, 0 45.83, 0 37.5 M12.5 50 C4.17 50, 0 45.83, 0 37.5 M0 37.5 C0 30.77, 0 24.04, 0 12.5 M0 37.5 C0 30, 0 22.49, 0 12.5 M0 12.5 C0 4.17, 4.17 0, 12.5 0 M0 12.5 C0 4.17, 4.17 0, 12.5 0" stroke="#f08c00" stroke-width="1" fill="none"></path></g><g transform="translate(703.3833312988281 304) rotate(0 39.68333435058594 20)"><text x="39.68333435058594" y="0" font-family="Virgil, Segoe UI Emoji" font-size="16px" fill="#f08c00" text-anchor="middle" style="white-space: pre;" direction="ltr" dominant-baseline="text-before-edge">BIOS / </text><text x="39.68333435058594" y="20" font-family="Virgil, Segoe UI Emoji" font-size="16px" fill="#f08c00" text-anchor="middle" style="white-space: pre;" direction="ltr" dominant-baseline="text-before-edge">Firmware</text></g><g stroke-linecap="round" transform="translate(673.0666656494141 230.5) rotate(0 69 15)"><path d="M7.5 0 M7.5 0 C37.49 0, 67.48 0, 130.5 0 M7.5 0 C34.25 0, 61 0, 130.5 0 M130.5 0 C135.5 0, 138 2.5, 138 7.5 M130.5 0 C135.5 0, 138 2.5, 138 7.5 M138 7.5 C138 12.22, 138 16.94, 138 22.5 M138 7.5 C138 12.23, 138 16.95, 138 22.5 M138 22.5 C138 27.5, 135.5 30, 130.5 30 M138 22.5 C138 27.5, 135.5 30, 130.5 30 M130.5 30 C85.77 30, 41.04 30, 7.5 30 M130.5 30 C83.04 30, 35.59 30, 7.5 30 M7.5 30 C2.5 30, 0 27.5, 0 22.5 M7.5 30 C2.5 30, 0 27.5, 0 22.5 M0 22.5 C0 17.95, 0 13.4, 0 7.5 M0 22.5 C0 18.76, 0 15.02, 0 7.5 M0 7.5 C0 2.5, 2.5 0, 7.5 0 M0 7.5 C0 2.5, 2.5 0, 7.5 0" stroke="#f08c00" stroke-width="1" fill="none"></path></g><g transform="translate(704 235.5) rotate(0 38.06666564941406 10)"><text x="38.06666564941406" y="0" font-family="Virgil, Segoe UI Emoji" font-size="16px" fill="#f08c00" text-anchor="middle" style="white-space: pre;" direction="ltr" dominant-baseline="text-before-edge">Hypervisor</text></g><g stroke-linecap="round" transform="translate(673.0666656494141 265) rotate(0 69 15)"><path d="M7.5 0 M7.5 0 C43.57 0, 79.64 0, 130.5 0 M7.5 0 C45.42 0, 83.34 0, 130.5 0 M130.5 0 C135.5 0, 138 2.5, 138 7.5 M130.5 0 C135.5 0, 138 2.5, 138 7.5 M138 7.5 C138 11.76, 138 16.03, 138 22.5 M138 7.5 C138 10.81, 138 14.12, 138 22.5 M138 22.5 C138 27.5, 135.5 30, 130.5 30 M138 22.5 C138 27.5, 135.5 30, 130.5 30 M130.5 30 C85.46 30, 40.43 30, 7.5 30 M130.5 30 C83.43 30, 36.36 30, 7.5 30 M7.5 30 C2.5 30, 0 27.5, 0 22.5 M7.5 30 C2.5 30, 0 27.5, 0 22.5 M0 22.5 C0 17.9, 0 13.3, 0 7.5 M0 22.5 C0 17.44, 0 12.38, 0 7.5 M0 7.5 C0 2.5, 2.5 0, 7.5 0 M0 7.5 C0 2.5, 2.5 0, 7.5 0" stroke="#f08c00" stroke-width="1" fill="none"></path></g><g transform="translate(709.7000007629395 270) rotate(0 32.36666488647461 10)"><text x="32.36666488647461" y="0" font-family="Virgil, Segoe UI Emoji" font-size="16px" fill="#f08c00" text-anchor="middle" style="white-space: pre;" direction="ltr" dominant-baseline="text-before-edge">Host OS</text></g><g stroke-linecap="round" transform="translate(672.0666656494141 195) rotate(0 69 15)"><path d="M7.5 0 M7.5 0 C32.28 0, 57.06 0, 130.5 0 M7.5 0 C39.36 0, 71.21 0, 130.5 0 M130.5 0 C135.5 0, 138 2.5, 138 7.5 M130.5 0 C135.5 0, 138 2.5, 138 7.5 M138 7.5 C138 13.4, 138 19.3, 138 22.5 M138 7.5 C138 10.52, 138 13.55, 138 22.5 M138 22.5 C138 27.5, 135.5 30, 130.5 30 M138 22.5 C138 27.5, 135.5 30, 130.5 30 M130.5 30 C89.08 30, 47.65 30, 7.5 30 M130.5 30 C90.92 30, 51.35 30, 7.5 30 M7.5 30 C2.5 30, 0 27.5, 0 22.5 M7.5 30 C2.5 30, 0 27.5, 0 22.5 M0 22.5 C0 19.29, 0 16.08, 0 7.5 M0 22.5 C0 19.44, 0 16.38, 0 7.5 M0 7.5 C0 2.5, 2.5 0, 7.5 0 M0 7.5 C0 2.5, 2.5 0, 7.5 0" stroke="#f08c00" stroke-width="1" fill="none"></path></g><g transform="translate(702.283332824707 200) rotate(0 38.78333282470703 10)"><text x="38.78333282470703" y="0" font-family="Virgil, Segoe UI Emoji" font-size="16px" fill="#f08c00" text-anchor="middle" style="white-space: pre;" direction="ltr" dominant-baseline="text-before-edge">Guest OS</text></g><g stroke-linecap="round" transform="translate(673.0666656494141 158) rotate(0 69 15)"><path d="M7.5 0 M7.5 0 C36.86 0, 66.22 0, 130.5 0 M7.5 0 C55.26 0, 103.02 0, 130.5 0 M130.5 0 C135.5 0, 138 2.5, 138 7.5 M130.5 0 C135.5 0, 138 2.5, 138 7.5 M138 7.5 C138 12.5, 138 17.5, 138 22.5 M138 7.5 C138 11.71, 138 15.92, 138 22.5 M138 22.5 C138 27.5, 135.5 30, 130.5 30 M138 22.5 C138 27.5, 135.5 30, 130.5 30 M130.5 30 C85.75 30, 41 30, 7.5 30 M130.5 30 C85.55 30, 40.61 30, 7.5 30 M7.5 30 C2.5 30, 0 27.5, 0 22.5 M7.5 30 C2.5 30, 0 27.5, 0 22.5 M0 22.5 C0 18.4, 0 14.29, 0 7.5 M0 22.5 C0 17.34, 0 12.19, 0 7.5 M0 7.5 C0 2.5, 2.5 0, 7.5 0 M0 7.5 C0 2.5, 2.5 0, 7.5 0" stroke="#f08c00" stroke-width="1" fill="none"></path></g><g transform="translate(701.283332824707 163) rotate(0 40.78333282470703 10)"><text x="40.78333282470703" y="0" font-family="Virgil, Segoe UI Emoji" font-size="16px" fill="#f08c00" text-anchor="middle" style="white-space: pre;" direction="ltr" dominant-baseline="text-before-edge">Application</text></g><g stroke-linecap="round" transform="translate(673.0666656494141 119) rotate(0 69 15)"><path d="M7.5 0 M7.5 0 C38.24 0, 68.99 0, 130.5 0 M7.5 0 C43.01 0, 78.52 0, 130.5 0 M130.5 0 C135.5 0, 138 2.5, 138 7.5 M130.5 0 C135.5 0, 138 2.5, 138 7.5 M138 7.5 C138 11.16, 138 14.83, 138 22.5 M138 7.5 C138 11.95, 138 16.39, 138 22.5 M138 22.5 C138 27.5, 135.5 30, 130.5 30 M138 22.5 C138 27.5, 135.5 30, 130.5 30 M130.5 30 C95.22 30, 59.93 30, 7.5 30 M130.5 30 C83.05 30, 35.6 30, 7.5 30 M7.5 30 C2.5 30, 0 27.5, 0 22.5 M7.5 30 C2.5 30, 0 27.5, 0 22.5 M0 22.5 C0 18.74, 0 14.98, 0 7.5 M0 22.5 C0 17.89, 0 13.29, 0 7.5 M0 7.5 C0 2.5, 2.5 0, 7.5 0 M0 7.5 C0 2.5, 2.5 0, 7.5 0" stroke="#1971c2" stroke-width="1" fill="none"></path></g><g transform="translate(715.4999980926514 124) rotate(0 26.566667556762695 10)"><text x="26.566667556762695" y="0" font-family="Virgil, Segoe UI Emoji" font-size="16px" fill="#1971c2" text-anchor="middle" style="white-space: pre;" direction="ltr" dominant-baseline="text-before-edge">Library</text></g><g transform="translate(236.54999542236328 60.5) rotate(0 95.51667022705078 10)"><text x="95.51667022705078" y="0" font-family="Virgil, Segoe UI Emoji" font-size="16px" fill="#1971c2" text-anchor="middle" style="white-space: pre;" direction="ltr" dominant-baseline="text-before-edge">Virtual Machine isolation</text></g><g transform="translate(464.8833312988281 59.5) rotate(0 77.18333435058594 10)"><text x="77.18333435058594" y="0" font-family="Virgil, Segoe UI Emoji" font-size="16px" fill="#1971c2" text-anchor="middle" style="white-space: pre;" direction="ltr" dominant-baseline="text-before-edge">Application isolation</text></g><g transform="translate(677.0999984741211 58.5) rotate(0 62.96666717529297 10)"><text x="62.96666717529297" y="0" font-family="Virgil, Segoe UI Emoji" font-size="16px" fill="#1971c2" text-anchor="middle" style="white-space: pre;" direction="ltr" dominant-baseline="text-before-edge">Library isolation</text></g><g stroke-linecap="round"><g transform="translate(241.06666564941406 47.5) rotate(0 286.5 0.5)"><path d="M0 0 C95.5 0.17, 477.5 0.83, 573 1 M0 0 C95.5 0.17, 477.5 0.83, 573 1" stroke="#2f9e44" stroke-width="4" fill="none"></path></g></g><mask></mask><g transform="translate(374 12) rotate(0 108.06666564941406 12.5)"><text x="108.06666564941406" y="0" font-family="Virgil, Segoe UI Emoji" font-size="20px" fill="#2f9e44" text-anchor="middle" style="white-space: pre;" direction="ltr" dominant-baseline="text-before-edge">Confidential Computing</text></g><g stroke-linecap="round"><g transform="translate(13.566665649414062 47) rotate(0 100 0)"><path d="M0 0 C33.33 0, 166.67 0, 200 0 M0 0 C33.33 0, 166.67 0, 200 0" stroke="#f08c00" stroke-width="4" fill="none"></path></g></g><mask></mask></svg>